<svg width="37" height="42" viewBox="0 0 37 42" fill="none" xmlns="http://www.w3.org/2000/svg">
<path d="M27.8 7.2V0H29.16V7.2H27.8Z" fill="#1F2937"/>
<path d="M30.659 7.2V0H32.989C33.0456 0 33.1623 0.00166674 33.339 0.00500023C33.5157 0.00833333 33.6857 0.0199999 33.849 0.0400001C34.429 0.11 34.9207 0.311667 35.324 0.645C35.7273 0.978333 36.034 1.40167 36.244 1.915C36.454 2.42833 36.559 2.99 36.559 3.6C36.559 4.21 36.454 4.77167 36.244 5.285C36.034 5.79833 35.7273 6.22167 35.324 6.555C34.9207 6.88833 34.429 7.09 33.849 7.16C33.6857 7.18 33.5157 7.19167 33.339 7.195C33.1623 7.19833 33.0456 7.2 32.989 7.2H30.659ZM32.039 5.92H32.989C33.079 5.92 33.2007 5.91833 33.354 5.915C33.5073 5.90833 33.6457 5.89333 33.769 5.87C34.0823 5.80667 34.3373 5.66 34.534 5.43C34.734 5.2 34.8807 4.92333 34.974 4.6C35.0707 4.27667 35.119 3.94333 35.119 3.6C35.119 3.24 35.069 2.89833 34.969 2.575C34.8723 2.25167 34.724 1.97833 34.524 1.755C34.324 1.53167 34.0723 1.39 33.769 1.33C33.6457 1.30333 33.5073 1.28833 33.354 1.285C33.2007 1.28167 33.079 1.28 32.989 1.28H32.039V5.92Z" fill="#1F2937"/>
<path d="M12.3522 28.791C13.6078 29.3253 14.9502 29.5924 16.3794 29.5924C18.1826 29.5924 19.8055 29.185 21.2481 28.3702C22.704 27.5554 23.8594 26.4334 24.7143 25.0042C25.5825 23.575 26.0166 21.9388 26.0166 20.0955C26.0166 18.3858 25.6493 16.843 24.9146 15.4672C24.1933 14.0781 23.1648 12.9828 21.8291 12.1814C20.8412 11.5787 19.7217 11.1989 18.4707 11.042L25.5958 4.18711V0.2H8.24489V4.18711H20.469L11.651 11.981L13.6145 15.2869C14.0285 15.0732 14.4693 14.8995 14.9368 14.766C15.4177 14.6324 15.8852 14.5656 16.3393 14.5656C17.9422 14.5656 19.2378 15.0865 20.2263 16.1284C21.228 17.1703 21.7289 18.4926 21.7289 20.0955C21.7289 21.164 21.5019 22.1124 21.0477 22.9405C20.5936 23.7553 19.9658 24.4031 19.1644 24.884C18.3629 25.3649 17.4346 25.612 16.3794 25.6253C15.204 25.6387 14.1354 25.3181 13.1737 24.6636C12.212 23.9958 11.5374 23.0407 11.1501 21.7985L7.10286 22.9205C7.51693 24.2829 8.17811 25.465 9.08639 26.4668C10.008 27.4686 11.0966 28.2433 12.3522 28.791Z" fill="#1F2937"/>
<path d="M29.3333 35.5514H3.66667V41.0514H0V31.8848L33 31.8848V41.0514H29.3333V35.5514Z" fill="#1F2937"/>
</svg>
