<svg width="20" height="20" viewBox="0 0 20 20" fill="none" xmlns="http://www.w3.org/2000/svg">
<circle cx="10" cy="10" r="10" fill="#1D9BF0"/>
<path d="M15.0939 7.35892C15.0985 7.46314 15.0985 7.56261 15.0985 7.66682C15.1031 10.8263 12.7818 14.4737 8.53676 14.4737C7.28473 14.4737 6.05554 14.0995 5 13.3984C5.18278 13.4221 5.36556 13.4316 5.54833 13.4316C6.5856 13.4316 7.59545 13.0716 8.41338 12.4037C7.42638 12.3847 6.55818 11.7168 6.2566 10.741C6.60388 10.8121 6.9603 10.7979 7.29844 10.6984C6.22461 10.4805 5.45238 9.49998 5.44781 8.3584C5.44781 8.34893 5.44781 8.33945 5.44781 8.32998C5.76767 8.51472 6.12866 8.61893 6.49421 8.6284C5.48436 7.92735 5.16907 6.52997 5.78138 5.43576C6.95573 6.93261 8.68298 7.83735 10.5382 7.93682C10.3508 7.10787 10.6067 6.23629 11.2053 5.64892C12.1329 4.74418 13.5951 4.79155 14.4725 5.75313C14.9888 5.64892 15.4869 5.44997 15.9393 5.1705C15.7656 5.72471 15.4047 6.19366 14.9249 6.49208C15.3818 6.43524 15.8296 6.30734 16.25 6.11787C15.9393 6.60103 15.5463 7.01787 15.0939 7.35892Z" fill="white"/>
</svg>
