<svg width="36" height="37" viewBox="0 0 36 37" fill="none" xmlns="http://www.w3.org/2000/svg">
<rect x="0.23114" y="0.952332" width="35.4415" height="35.4415" rx="4.72486" fill="#F9FAFB"/>
<path d="M25.5077 27.7738C26.1888 27.7738 26.842 27.5032 27.3235 27.0217C27.805 26.5402 28.0756 25.8869 28.0756 25.2059V17.8692C28.0756 17.0519 27.7508 16.2682 27.173 15.6904C26.5952 15.1124 25.8115 14.7879 24.994 14.7879H11.0478C10.6695 14.7881 10.3059 14.6415 10.0333 14.3789C9.76092 14.1165 9.6011 13.7585 9.58715 13.3805C9.60087 12.9769 9.76906 12.594 10.057 12.3109C10.345 12.028 10.7307 11.8663 11.1346 11.8598H24.9939C25.2663 11.8598 25.5278 11.968 25.7204 12.1606C25.913 12.3532 26.0211 12.6145 26.0211 12.8868V13.2337C26.0211 13.6008 26.2168 13.9397 26.5348 14.1232C26.8525 14.3068 27.244 14.3068 27.5618 14.1232C27.8795 13.9397 28.0754 13.6008 28.0754 13.2337V12.8868C28.0754 12.0696 27.7507 11.2859 27.1729 10.7081C26.595 10.13 25.8113 9.80554 24.9939 9.80554H11.0476C10.1159 9.80717 9.2229 10.1782 8.56414 10.837C7.90539 11.4957 7.53456 12.3888 7.53271 13.3204V23.6651C7.53271 24.7547 7.96562 25.7998 8.73606 26.5703C9.50651 27.3407 10.5517 27.7736 11.6413 27.7736L25.5077 27.7738ZM26.0213 21.951L22.4729 21.9513C22.1909 21.9475 21.963 21.7198 21.9595 21.4376V20.8372C21.9595 20.5537 22.1893 20.3238 22.4729 20.3238H26.0278L26.0213 21.951ZM9.58698 23.6652V16.5221C10.0445 16.7344 10.5433 16.8438 11.0476 16.8421H24.9939C25.2663 16.8421 25.5277 16.9503 25.7203 17.1429C25.9129 17.3355 26.0211 17.5968 26.0211 17.8691V18.2627H22.4727C21.7911 18.2646 21.1379 18.5365 20.6566 19.0192C20.1753 19.5017 19.905 20.1556 19.905 20.8371V21.4575C19.912 22.1345 20.1853 22.7816 20.6659 23.2585C21.1465 23.7354 21.7958 24.0036 22.4727 24.0054H26.0276V25.206L26.0278 25.2058C26.0278 25.4896 25.7978 25.7194 25.5142 25.7194H11.6412C11.0964 25.7194 10.5739 25.503 10.1887 25.1178C9.80321 24.7326 9.5869 24.2099 9.5869 23.665L9.58698 23.6652Z" fill="#6B7280"/>
</svg>
