<svg width="36" height="36" viewBox="0 0 36 36" fill="none" xmlns="http://www.w3.org/2000/svg">
<rect width="35.4415" height="35.4415" rx="4.72486" fill="#F9FAFB"/>
<g clip-path="url(#clip0_8626_21729)">
<path d="M9 13C9 12.4696 9.21071 11.9609 9.58579 11.5858C9.96086 11.2107 10.4696 11 11 11H25C25.5304 11 26.0391 11.2107 26.4142 11.5858C26.7893 11.9609 27 12.4696 27 13V23C27 23.5304 26.7893 24.0391 26.4142 24.4142C26.0391 24.7893 25.5304 25 25 25H11C10.4696 25 9.96086 24.7893 9.58579 24.4142C9.21071 24.0391 9 23.5304 9 23V13Z" stroke="#6B7280" stroke-width="2" stroke-linecap="round" stroke-linejoin="round"/>
<path d="M9 13L18 19L27 13" stroke="#6B7280" stroke-width="2" stroke-linecap="round" stroke-linejoin="round"/>
</g>
<defs>
<clipPath id="clip0_8626_21729">
<rect width="24" height="24" fill="white" transform="translate(6 6)"/>
</clipPath>
</defs>
</svg>
