<svg width="24" height="24" viewBox="0 0 24 24" fill="none" xmlns="http://www.w3.org/2000/svg">
<path fill-rule="evenodd" clip-rule="evenodd" d="M12.1583 6.8824C13.088 6.8824 14.831 5.58999 16.6662 5.77846C17.4343 5.81106 19.5897 6.09449 20.9743 8.15924C20.8637 8.23293 18.4008 9.69399 18.4305 12.7365C18.4617 16.3729 21.5553 17.5803 21.5907 17.5987C21.5624 17.6809 21.0961 19.3219 19.9596 21.0168C18.9775 22.4807 17.96 23.9375 16.3559 23.9673C14.7786 23.9984 14.2713 23.0135 12.4673 23.0135C10.6647 23.0135 10.1021 23.9375 8.60844 23.9984C7.05953 24.058 5.88048 22.4169 4.89131 20.9587C2.86766 17.9728 1.32159 12.5254 3.39768 8.84795C4.42793 7.02129 6.27018 5.86491 8.27116 5.83515C9.79174 5.80681 11.2287 6.8824 12.1583 6.8824ZM17.0969 0C17.2598 1.3817 16.6632 2.76906 15.7832 3.76813C14.8989 4.76579 13.452 5.54238 12.0335 5.4375C11.8422 4.08131 12.5578 2.6727 13.3741 1.78557C14.2867 0.787925 15.8271 0.0481875 17.0969 0Z" fill="black"/>
</svg>
