<svg width="24" height="24" viewBox="0 0 24 24" fill="none" xmlns="http://www.w3.org/2000/svg">
<g clip-path="url(#clip0_8370_21367)">
<path d="M12 24C18.6274 24 24 18.6274 24 12C24 5.37258 18.6274 0 12 0C5.37258 0 0 5.37258 0 12C0 18.6274 5.37258 24 12 24Z" fill="#5865F2"/>
<path d="M16.1585 8.17966C15.3805 7.82257 14.5594 7.56794 13.7159 7.42216C13.7082 7.4207 13.7003 7.4217 13.6932 7.42503C13.6861 7.42836 13.6803 7.43383 13.6765 7.44068C13.5645 7.6437 13.4628 7.85225 13.3718 8.06552C12.4626 7.92744 11.5377 7.92744 10.6285 8.06552C10.5371 7.85172 10.4339 7.64312 10.3196 7.44068C10.3156 7.43398 10.3098 7.42862 10.3027 7.42531C10.2957 7.42201 10.2879 7.42091 10.2802 7.42216C9.43687 7.56771 8.61608 7.82235 7.83847 8.17966C7.83177 8.18248 7.82612 8.18731 7.8223 8.19349C6.26675 10.5178 5.84065 12.7849 6.04972 15.0234C6.05031 15.0289 6.05201 15.0342 6.05471 15.0391C6.05741 15.0439 6.06105 15.0481 6.06542 15.0515C6.97124 15.7225 7.98449 16.2348 9.0619 16.5663C9.06951 16.5686 9.07762 16.5685 9.08516 16.566C9.0927 16.5635 9.09931 16.5588 9.10409 16.5525C9.33543 16.2375 9.54042 15.9041 9.71698 15.5554C9.71939 15.5507 9.72076 15.5454 9.721 15.5401C9.72124 15.5347 9.72035 15.5294 9.71838 15.5244C9.71641 15.5194 9.71341 15.5149 9.70957 15.5112C9.70574 15.5074 9.70115 15.5046 9.69612 15.5027C9.37282 15.3792 9.05981 15.2303 8.76003 15.0574C8.75459 15.0542 8.75002 15.0497 8.74673 15.0443C8.74343 15.0389 8.74152 15.0328 8.74115 15.0265C8.74077 15.0202 8.74196 15.0139 8.7446 15.0082C8.74724 15.0025 8.75125 14.9975 8.75628 14.9936C8.81909 14.9468 8.88214 14.8976 8.94214 14.8479C8.94747 14.8435 8.95391 14.8407 8.96074 14.8398C8.96757 14.8389 8.97452 14.8399 8.98081 14.8427C10.9446 15.7394 13.0709 15.7394 15.0115 14.8427C15.0178 14.8397 15.0249 14.8385 15.0319 14.8393C15.0389 14.8402 15.0454 14.843 15.0509 14.8474C15.1109 14.8969 15.1739 14.9465 15.2384 14.9936C15.2434 14.9974 15.2475 15.0024 15.2502 15.0081C15.2528 15.0138 15.2541 15.0201 15.2537 15.0264C15.2534 15.0327 15.2516 15.0388 15.2483 15.0442C15.2451 15.0496 15.2405 15.0542 15.2351 15.0574C14.9357 15.232 14.6221 15.381 14.2976 15.5027C14.2925 15.5046 14.288 15.5076 14.2841 15.5114C14.2803 15.5152 14.2773 15.5198 14.2754 15.5248C14.2735 15.5299 14.2726 15.5353 14.2729 15.5407C14.2733 15.5461 14.2747 15.5514 14.2772 15.5561C14.4567 15.9029 14.6614 16.2359 14.8896 16.5527C14.8943 16.5592 14.9008 16.5641 14.9084 16.5667C14.916 16.5693 14.9242 16.5694 14.9318 16.567C16.0107 16.2364 17.0253 15.7241 17.9318 15.0522C17.9363 15.049 17.94 15.0449 17.9427 15.0401C17.9454 15.0353 17.947 15.03 17.9475 15.0246C18.1978 12.4361 17.5285 10.1876 16.1733 8.19443C16.1703 8.18792 16.1651 8.18269 16.1585 8.17966ZM10.01 13.6605C9.41862 13.6605 8.93183 13.1177 8.93183 12.4511C8.93183 11.7846 9.40948 11.2418 10.01 11.2418C10.6153 11.2418 11.0979 11.7893 11.0881 12.4511C11.0885 13.1177 10.6107 13.6605 10.01 13.6605ZM13.9974 13.6605C13.406 13.6605 12.9192 13.1177 12.9192 12.4511C12.9192 11.7846 13.3969 11.2418 13.9974 11.2418C14.6028 11.2418 15.0853 11.7893 15.0755 12.4511C15.0757 13.1177 14.6028 13.6605 13.9974 13.6605Z" fill="white"/>
</g>
<defs>
<clipPath id="clip0_8370_21367">
<rect width="24" height="24" fill="white"/>
</clipPath>
</defs>
</svg>
