<svg width="24" height="24" viewBox="0 0 24 24" fill="none" xmlns="http://www.w3.org/2000/svg">
<g clip-path="url(#clip0_8370_21380)">
<path fill-rule="evenodd" clip-rule="evenodd" d="M11.9999 11.7981L4.11197 6.53951C4.27855 6.21896 4.61363 6 4.99988 6H18.9999C19.3861 6 19.7212 6.21896 19.8878 6.53951L11.9999 11.7981ZM19.9999 11.3239V8.86849L12.5546 13.832C12.2187 14.056 11.7811 14.056 11.4452 13.832L3.99988 8.86849V17C3.99988 17.5523 4.44759 18 4.99988 18H12.6759C13.2282 18 13.6759 18.4477 13.6759 19C13.6759 19.5523 13.2282 20 12.6759 20H4.99988C3.34302 20 1.99988 18.6569 1.99988 17V6.99997C1.99988 5.3431 3.34304 4 4.99988 4H18.9999C20.6567 4 21.9999 5.3431 21.9999 6.99997V11.3239C21.9999 11.8762 21.5522 12.3239 20.9999 12.3239C20.4476 12.3239 19.9999 11.8762 19.9999 11.3239Z" fill="#373737"/>
<path d="M21.9718 15.0422C21.9718 19.0986 19.4365 21.1268 18.4225 21.1268C17.4084 21.1268 14.8732 19.0986 14.8732 15.0422C15.8873 15.0422 17.4084 14.5352 18.4225 13.5211C19.4365 14.5352 20.9577 15.0422 21.9718 15.0422Z" stroke="#373737" stroke-width="2" stroke-linecap="round" stroke-linejoin="round"/>
</g>
<defs>
<clipPath id="clip0_8370_21380">
<rect width="24" height="24" fill="white"/>
</clipPath>
</defs>
</svg>
