<svg width="24" height="24" viewBox="0 0 24 24" fill="none" xmlns="http://www.w3.org/2000/svg">
<g clip-path="url(#clip0_8370_21429)">
<path d="M23.5099 11.7495C23.5099 8.63336 22.272 5.64482 20.0686 3.44136C17.8651 1.2379 14.8766 5.01603e-06 11.7604 5.01603e-06C8.80177 -0.00272722 5.95102 1.11082 3.77759 3.11822C1.60416 5.12563 0.268059 7.87909 0.0361669 10.8286C-0.195725 13.7781 0.693668 16.7066 2.52669 19.029C4.35971 21.3513 7.00141 22.8967 9.92411 23.3564V15.1451H6.94309V11.7495H9.92579V9.16127C9.92579 6.21718 11.6798 4.58903 14.3638 4.58903C15.6495 4.58903 16.994 4.81899 16.994 4.81899V7.71105H15.5118C14.0516 7.71105 13.5984 8.61744 13.5984 9.54565V11.7495H16.8563L16.336 15.1451H13.5967V23.3564C16.3603 22.9187 18.8772 21.5093 20.6944 19.3816C22.5116 17.2539 23.51 14.5476 23.5099 11.7495Z" fill="#1877F2"/>
<path d="M16.3343 15.1451L16.8547 11.7495H13.5967V9.54564C13.5967 8.61743 14.0499 7.71104 15.5102 7.71104H16.9923V4.8173C16.9923 4.8173 15.6478 4.58734 14.3621 4.58734C11.6765 4.58734 9.92414 6.21549 9.92414 9.15958V11.7495H6.94312V15.1451H9.92582V23.3564C11.1425 23.5478 12.3817 23.5478 13.5984 23.3564V15.1451H16.3343Z" fill="white"/>
</g>
<defs>
<clipPath id="clip0_8370_21429">
<rect width="24" height="24" fill="white"/>
</clipPath>
</defs>
</svg>
