<svg width="20" height="20" viewBox="0 0 20 20" fill="none" xmlns="http://www.w3.org/2000/svg">
<path fill-rule="evenodd" clip-rule="evenodd" d="M10 1C5.02814 1 1 5.13057 1 10.2285C1 14.3062 3.57914 17.7638 7.15472 18.9845C7.60472 19.0689 7.76929 18.7839 7.76929 18.5397C7.76929 18.3207 7.76157 17.74 7.75643 16.9693C5.25314 17.5276 4.726 15.7328 4.726 15.7328C4.31586 14.6665 3.72571 14.3828 3.72571 14.3828C2.90929 13.81 3.78743 13.8219 3.78743 13.8219C4.69129 13.8879 5.167 14.7721 5.167 14.7721C5.96929 16.1841 7.273 15.775 7.786 15.5401C7.867 14.9436 8.09971 14.5372 8.35686 14.3062C6.35886 14.074 4.258 13.2822 4.258 9.74546C4.258 8.73855 4.609 7.91376 5.18371 7.26976C5.09114 7.03618 4.78257 6.09789 5.27371 4.82837C5.27371 4.82837 6.02714 4.57895 7.74743 5.77325C8.48162 5.56794 9.23905 5.46322 10 5.46181C10.765 5.46577 11.5351 5.56738 12.2539 5.77325C13.9716 4.57895 14.7263 4.82705 14.7263 4.82705C15.2174 6.09789 14.9089 7.03618 14.8163 7.26844C15.3923 7.91508 15.742 8.73855 15.742 9.74546C15.742 13.2901 13.636 14.0713 11.6316 14.2983C11.9543 14.5834 12.2423 15.1469 12.2423 16.0086C12.2423 17.2412 12.2307 18.2362 12.2307 18.5397C12.2307 18.7865 12.394 19.0729 12.8504 18.9832C14.6406 18.3705 16.1977 17.1954 17.3014 15.6242C18.405 14.053 18.9993 12.1654 19 10.2285C18.9986 7.77975 18.0497 5.43187 16.3619 3.70123C14.6741 1.9706 12.3857 0.998951 10 1Z" fill="currentColor"/>
</svg>
