<svg width="24" height="24" viewBox="0 0 24 24" fill="none" xmlns="http://www.w3.org/2000/svg">
<path fill-rule="evenodd" clip-rule="evenodd" d="M12 1.5C6.1995 1.5 1.5 6.195 1.5 11.9895C1.5 16.6245 4.509 20.5545 8.6805 21.942C9.2055 22.038 9.3975 21.714 9.3975 21.4365C9.3975 21.1875 9.3885 20.5275 9.3825 19.6515C6.462 20.286 5.847 18.246 5.847 18.246C5.3685 17.034 4.68 16.7115 4.68 16.7115C3.7275 16.0605 4.752 16.074 4.752 16.074C5.8065 16.149 6.3615 17.154 6.3615 17.154C7.2975 18.759 8.8185 18.294 9.417 18.027C9.5115 17.349 9.783 16.887 10.083 16.6245C7.752 16.3605 5.301 15.4605 5.301 11.4405C5.301 10.296 5.7105 9.3585 6.381 8.6265C6.273 8.361 5.913 7.2945 6.486 5.8515C6.486 5.8515 7.365 5.568 9.372 6.9255C10.2286 6.69213 11.1122 6.5731 12 6.5715C12.8925 6.576 13.791 6.6915 14.6295 6.9255C16.6335 5.568 17.514 5.85 17.514 5.85C18.087 7.2945 17.727 8.361 17.619 8.625C18.291 9.36 18.699 10.296 18.699 11.4405C18.699 15.4695 16.242 16.3575 13.9035 16.6155C14.28 16.9395 14.616 17.58 14.616 18.5595C14.616 19.9605 14.6025 21.0915 14.6025 21.4365C14.6025 21.717 14.793 22.0425 15.3255 21.9405C17.4141 21.2441 19.2307 19.9084 20.5183 18.1226C21.8058 16.3367 22.4991 14.1911 22.5 11.9895C22.4984 9.20618 21.3913 6.53747 19.4222 4.57035C17.4531 2.60323 14.7833 1.49881 12 1.5Z" fill="#161514"/>
</svg>
