<svg width="34" height="38" viewBox="0 0 34 38" fill="none" xmlns="http://www.w3.org/2000/svg">
<path fill-rule="evenodd" clip-rule="evenodd" d="M1.75736 1.75736C2.88258 0.632141 4.4087 0 6 0H26C27.0609 0 28.0783 0.421427 28.8284 1.17157C29.5786 1.92172 30 2.93914 30 4V8C31.0609 8 32.0783 8.42143 32.8284 9.17157C33.5786 9.92172 34 10.9391 34 12V15C34 16.1046 33.1046 17 32 17C30.8954 17 30 16.1046 30 15V12H28H6C5.31211 12 4.63641 11.8819 4 11.6569V30C4 30.5304 4.21071 31.0391 4.58579 31.4142C4.96086 31.7893 5.46957 32 6 32H21C22.1046 32 23 32.8954 23 34C23 35.1046 22.1046 36 21 36H6C4.4087 36 2.88258 35.3679 1.75736 34.2426C0.632141 33.1174 0 31.5913 0 30V6C0 4.4087 0.632141 2.88258 1.75736 1.75736ZM4 6C4 6.53043 4.21071 7.03914 4.58579 7.41421C4.96086 7.78929 5.46957 8 6 8H26V4H6C5.46957 4 4.96086 4.21071 4.58579 4.58579C4.21071 4.96086 4 5.46957 4 6ZM29.7889 20.8944C30.2828 19.9064 29.8824 18.7051 28.8944 18.2111C27.9065 17.7171 26.7051 18.1176 26.2111 19.1055L22.2111 27.1055C21.9012 27.7255 21.9343 28.4618 22.2987 29.0514C22.6631 29.641 23.3068 30 24 30H28.7639L26.2111 35.1055C25.7172 36.0935 26.1176 37.2948 27.1056 37.7888C28.0935 38.2828 29.2949 37.8823 29.7889 36.8944L33.7889 28.8944C34.0988 28.2744 34.0657 27.5381 33.7013 26.9485C33.3369 26.3589 32.6932 26 32 26H27.2361L29.7889 20.8944Z" fill="#4B5563"/>
</svg>
