<svg width="21" height="20" viewBox="0 0 21 20" fill="none" xmlns="http://www.w3.org/2000/svg">
<circle cx="10.5" cy="10" r="10" fill="#1D9BF0"/>
<path d="M15.5939 7.35892C15.5985 7.46314 15.5985 7.56261 15.5985 7.66682C15.6031 10.8263 13.2818 14.4737 9.03676 14.4737C7.78473 14.4737 6.55554 14.0995 5.5 13.3984C5.68278 13.4221 5.86556 13.4316 6.04833 13.4316C7.0856 13.4316 8.09545 13.0716 8.91338 12.4037C7.92638 12.3847 7.05818 11.7168 6.7566 10.741C7.10388 10.8121 7.4603 10.7979 7.79844 10.6984C6.72461 10.4805 5.95238 9.49998 5.94781 8.3584C5.94781 8.34893 5.94781 8.33945 5.94781 8.32998C6.26767 8.51472 6.62866 8.61893 6.99421 8.6284C5.98436 7.92735 5.66907 6.52997 6.28138 5.43576C7.45573 6.93261 9.18298 7.83735 11.0382 7.93682C10.8508 7.10787 11.1067 6.23629 11.7053 5.64892C12.6329 4.74418 14.0951 4.79155 14.9725 5.75313C15.4888 5.64892 15.9869 5.44997 16.4393 5.1705C16.2656 5.72471 15.9047 6.19366 15.4249 6.49208C15.8818 6.43524 16.3296 6.30734 16.75 6.11787C16.4393 6.60103 16.0463 7.01787 15.5939 7.35892Z" fill="white"/>
</svg>
