<svg width="24" height="24" viewBox="0 0 24 24" fill="none" xmlns="http://www.w3.org/2000/svg">
<g clip-path="url(#clip0_8370_21370)">
<path d="M12 24C18.6274 24 24 18.6274 24 12C24 5.37258 18.6274 0 12 0C5.37258 0 0 5.37258 0 12C0 18.6274 5.37258 24 12 24Z" fill="#1DA1F2"/>
<path fill-rule="evenodd" clip-rule="evenodd" d="M19.5 8.302C18.9853 8.52308 18.4314 8.67197 17.8505 8.7392C18.4435 8.39539 18.899 7.85132 19.1131 7.20303C18.5588 7.52151 17.9433 7.75207 17.2896 7.87704C16.7655 7.33748 16.0184 7 15.193 7C13.6069 7 12.3208 8.2434 12.3208 9.77686C12.3208 9.99427 12.3465 10.2063 12.3955 10.4098C10.0082 10.2943 7.89196 9.18852 6.47527 7.50843C6.22794 7.91855 6.08654 8.3954 6.08654 8.90433C6.08654 9.86755 6.59287 10.7175 7.36422 11.2156C6.89288 11.2011 6.45054 11.0762 6.06274 10.8682V10.9029C6.06274 12.2487 7.05342 13.3707 8.36656 13.6265C8.12576 13.6897 7.87189 13.724 7.61015 13.724C7.42488 13.724 7.24475 13.7064 7.06928 13.6739C7.43468 14.777 8.49582 15.58 9.75244 15.6026C8.7697 16.347 7.53128 16.7913 6.18548 16.7913C5.95308 16.7913 5.72447 16.7783 5.5 16.7521C6.77114 17.5399 8.28069 18 9.90271 18C15.1855 18 18.0744 13.7686 18.0744 10.0994C18.0744 9.97893 18.0721 9.85897 18.0661 9.74031C18.6279 9.34779 19.115 8.85876 19.5 8.302Z" fill="white"/>
</g>
<defs>
<clipPath id="clip0_8370_21370">
<rect width="24" height="24" fill="white"/>
</clipPath>
</defs>
</svg>
