<svg width="16" height="16" viewBox="0 0 16 16" fill="none" xmlns="http://www.w3.org/2000/svg">
<path fill-rule="evenodd" clip-rule="evenodd" d="M0 0C0.941779 0.413668 1.83052 0.837385 2.74383 1.19523C3.62141 1.53967 4.52132 1.82773 5.41788 2.12193C5.80866 2.25033 6.23572 1.91259 6.29211 1.44588C6.33063 1.12656 6.34403 0.803889 6.37082 0.460562C7.06976 0.900468 7.77428 1.3454 8.47935 1.78754C10.0458 2.77007 11.6201 3.74143 13.1782 4.73569C14.5096 5.58647 15.3844 6.7817 15.7825 8.32025C16.2525 10.1357 15.9617 11.83 14.9015 13.3608C13.9335 14.7564 12.5954 15.6278 10.896 15.8952C8.68479 16.243 6.7884 15.6189 5.26882 13.9776C4.60171 13.2564 4.02838 12.448 3.41318 11.6782C2.75276 10.8508 2.0929 10.0229 1.41909 9.17829C1.82661 9.30334 2.20455 9.44235 2.59422 9.53C2.80138 9.5733 3.01574 9.56814 3.22058 9.51492C3.395 9.45669 3.77549 9.11744 3.62532 8.72164C3.16643 7.50743 2.72094 6.28708 2.21684 5.09297C1.5179 3.43495 0.770951 1.79926 0.0446598 0.150171C0.0307034 0.115559 0.0234468 0.0798307 0 0ZM10.0888 5.88235C7.76423 5.87509 5.85388 7.76479 5.81703 10.0486C5.77963 12.3899 7.74413 14.4119 10.1748 14.3561C12.5636 14.3003 14.2422 12.3989 14.3327 10.2842C14.4415 7.74804 12.2816 5.84104 10.0888 5.88235Z" fill="#9CA3AF"/>
</svg>
