<svg xmlns="http://www.w3.org/2000/svg" xmlns:xlink="http://www.w3.org/1999/xlink" viewBox="0 0 132 36.96"><defs><style>.cls-1{fill:none;}.cls-2{clip-path:url(#clip-path);}.cls-3{fill:#818cf8;fill-rule:evenodd;}.cls-4{fill:#f9fafb;}</style><clipPath id="clip-path" transform="translate(-6.35 -5.96)"><rect class="cls-1" width="139.08" height="50"/></clipPath></defs><g id="Layer_2" data-name="Layer 2"><g id="Layer_1-2" data-name="Layer 1"><g class="cls-2"><path class="cls-3" d="M6.35,6c2.18,1,4.23,1.94,6.34,2.77s4.11,1.46,6.19,2.14a1.68,1.68,0,0,0,2-1.56C21,8.57,21,7.82,21.08,7L26,10.1c3.62,2.27,7.26,4.51,10.87,6.81a13.59,13.59,0,0,1,6,8.29,13.66,13.66,0,0,1-2,11.65,13.42,13.42,0,0,1-9.26,5.86,13.84,13.84,0,0,1-13-4.43C17,36.61,15.66,34.74,14.24,33L9.63,27.18c.94.29,1.82.61,2.72.82a3.09,3.09,0,0,0,1.45,0,1.55,1.55,0,0,0,.93-1.83c-1.06-2.81-2.09-5.63-3.26-8.39-1.61-3.83-3.34-7.62-5-11.43C6.42,6.23,6.4,6.15,6.35,6Zm23.32,13.6a9.8,9.8,0,1,0,9.82,10.18A9.88,9.88,0,0,0,29.67,19.56Z" transform="translate(-6.35 -5.96)"/><path class="cls-4" d="M64.27,40H60.2l-6.47-7.28V40h-3.4V17.89h3.4V31.16l6.12-7H64l-6.94,7.73Zm12.3-15.77H80V40H76.57V38a5.36,5.36,0,0,1-4.89,2.42,5.79,5.79,0,0,1-4.38-1.73,6.59,6.59,0,0,1-1.67-4.76V24.19H69v9.34a3.66,3.66,0,0,0,1,2.71,3.5,3.5,0,0,0,2.59.95,3.94,3.94,0,0,0,2.9-1.1,4.8,4.8,0,0,0,1.1-3.44Zm16.32-.41a7.43,7.43,0,0,1,5.55,2.4,8.22,8.22,0,0,1,2.3,5.9,8.29,8.29,0,0,1-2.3,5.9,7.42,7.42,0,0,1-5.55,2.39,6.37,6.37,0,0,1-5.52-2.68V40H84V17.89h3.41v8.54A6.42,6.42,0,0,1,92.89,23.78Zm-4.1,11.93a5.19,5.19,0,0,0,7.13,0,5,5,0,0,0,1.42-3.63,4.91,4.91,0,0,0-1.42-3.6,5.11,5.11,0,0,0-7.13,0,4.88,4.88,0,0,0-1.42,3.6A5,5,0,0,0,88.79,35.71Zm17.72-2.18a4.39,4.39,0,0,0,1.74,2.78,5.62,5.62,0,0,0,3.31.94,4.63,4.63,0,0,0,4.07-2l2.8,1.64a7.8,7.8,0,0,1-6.9,3.43A8.46,8.46,0,0,1,105.31,38a8.1,8.1,0,0,1-2.36-6,8.09,8.09,0,0,1,8.32-8.3A7.32,7.32,0,0,1,117,26.21a8.41,8.41,0,0,1,2.24,5.9,9.73,9.73,0,0,1-.13,1.42Zm0-2.78h9.27a4.4,4.4,0,0,0-4.51-3.87,4.75,4.75,0,0,0-3.15,1A4.69,4.69,0,0,0,106.48,30.75ZM122.19,40v-23h3.4V40Zm16.16-12.49h-3.91V35a2,2,0,0,0,.44,1.42,2.06,2.06,0,0,0,1.29.48c.59,0,1.32,0,2.18,0V40q-3.91.48-5.61-.66C131.6,38.52,131,37.11,131,35V27.47h-2.9V24.19H131v-3.4l3.41-1v4.41h3.91Z" transform="translate(-6.35 -5.96)"/></g></g></g></svg>