<svg width="8" height="10" viewBox="0 0 8 10" fill="none" xmlns="http://www.w3.org/2000/svg">
<path d="M0.937178 1.8116C0.758991 1.62153 0.672483 1.38643 0.693535 1.14944C0.714588 0.912458 0.841787 0.689501 1.05178 0.521505C1.26178 0.353509 1.54047 0.251748 1.8367 0.234906C2.13294 0.218064 2.42682 0.287271 2.6644 0.429821L7.59933 4.37776C7.82538 4.56226 7.952 4.81031 7.952 5.06865C7.952 5.327 7.82538 5.57505 7.59933 5.75954L2.6644 9.70749C2.42682 9.85004 2.13294 9.91924 1.8367 9.9024C1.54047 9.88556 1.26178 9.7838 1.05178 9.6158C0.841787 9.44781 0.714588 9.22485 0.693535 8.98786C0.672483 8.75088 0.758991 8.51577 0.937178 8.32571L4.99616 5.06865L0.92484 1.8116H0.937178Z" fill="#F9FAFB"/>
</svg>
