<svg xmlns="http://www.w3.org/2000/svg" viewBox="0 0 256 198.17"><defs><style>.cls-1{fill:#fff;}</style></defs><g id="Layer_2" data-name="Layer 2"><g id="Layer_1-2" data-name="Layer 1"><path class="cls-1" d="M216.86,16.6A208.25,208.25,0,0,0,164,0a155.26,155.26,0,0,0-6.76,14.05,193.42,193.42,0,0,0-58.54,0A150.69,150.69,0,0,0,91.9,0,207.57,207.57,0,0,0,39,16.64C5.62,67.15-3.44,116.4,1.09,165a211.25,211.25,0,0,0,64.77,33.19A161.19,161.19,0,0,0,79.74,175.3a136.21,136.21,0,0,1-21.85-10.63c1.83-1.36,3.62-2.78,5.35-4.24,42.13,19.7,87.89,19.7,129.51,0,1.76,1.46,3.55,2.88,5.36,4.24a136.66,136.66,0,0,1-21.89,10.65,160.47,160.47,0,0,0,13.88,22.85A210.84,210.84,0,0,0,254.91,165C260.23,108.67,245.83,59.87,216.86,16.6ZM85.47,135.09c-12.64,0-23-11.8-23-26.18s10.15-26.2,23-26.2,23.24,11.81,23,26.2C108.51,123.29,98.34,135.09,85.47,135.09Zm85.06,0c-12.65,0-23-11.8-23-26.18s10.15-26.2,23-26.2,23.23,11.81,23,26.2C193.54,123.29,183.39,135.09,170.53,135.09Z"/></g></g></svg>