<svg width="1341" height="234" viewBox="0 0 1341 234" fill="none" xmlns="http://www.w3.org/2000/svg">
<g opacity="0.75">
<mask id="path-1-inside-1_111_2161" fill="white">
<path fill-rule="evenodd" clip-rule="evenodd" d="M1217.24 141.974C1240.64 151.591 1267.51 140.642 1277.48 117.296C1277.56 117.101 1277.65 116.906 1277.73 116.71C1277.73 116.71 1277.73 116.709 1277.73 116.708C1277.73 116.707 1277.73 116.705 1277.73 116.704C1277.73 116.701 1277.73 116.698 1277.73 116.694C1287.27 93.4876 1276.59 66.8836 1253.65 56.7118C1253.65 56.7079 1253.65 56.7053 1253.65 56.7041C1253.64 56.703 1253.64 56.7031 1253.64 56.7046C1253.44 56.619 1253.25 56.5345 1253.05 56.4512C1229.71 46.4799 1202.73 57.1453 1192.47 80.278C1192.47 80.2796 1192.46 80.2818 1192.46 80.2846C1192.46 80.2873 1192.46 80.2906 1192.46 80.2944C1192.38 80.4877 1192.29 80.6818 1192.21 80.8768C1182.15 104.424 1193.09 131.665 1216.64 141.722C1216.83 141.805 1217.03 141.887 1217.22 141.967C1217.22 141.971 1217.22 141.973 1217.23 141.975C1217.23 141.976 1217.23 141.976 1217.24 141.974ZM1226.49 143.388C1243.68 146.648 1261.35 139.558 1271.51 125.315C1265.91 130.097 1257.71 132.698 1248.4 132.841C1241.57 139.175 1233.85 142.968 1226.49 143.388ZM1217.6 140.702C1217.44 140.656 1217.29 140.601 1217.14 140.537C1215.7 139.921 1214.51 138.376 1213.78 135.673C1213.05 132.987 1212.85 129.376 1213.2 125.047C1213.27 124.285 1213.35 123.504 1213.44 122.704C1216.32 124.488 1219.41 126.105 1222.71 127.51C1222.76 127.531 1222.81 127.553 1222.86 127.574C1220.24 133.917 1218.37 138.579 1217.6 140.702ZM1252.99 57.8567C1252.84 57.7729 1252.7 57.6993 1252.55 57.6355C1251.1 57.0189 1249.17 57.2276 1246.71 58.5694C1244.27 59.9022 1241.52 62.2517 1238.64 65.5011C1238.13 66.0731 1237.62 66.6712 1237.11 67.2944C1240.38 68.1379 1243.69 69.2576 1246.98 70.6629C1247.03 70.6844 1247.09 70.7059 1247.14 70.7275C1249.91 64.4516 1251.98 59.8784 1252.99 57.8567ZM1253.25 58.0248C1252.47 60.17 1250.61 64.8129 1248.01 71.1126C1250.92 72.4097 1253.67 73.8723 1256.25 75.4693C1256.34 74.6691 1256.42 73.8873 1256.49 73.1255C1256.84 68.7973 1256.64 65.1855 1255.91 62.5002C1255.3 60.2499 1254.38 58.8025 1253.25 58.0248ZM1246.62 71.9057C1246.57 71.8862 1246.52 71.8667 1246.48 71.8473C1243.06 70.3853 1239.62 69.2401 1236.22 68.3986C1233.59 71.7441 1230.93 75.7347 1228.38 80.2282C1232.43 81.4998 1236.65 83.0514 1240.91 84.8747C1240.93 84.8795 1240.94 84.8843 1240.95 84.8891C1243.02 80.1052 1244.93 75.7198 1246.62 71.9057ZM1241.56 86.558C1239.98 90.3121 1238.29 94.2889 1236.53 98.4081C1240.65 100.169 1244.62 101.875 1248.36 103.492C1250 99.5647 1251.4 95.6997 1252.56 91.9768C1249.14 90.0883 1245.46 88.264 1241.56 86.558ZM1235.35 97.9022C1237.11 93.7826 1238.82 89.8123 1240.44 86.071C1240.43 86.067 1240.42 86.063 1240.41 86.059C1236.08 84.2115 1231.82 82.6483 1227.74 81.3762C1225.85 84.7873 1224.02 88.4709 1222.32 92.3684C1226.43 94.1033 1230.81 95.9625 1235.35 97.9022C1235.35 97.9022 1235.35 97.9022 1235.35 97.9022ZM1234.84 99.0864C1230.3 97.1459 1225.93 95.2663 1221.83 93.4942L1221.82 93.5224C1219.97 97.8479 1218.41 102.108 1217.13 106.196C1220.88 108.27 1224.96 110.266 1229.28 112.114C1229.29 112.118 1229.3 112.122 1229.31 112.126C1231.04 108.012 1232.9 103.63 1234.84 99.0864ZM1229.93 113.785C1227.86 118.567 1225.94 122.951 1224.26 126.765C1227.34 128.019 1230.42 129.019 1233.47 129.774C1236.1 126.429 1238.76 122.438 1241.31 117.945C1237.62 116.788 1233.8 115.399 1229.93 113.785ZM1223.74 127.943C1226.69 129.147 1229.65 130.123 1232.58 130.878C1232.07 131.502 1231.56 132.1 1231.05 132.672C1228.17 135.921 1225.42 138.271 1222.98 139.603C1220.94 140.72 1219.25 141.052 1217.91 140.776C1218.92 138.731 1220.99 134.176 1223.74 127.943ZM1228.81 113.313C1228.8 113.308 1228.79 113.303 1228.77 113.298C1224.51 111.475 1220.47 109.505 1216.75 107.455C1215.27 112.406 1214.22 117.085 1213.63 121.299C1216.58 123.171 1219.79 124.864 1223.21 126.326C1223.26 126.345 1223.3 126.364 1223.35 126.384C1224.94 122.532 1226.78 118.116 1228.81 113.313ZM1236.03 99.5922C1236.03 99.5923 1236.03 99.5922 1236.03 99.5922C1234.09 104.134 1232.21 108.505 1230.44 112.602C1234.37 114.238 1238.23 115.638 1241.95 116.797C1244.03 113.051 1246.02 108.976 1247.87 104.65L1247.88 104.622C1244.13 103.038 1240.15 101.35 1236.03 99.5922ZM1247.52 72.3034C1245.93 76.1546 1244.09 80.5688 1242.06 85.3712C1245.91 87.0537 1249.55 88.8526 1252.94 90.7179C1254.42 85.7667 1255.47 81.0876 1256.06 76.8734C1253.41 75.1936 1250.56 73.6576 1247.52 72.3034ZM1212.44 120.528C1213.07 116.321 1214.13 111.69 1215.6 106.813C1211.16 104.307 1207.2 101.693 1203.83 99.0898C1202.83 103.571 1202.35 107.962 1202.37 112.122C1205.23 115.144 1208.61 117.986 1212.44 120.528ZM1220.63 93.0165L1220.65 92.9828C1215.86 90.9118 1211.48 88.9973 1207.66 87.3159L1207.61 87.4525C1206.14 90.8754 1205 94.3148 1204.16 97.7106C1207.5 100.342 1211.49 102.999 1215.99 105.552C1217.26 101.497 1218.81 97.2855 1220.63 93.0165ZM1221.13 91.8681C1222.81 88.0231 1224.61 84.379 1226.48 80.992C1221.53 79.511 1216.85 78.4655 1212.63 77.8681C1210.95 80.5215 1209.42 83.376 1208.06 86.4083C1211.91 88.0009 1216.33 89.8447 1221.13 91.8681ZM1227.12 79.8404C1229.62 75.405 1232.24 71.4381 1234.84 68.0729C1230.36 67.067 1225.97 66.591 1221.81 66.6147C1218.79 69.4742 1215.94 72.8539 1213.4 76.6792C1217.61 77.3102 1222.24 78.3688 1227.12 79.8404ZM1235.72 66.9543C1240.26 61.3191 1244.73 57.5645 1248.49 56.4004C1242.13 55.1854 1235.07 57.0258 1228.33 61.4325C1226.59 62.5703 1224.88 63.8758 1223.21 65.3373C1227.24 65.4197 1231.45 65.9515 1235.72 66.9543ZM1203.14 120.414C1204.61 128.329 1208.16 134.702 1213.45 138.462C1211.68 134.938 1211.31 129.115 1212.24 121.94C1208.56 119.543 1205.26 116.869 1202.42 114.017C1202.51 116.231 1202.76 118.37 1203.14 120.414ZM1241.36 136.74C1234.62 141.147 1227.56 142.987 1221.2 141.772C1224.96 140.608 1229.43 136.854 1233.97 131.219C1238.24 132.221 1242.45 132.753 1246.48 132.835C1244.81 134.297 1243.1 135.603 1241.36 136.74ZM1247.88 131.558C1243.72 131.582 1239.33 131.106 1234.85 130.1C1237.45 126.735 1240.07 122.768 1242.57 118.332C1247.45 119.804 1252.08 120.863 1256.29 121.494C1253.74 125.319 1250.9 128.699 1247.88 131.558ZM1257.06 120.305C1252.84 119.707 1248.16 118.662 1243.21 117.181C1245.26 113.458 1247.23 109.425 1249.06 105.156L1249.07 105.123C1253.87 107.147 1258.29 108.991 1262.14 110.584L1262.08 110.72C1260.62 114.143 1258.93 117.349 1257.06 120.305ZM1262.52 109.669C1258.71 107.988 1254.33 106.074 1249.54 104.003C1251.16 100.129 1252.55 96.3101 1253.7 92.6207C1258.2 95.1735 1262.19 97.8309 1265.53 100.462C1264.78 103.51 1263.78 106.594 1262.52 109.669ZM1265.86 99.0831C1262.49 96.4797 1258.53 93.8661 1254.09 91.3603C1255.56 86.4832 1256.62 81.8521 1257.25 77.6445C1261.08 80.1864 1264.46 83.029 1267.32 86.051C1267.34 90.2113 1266.86 94.6018 1265.86 99.0831ZM1267.27 84.1555C1264.43 81.3033 1261.13 78.6299 1257.45 76.2333C1258.38 69.058 1258.01 63.2352 1256.24 59.7108C1261.53 63.471 1265.08 69.8439 1266.55 77.759C1266.93 79.8026 1267.18 81.9422 1267.27 84.1555ZM1201.09 112.637C1201.23 121.947 1203.83 130.15 1208.62 135.754C1194.37 125.587 1187.28 107.926 1190.54 90.7322C1190.96 98.0878 1194.76 105.812 1201.09 112.637ZM1202.71 98.207C1201.71 102.484 1201.18 106.694 1201.1 110.721C1199.63 109.056 1198.33 107.344 1197.19 105.604C1192.78 98.8653 1190.94 91.8053 1192.16 85.4374C1193.32 89.2018 1197.08 93.6682 1202.71 98.207ZM1206.49 86.7959L1206.42 86.9467C1205.02 90.2371 1203.9 93.5466 1203.05 96.8239C1202.43 96.3127 1201.83 95.803 1201.26 95.2959C1198.01 92.4148 1195.66 89.664 1194.33 87.2225C1192.99 84.7648 1192.78 82.8264 1193.39 81.3826C1193.46 81.2334 1193.53 81.0869 1193.62 80.9434C1195.64 81.9464 1200.21 84.0228 1206.49 86.7959ZM1211.23 77.6835C1209.63 80.257 1208.17 83.0082 1206.87 85.9165C1200.57 83.318 1195.93 81.457 1193.78 80.6791C1194.56 79.553 1196.01 78.6269 1198.26 78.0192C1200.94 77.2939 1204.56 77.0893 1208.88 77.4445C1209.65 77.5071 1210.43 77.5868 1211.23 77.6835ZM1219.91 66.6607C1217.06 69.5046 1214.39 72.7996 1211.99 76.4815C1204.82 75.5488 1198.99 75.9247 1195.47 77.6867C1199.23 72.4058 1205.6 68.8537 1213.52 67.3778C1215.56 66.9967 1217.7 66.7561 1219.91 66.6607ZM1243.2 54.7844C1235.84 55.2051 1228.12 58.9974 1221.29 65.3322C1211.98 65.4748 1203.78 68.076 1198.18 72.858C1208.34 58.6147 1226.01 51.5251 1243.2 54.7844ZM1261.07 62.4185C1275.32 72.5861 1282.41 90.2467 1279.15 107.441C1278.73 100.085 1274.93 92.3609 1268.6 85.5361C1268.46 76.2255 1265.86 68.0232 1261.07 62.4185ZM1268.59 87.4521C1270.06 89.117 1271.36 90.8291 1272.5 92.569C1276.91 99.3076 1278.75 106.368 1277.53 112.735C1276.37 108.971 1272.61 104.505 1266.98 99.9659C1267.98 95.6887 1268.51 91.479 1268.59 87.4521ZM1266.64 101.349C1267.26 101.86 1267.86 102.37 1268.43 102.877C1271.68 105.758 1274.03 108.509 1275.36 110.95C1276.48 112.996 1276.81 114.682 1276.53 116.023C1274.49 115.011 1269.93 112.943 1263.7 110.189C1264.91 107.241 1265.88 104.282 1266.64 101.349ZM1263.33 111.075C1269.68 113.692 1274.34 115.56 1276.46 116.327C1276.41 116.487 1276.36 116.641 1276.3 116.79C1275.68 118.234 1274.13 119.424 1271.43 120.154C1268.75 120.879 1265.13 121.084 1260.81 120.728C1260.04 120.666 1259.26 120.586 1258.46 120.489C1260.25 117.614 1261.86 114.517 1263.27 111.226L1263.33 111.075ZM1257.7 121.691C1264.87 122.624 1270.7 122.248 1274.22 120.486C1270.46 125.767 1264.09 129.319 1256.17 130.795C1254.13 131.176 1251.99 131.417 1249.78 131.512C1252.63 128.668 1255.3 125.373 1257.7 121.691Z"/>
</mask>
<path d="M1271.51 125.315L1272.13 125.752L1271.02 124.742L1271.51 125.315ZM1226.49 143.388L1226.45 142.637L1226.35 144.128L1226.49 143.388ZM1248.4 132.841L1248.38 132.088L1248.09 132.092L1247.88 132.289L1248.4 132.841ZM1217.6 140.702L1217.4 141.426L1218.07 141.619L1218.31 140.958L1217.6 140.702ZM1213.78 135.673L1214.5 135.476L1213.78 135.673ZM1213.2 125.047L1213.95 125.109L1213.2 125.047ZM1213.44 122.704L1213.84 122.064L1212.84 121.441L1212.69 122.613L1213.44 122.704ZM1222.86 127.574L1223.55 127.861L1223.84 127.172L1223.15 126.881L1222.86 127.574ZM1217.24 141.974L1217.52 141.277L1217.24 141.162L1216.96 141.274L1217.24 141.974ZM1277.73 116.71L1277.43 116.017L1277.15 116.138L1277.03 116.424L1277.73 116.71ZM1277.73 116.708L1277.28 116.108L1277.27 116.109L1277.73 116.708ZM1277.73 116.694L1277.04 116.408L1276.92 116.689L1277.03 116.972L1277.73 116.694ZM1253.65 56.7118L1252.96 56.9943L1253.07 57.2767L1253.35 57.4002L1253.65 56.7118ZM1253.64 56.7046L1253.33 57.393L1253.62 57.5187L1253.91 57.4081L1253.64 56.7046ZM1192.47 80.278L1192.75 80.9761L1193.04 80.8618L1193.16 80.5833L1192.47 80.278ZM1192.46 80.2944L1193.15 80.5994L1193.28 80.3158L1193.17 80.026L1192.46 80.2944ZM1217.22 141.967L1217.91 141.675L1217.79 141.389L1217.51 141.271L1217.22 141.967ZM1252.99 57.8567L1253.66 58.1913L1253.98 57.5611L1253.37 57.2064L1252.99 57.8567ZM1246.71 58.5694L1247.07 59.2303L1247.07 59.2303L1246.71 58.5694ZM1238.64 65.5011L1239.2 66.0007L1239.2 66.0007L1238.64 65.5011ZM1237.11 67.2944L1236.53 66.8168L1235.78 67.7294L1236.92 68.0236L1237.11 67.2944ZM1247.14 70.7275L1246.84 71.4193L1247.52 71.7137L1247.82 71.0319L1247.14 70.7275ZM1248.01 71.1126L1247.32 70.8255L1247.04 71.5022L1247.71 71.8003L1248.01 71.1126ZM1253.25 58.0248L1253.68 57.4052L1252.88 56.8506L1252.54 57.7681L1253.25 58.0248ZM1256.25 75.4693L1255.85 76.1091L1256.85 76.7315L1257 75.5597L1256.25 75.4693ZM1256.49 73.1255L1257.24 73.1871L1257.24 73.1871L1256.49 73.1255ZM1255.91 62.5002L1255.19 62.6965L1255.19 62.6965L1255.91 62.5002ZM1246.62 71.9057L1247.3 72.2095L1247.61 71.5139L1246.91 71.2139L1246.62 71.9057ZM1236.22 68.3986L1236.4 67.6677L1235.93 67.5506L1235.63 67.933L1236.22 68.3986ZM1228.38 80.2282L1227.72 79.8562L1227.26 80.6675L1228.15 80.9467L1228.38 80.2282ZM1240.95 84.8891L1240.65 85.5816L1241.34 85.8759L1241.64 85.1882L1240.95 84.8891ZM1236.53 98.4081L1235.84 98.1126L1235.55 98.8046L1236.24 99.1004L1236.53 98.4081ZM1241.56 86.558L1241.86 85.8682L1241.17 85.5621L1240.87 86.2653L1241.56 86.558ZM1248.36 103.492L1248.06 104.183L1248.76 104.486L1249.06 103.782L1248.36 103.492ZM1252.56 91.9768L1253.27 92.2006L1253.46 91.6151L1252.92 91.318L1252.56 91.9768ZM1240.44 86.071L1241.13 86.3699L1241.43 85.6756L1240.73 85.3785L1240.44 86.071ZM1227.74 81.3762L1227.96 80.6572L1227.37 80.475L1227.08 81.0115L1227.74 81.3762ZM1222.32 92.3684L1221.63 92.0664L1221.32 92.7656L1222.02 93.0622L1222.32 92.3684ZM1234.84 99.0864L1235.54 99.3822L1235.83 98.6897L1235.14 98.3939L1234.84 99.0864ZM1221.83 93.4942L1222.13 92.803L1221.43 92.5029L1221.14 93.1983L1221.83 93.4942ZM1221.82 93.5224L1221.12 93.2265L1221.12 93.2266L1221.82 93.5224ZM1217.13 106.196L1216.42 105.972L1216.23 106.558L1216.77 106.855L1217.13 106.196ZM1229.31 112.126L1229.01 112.818L1229.71 113.115L1230 112.419L1229.31 112.126ZM1224.26 126.765L1223.57 126.461L1223.26 127.169L1223.98 127.462L1224.26 126.765ZM1229.93 113.785L1230.22 113.089L1229.53 112.804L1229.24 113.485L1229.93 113.785ZM1233.47 129.774L1233.29 130.505L1233.76 130.622L1234.06 130.24L1233.47 129.774ZM1241.31 117.945L1241.97 118.317L1242.43 117.505L1241.54 117.226L1241.31 117.945ZM1232.58 130.878L1233.16 131.356L1233.91 130.443L1232.77 130.149L1232.58 130.878ZM1223.74 127.943L1224.03 127.246L1223.35 126.969L1223.05 127.639L1223.74 127.943ZM1231.05 132.672L1231.62 133.171L1231.05 132.672ZM1222.98 139.603L1222.62 138.943L1222.98 139.603ZM1217.91 140.776L1217.23 140.442L1216.8 141.317L1217.76 141.514L1217.91 140.776ZM1228.81 113.313L1229.5 113.605L1229.79 112.914L1229.1 112.62L1228.81 113.313ZM1216.75 107.455L1217.11 106.795L1216.3 106.345L1216.03 107.239L1216.75 107.455ZM1213.63 121.299L1212.88 121.194L1212.81 121.675L1213.22 121.936L1213.63 121.299ZM1223.35 126.384L1223.05 127.077L1223.75 127.374L1224.04 126.672L1223.35 126.384ZM1230.44 112.602L1229.75 112.304L1229.45 113.004L1230.15 113.298L1230.44 112.602ZM1241.95 116.797L1241.73 117.516L1242.32 117.698L1242.61 117.161L1241.95 116.797ZM1247.87 104.65L1248.56 104.946L1248.56 104.946L1247.87 104.65ZM1247.88 104.622L1248.58 104.918L1248.87 104.222L1248.18 103.929L1247.88 104.622ZM1242.06 85.3712L1241.37 85.0788L1241.08 85.7633L1241.76 86.0611L1242.06 85.3712ZM1247.52 72.3034L1247.83 71.6158L1247.12 71.3L1246.83 72.0156L1247.52 72.3034ZM1252.94 90.7179L1252.58 91.3775L1253.39 91.8276L1253.66 90.9337L1252.94 90.7179ZM1256.06 76.8734L1256.81 76.9791L1256.88 76.4974L1256.47 76.2371L1256.06 76.8734ZM1215.6 106.813L1216.32 107.03L1216.49 106.453L1215.97 106.157L1215.6 106.813ZM1212.44 120.528L1212.02 121.155L1213.01 121.811L1213.18 120.64L1212.44 120.528ZM1203.83 99.0898L1204.29 98.4942L1203.36 97.7699L1203.1 98.9248L1203.83 99.0898ZM1202.37 112.122L1201.62 112.126L1201.62 112.423L1201.83 112.639L1202.37 112.122ZM1220.65 92.9828L1221.34 93.2787L1221.63 92.5895L1220.95 92.2918L1220.65 92.9828ZM1220.63 93.0165L1219.94 92.7207L1219.94 92.7208L1220.63 93.0165ZM1207.66 87.3159L1207.97 86.6269L1207.27 86.32L1206.97 87.0194L1207.66 87.3159ZM1207.61 87.4525L1206.91 87.156L1206.91 87.1567L1207.61 87.4525ZM1204.16 97.7106L1203.43 97.5295L1203.31 98.0017L1203.69 98.3025L1204.16 97.7106ZM1215.99 105.552L1215.61 106.207L1216.43 106.668L1216.71 105.777L1215.99 105.552ZM1226.48 80.992L1227.14 81.3553L1227.59 80.538L1226.69 80.2706L1226.48 80.992ZM1221.13 91.8681L1220.84 92.562L1221.52 92.8504L1221.82 92.1699L1221.13 91.8681ZM1212.63 77.8681L1212.74 77.1225L1212.26 77.0542L1212 77.4653L1212.63 77.8681ZM1208.06 86.4083L1207.37 86.1012L1207.06 86.8083L1207.77 87.1042L1208.06 86.4083ZM1234.84 68.0729L1235.44 68.5336L1236.16 67.5974L1235.01 67.3382L1234.84 68.0729ZM1227.12 79.8404L1226.9 80.5613L1227.48 80.7353L1227.77 80.2108L1227.12 79.8404ZM1221.81 66.6147L1221.81 65.8617L1221.51 65.8634L1221.29 66.0678L1221.81 66.6147ZM1213.4 76.6792L1212.78 76.2624L1212.12 77.2483L1213.29 77.4239L1213.4 76.6792ZM1248.49 56.4004L1248.72 57.1198L1248.64 55.6608L1248.49 56.4004ZM1235.72 66.9543L1235.55 67.6874L1236.01 67.7955L1236.31 67.4266L1235.72 66.9543ZM1228.33 61.4325L1228.74 62.0627L1228.33 61.4325ZM1223.21 65.3373L1222.71 64.7714L1221.26 66.0505L1223.2 66.0902L1223.21 65.3373ZM1213.45 138.462L1213.01 139.075L1214.12 138.125L1213.45 138.462ZM1203.14 120.414L1202.4 120.552L1203.14 120.414ZM1212.24 121.94L1212.99 122.037L1213.05 121.567L1212.65 121.308L1212.24 121.94ZM1202.42 114.017L1202.95 113.486L1201.58 112.113L1201.67 114.05L1202.42 114.017ZM1221.2 141.772L1220.97 141.053L1221.05 142.512L1221.2 141.772ZM1241.36 136.74L1241.77 137.371L1241.36 136.74ZM1233.97 131.219L1234.14 130.485L1233.68 130.377L1233.38 130.746L1233.97 131.219ZM1246.48 132.835L1246.98 133.401L1248.43 132.122L1246.49 132.083L1246.48 132.835ZM1234.85 130.1L1234.25 129.639L1233.53 130.575L1234.68 130.835L1234.85 130.1ZM1247.88 131.558L1247.88 132.311L1248.18 132.309L1248.4 132.105L1247.88 131.558ZM1242.57 118.332L1242.79 117.612L1242.21 117.438L1241.92 117.962L1242.57 118.332ZM1256.29 121.494L1256.91 121.91L1257.57 120.925L1256.4 120.749L1256.29 121.494ZM1243.21 117.181L1242.55 116.818L1242.1 117.635L1243 117.902L1243.21 117.181ZM1257.06 120.305L1256.95 121.05L1257.43 121.119L1257.69 120.708L1257.06 120.305ZM1249.06 105.156L1249.75 105.452L1249.75 105.452L1249.06 105.156ZM1249.07 105.123L1249.36 104.429L1248.67 104.138L1248.38 104.827L1249.07 105.123ZM1262.14 110.584L1262.84 110.879L1263.13 110.179L1262.43 109.888L1262.14 110.584ZM1262.08 110.72L1262.78 111.016L1262.78 111.015L1262.08 110.72ZM1249.54 104.003L1248.85 103.714L1248.56 104.399L1249.24 104.695L1249.54 104.003ZM1262.52 109.669L1262.22 110.358L1262.93 110.67L1263.22 109.953L1262.52 109.669ZM1253.7 92.6207L1254.08 91.966L1253.26 91.5051L1252.98 92.3954L1253.7 92.6207ZM1265.53 100.462L1266.26 100.643L1266.38 100.171L1266 99.8704L1265.53 100.462ZM1254.09 91.3603L1253.37 91.1428L1253.2 91.7195L1253.72 92.0159L1254.09 91.3603ZM1265.86 99.0831L1265.4 99.6787L1266.33 100.403L1266.59 99.248L1265.86 99.0831ZM1257.25 77.6445L1257.67 77.0174L1256.68 76.3623L1256.51 77.5328L1257.25 77.6445ZM1267.32 86.051L1268.07 86.0467L1268.07 85.7494L1267.86 85.5334L1267.32 86.051ZM1257.45 76.2333L1256.7 76.1362L1256.64 76.606L1257.04 76.8644L1257.45 76.2333ZM1267.27 84.1555L1266.74 84.6872L1268.11 86.0603L1268.02 84.1231L1267.27 84.1555ZM1256.24 59.7108L1256.68 59.0974L1255.57 60.0475L1256.24 59.7108ZM1266.55 77.759L1267.29 77.6209L1266.55 77.759ZM1208.62 135.754L1208.18 136.367L1209.19 135.266L1208.62 135.754ZM1201.09 112.637L1201.84 112.625L1201.84 112.336L1201.64 112.124L1201.09 112.637ZM1190.54 90.7322L1191.29 90.6892L1189.8 90.592L1190.54 90.7322ZM1201.1 110.721L1200.53 111.218L1201.81 112.675L1201.85 110.736L1201.1 110.721ZM1202.71 98.207L1203.45 98.3788L1203.55 97.9176L1203.19 97.6205L1202.71 98.207ZM1197.19 105.604L1197.82 105.192L1197.19 105.604ZM1192.16 85.4374L1192.88 85.2149L1191.42 85.2962L1192.16 85.4374ZM1206.42 86.9467L1205.73 86.6501L1205.73 86.6509L1206.42 86.9467ZM1206.49 86.7959L1207.18 87.0925L1207.47 86.4081L1206.79 86.1072L1206.49 86.7959ZM1203.05 96.8239L1202.58 97.4061L1203.49 98.1547L1203.78 97.0116L1203.05 96.8239ZM1201.26 95.2959L1200.76 95.8593L1200.76 95.8593L1201.26 95.2959ZM1194.33 87.2225L1194.99 86.8617L1194.99 86.8617L1194.33 87.2225ZM1193.62 80.9434L1193.95 80.2688L1193.32 79.9561L1192.96 80.5637L1193.62 80.9434ZM1206.87 85.9165L1206.58 86.6126L1207.26 86.8918L1207.56 86.2232L1206.87 85.9165ZM1211.23 77.6835L1211.87 78.0805L1212.49 77.0776L1211.32 76.9359L1211.23 77.6835ZM1193.78 80.6791L1193.16 80.2512L1192.61 81.0543L1193.53 81.387L1193.78 80.6791ZM1198.26 78.0192L1198.45 78.7462L1198.45 78.7462L1198.26 78.0192ZM1208.88 77.4445L1208.82 78.195L1208.82 78.195L1208.88 77.4445ZM1211.99 76.4815L1211.89 77.2282L1212.36 77.2893L1212.62 76.8923L1211.99 76.4815ZM1219.91 66.6607L1220.45 67.1939L1221.82 65.8249L1219.88 65.9084L1219.91 66.6607ZM1195.47 77.6867L1194.86 77.2499L1195.81 78.3602L1195.47 77.6867ZM1213.52 67.3778L1213.66 68.1181L1213.52 67.3778ZM1221.29 65.3322L1221.31 66.0851L1221.6 66.0807L1221.81 65.8841L1221.29 65.3322ZM1243.2 54.7844L1243.24 55.5362L1243.34 54.0445L1243.2 54.7844ZM1198.18 72.858L1197.56 72.4205L1198.67 73.4309L1198.18 72.858ZM1279.15 107.441L1278.4 107.484L1279.89 107.581L1279.15 107.441ZM1261.07 62.4185L1261.51 61.8056L1260.5 62.9072L1261.07 62.4185ZM1268.6 85.5361L1267.85 85.5477L1267.85 85.8366L1268.05 86.0484L1268.6 85.5361ZM1272.5 92.569L1273.13 92.1568L1272.5 92.569ZM1268.59 87.4521L1269.16 86.9553L1267.88 85.4981L1267.84 87.4367L1268.59 87.4521ZM1277.53 112.735L1276.81 112.958L1278.27 112.877L1277.53 112.735ZM1266.98 99.9659L1266.24 99.794L1266.14 100.255L1266.5 100.552L1266.98 99.9659ZM1268.43 102.877L1267.93 103.44L1268.43 102.877ZM1266.64 101.349L1267.11 100.767L1266.2 100.018L1265.91 101.161L1266.64 101.349ZM1275.36 110.95L1274.7 111.311L1275.36 110.95ZM1276.53 116.023L1276.2 116.697L1277.08 117.13L1277.27 116.174L1276.53 116.023ZM1263.7 110.189L1263 109.904L1262.73 110.582L1263.4 110.878L1263.7 110.189ZM1276.46 116.327L1277.18 116.534L1277.38 115.858L1276.72 115.619L1276.46 116.327ZM1263.33 111.075L1263.62 110.379L1262.93 110.095L1262.64 110.78L1263.33 111.075ZM1271.43 120.154L1271.23 119.427L1271.43 120.154ZM1260.81 120.728L1260.74 121.479L1260.81 120.728ZM1258.46 120.489L1257.82 120.092L1257.2 121.095L1258.37 121.237L1258.46 120.489ZM1263.27 111.226L1263.96 111.522L1263.96 111.521L1263.27 111.226ZM1274.22 120.486L1274.83 120.923L1273.88 119.813L1274.22 120.486ZM1257.7 121.691L1257.8 120.945L1257.33 120.884L1257.07 121.281L1257.7 121.691ZM1256.17 130.795L1256.31 131.535L1256.17 130.795ZM1249.78 131.512L1249.24 130.979L1247.87 132.348L1249.81 132.264L1249.78 131.512ZM1270.9 124.877C1260.9 138.882 1243.54 145.853 1226.63 142.649L1226.35 144.128C1243.83 147.442 1261.79 140.235 1272.13 125.752L1270.9 124.877ZM1248.41 133.594C1257.84 133.449 1266.23 130.814 1272 125.888L1271.02 124.742C1265.59 129.379 1257.57 131.947 1248.38 132.088L1248.41 133.594ZM1226.53 144.14C1234.11 143.707 1241.99 139.809 1248.91 133.393L1247.88 132.289C1241.15 138.542 1233.58 142.229 1226.45 142.637L1226.53 144.14ZM1216.85 141.23C1217.02 141.306 1217.21 141.371 1217.4 141.426L1217.81 139.978C1217.68 139.941 1217.56 139.896 1217.44 139.845L1216.85 141.23ZM1213.05 135.869C1213.81 138.679 1215.1 140.484 1216.85 141.23L1217.44 139.845C1216.3 139.357 1215.21 138.073 1214.5 135.476L1213.05 135.869ZM1212.45 124.986C1212.09 129.36 1212.29 133.068 1213.05 135.869L1214.5 135.476C1213.81 132.907 1213.6 129.391 1213.95 125.109L1212.45 124.986ZM1212.69 122.613C1212.6 123.422 1212.52 124.214 1212.45 124.986L1213.95 125.109C1214.02 124.357 1214.09 123.585 1214.19 122.794L1212.69 122.613ZM1223 126.817C1219.75 125.427 1216.68 123.828 1213.84 122.064L1213.04 123.343C1215.95 125.148 1219.08 126.782 1222.41 128.202L1223 126.817ZM1223.15 126.881C1223.1 126.86 1223.05 126.839 1223 126.817L1222.41 128.202C1222.46 128.224 1222.51 128.246 1222.56 128.267L1223.15 126.881ZM1222.16 127.287C1219.54 133.626 1217.67 138.305 1216.9 140.446L1218.31 140.958C1219.07 138.854 1220.93 134.207 1223.55 127.861L1222.16 127.287ZM1276.79 117C1266.98 139.967 1240.55 150.739 1217.52 141.277L1216.95 142.67C1240.74 152.444 1268.04 141.317 1278.17 117.592L1276.79 117ZM1277.03 116.424C1276.95 116.616 1276.87 116.808 1276.79 117L1278.17 117.592C1278.26 117.394 1278.34 117.195 1278.42 116.997L1277.03 116.424ZM1277.27 116.109C1277.33 116.064 1277.39 116.035 1277.43 116.017L1278.02 117.404C1278.07 117.384 1278.12 117.354 1278.19 117.307L1277.27 116.109ZM1277.04 116.408C1277.1 116.272 1277.19 116.174 1277.28 116.108L1278.18 117.308C1278.27 117.24 1278.37 117.139 1278.43 117L1277.04 116.408ZM1277.03 116.972C1276.99 116.867 1276.94 116.652 1277.04 116.408L1278.43 117C1278.53 116.75 1278.48 116.528 1278.43 116.416L1277.03 116.972ZM1253.35 57.4002C1275.91 67.4067 1286.42 93.5787 1277.04 116.408L1278.43 116.98C1288.12 93.3966 1277.27 66.3606 1253.96 56.0235L1253.35 57.4002ZM1254.35 56.4294C1254.31 56.3171 1254.19 56.1182 1253.94 56.0116L1253.35 57.3966C1253.11 57.2924 1253 57.0986 1252.96 56.9943L1254.35 56.4294ZM1253.94 56.0116C1253.7 55.9079 1253.48 55.9577 1253.37 56.001L1253.91 57.4081C1253.8 57.4486 1253.59 57.498 1253.35 57.3966L1253.94 56.0116ZM1252.76 57.1437C1252.95 57.2257 1253.14 57.3088 1253.33 57.393L1253.94 56.0161C1253.75 55.9291 1253.55 55.8433 1253.35 55.7587L1252.76 57.1437ZM1193.16 80.5833C1203.25 57.8265 1229.79 47.3344 1252.76 57.1437L1253.35 55.7587C1229.62 45.6255 1202.21 56.4641 1191.78 79.9727L1193.16 80.5833ZM1193.16 80.5804C1193.05 80.8244 1192.86 80.9339 1192.75 80.9761L1192.19 79.58C1192.08 79.6254 1191.88 79.7393 1191.77 79.9888L1193.16 80.5804ZM1193.17 80.026C1193.21 80.132 1193.26 80.343 1193.16 80.5804L1191.77 79.9888C1191.67 80.2317 1191.72 80.4492 1191.76 80.5628L1193.17 80.026ZM1192.9 81.1725C1192.98 80.9806 1193.07 80.7896 1193.15 80.5994L1191.77 79.9894C1191.69 80.1857 1191.6 80.3829 1191.52 80.581L1192.9 81.1725ZM1216.93 141.029C1193.77 131.136 1183.01 104.337 1192.9 81.1725L1191.52 80.581C1181.3 104.51 1192.41 132.194 1216.34 142.414L1216.93 141.029ZM1217.51 141.271C1217.32 141.192 1217.12 141.111 1216.93 141.029L1216.34 142.414C1216.54 142.499 1216.74 142.582 1216.93 142.664L1217.51 141.271ZM1216.53 142.26C1216.57 142.37 1216.69 142.563 1216.93 142.667L1217.52 141.282C1217.76 141.384 1217.87 141.571 1217.91 141.675L1216.53 142.26ZM1216.93 142.667C1217.18 142.773 1217.4 142.718 1217.52 142.674L1216.96 141.274C1217.06 141.233 1217.28 141.178 1217.52 141.282L1216.93 142.667ZM1253.37 57.2064C1253.2 57.1069 1253.02 57.0192 1252.84 56.943L1252.25 58.328C1252.37 58.3793 1252.49 58.4389 1252.61 58.507L1253.37 57.2064ZM1252.84 56.943C1251.1 56.1973 1248.9 56.5137 1246.35 57.9084L1247.07 59.2303C1249.43 57.9416 1251.11 57.8405 1252.25 58.328L1252.84 56.943ZM1246.35 57.9084C1243.8 59.2988 1240.98 61.7176 1238.07 65.0015L1239.2 66.0007C1242.05 62.7859 1244.73 60.5056 1247.07 59.2303L1246.35 57.9084ZM1238.07 65.0015C1237.56 65.5811 1237.04 66.1865 1236.53 66.8168L1237.69 67.7719C1238.19 67.1558 1238.7 66.5651 1239.2 66.0007L1238.07 65.0015ZM1236.92 68.0236C1240.16 68.8576 1243.43 69.9649 1246.69 71.3554L1247.28 69.9705C1243.96 68.5502 1240.61 67.4182 1237.3 66.5651L1236.92 68.0236ZM1246.69 71.3554C1246.74 71.3767 1246.79 71.398 1246.84 71.4193L1247.43 70.0357C1247.38 70.0139 1247.33 69.9922 1247.28 69.9705L1246.69 71.3554ZM1252.31 57.522C1251.3 59.5615 1249.22 64.1506 1246.45 70.4232L1247.82 71.0319C1250.6 64.7526 1252.67 60.1953 1253.66 58.1913L1252.31 57.522ZM1248.71 71.3997C1251.31 65.1031 1253.18 60.4448 1253.96 58.2816L1252.54 57.7681C1251.77 59.8952 1249.92 64.5227 1247.32 70.8255L1248.71 71.3997ZM1247.71 71.8003C1250.59 73.0836 1253.31 74.5303 1255.85 76.1091L1256.64 74.8295C1254.04 73.2144 1251.26 71.7358 1248.32 70.4249L1247.71 71.8003ZM1257 75.5597C1257.09 74.7504 1257.17 73.959 1257.24 73.1871L1255.74 73.0639C1255.67 73.8156 1255.6 74.5878 1255.5 75.3789L1257 75.5597ZM1257.24 73.1871C1257.6 68.8129 1257.4 65.1051 1256.64 62.3038L1255.19 62.6965C1255.88 65.2659 1256.09 68.7818 1255.74 73.0639L1257.24 73.1871ZM1256.64 62.3038C1256.01 59.9615 1255.01 58.3229 1253.68 57.4052L1252.82 58.6445C1253.75 59.2821 1254.6 60.5384 1255.19 62.6965L1256.64 62.3038ZM1246.91 71.2139C1246.87 71.1941 1246.82 71.1744 1246.77 71.1548L1246.18 72.5398C1246.23 72.559 1246.27 72.5783 1246.32 72.5976L1246.91 71.2139ZM1246.77 71.1548C1243.31 69.6771 1239.84 68.5189 1236.4 67.6677L1236.04 69.1295C1239.4 69.9612 1242.8 71.0935 1246.18 72.5398L1246.77 71.1548ZM1235.63 67.933C1232.97 71.3125 1230.29 75.3352 1227.72 79.8562L1229.03 80.6001C1231.57 76.1342 1234.21 72.1758 1236.81 68.8641L1235.63 67.933ZM1228.15 80.9467C1232.18 82.2106 1236.37 83.7535 1240.62 85.5672L1241.21 84.1822C1236.92 82.3493 1232.68 80.789 1228.6 79.5097L1228.15 80.9467ZM1240.62 85.5672C1240.62 85.5695 1240.63 85.5719 1240.64 85.5743C1240.64 85.5767 1240.65 85.5791 1240.65 85.5816L1241.24 84.1966C1241.24 84.1942 1241.23 84.1918 1241.23 84.1894C1241.22 84.187 1241.22 84.1846 1241.21 84.1822L1240.62 85.5672ZM1245.93 71.602C1244.24 75.4179 1242.33 79.8048 1240.26 84.5899L1241.64 85.1882C1243.71 80.4056 1245.62 76.0217 1247.3 72.2095L1245.93 71.602ZM1237.23 98.7036C1238.99 94.5835 1240.67 90.6058 1242.26 86.8507L1240.87 86.2653C1239.29 90.0184 1237.6 93.9943 1235.84 98.1126L1237.23 98.7036ZM1236.24 99.1004C1240.36 100.861 1244.32 102.567 1248.06 104.183L1248.66 102.801C1244.92 101.183 1240.95 99.4766 1236.83 97.7157L1236.24 99.1004ZM1249.06 103.782C1250.7 99.8333 1252.11 95.9463 1253.27 92.2006L1251.84 91.7531C1250.68 95.453 1249.29 99.2961 1247.67 103.203L1249.06 103.782ZM1252.92 91.318C1249.49 89.4179 1245.78 87.5833 1241.86 85.8682L1241.26 87.2478C1245.14 88.9447 1248.8 90.7587 1252.19 92.6356L1252.92 91.318ZM1239.75 85.7722C1238.13 89.5145 1236.42 93.4856 1234.66 97.6062L1236.04 98.1982C1237.8 94.0795 1239.51 90.1102 1241.13 86.3699L1239.75 85.7722ZM1240.73 85.3785C1240.73 85.3765 1240.72 85.3746 1240.72 85.3725C1240.71 85.3705 1240.71 85.3685 1240.7 85.3665L1240.11 86.7515C1240.12 86.7535 1240.12 86.7555 1240.13 86.7575C1240.13 86.7595 1240.14 86.7615 1240.14 86.7635L1240.73 85.3785ZM1240.7 85.3665C1236.36 83.5093 1232.07 81.9372 1227.96 80.6572L1227.51 82.0952C1231.57 83.3595 1235.81 84.9138 1240.11 86.7515L1240.7 85.3665ZM1227.08 81.0115C1225.18 84.4435 1223.34 88.1482 1221.63 92.0664L1223.01 92.6703C1224.7 88.7936 1226.52 85.131 1228.39 81.741L1227.08 81.0115ZM1222.02 93.0622C1226.14 94.7967 1230.51 96.6554 1235.06 98.5947L1235.65 97.2097C1231.1 95.2695 1226.72 93.41 1222.61 91.6746L1222.02 93.0622ZM1235.06 98.5947C1235.06 98.5947 1235.06 98.5947 1235.06 98.5947L1235.06 98.5947C1235.06 98.5947 1235.06 98.5947 1235.06 98.5947L1235.06 98.5947C1235.06 98.5947 1235.06 98.5947 1235.06 98.5947C1235.06 98.5947 1235.06 98.5947 1235.06 98.5947C1235.35 97.9022 1235.65 97.2097 1235.65 97.2097L1235.65 97.2097C1235.65 97.2097 1235.65 97.2097 1235.65 97.2097C1235.65 97.2097 1235.65 97.2097 1235.65 97.2097C1235.65 97.2097 1235.65 97.2097 1235.65 97.2097L1235.65 97.2097L1235.65 97.2097C1235.65 97.2097 1235.65 97.2097 1235.65 97.2097C1235.65 97.2097 1235.65 97.2097 1235.65 97.2097C1235.65 97.2097 1235.65 97.2097 1235.65 97.2097C1235.65 97.2097 1235.65 97.2097 1235.65 97.2097L1235.65 97.2097L1235.65 97.2097C1235.65 97.2097 1235.35 97.9022 1235.06 98.5947C1235.06 98.5947 1235.06 98.5947 1235.06 98.5947C1235.06 98.5947 1235.06 98.5947 1235.06 98.5947C1235.06 98.5947 1235.06 98.5947 1235.06 98.5947L1235.06 98.5947C1235.06 98.5947 1235.06 98.5947 1235.06 98.5947C1235.06 98.5947 1235.06 98.5947 1235.06 98.5947L1235.65 97.2097C1235.65 97.2097 1235.65 97.2097 1235.65 97.2097C1235.65 97.2097 1235.65 97.2097 1235.65 97.2097L1235.65 97.2097C1235.65 97.2097 1235.65 97.2097 1235.65 97.2097C1235.65 97.2097 1235.65 97.2097 1235.65 97.2097C1235.65 97.2097 1235.65 97.2097 1235.65 97.2097C1235.35 97.9022 1235.06 98.5947 1235.06 98.5947L1235.06 98.5947L1235.06 98.5947C1235.06 98.5947 1235.06 98.5947 1235.06 98.5947C1235.06 98.5947 1235.06 98.5947 1235.06 98.5947C1235.06 98.5947 1235.06 98.5947 1235.06 98.5947C1235.06 98.5947 1235.06 98.5947 1235.06 98.5947L1235.06 98.5947L1235.06 98.5947C1235.06 98.5947 1235.06 98.5947 1235.06 98.5947C1235.06 98.5947 1235.06 98.5947 1235.06 98.5947C1235.06 98.5947 1235.06 98.5947 1235.06 98.5947L1235.06 98.5947C1235.06 98.5947 1235.35 97.9022 1235.65 97.2097C1235.65 97.2097 1235.65 97.2097 1235.65 97.2097C1235.65 97.2097 1235.65 97.2097 1235.65 97.2097L1235.65 97.2097C1235.65 97.2097 1235.65 97.2097 1235.65 97.2097L1235.65 97.2097C1235.65 97.2097 1235.65 97.2097 1235.65 97.2097L1235.06 98.5947ZM1235.14 98.3939C1230.6 96.4538 1226.23 94.5747 1222.13 92.803L1221.53 94.1854C1225.63 95.958 1230 97.8379 1234.55 99.7789L1235.14 98.3939ZM1221.14 93.1983L1221.12 93.2265L1222.51 93.8182L1222.52 93.7901L1221.14 93.1983ZM1221.12 93.2266C1219.27 97.575 1217.7 101.859 1216.42 105.972L1217.85 106.42C1219.12 102.357 1220.67 98.1208 1222.51 93.8181L1221.12 93.2266ZM1216.77 106.855C1220.54 108.941 1224.64 110.949 1228.99 112.806L1229.58 111.421C1225.27 109.584 1221.22 107.598 1217.5 105.537L1216.77 106.855ZM1228.99 112.806C1228.99 112.808 1228.99 112.81 1229 112.812C1229 112.814 1229.01 112.816 1229.01 112.818L1229.6 111.433C1229.6 111.431 1229.6 111.429 1229.59 111.427C1229.59 111.425 1229.58 111.423 1229.58 111.421L1228.99 112.806ZM1234.15 98.7906C1232.21 103.335 1230.35 107.718 1228.62 111.833L1230 112.419C1231.74 108.305 1233.6 103.925 1235.54 99.3822L1234.15 98.7906ZM1224.95 127.068C1226.63 123.253 1228.55 118.867 1230.62 114.084L1229.24 113.485C1227.17 118.266 1225.25 122.649 1223.57 126.461L1224.95 127.068ZM1223.98 127.462C1227.09 128.73 1230.2 129.741 1233.29 130.505L1233.65 129.043C1230.64 128.297 1227.59 127.308 1224.55 126.067L1223.98 127.462ZM1234.06 130.24C1236.72 126.86 1239.4 122.838 1241.97 118.317L1240.66 117.573C1238.12 122.039 1235.48 125.997 1232.88 129.309L1234.06 130.24ZM1241.54 117.226C1237.87 116.076 1234.07 114.695 1230.22 113.089L1229.64 114.48C1233.53 116.102 1237.37 117.499 1241.09 118.663L1241.54 117.226ZM1232.77 130.149C1229.87 129.403 1226.94 128.437 1224.03 127.246L1223.46 128.64C1226.44 129.857 1229.43 130.844 1232.39 131.608L1232.77 130.149ZM1231.62 133.171C1232.13 132.592 1232.65 131.986 1233.16 131.356L1232 130.401C1231.49 131.017 1230.99 131.608 1230.49 132.172L1231.62 133.171ZM1223.34 140.264C1225.89 138.874 1228.71 136.455 1231.62 133.171L1230.49 132.172C1227.64 135.387 1224.96 137.667 1222.62 138.943L1223.34 140.264ZM1217.76 141.514C1219.34 141.839 1221.21 141.427 1223.34 140.264L1222.62 138.943C1220.66 140.014 1219.16 140.265 1218.06 140.039L1217.76 141.514ZM1218.58 141.11C1219.6 139.048 1221.68 134.478 1224.43 128.247L1223.05 127.639C1220.3 133.875 1218.24 138.414 1217.23 140.442L1218.58 141.11ZM1229.1 112.62C1229.1 112.618 1229.09 112.615 1229.09 112.613C1229.08 112.61 1229.08 112.608 1229.07 112.606L1228.48 113.991C1228.48 113.993 1228.49 113.995 1228.5 113.998C1228.5 114 1228.51 114.003 1228.51 114.005L1229.1 112.62ZM1229.07 112.606C1224.82 110.792 1220.81 108.833 1217.11 106.795L1216.39 108.115C1220.13 110.177 1224.19 112.158 1228.48 113.991L1229.07 112.606ZM1216.03 107.239C1214.54 112.221 1213.48 116.937 1212.88 121.194L1214.37 121.405C1214.96 117.234 1216 112.592 1217.47 107.671L1216.03 107.239ZM1213.22 121.936C1216.21 123.829 1219.46 125.54 1222.92 127.018L1223.51 125.633C1220.12 124.187 1216.95 122.513 1214.03 120.663L1213.22 121.936ZM1222.92 127.018C1222.96 127.038 1223.01 127.057 1223.05 127.077L1223.64 125.691C1223.6 125.671 1223.55 125.652 1223.51 125.633L1222.92 127.018ZM1228.11 113.02C1226.09 117.825 1224.25 122.242 1222.65 126.096L1224.04 126.672C1225.64 122.821 1227.48 118.408 1229.5 113.605L1228.11 113.02ZM1236.72 99.888C1236.72 99.888 1236.72 99.888 1236.72 99.888C1236.72 99.888 1236.72 99.888 1236.72 99.888L1236.72 99.888C1236.72 99.888 1236.72 99.888 1236.72 99.888C1236.72 99.888 1236.72 99.888 1236.72 99.888L1236.72 99.888L1236.72 99.888C1236.03 99.5922 1235.34 99.2964 1235.34 99.2964C1235.34 99.2964 1235.34 99.2964 1235.34 99.2964L1235.34 99.2965L1235.34 99.2965C1235.34 99.2965 1235.34 99.2965 1235.34 99.2965C1235.34 99.2965 1235.34 99.2965 1235.34 99.2965L1235.34 99.2965C1235.34 99.2965 1235.34 99.2965 1235.34 99.2965C1235.34 99.2965 1235.34 99.2965 1235.34 99.2965L1235.34 99.2965L1235.34 99.2965L1235.34 99.2965L1235.34 99.2965L1235.34 99.2965C1235.34 99.2965 1236.03 99.5923 1236.72 99.888C1236.72 99.888 1236.72 99.888 1236.72 99.888C1236.72 99.888 1236.72 99.888 1236.72 99.888L1236.72 99.888L1236.72 99.888C1236.72 99.888 1236.72 99.888 1236.72 99.888C1236.72 99.888 1236.72 99.888 1236.72 99.888L1235.34 99.2965C1235.34 99.2965 1235.34 99.2965 1235.34 99.2965C1235.34 99.2965 1235.34 99.2965 1235.34 99.2965L1235.34 99.2965L1235.34 99.2965C1235.34 99.2965 1235.34 99.2965 1235.34 99.2965C1235.34 99.2965 1235.34 99.2965 1235.34 99.2965C1236.03 99.5923 1236.72 99.888 1236.72 99.888L1236.72 99.888L1236.72 99.888L1236.72 99.888L1236.72 99.888L1236.72 99.888C1236.72 99.888 1236.72 99.888 1236.72 99.888C1236.72 99.888 1236.72 99.888 1236.72 99.888L1236.72 99.888C1236.72 99.888 1236.72 99.888 1236.72 99.888C1236.72 99.888 1236.72 99.888 1236.72 99.888L1236.72 99.888L1236.72 99.888C1236.72 99.888 1236.72 99.888 1236.72 99.888C1236.72 99.888 1236.03 99.5922 1235.34 99.2964L1235.34 99.2964L1235.34 99.2965C1235.34 99.2965 1235.34 99.2965 1235.34 99.2965C1235.34 99.2965 1235.34 99.2965 1235.34 99.2965L1235.34 99.2965C1235.34 99.2965 1235.34 99.2965 1235.34 99.2965C1235.34 99.2965 1235.34 99.2965 1235.34 99.2965L1236.72 99.888ZM1231.13 112.901C1232.9 108.803 1234.78 104.431 1236.72 99.888L1235.34 99.2965C1233.4 103.837 1231.52 108.208 1229.75 112.304L1231.13 112.901ZM1230.15 113.298C1234.1 114.942 1237.98 116.35 1241.73 117.516L1242.18 116.078C1238.48 114.926 1234.64 113.535 1230.73 111.907L1230.15 113.298ZM1242.61 117.161C1244.7 113.392 1246.71 109.295 1248.56 104.946L1247.18 104.355C1245.34 108.657 1243.36 112.709 1241.3 116.432L1242.61 117.161ZM1248.56 104.946L1248.58 104.918L1247.19 104.327L1247.18 104.355L1248.56 104.946ZM1248.18 103.929C1244.42 102.345 1240.44 100.657 1236.32 98.8996L1235.73 100.285C1239.86 102.043 1243.84 103.731 1247.59 105.316L1248.18 103.929ZM1242.76 85.6636C1244.78 80.8599 1246.63 76.4442 1248.22 72.5911L1246.83 72.0156C1245.24 75.865 1243.39 80.2777 1241.37 85.0788L1242.76 85.6636ZM1241.76 86.0611C1245.59 87.7347 1249.21 89.5235 1252.58 91.3775L1253.3 90.0583C1249.9 88.1817 1246.23 86.3727 1242.37 84.6813L1241.76 86.0611ZM1253.66 90.9337C1255.15 85.9521 1256.21 81.236 1256.81 76.9791L1255.32 76.7677C1254.73 80.9393 1253.69 85.5813 1252.22 90.5021L1253.66 90.9337ZM1256.47 76.2371C1253.78 74.5378 1250.9 72.9847 1247.83 71.6158L1247.22 72.9909C1250.22 74.3305 1253.04 75.8493 1255.66 77.5096L1256.47 76.2371ZM1214.88 106.595C1213.4 111.502 1212.33 116.168 1211.69 120.417L1213.18 120.64C1213.81 116.473 1214.86 111.878 1216.32 107.03L1214.88 106.595ZM1203.37 99.6854C1206.77 102.314 1210.77 104.947 1215.23 107.468L1215.97 106.157C1211.56 103.666 1207.62 101.072 1204.29 98.4942L1203.37 99.6854ZM1203.13 112.118C1203.1 108.017 1203.57 103.683 1204.57 99.2547L1203.1 98.9248C1202.08 103.459 1201.6 107.906 1201.62 112.126L1203.13 112.118ZM1212.85 119.901C1209.07 117.389 1205.74 114.583 1202.92 111.604L1201.83 112.639C1204.73 115.705 1208.15 118.584 1212.02 121.155L1212.85 119.901ZM1219.96 92.687L1219.94 92.7207L1221.33 93.3124L1221.34 93.2787L1219.96 92.687ZM1207.36 88.005C1211.18 89.6871 1215.56 91.6023 1220.35 93.6739L1220.95 92.2918C1216.16 90.2213 1211.78 88.3074 1207.97 86.6269L1207.36 88.005ZM1208.3 87.749L1208.36 87.6125L1206.97 87.0194L1206.91 87.156L1208.3 87.749ZM1204.89 97.8917C1205.72 94.5354 1206.85 91.1344 1208.3 87.7482L1206.91 87.1567C1205.44 90.6165 1204.28 94.0942 1203.43 97.5295L1204.89 97.8917ZM1216.36 104.897C1211.89 102.36 1207.93 99.7234 1204.62 97.1187L1203.69 98.3025C1207.07 100.96 1211.09 103.638 1215.61 106.207L1216.36 104.897ZM1219.94 92.7208C1218.11 97.0121 1216.55 101.247 1215.27 105.327L1216.71 105.777C1217.97 101.747 1219.51 97.5589 1221.33 93.3123L1219.94 92.7208ZM1225.82 80.6288C1223.94 84.0363 1222.13 87.7009 1220.44 91.5662L1221.82 92.1699C1223.49 88.3453 1225.28 84.7217 1227.14 81.3553L1225.82 80.6288ZM1212.53 78.6136C1216.7 79.2051 1221.34 80.2415 1226.26 81.7135L1226.69 80.2706C1221.71 78.7805 1216.99 77.726 1212.74 77.1225L1212.53 78.6136ZM1208.75 86.7154C1210.09 83.7159 1211.61 80.8934 1213.27 78.2709L1212 77.4653C1210.3 80.1496 1208.74 83.036 1207.37 86.1012L1208.75 86.7154ZM1221.42 91.1741C1216.62 89.1503 1212.2 87.3058 1208.35 85.7125L1207.77 87.1042C1211.62 88.696 1216.04 90.5392 1220.84 92.562L1221.42 91.1741ZM1234.25 67.6121C1231.62 71.0099 1228.98 75.0078 1226.46 79.47L1227.77 80.2108C1230.26 75.8023 1232.86 71.8663 1235.44 68.5336L1234.25 67.6121ZM1221.81 67.3677C1225.91 67.3443 1230.25 67.8135 1234.68 68.8076L1235.01 67.3382C1230.47 66.3205 1226.03 65.8376 1221.81 65.8617L1221.81 67.3677ZM1214.03 77.0959C1216.54 73.3155 1219.35 69.98 1222.33 67.1617L1221.29 66.0678C1218.23 68.9685 1215.35 72.3923 1212.78 76.2624L1214.03 77.0959ZM1227.34 79.1195C1222.43 77.639 1217.76 76.5716 1213.51 75.9345L1213.29 77.4239C1217.46 78.0488 1222.05 79.0986 1226.9 80.5613L1227.34 79.1195ZM1248.27 55.681C1244.28 56.9145 1239.7 60.8213 1235.14 66.4819L1236.31 67.4266C1240.83 61.8169 1245.18 58.2145 1248.72 57.1198L1248.27 55.681ZM1228.74 62.0627C1235.36 57.7301 1242.23 55.9715 1248.35 57.1401L1248.64 55.6608C1242.02 54.3993 1234.77 56.3216 1227.92 60.8023L1228.74 62.0627ZM1223.71 65.9033C1225.35 64.4638 1227.03 63.18 1228.74 62.0627L1227.92 60.8023C1226.14 61.9605 1224.4 63.2879 1222.71 64.7714L1223.71 65.9033ZM1235.9 66.2211C1231.57 65.2069 1227.31 64.668 1223.23 64.5845L1223.2 66.0902C1227.17 66.1714 1231.32 66.6961 1235.55 67.6874L1235.9 66.2211ZM1213.88 137.849C1208.8 134.232 1205.33 128.058 1203.88 120.276L1202.4 120.552C1203.9 128.6 1207.53 135.172 1213.01 139.075L1213.88 137.849ZM1211.49 121.842C1210.56 129.05 1210.9 135.064 1212.77 138.799L1214.12 138.125C1212.46 134.811 1212.06 129.179 1212.99 122.037L1211.49 121.842ZM1201.89 114.549C1204.77 117.44 1208.11 120.147 1211.83 122.571L1212.65 121.308C1209.01 118.939 1205.76 116.299 1202.95 113.486L1201.89 114.549ZM1203.88 120.276C1203.5 118.269 1203.27 116.165 1203.17 113.985L1201.67 114.05C1201.76 116.296 1202.01 118.471 1202.4 120.552L1203.88 120.276ZM1221.05 142.512C1227.67 143.774 1234.92 141.851 1241.77 137.371L1240.95 136.11C1234.32 140.443 1227.46 142.201 1221.34 141.033L1221.05 142.512ZM1233.38 130.746C1228.86 136.356 1224.51 139.958 1220.97 141.053L1221.42 142.492C1225.41 141.258 1229.99 137.352 1234.55 131.691L1233.38 130.746ZM1246.49 132.083C1242.52 132.001 1238.37 131.477 1234.14 130.485L1233.79 131.952C1238.12 132.966 1242.38 133.505 1246.46 133.588L1246.49 132.083ZM1241.77 137.371C1243.55 136.212 1245.29 134.885 1246.98 133.401L1245.98 132.27C1244.34 133.709 1242.66 134.993 1240.95 136.11L1241.77 137.371ZM1234.68 130.835C1239.22 131.852 1243.66 132.335 1247.88 132.311L1247.88 130.805C1243.78 130.828 1239.44 130.359 1235.01 129.365L1234.68 130.835ZM1241.92 117.962C1239.42 122.37 1236.83 126.307 1234.25 129.639L1235.44 130.561C1238.07 127.163 1240.71 123.165 1243.23 118.703L1241.92 117.962ZM1256.4 120.749C1252.23 120.124 1247.64 119.074 1242.79 117.612L1242.35 119.053C1247.26 120.534 1251.93 121.601 1256.18 122.238L1256.4 120.749ZM1248.4 132.105C1251.46 129.204 1254.34 125.78 1256.91 121.91L1255.66 121.077C1253.15 124.857 1250.34 128.193 1247.36 131.011L1248.4 132.105ZM1243 117.902C1247.98 119.392 1252.7 120.447 1256.95 121.05L1257.16 119.559C1252.99 118.968 1248.35 117.931 1243.43 116.459L1243 117.902ZM1248.36 104.861C1246.55 109.107 1244.59 113.118 1242.55 116.818L1243.87 117.544C1245.94 113.799 1247.92 109.743 1249.75 105.452L1248.36 104.861ZM1248.38 104.827L1248.36 104.861L1249.75 105.452L1249.76 105.418L1248.38 104.827ZM1262.43 109.888C1258.58 108.296 1254.17 106.452 1249.36 104.429L1248.78 105.817C1253.58 107.841 1258 109.686 1261.85 111.28L1262.43 109.888ZM1262.78 111.015L1262.84 110.879L1261.45 110.289L1261.39 110.425L1262.78 111.015ZM1257.69 120.708C1259.59 117.717 1261.3 114.476 1262.78 111.016L1261.39 110.425C1259.95 113.811 1258.27 116.98 1256.42 119.902L1257.69 120.708ZM1249.24 104.695C1254.02 106.764 1258.41 108.678 1262.22 110.358L1262.83 108.98C1259.01 107.298 1254.63 105.383 1249.84 103.312L1249.24 104.695ZM1252.98 92.3954C1251.83 96.0624 1250.45 99.8603 1248.85 103.714L1250.24 104.293C1251.86 100.399 1253.26 96.5578 1254.42 92.846L1252.98 92.3954ZM1266 99.8704C1262.62 97.2123 1258.6 94.5344 1254.08 91.966L1253.33 93.2754C1257.8 95.8125 1261.76 98.4494 1265.07 101.054L1266 99.8704ZM1263.22 109.953C1264.49 106.845 1265.5 103.727 1266.26 100.643L1264.8 100.281C1264.06 103.294 1263.07 106.343 1261.83 109.384L1263.22 109.953ZM1253.72 92.0159C1258.13 94.5065 1262.06 97.1005 1265.4 99.6787L1266.32 98.4875C1262.92 95.859 1258.92 93.2256 1254.46 90.7047L1253.72 92.0159ZM1256.51 77.5328C1255.88 81.6997 1254.83 86.2953 1253.37 91.1428L1254.81 91.5778C1256.29 86.6712 1257.36 82.0045 1258 77.7562L1256.51 77.5328ZM1267.86 85.5334C1264.96 82.468 1261.54 79.589 1257.67 77.0174L1256.84 78.2717C1260.62 80.7837 1263.95 83.5901 1266.77 86.5685L1267.86 85.5334ZM1266.59 99.248C1267.61 94.7142 1268.09 90.2669 1268.07 86.0467L1266.56 86.0553C1266.59 90.1557 1266.12 94.4894 1265.12 98.9181L1266.59 99.248ZM1257.04 76.8644C1260.68 79.2336 1263.93 81.8741 1266.74 84.6872L1267.8 83.6239C1264.92 80.7326 1261.58 78.0262 1257.86 75.6022L1257.04 76.8644ZM1255.57 60.0475C1257.23 63.3616 1257.63 68.9933 1256.7 76.1362L1258.2 76.3303C1259.13 69.1226 1258.79 63.1087 1256.92 59.3741L1255.57 60.0475ZM1267.29 77.6209C1265.79 69.5729 1262.16 63.0012 1256.68 59.0974L1255.81 60.3242C1260.89 63.9407 1264.36 70.1148 1265.81 77.897L1267.29 77.6209ZM1268.02 84.1231C1267.93 81.8763 1267.68 79.7014 1267.29 77.6209L1265.81 77.897C1266.19 79.9038 1266.42 82.008 1266.52 84.188L1268.02 84.1231ZM1209.19 135.266C1204.55 129.831 1201.98 121.815 1201.84 112.625L1200.34 112.648C1200.48 122.079 1203.12 130.469 1208.04 136.243L1209.19 135.266ZM1189.8 90.592C1186.49 108.074 1193.7 126.029 1208.18 136.367L1209.05 135.141C1195.05 125.144 1188.08 107.778 1191.28 90.8724L1189.8 90.592ZM1201.64 112.124C1195.39 105.388 1191.7 97.8221 1191.29 90.6892L1189.79 90.7752C1190.22 98.3535 1194.12 106.236 1200.54 113.149L1201.64 112.124ZM1201.85 110.736C1201.93 106.764 1202.45 102.607 1203.45 98.3788L1201.98 98.0351C1200.97 102.361 1200.43 106.623 1200.34 110.705L1201.85 110.736ZM1196.56 106.016C1197.72 107.787 1199.05 109.527 1200.53 111.218L1201.66 110.224C1200.22 108.584 1198.94 106.9 1197.82 105.192L1196.56 106.016ZM1191.42 85.2962C1190.16 91.9074 1192.08 99.1642 1196.56 106.016L1197.82 105.192C1193.49 98.5663 1191.73 91.7031 1192.9 85.5785L1191.42 85.2962ZM1203.19 97.6205C1197.58 93.1023 1193.97 88.7547 1192.88 85.2149L1191.44 85.6598C1192.67 89.6488 1196.58 94.2341 1202.24 98.7934L1203.19 97.6205ZM1207.11 87.2432L1207.18 87.0925L1205.79 86.4994L1205.73 86.6501L1207.11 87.2432ZM1203.78 97.0116C1204.62 93.7715 1205.72 90.4981 1207.11 87.2424L1205.73 86.6509C1204.31 89.9761 1203.18 93.3217 1202.32 96.6362L1203.78 97.0116ZM1200.76 95.8593C1201.34 96.3732 1201.94 96.8891 1202.58 97.4061L1203.53 96.2417C1202.91 95.7363 1202.32 95.2329 1201.76 94.7324L1200.76 95.8593ZM1193.67 87.5834C1195.06 90.1302 1197.48 92.9475 1200.76 95.8593L1201.76 94.7325C1198.54 91.882 1196.26 89.1978 1194.99 86.8617L1193.67 87.5834ZM1192.7 81.0868C1191.96 82.8329 1192.27 85.0285 1193.67 87.5834L1194.99 86.8617C1193.7 84.5012 1193.6 82.8199 1194.09 81.6784L1192.7 81.0868ZM1192.96 80.5637C1192.87 80.7341 1192.78 80.9086 1192.7 81.0868L1194.09 81.6784C1194.14 81.5582 1194.2 81.4397 1194.27 81.323L1192.96 80.5637ZM1206.79 86.1072C1200.51 83.3325 1195.95 81.263 1193.95 80.2688L1193.28 81.6179C1195.32 82.6297 1199.91 84.713 1206.18 87.4847L1206.79 86.1072ZM1207.56 86.2232C1208.84 83.3458 1210.29 80.6249 1211.87 78.0805L1210.59 77.2865C1208.97 79.8892 1207.49 82.6706 1206.18 85.6098L1207.56 86.2232ZM1193.53 81.387C1195.65 82.1583 1200.28 84.0128 1206.58 86.6126L1207.16 85.2204C1200.86 82.6231 1196.2 80.7557 1194.04 79.9712L1193.53 81.387ZM1198.06 77.2922C1195.72 77.9248 1194.08 78.9223 1193.16 80.2512L1194.4 81.107C1195.04 80.1837 1196.3 79.329 1198.45 78.7462L1198.06 77.2922ZM1208.95 76.694C1204.57 76.335 1200.86 76.5356 1198.06 77.2922L1198.45 78.7462C1201.02 78.0522 1204.54 77.8435 1208.82 78.195L1208.95 76.694ZM1211.32 76.9359C1210.51 76.8381 1209.72 76.7574 1208.95 76.694L1208.82 78.195C1209.57 78.2567 1210.35 78.3354 1211.14 78.4311L1211.32 76.9359ZM1212.62 76.8923C1214.99 73.2525 1217.63 69.9989 1220.45 67.1939L1219.38 66.1275C1216.49 69.0103 1213.78 72.3467 1211.36 76.0707L1212.62 76.8923ZM1195.81 78.3602C1199.12 76.7033 1204.75 76.2998 1211.89 77.2282L1212.09 75.7347C1204.88 74.7979 1198.87 75.146 1195.13 77.0131L1195.81 78.3602ZM1213.38 66.6376C1205.33 68.1383 1198.76 71.7672 1194.86 77.2499L1196.08 78.1234C1199.7 73.0443 1205.87 69.5692 1213.66 68.1181L1213.38 66.6376ZM1219.88 65.9084C1217.63 66.0052 1215.46 66.2496 1213.38 66.6376L1213.66 68.1181C1215.66 67.7439 1217.77 67.507 1219.95 67.413L1219.88 65.9084ZM1221.81 65.8841C1228.54 59.6312 1236.11 55.9441 1243.24 55.5362L1243.16 54.0326C1235.58 54.466 1227.7 58.3635 1220.78 64.7803L1221.81 65.8841ZM1198.67 73.4309C1204.1 68.7936 1212.12 66.2259 1221.31 66.0851L1221.28 64.5793C1211.85 64.7237 1203.46 67.3583 1197.69 72.2852L1198.67 73.4309ZM1243.34 54.0445C1225.86 50.7305 1207.9 57.9382 1197.56 72.4205L1198.79 73.2956C1208.79 59.2912 1226.15 52.3196 1243.06 55.5242L1243.34 54.0445ZM1279.89 107.581C1283.2 90.0984 1275.99 72.1439 1261.51 61.8056L1260.64 63.0314C1274.64 73.0284 1281.61 90.395 1278.41 107.3L1279.89 107.581ZM1268.05 86.0484C1274.3 92.7849 1277.99 100.351 1278.4 107.484L1279.9 107.398C1279.47 99.8193 1275.57 91.9369 1269.15 85.0239L1268.05 86.0484ZM1260.5 62.9072C1265.14 68.3423 1267.71 76.3575 1267.85 85.5477L1269.35 85.5246C1269.21 76.0936 1266.57 67.7042 1261.65 61.9297L1260.5 62.9072ZM1273.13 92.1568C1271.97 90.3856 1270.64 88.6454 1269.16 86.9553L1268.03 87.9488C1269.47 89.5886 1270.75 91.2726 1271.87 92.9811L1273.13 92.1568ZM1278.27 112.877C1279.53 106.265 1277.61 99.0086 1273.13 92.1568L1271.87 92.9811C1276.2 99.6065 1277.96 106.47 1276.79 112.594L1278.27 112.877ZM1266.5 100.552C1272.11 105.071 1275.72 109.418 1276.81 112.958L1278.25 112.513C1277.02 108.524 1273.11 103.939 1267.45 99.3794L1266.5 100.552ZM1267.84 87.4367C1267.76 91.4085 1267.24 95.5657 1266.24 99.794L1267.71 100.138C1268.72 95.8116 1269.26 91.5495 1269.35 87.4675L1267.84 87.4367ZM1268.93 102.314C1268.35 101.8 1267.74 101.284 1267.11 100.767L1266.16 101.931C1266.78 102.437 1267.37 102.94 1267.93 103.44L1268.93 102.314ZM1276.02 110.589C1274.63 108.043 1272.21 105.225 1268.93 102.314L1267.93 103.44C1271.15 106.291 1273.43 108.975 1274.7 111.311L1276.02 110.589ZM1277.27 116.174C1277.6 114.592 1277.19 112.719 1276.02 110.589L1274.7 111.311C1275.77 113.273 1276.02 114.772 1275.8 115.871L1277.27 116.174ZM1263.4 110.878C1269.63 113.633 1274.17 115.694 1276.2 116.697L1276.87 115.348C1274.81 114.327 1270.24 112.253 1264.01 109.5L1263.4 110.878ZM1265.91 101.161C1265.16 104.061 1264.2 106.988 1263 109.904L1264.4 110.474C1265.62 107.494 1266.6 104.503 1267.37 101.537L1265.91 101.161ZM1276.72 115.619C1274.61 114.858 1269.97 112.997 1263.62 110.379L1263.05 111.771C1269.38 114.386 1274.06 116.261 1276.2 117.035L1276.72 115.619ZM1276.99 117.086C1277.06 116.908 1277.13 116.724 1277.18 116.534L1275.74 116.119C1275.7 116.249 1275.65 116.374 1275.6 116.494L1276.99 117.086ZM1271.63 120.881C1274.44 120.122 1276.24 118.832 1276.99 117.086L1275.6 116.494C1275.12 117.636 1273.83 118.725 1271.23 119.427L1271.63 120.881ZM1260.74 121.479C1265.12 121.838 1268.83 121.637 1271.63 120.881L1271.23 119.427C1268.67 120.121 1265.15 120.329 1260.87 119.978L1260.74 121.479ZM1258.37 121.237C1259.18 121.335 1259.97 121.415 1260.74 121.479L1260.87 119.978C1260.12 119.916 1259.34 119.837 1258.55 119.742L1258.37 121.237ZM1262.58 110.93C1261.19 114.186 1259.59 117.249 1257.82 120.092L1259.1 120.886C1260.91 117.978 1262.54 114.847 1263.96 111.522L1262.58 110.93ZM1262.64 110.78L1262.58 110.931L1263.96 111.521L1264.03 111.37L1262.64 110.78ZM1273.88 119.813C1270.57 121.469 1264.94 121.873 1257.8 120.945L1257.6 122.438C1264.81 123.375 1270.82 123.027 1274.56 121.16L1273.88 119.813ZM1256.31 131.535C1264.36 130.035 1270.93 126.406 1274.83 120.923L1273.61 120.049C1269.99 125.128 1263.82 128.604 1256.03 130.055L1256.31 131.535ZM1249.81 132.264C1252.05 132.168 1254.23 131.923 1256.31 131.535L1256.03 130.055C1254.03 130.429 1251.92 130.666 1249.74 130.76L1249.81 132.264ZM1257.07 121.281C1254.7 124.92 1252.06 128.174 1249.24 130.979L1250.31 132.045C1253.2 129.162 1255.91 125.826 1258.33 122.102L1257.07 121.281Z" fill="url(#paint0_radial_111_2161)" mask="url(#path-1-inside-1_111_2161)"/>
</g>
<defs>
<radialGradient id="paint0_radial_111_2161" cx="0" cy="0" r="1" gradientUnits="userSpaceOnUse" gradientTransform="translate(1290.88 115.506) rotate(-135.871) scale(184.395 573.382)">
<stop stop-color="#E6E7EA"/>
<stop offset="0.5625" stop-color="#DFE3F0" stop-opacity="0"/>
</radialGradient>
</defs>
</svg>
