<svg width="113" height="29" viewBox="0 0 113 29" fill="none" xmlns="http://www.w3.org/2000/svg">
<path d="M9.57439 7.21201C9.91323 6.3833 11.0868 6.3833 11.4256 7.21201L13.7563 12.9123C13.7906 12.996 13.836 13.0747 13.8914 13.1462L17.6626 18.0148C18.2108 18.7226 17.6241 19.7389 16.737 19.618L10.635 18.7863C10.5454 18.7741 10.4546 18.7741 10.365 18.7863L4.26303 19.618C3.37593 19.7389 2.78916 18.7226 3.33742 18.0148L7.10861 13.1462C7.164 13.0747 7.20943 12.996 7.24366 12.9123L9.57439 7.21201Z" fill="#FDB23E"/>
<path d="M29.5744 7.21201C29.9132 6.3833 31.0868 6.3833 31.4256 7.21201L33.7563 12.9123C33.7906 12.996 33.836 13.0747 33.8914 13.1462L37.6626 18.0148C38.2108 18.7226 37.6241 19.7389 36.737 19.618L30.635 18.7863C30.5454 18.7741 30.4546 18.7741 30.365 18.7863L24.263 19.618C23.3759 19.7389 22.7892 18.7226 23.3374 18.0148L27.1086 13.1462C27.164 13.0747 27.2094 12.996 27.2437 12.9123L29.5744 7.21201Z" fill="#FDB23E"/>
<path d="M49.5744 7.21201C49.9132 6.3833 51.0868 6.3833 51.4256 7.21201L53.7563 12.9123C53.7906 12.996 53.836 13.0747 53.8914 13.1462L57.6626 18.0148C58.2108 18.7226 57.6241 19.7389 56.737 19.618L50.635 18.7863C50.5454 18.7741 50.4546 18.7741 50.365 18.7863L44.263 19.618C43.3759 19.7389 42.7892 18.7226 43.3374 18.0148L47.1086 13.1462C47.164 13.0747 47.2094 12.996 47.2437 12.9123L49.5744 7.21201Z" fill="#FDB23E"/>
<path d="M69.5744 7.21201C69.9132 6.3833 71.0868 6.3833 71.4256 7.21201L73.7563 12.9123C73.7906 12.996 73.836 13.0747 73.8914 13.1462L77.6626 18.0148C78.2108 18.7226 77.6241 19.7389 76.737 19.618L70.635 18.7863C70.5454 18.7741 70.4546 18.7741 70.365 18.7863L64.263 19.618C63.3759 19.7389 62.7892 18.7226 63.3374 18.0148L67.1086 13.1462C67.164 13.0747 67.2094 12.996 67.2437 12.9123L69.5744 7.21201Z" fill="#FDB23E"/>
<path d="M89.5744 7.21201C89.9132 6.3833 91.0868 6.3833 91.4256 7.21201L93.7563 12.9123C93.7906 12.996 93.836 13.0747 93.8914 13.1462L97.6626 18.0148C98.2108 18.7226 97.6241 19.7389 96.737 19.618L90.635 18.7863C90.5454 18.7741 90.4546 18.7741 90.365 18.7863L84.263 19.618C83.3759 19.7389 82.7892 18.7226 83.3374 18.0148L87.1086 13.1462C87.164 13.0747 87.2094 12.996 87.2437 12.9123L89.5744 7.21201Z" fill="#FDB23E"/>
<rect x="111.5" y="0.948242" width="1" height="28" fill="#D1D5DB"/>
</svg>
