<svg width="26" height="25" viewBox="0 0 26 25" fill="none" xmlns="http://www.w3.org/2000/svg">
<path d="M21.168 3.125H5.52344C4.66895 3.125 3.92188 3.74023 3.92188 4.58496V20.2637C3.92188 21.1133 4.66895 21.8701 5.52344 21.8701H21.1631C22.0225 21.8701 22.667 21.1084 22.667 20.2637V4.58496C22.6719 3.74023 22.0225 3.125 21.168 3.125ZM9.73242 18.75H7.04688V10.4004H9.73242V18.75ZM8.48242 9.13086H8.46289C7.60352 9.13086 7.04688 8.49121 7.04688 7.69043C7.04688 6.875 7.61816 6.25 8.49707 6.25C9.37598 6.25 9.91309 6.87012 9.93262 7.69043C9.93262 8.49121 9.37598 9.13086 8.48242 9.13086ZM19.5469 18.75H16.8613V14.1846C16.8613 13.0908 16.4707 12.3438 15.499 12.3438C14.7568 12.3438 14.3174 12.8467 14.1221 13.335C14.0488 13.5107 14.0293 13.75 14.0293 13.9941V18.75H11.3438V10.4004H14.0293V11.5625C14.4199 11.0059 15.0303 10.2051 16.4512 10.2051C18.2139 10.2051 19.5469 11.3672 19.5469 13.8721V18.75V18.75Z" fill="#D1D5DB"/>
</svg>
