<svg width="137" height="49" viewBox="0 0 137 49" fill="none" xmlns="http://www.w3.org/2000/svg">
<g clip-path="url(#clip0_0_2538)">
<path fill-rule="evenodd" clip-rule="evenodd" d="M38.9576 13.7192L38.9594 13.7231C38.9609 13.7263 38.9624 13.7294 38.9637 13.7326C38.9651 13.7361 38.9663 13.7396 38.967 13.7431C38.9812 13.7966 38.9886 13.8517 38.989 13.9071V22.4931C38.9892 22.6029 38.9605 22.7108 38.9059 22.8061C38.8514 22.9014 38.7728 22.9807 38.678 23.0361L31.54 27.1861V35.4091C31.5401 35.519 31.5113 35.627 31.4565 35.7223C31.4018 35.8176 31.323 35.8968 31.228 35.9521L16.329 44.6121C16.2947 44.6307 16.2585 44.6455 16.221 44.6561C16.2163 44.6581 16.2118 44.6603 16.2072 44.6626C16.1981 44.667 16.189 44.6715 16.179 44.6741C16.0749 44.7022 15.9651 44.7022 15.861 44.6741C15.8541 44.6721 15.8473 44.6697 15.8408 44.6668L15.833 44.6631L15.813 44.6531L15.8021 44.6494C15.7708 44.6388 15.7396 44.6282 15.71 44.6111L0.811002 35.9521C0.716219 35.8967 0.637623 35.8174 0.583054 35.7221C0.528484 35.6268 0.499848 35.5189 0.500001 35.4091V9.65112C0.500386 9.59614 0.507438 9.54141 0.521002 9.48812C0.524135 9.4782 0.528358 9.4691 0.532534 9.4601C0.536351 9.45187 0.540137 9.44372 0.543002 9.43512L0.563002 9.38212C0.568577 9.36698 0.575262 9.35228 0.583002 9.33812C0.590399 9.32579 0.599697 9.3146 0.60902 9.30338C0.61482 9.29641 0.620633 9.28941 0.626002 9.28212C0.630945 9.27526 0.635662 9.26832 0.64036 9.2614C0.652769 9.24314 0.665044 9.22508 0.681002 9.20912C0.692514 9.19761 0.705662 9.18814 0.718876 9.17863C0.726323 9.17327 0.733794 9.16789 0.741002 9.16212C0.748029 9.15662 0.75487 9.15094 0.761694 9.14526C0.777208 9.13237 0.79264 9.11954 0.810002 9.10912L8.26 4.77912C8.35412 4.72431 8.46109 4.69543 8.57 4.69543C8.67892 4.69543 8.78588 4.72431 8.88 4.77912L16.33 9.10912C16.3474 9.11954 16.3628 9.13237 16.3783 9.14526C16.3851 9.15093 16.392 9.15663 16.399 9.16212L16.42 9.17812C16.434 9.18812 16.448 9.19812 16.46 9.20912C16.4749 9.22483 16.4883 9.24191 16.5 9.26012L16.515 9.28212C16.5204 9.29 16.5265 9.29736 16.5326 9.30477C16.5412 9.31523 16.55 9.32584 16.557 9.33812C16.5714 9.36348 16.5815 9.39169 16.5915 9.41975L16.597 9.43512L16.607 9.45712L16.619 9.48712C16.633 9.54066 16.6401 9.59578 16.64 9.65112V25.7391L22.848 22.1311V13.9071C22.8483 13.8521 22.8557 13.7973 22.87 13.7441C22.8728 13.7334 22.8772 13.7236 22.8816 13.7139C22.885 13.7064 22.8884 13.699 22.891 13.6911L22.898 13.6711C22.9067 13.6445 22.9177 13.6188 22.931 13.5941C22.9387 13.5814 22.9474 13.5694 22.957 13.5581C22.9629 13.5516 22.9685 13.545 22.974 13.5381L22.9876 13.5187C23.0006 13.5 23.0134 13.4815 23.029 13.4651C23.0365 13.4576 23.044 13.4518 23.0515 13.446L23.059 13.4401L23.0658 13.4354C23.0738 13.4299 23.082 13.4243 23.089 13.4181L23.125 13.3881C23.1354 13.3796 23.1464 13.3719 23.158 13.3651L30.608 9.03512C30.7021 8.98031 30.8091 8.95144 30.918 8.95144C31.0269 8.95144 31.1339 8.98031 31.228 9.03512L38.678 13.3651C38.6944 13.3746 38.7083 13.3864 38.7222 13.3981C38.7303 13.405 38.7385 13.4118 38.747 13.4181L38.769 13.4341L38.7764 13.4398C38.7872 13.4479 38.7981 13.4562 38.807 13.4651C38.822 13.4811 38.8354 13.4985 38.847 13.5171L38.863 13.5381C38.8681 13.5449 38.8735 13.5516 38.879 13.5581C38.889 13.5701 38.898 13.5811 38.905 13.5941C38.9185 13.6198 38.9299 13.6466 38.939 13.6741L38.945 13.6911L38.955 13.7131L38.9576 13.7192ZM9.822 31.1481L16.018 34.6881L29.67 26.8211L23.469 23.2161L9.822 31.1481ZM30.298 25.7391V18.5991L24.09 14.9921V22.1321L30.298 25.7391ZM37.124 13.9081L30.918 10.3011L24.713 13.9081L30.918 17.5141L37.124 13.9081ZM9.191 14.3431V30.0691L15.399 26.4601V10.7351L9.19 14.3431H9.191ZM14.775 9.65112L8.57 6.04512L2.364 9.65112L8.57 13.2581L14.775 9.65112ZM7.949 14.3451L1.741 10.7351V35.0451L15.4 42.9851V35.7751L8.265 31.6991L8.263 31.6981L8.259 31.6951C8.24114 31.6844 8.22584 31.6711 8.21053 31.6579L8.20069 31.6494L8.192 31.6421C8.18481 31.6369 8.17748 31.6319 8.17 31.6271C8.15681 31.6182 8.14443 31.6082 8.133 31.5971L8.131 31.5951C8.11993 31.584 8.1103 31.5708 8.10089 31.5578L8.096 31.5511C8.09083 31.5437 8.08549 31.5363 8.08 31.5291L8.05 31.4911C8.04412 31.4839 8.03878 31.4762 8.034 31.4681L8.033 31.4661C8.02331 31.4491 8.01559 31.4309 8.01 31.4121L8 31.3881L7.985 31.3551C7.97925 31.3429 7.97456 31.3302 7.971 31.3171C7.96565 31.2951 7.9623 31.2717 7.961 31.2491L7.958 31.2241L7.95624 31.2115L7.954 31.1981L7.95258 31.1888C7.95083 31.1775 7.949 31.1658 7.949 31.1541V14.3451ZM16.64 42.9851L30.297 35.0481V27.9041L16.64 35.7741V42.9851ZM31.54 25.7381L37.748 22.1301V14.9901L31.54 18.5991V25.7381Z" fill="#6B7280"/>
<path d="M133.239 13.9091H136.5V35.0551H133.239V13.9091Z" fill="#6B7280"/>
<path d="M48.893 13.9101H52.334V31.9441H58.797V35.0551H48.893V13.9101Z" fill="#6B7280"/>
<path fill-rule="evenodd" clip-rule="evenodd" d="M70.946 22.8811C70.506 22.1761 69.884 21.6231 69.076 21.2201C68.267 20.8171 67.455 20.6151 66.637 20.6151C65.579 20.6151 64.612 20.8121 63.735 21.2051C62.8784 21.5825 62.109 22.1326 61.475 22.8211C60.8423 23.5128 60.3451 24.317 60.009 25.1921C59.659 26.0881 59.485 27.0301 59.485 28.0161C59.4782 28.9874 59.656 29.9512 60.009 30.8561C60.3471 31.7255 60.8439 32.5244 61.474 33.2121C62.1079 33.9008 62.8773 34.451 63.734 34.8281C64.612 35.2211 65.579 35.4171 66.636 35.4171C67.455 35.4171 68.268 35.2161 69.076 34.8131C69.884 34.4111 70.507 33.8571 70.946 33.1521V35.0551H74.207V20.9781H70.946V22.8811ZM70.647 29.7381C70.4603 30.2603 70.1759 30.7422 69.809 31.1581C69.4447 31.565 69.0018 31.8939 68.507 32.1251C67.998 32.3671 67.434 32.4871 66.816 32.4871C66.237 32.496 65.6637 32.3721 65.14 32.1251C64.642 31.8831 64.214 31.5611 63.854 31.1581C63.4883 30.744 63.2085 30.2613 63.031 29.7381C62.841 29.1951 62.747 28.6211 62.747 28.0171C62.7437 27.4312 62.8397 26.8489 63.031 26.2951C63.22 25.7511 63.494 25.2781 63.854 24.8751C64.2147 24.4711 64.6517 24.1425 65.14 23.9081C65.639 23.6661 66.197 23.5461 66.817 23.5461C67.4003 23.5386 67.9779 23.6623 68.507 23.9081C69.0017 24.1395 69.4445 24.4684 69.809 24.8751C70.1758 25.291 70.4602 25.7729 70.647 26.2951C70.846 26.8381 70.947 27.4121 70.947 28.0171C70.949 28.604 70.8475 29.1866 70.647 29.7381Z" fill="#6B7280"/>
<path fill-rule="evenodd" clip-rule="evenodd" d="M95.588 21.2201C96.395 21.6231 97.018 22.1761 97.458 22.8811V20.9781H100.719V35.0551H97.458V33.1531C97.018 33.8571 96.396 34.4111 95.588 34.8131C94.779 35.2161 93.967 35.4181 93.149 35.4181C92.091 35.4181 91.124 35.2211 90.247 34.8281C89.3903 34.451 88.6208 33.9008 87.987 33.2121C87.3566 32.5248 86.8595 31.7262 86.521 30.8571C86.171 29.9701 85.997 29.0241 85.997 28.0171C85.9931 27.0509 86.1709 26.0926 86.521 25.1921C86.8567 24.3171 87.3537 23.5129 87.986 22.8211C88.62 22.1326 89.3894 21.5825 90.246 21.2051C91.124 20.8121 92.091 20.6161 93.148 20.6161C93.967 20.6161 94.78 20.8171 95.588 21.2201ZM96.32 31.1581C96.6869 30.7422 96.9713 30.2603 97.158 29.7381C97.358 29.1951 97.458 28.6211 97.458 28.0171C97.458 27.4121 97.357 26.8381 97.159 26.2951C96.959 25.7511 96.68 25.2781 96.32 24.8751C95.961 24.4731 95.528 24.1501 95.018 23.9081C94.51 23.6661 93.946 23.5461 93.328 23.5461C92.749 23.5373 92.1757 23.6611 91.652 23.9081C91.1637 24.1424 90.7266 24.471 90.366 24.8751C89.9998 25.2889 89.72 25.7717 89.543 26.2951C89.353 26.8381 89.258 27.4121 89.258 28.0171C89.255 28.6028 89.3514 29.1847 89.543 29.7381C89.7203 30.2614 90 30.7442 90.366 31.1581C90.7265 31.5623 91.1636 31.891 91.652 32.1251C92.151 32.3671 92.71 32.4871 93.328 32.4871C93.9117 32.4948 94.4896 32.3711 95.019 32.1251C95.5134 31.8938 95.956 31.5649 96.32 31.1581Z" fill="#6B7280"/>
<path d="M76.781 35.055H80.043V24.218H85.639V20.978H76.78L76.781 35.055Z" fill="#6B7280"/>
<path d="M109.697 31.758L113.796 20.978H117.1L111.746 35.055H107.647L102.294 20.978H105.597L109.697 31.758Z" fill="#6B7280"/>
<path fill-rule="evenodd" clip-rule="evenodd" d="M117.058 28.0161C117.058 23.9301 120.22 20.6161 124.214 20.6161C128.655 20.6161 131.683 24.5901 131.115 29.2401H120.294C120.294 30.4541 121.509 32.8021 124.393 32.8021C126.82 32.8021 128.463 30.6936 128.536 30.6012C128.537 30.5992 128.538 30.5981 128.538 30.5981L130.741 32.3191C128.771 34.4421 127.158 35.4171 124.632 35.4171C120.118 35.4171 117.058 32.5351 117.058 28.0161ZM124.188 23.2311C120.704 23.2311 120.328 26.5231 120.303 26.7931H128.119C128.095 26.5221 127.672 23.2311 124.188 23.2311Z" fill="#6B7280"/>
</g>
<defs>
<clipPath id="clip0_0_2538">
<rect width="136" height="48" fill="white" transform="translate(0.5 0.695068)"/>
</clipPath>
</defs>
</svg>
