<svg width="22" height="25" viewBox="0 0 22 25" fill="none" xmlns="http://www.w3.org/2000/svg">
<g clip-path="url(#clip0_172_3547)">
<path d="M21.0977 24.3785V0.550391H19.3867V-0.0214844H21.7617V24.9785H19.3867V24.4066L21.0977 24.3785Z" fill="#D1D5DB"/>
<path d="M6.35586 8.12891V9.33203H6.39023C6.69102 8.89141 7.08789 8.52734 7.5543 8.26172C8.00742 8.00937 8.53086 7.88281 9.10898 7.88281C9.67148 7.88281 10.1871 7.99219 10.648 8.21094C11.1129 8.42891 11.4684 8.81328 11.7105 9.36719C11.9746 8.97656 12.3324 8.63203 12.7887 8.33594C13.2418 8.03672 13.7809 7.8875 14.398 7.8875C14.8684 7.8875 15.3043 7.94531 15.7027 8.05937C16.1043 8.175 16.448 8.35859 16.734 8.61172C17.0199 8.86406 17.2441 9.19453 17.4051 9.60391C17.5652 10.0117 17.6457 10.5023 17.6457 11.0805V17.0414H15.2004V11.9945C15.2004 11.6953 15.1887 11.4141 15.166 11.1508C15.1497 10.9109 15.0855 10.6766 14.977 10.4617C14.873 10.2656 14.7145 10.1039 14.5207 9.99609C14.3199 9.88203 14.0473 9.82422 13.7004 9.82422C13.3566 9.82422 13.0785 9.89063 12.8645 10.0219C12.652 10.1547 12.4855 10.3266 12.3652 10.5391C12.241 10.7633 12.159 11.0094 12.1246 11.2633C12.084 11.5344 12.0637 11.8078 12.0637 12.0836V17.0445H9.61836V12.0445C9.61836 11.7805 9.61289 11.5188 9.60195 11.2633C9.59305 11.018 9.54344 10.7766 9.45508 10.5477C9.3707 10.3313 9.2207 10.1477 9.02539 10.0219C8.82383 9.89063 8.52852 9.82422 8.13477 9.82422C7.98008 9.8307 7.82695 9.85703 7.67852 9.90234C7.47695 9.96055 7.28945 10.0602 7.12773 10.1945C6.94961 10.3383 6.79805 10.5453 6.67148 10.8148C6.5457 11.0852 6.48242 11.4383 6.48242 11.8773V17.0492H4.03711V8.14297L6.35586 8.12891Z" fill="#D1D5DB"/>
<path d="M0.657226 0.575586V24.4037H2.36816V24.9756H-0.00683594V-0.0244141H2.36035V0.547461L0.657226 0.575586Z" fill="#D1D5DB"/>
</g>
<defs>
<clipPath id="clip0_172_3547">
<rect width="21.7969" height="25" fill="white"/>
</clipPath>
</defs>
</svg>
