<svg width="40" height="40" viewBox="0 0 40 40" fill="none" xmlns="http://www.w3.org/2000/svg">
<path d="M2 2C4.17732 2.95637 6.23203 3.93597 8.34353 4.76328C10.3724 5.55961 12.453 6.22558 14.5257 6.90575C15.4292 7.2026 16.4165 6.42176 16.5469 5.34278C16.6359 4.60453 16.6669 3.85853 16.7289 3.06478C18.3448 4.08181 19.9736 5.11046 21.6036 6.13265C25.2252 8.40419 28.8648 10.6499 32.467 12.9486C35.5452 14.9155 37.5677 17.6788 38.4879 21.2358C39.5746 25.433 38.9022 29.3501 36.4512 32.8891C34.2133 36.1157 31.1196 38.1304 27.1909 38.7486C22.0786 39.5527 17.6943 38.1097 14.1811 34.3152C12.6388 32.6477 11.3133 30.7789 9.89102 28.9991C8.36418 27.0863 6.83863 25.1723 5.28082 23.2195C6.223 23.5086 7.09677 23.83 7.99764 24.0326C8.47658 24.1328 8.97218 24.1208 9.44574 23.9978C9.84899 23.8632 10.7286 23.0789 10.3815 22.1638C9.32055 19.3566 8.29061 16.5353 7.12516 13.7746C5.50927 9.94135 3.78238 6.15976 2.10325 2.34718C2.07098 2.26716 2.05421 2.18456 2 2ZM25.3246 15.5996C19.9503 15.5828 15.5337 19.9516 15.4485 25.2317C15.3621 30.6446 19.9039 35.3193 25.5233 35.1903C31.046 35.0612 34.927 30.6653 35.1361 25.7763C35.3878 19.9129 30.3942 15.504 25.3246 15.5996Z" fill="#4F46E5"/>
</svg>
