<svg width="159" height="43" viewBox="0 0 159 43" fill="none" xmlns="http://www.w3.org/2000/svg">
<path d="M20.3344 35.0182C20.5947 35.2788 20.9477 35.4255 21.316 35.426C22.067 35.426 22.703 34.788 22.703 34.035V9.06505C22.703 8.69674 22.5568 8.3435 22.2966 8.08288C22.0363 7.82226 21.6833 7.67558 21.315 7.67505C20.535 7.67505 19.928 8.31205 19.928 9.06505V34.036C19.928 34.4044 20.0742 34.7576 20.3344 35.0182Z" fill="#6B7280"/>
<path d="M8.883 22.942H15.533L15.534 22.941C15.9027 22.941 16.2562 22.7946 16.5169 22.5339C16.7776 22.2733 16.924 21.9197 16.924 21.5511C16.924 21.1824 16.7776 20.8288 16.5169 20.5682C16.2562 20.3075 15.9027 20.161 15.534 20.161H8.884C8.103 20.161 7.496 20.7691 7.496 21.552C7.496 21.9202 7.64204 22.2733 7.90206 22.5339C8.16209 22.7945 8.51487 22.9413 8.883 22.942Z" fill="#6B7280"/>
<path d="M27.098 22.942H33.776C34.528 22.942 35.135 22.333 35.135 21.5511C35.135 21.1829 34.989 20.8298 34.7289 20.5692C34.4689 20.3086 34.1161 20.1618 33.748 20.161H27.098C26.317 20.161 25.71 20.7691 25.71 21.552C25.71 21.9204 25.8562 22.2736 26.1164 22.5342C26.3767 22.7948 26.7297 22.9415 27.098 22.942Z" fill="#6B7280"/>
<path fill-rule="evenodd" clip-rule="evenodd" d="M0.5 21.5511C0.5 33.0511 9.838 42.4071 21.316 42.4071C32.794 42.4071 42.132 33.0511 42.132 21.5511C42.132 10.0511 32.794 0.695068 21.316 0.695068C9.838 0.695068 0.5 10.0511 0.5 21.5511ZM3.276 21.5511C3.276 11.5861 11.371 3.47607 21.316 3.47607C31.262 3.47607 39.356 11.5861 39.356 21.5511C39.356 31.5161 31.262 39.6261 21.316 39.6261C11.371 39.6261 3.276 31.5161 3.276 21.5511Z" fill="#6B7280"/>
<path d="M55.923 13.382V15.873H59.97V29.7481H62.804V15.873H66.88V13.382H55.923Z" fill="#6B7280"/>
<path d="M72.691 20.334C73.1369 20.3333 73.582 20.3721 74.021 20.45V17.93L74.0019 17.9281C73.7192 17.8997 73.4335 17.871 73.01 17.871C71.477 17.871 70.32 18.8861 69.8 19.871H69.742V18.2491H67.111V29.719H69.801V23.9261C69.801 21.522 70.87 20.334 72.691 20.334Z" fill="#6B7280"/>
<path fill-rule="evenodd" clip-rule="evenodd" d="M86.916 29.719V18.248H84.314V19.812H84.256C83.562 18.9141 82.405 17.901 80.497 17.901C77.375 17.901 74.802 20.334 74.802 23.984C74.802 28.097 77.722 30.154 80.295 30.154C82.203 30.154 83.447 29.2561 84.227 28.271H84.285V29.719H86.916ZM84.4 24.041C84.4 26.243 82.752 27.779 80.989 27.779C78.618 27.779 77.519 25.895 77.519 23.984C77.519 22.101 78.647 20.189 81.018 20.189C82.897 20.189 84.4 21.7241 84.4 24.041Z" fill="#6B7280"/>
<path d="M92.67 18.248H90.01L90.009 29.7481H92.698V23.665C92.698 21.435 93.854 20.247 95.531 20.247C97.064 20.247 97.988 21.289 97.988 23.259V29.719H100.678V23.115C100.678 19.4361 98.596 17.872 96.225 17.872C94.953 17.872 93.623 18.3931 92.727 19.6971H92.67V18.248Z" fill="#6B7280"/>
<path d="M107.269 19.813C108.05 19.813 108.686 20.363 108.802 21.203L111.23 21.202C110.941 19.32 109.64 17.872 107.182 17.872C104.754 17.872 103.279 19.2621 103.279 21.1451C103.279 22.941 104.378 24.0131 106.518 24.708C108.426 25.345 108.917 25.896 108.917 26.764C108.917 27.5471 108.339 28.184 107.327 28.184C106.142 28.184 105.563 27.46 105.448 26.504H102.961C103.164 28.647 104.523 30.154 107.269 30.154C109.9 30.154 111.49 28.6761 111.49 26.562C111.49 24.9401 110.623 23.665 108.165 22.883C106.171 22.217 105.824 21.724 105.824 21.029C105.824 20.392 106.344 19.813 107.269 19.813Z" fill="#6B7280"/>
<path d="M116.81 12.976H113.832V15.699H116.81V12.976Z" fill="#6B7280"/>
<path d="M116.665 18.248H113.977V29.7481H116.665V18.248Z" fill="#6B7280"/>
<path d="M123.43 19.813C124.211 19.813 124.847 20.363 124.963 21.203L127.391 21.202C127.102 19.32 125.801 17.872 123.344 17.872C120.915 17.872 119.441 19.2621 119.441 21.1451C119.441 22.941 120.539 24.0131 122.679 24.708C124.587 25.345 125.078 25.896 125.078 26.764C125.078 27.5471 124.5 28.184 123.488 28.184C122.303 28.184 121.725 27.46 121.609 26.504H119.123C119.325 28.647 120.684 30.154 123.43 30.154C126.061 30.154 127.651 28.6761 127.651 26.562C127.651 24.9401 126.784 23.665 124.327 22.883C122.332 22.217 121.985 21.724 121.985 21.029C121.985 20.392 122.505 19.813 123.43 19.813Z" fill="#6B7280"/>
<path d="M130.253 18.248H128.808V20.508H130.253V25.78C130.253 28.126 131.005 29.864 133.867 29.864C134.532 29.864 135.284 29.7771 135.891 29.6031V27.431C135.486 27.547 134.966 27.634 134.503 27.634C133.405 27.634 132.913 27.199 132.913 25.635V20.508H135.804V18.248H132.942V14.57H130.253V18.248Z" fill="#6B7280"/>
<path fill-rule="evenodd" clip-rule="evenodd" d="M149.248 23.984C149.248 20.508 146.704 17.872 143.119 17.872C139.65 17.872 136.99 20.421 136.99 23.984C136.99 27.46 139.621 30.154 143.119 30.154C146.675 30.154 149.248 27.373 149.248 23.984ZM146.53 23.984C146.53 26.127 145.143 27.7491 143.119 27.7491C141.269 27.7491 139.707 26.185 139.707 23.984C139.707 21.84 141.066 20.247 143.119 20.247C145.229 20.247 146.53 21.956 146.53 23.984Z" fill="#6B7280"/>
<path d="M154.28 23.9261C154.28 21.522 155.349 20.334 157.171 20.334C157.617 20.3333 158.062 20.3721 158.501 20.45V17.93L158.48 17.9279C158.197 17.8996 157.912 17.871 157.489 17.871C155.956 17.871 154.8 18.8861 154.28 19.871H154.222V18.2491H151.591V29.719H154.28V23.9261Z" fill="#6B7280"/>
</svg>
