<svg width="73" height="73" viewBox="0 0 73 73" fill="none" xmlns="http://www.w3.org/2000/svg">
<rect width="73" height="73" fill="#F9FAFB"/>
<path d="M56.6907 24.7232H53.4065V20.5969C53.4065 20.4156 53.3242 20.2451 53.1825 20.1305C53.0419 20.0183 52.8583 19.9744 52.6794 20.0147L36.6431 23.6188L20.6079 20.0151C20.4314 19.9744 20.2465 20.0187 20.1048 20.1309C19.963 20.2443 19.8808 20.416 19.8808 20.5973V24.7236L16.5961 24.7232C16.2671 24.7232 16 24.9903 16 25.3193V51.2392C16 51.567 16.2671 51.8354 16.5961 51.8354H32.6978C33.0196 51.8354 33.3059 52.0406 33.4098 52.3433C33.8953 53.7612 35.2238 54.6544 36.6464 54.6544C37.0126 54.6544 37.3835 54.5961 37.7485 54.4731C38.7419 54.1333 39.5361 53.3367 39.8748 52.3445C39.9786 52.0414 40.2649 51.8366 40.5879 51.8366L56.6896 51.837C57.0186 51.837 57.2857 51.5686 57.2857 51.2408V25.3189C57.2857 24.9899 57.0198 24.7227 56.6896 24.7227L56.6907 24.7232ZM37.2393 24.7076L52.2135 21.3423V46.0376L37.2393 49.4041V24.7076ZM21.0732 21.3423L36.0474 24.7076V49.405L21.0732 46.0397V21.3423ZM56.0948 50.6437H40.589C39.7589 50.6437 39.0186 51.1695 38.7479 51.9601C38.5259 52.6054 38.0096 53.1252 37.3631 53.3437C36.2027 53.7398 34.9374 53.1197 34.5405 51.9577C34.2698 51.1707 33.5303 50.6437 32.7005 50.6437H17.1928V25.9156H19.8808V46.516C19.8808 46.7927 20.0741 47.0359 20.346 47.0958L36.5121 50.7294C36.5564 50.7414 36.5991 50.7462 36.6423 50.7462H36.6435C36.6854 50.7462 36.7293 50.7414 36.7712 50.7294L52.9383 47.0958C53.2102 47.0351 53.4035 46.7927 53.4035 46.516V25.9156H56.0916V50.6437H56.0948Z" fill="#9CA3AF"/>
<path d="M24.4781 28.7073L33.0958 30.6451C33.1401 30.6546 33.184 30.6594 33.2272 30.6594C33.5003 30.6594 33.7458 30.471 33.8081 30.1943C33.8808 29.8724 33.678 29.5538 33.3573 29.4811L24.7386 27.5433C24.4155 27.4707 24.0981 27.6735 24.0254 27.9941C23.9559 28.3164 24.1576 28.6346 24.4782 28.7073L24.4781 28.7073Z" fill="#9CA3AF"/>
<path d="M24.4769 32.7287L33.0946 34.6665C33.1389 34.6761 33.1828 34.6809 33.2259 34.6809C33.499 34.6809 33.7446 34.4924 33.8069 34.2157C33.8796 33.8938 33.6767 33.5752 33.3561 33.5025L24.7373 31.5647C24.4143 31.4933 24.0969 31.6937 24.0242 32.0156C23.9523 32.3378 24.1564 32.656 24.477 32.7287L24.4769 32.7287Z" fill="#9CA3AF"/>
<path d="M24.4781 36.75L33.0958 38.6866C33.1401 38.6961 33.184 38.7021 33.2272 38.7021C33.5003 38.7021 33.7458 38.5137 33.8081 38.237C33.8808 37.9139 33.678 37.5965 33.3573 37.5226L24.7386 35.5861C24.4155 35.511 24.0981 35.7162 24.0254 36.0369C23.9559 36.3591 24.1576 36.6773 24.4782 36.75L24.4781 36.75Z" fill="#9CA3AF"/>
<path d="M24.4781 40.5494L33.0958 42.486C33.1401 42.4956 33.184 42.5016 33.2272 42.5016C33.5003 42.5016 33.7458 42.3131 33.8081 42.0352C33.8808 41.7134 33.678 41.3947 33.3573 41.322L24.7386 39.3843C24.4155 39.3104 24.0981 39.5144 24.0254 39.8363C23.9559 40.1569 24.1576 40.4767 24.4782 40.5494L24.4781 40.5494Z" fill="#9CA3AF"/>
<path d="M49.2629 27.5439L40.6429 29.4817C40.3223 29.5544 40.1207 29.873 40.1921 30.1949C40.254 30.4716 40.5012 30.66 40.7719 30.66C40.8162 30.66 40.8602 30.6553 40.9045 30.6457L49.5245 28.7079C49.8451 28.6352 50.0468 28.3166 49.9753 27.9947C49.9034 27.6741 49.5884 27.4725 49.2629 27.5439V27.5439Z" fill="#9CA3AF"/>
<path d="M49.2629 31.5643L40.6429 33.502C40.3223 33.5747 40.1207 33.8933 40.1921 34.2152C40.254 34.4919 40.5012 34.6804 40.7719 34.6804C40.8162 34.6804 40.8602 34.6756 40.9045 34.666L49.5232 32.7282C49.8439 32.6555 50.0455 32.3369 49.9741 32.0151C49.9034 31.6932 49.5884 31.4928 49.2629 31.5643Z" fill="#9CA3AF"/>
<path d="M49.2629 35.5856L40.6429 37.5221C40.3223 37.596 40.1207 37.9134 40.1921 38.2365C40.254 38.512 40.5012 38.7016 40.7719 38.7016C40.8162 38.7016 40.8602 38.6957 40.9045 38.6861L49.5232 36.7495C49.8439 36.6769 50.0455 36.3582 49.9741 36.0364C49.9034 35.7157 49.5883 35.5105 49.2629 35.5856L49.2629 35.5856Z" fill="#9CA3AF"/>
<path d="M44.9518 40.3541L40.643 41.3236C40.3212 41.3963 40.1207 41.7149 40.1922 42.0368C40.2541 42.3135 40.5012 42.5031 40.7732 42.5031C40.8151 42.5031 40.859 42.4972 40.9033 42.4876L45.2121 41.5193C45.5339 41.4454 45.7344 41.128 45.6629 40.8049C45.5922 40.4843 45.2748 40.2791 44.9518 40.3541V40.3541Z" fill="#9CA3AF"/>
</svg>
