<svg width="542" height="128" viewBox="0 0 542 128" fill="none" xmlns="http://www.w3.org/2000/svg">
<path d="M161.752 119.216V42.1122H175.038V48.9732C178.669 43.8184 184.186 41.241 191.592 41.241C199.433 41.241 205.64 43.8547 210.214 49.0821C214.788 54.2369 217.075 61.0616 217.075 69.5561C217.075 77.9781 214.643 84.8027 209.779 90.0301C204.987 95.2575 198.598 97.8712 190.612 97.8712C187.272 97.8712 184.223 97.2541 181.464 96.0199C178.705 94.7856 176.563 93.1157 175.038 91.0103V119.216H161.752ZM189.087 86.3274C193.516 86.3274 197.073 84.8027 199.76 81.7534C202.446 78.7041 203.789 74.6383 203.789 69.5561C203.789 64.4739 202.446 60.4082 199.76 57.3588C197.073 54.3095 193.516 52.7849 189.087 52.7849C184.586 52.7849 180.956 54.3095 178.197 57.3588C175.51 60.4082 174.167 64.4739 174.167 69.5561C174.167 74.6383 175.51 78.7041 178.197 81.7534C180.956 84.8027 184.586 86.3274 189.087 86.3274ZM259.946 53.3294H251.343C243.429 53.3294 239.472 59.2465 239.472 71.0808V97H226.077V42.1122H239.472V51.8047C240.852 48.3198 242.631 45.8513 244.809 44.3992C247.059 42.8746 249.963 42.1122 253.521 42.1122H259.946V53.3294ZM312.033 89.9212C306.661 95.2212 299.8 97.8712 291.45 97.8712C283.101 97.8712 276.204 95.2212 270.758 89.9212C265.386 84.5486 262.7 77.7602 262.7 69.5561C262.7 61.352 265.386 54.5999 270.758 49.2999C276.204 43.9273 283.101 41.241 291.45 41.241C299.8 41.241 306.661 43.9273 312.033 49.2999C317.406 54.5999 320.092 61.352 320.092 69.5561C320.092 77.7602 317.406 84.5486 312.033 89.9212ZM291.45 86.3274C295.952 86.3274 299.582 84.7664 302.341 81.6445C305.172 78.5226 306.588 74.4931 306.588 69.5561C306.588 64.6191 305.172 60.5897 302.341 57.4677C299.582 54.3458 295.952 52.7849 291.45 52.7849C286.876 52.7849 283.174 54.3458 280.342 57.4677C277.583 60.5897 276.204 64.6191 276.204 69.5561C276.204 74.4931 277.583 78.5226 280.342 81.6445C283.174 84.7664 286.876 86.3274 291.45 86.3274ZM381.219 42.1122V97H367.824V53.3294H348.003V97H334.608V53.3294H323.826V42.1122H334.608V36.9937C334.608 31.4033 336.387 26.9382 339.944 23.5985C343.502 20.2588 348.257 18.5889 354.211 18.5889H364.012V29.915H355.735C353.412 29.915 351.524 30.6047 350.072 31.9841C348.693 33.3636 348.003 35.2513 348.003 37.6472V42.1122H381.219ZM393.28 97V18.5889H406.566V97H393.28ZM457.108 78.7041H470.177C469.16 84.5123 466.292 89.1589 461.573 92.6438C456.854 96.1288 451.118 97.8712 444.366 97.8712C435.799 97.8712 428.975 95.0397 423.892 89.3767C418.883 83.7137 416.378 77.0342 416.378 69.3383C416.378 61.5698 418.738 54.9629 423.457 49.5177C428.176 43.9999 434.783 41.241 443.277 41.241C451.917 41.241 458.524 43.8547 463.098 49.0821C467.672 54.3095 469.959 60.5171 469.959 67.7047C469.959 69.302 469.886 70.8267 469.741 72.2787H429.229C429.737 76.7075 431.334 80.2287 434.02 82.8424C436.707 85.4561 440.155 86.763 444.366 86.763C451.409 86.763 455.656 84.0767 457.108 78.7041ZM443.277 51.2602C435.509 51.2602 430.935 55.326 429.555 63.4575H456.564C456.273 59.8273 454.93 56.8869 452.534 54.6362C450.211 52.3855 447.125 51.2602 443.277 51.2602Z" fill="white"/>
<rect x="8" y="11" width="106.985" height="106.985" rx="17.8308" fill="url(#paint0_linear_8089_30721)"/>
<path d="M75.8663 97.8246C88.2302 92.1283 96.8125 79.627 96.8125 65.1211C96.8125 45.2453 80.7 29.1328 60.8242 29.1328C40.9484 29.1328 24.8359 45.2453 24.8359 65.1211C24.8359 78.2209 31.8351 89.6859 42.2977 95.9807V64.9081L42.2989 64.9093C42.4124 54.775 50.663 46.5946 60.8242 46.5946C71.0561 46.5946 79.3507 54.8892 79.3507 65.1211C79.3507 75.3518 71.0581 83.6456 60.8279 83.6476L75.8663 97.8246Z" fill="white"/>
<defs>
<linearGradient id="paint0_linear_8089_30721" x1="45" y1="153.5" x2="32.5" y2="-0.999997" gradientUnits="userSpaceOnUse">
<stop stop-color="#1D2134"/>
<stop offset="1" stop-color="#33374B"/>
</linearGradient>
</defs>
</svg>
