<svg width="244" height="246" viewBox="0 0 244 246" fill="none" xmlns="http://www.w3.org/2000/svg">
<path d="M230.951 108.665L230.577 108.457C201.208 91.7004 128.655 84.6694 68.7768 92.7594L68.4897 92.7997V92.5115C68.5698 48.9783 79.623 15.5191 97.3309 5.19714C104.993 0.726525 113.624 0.967818 122.294 5.86739C150.154 2.14747 176.592 9.90904 196.877 27.7647C207.66 37.3003 216.188 49.1318 221.84 62.3968C227.934 76.4722 231.004 91.8881 230.977 108.269L230.951 108.665ZM121.073 88.9055C165.886 88.9055 209.178 95.8694 230.45 107.807C230.45 91.6602 227.366 76.4387 221.359 62.5644C215.729 49.3684 207.242 37.5975 196.516 28.1065C176.352 10.3648 149.987 2.63676 122.274 6.3969H122.194L122.121 6.34998C113.443 1.41689 105.207 1.16889 97.5779 5.61269C80.0703 15.8408 69.1238 49.0051 68.9903 92.2232C86.26 89.973 103.658 88.8647 121.073 88.9055Z" fill="white"/>
<path d="M176.899 14.9291C162.122 6.49727 125.545 2.96502 95.3753 7.02677L95.3086 6.53078C125.571 2.44222 162.282 6.01468 177.146 14.4934L176.899 14.9291Z" fill="white"/>
<path d="M215.826 51.5721C190.502 37.1481 127.854 31.0488 76.1723 38.0262L76.1055 37.5302C127.874 30.5394 190.669 36.6454 216.073 51.1364L215.826 51.5721Z" fill="white"/>
<path d="M189.221 94.8974H188.721C188.794 54.4341 177.087 22.3958 157.397 9.18504C146.897 2.14734 134.776 1.14196 122.341 6.37666L122.121 5.91419C134.723 0.64597 147.004 1.63125 157.65 8.76948C177.521 22.0674 189.295 54.2665 189.221 94.8974Z" fill="white"/>
<path d="M131.118 89.2538H130.617C130.718 32.282 127.734 2.02663 124.724 1.63788C124.43 1.59767 123.602 1.9596 122.488 6.20903L122 6.08169C122.922 2.57624 123.809 1.00114 124.79 1.13519C129.269 1.72502 131.198 45.8145 131.118 89.2538Z" fill="white"/>
<path d="M13.6043 138.015L13.2306 137.807C4.03957 132.559 -0.225523 126.701 0.895817 120.87C1.95709 115.4 7.67058 110.193 17.1553 105.628C26.6733 68.0737 52.0369 35.4322 84.676 18.1195C88.367 12.3352 92.6121 7.94498 97.3578 5.19692C105.04 0.712908 113.697 0.967603 122.394 5.9275L123.062 6.29614L122.321 6.39668C109.29 8.20558 96.6778 12.3054 85.0631 18.5082C74.9977 34.3598 69.0973 60.7344 69.0439 92.5112V92.7324H68.8304C47.0643 95.6681 29.4499 100.306 17.6425 105.916C15.0224 116.26 13.6774 126.887 13.6377 137.559L13.6043 138.015ZM17.0017 106.225C7.89084 110.662 2.41095 115.689 1.38973 120.97C0.321791 126.493 4.3733 132.083 13.1104 137.157C13.1764 126.727 14.4827 116.343 17.0017 106.225ZM84.1487 18.9707C52.1104 36.2499 27.2006 68.3954 17.7359 105.353C29.5567 99.7902 47.0243 95.2057 68.4632 92.2901C68.5767 61.0159 74.3303 34.9563 84.1487 18.9707ZM108.845 2.46898C104.873 2.49406 100.982 3.5914 97.5781 5.64599C93.1261 8.24659 89.1012 12.3486 85.5637 17.7106C96.7847 11.8054 108.919 7.84659 121.453 6.00123C117.603 3.77974 113.258 2.56516 108.818 2.46898H108.845Z" fill="white"/>
<path d="M67.2821 29.7352C62.6099 27.0541 60.4206 24.0581 61.0013 21.062C62.2161 14.7951 75.3585 9.22531 95.309 6.53088L95.3757 7.02687C75.6455 9.7079 62.67 15.07 61.4952 21.1559C60.9613 23.924 63.0504 26.7391 67.5024 29.2928L67.2821 29.7352Z" fill="white"/>
<path d="M28.2016 76.9144C20.2454 72.3768 16.561 67.3097 17.5221 62.2559C19.5779 51.6055 42.0181 42.1482 76.0921 37.5302L76.1589 38.0261C42.3184 42.5973 20.0385 51.8938 17.996 62.3498C17.0682 67.1689 20.6659 72.0551 28.4218 76.4721L28.2016 76.9144Z" fill="white"/>
<path d="M21.4204 104.067H20.9198C20.9799 70.5537 33.5416 40.8949 55.3743 22.7041C73.9031 7.28822 97.6649 1.30283 122.288 5.90079L122.201 6.39678C97.725 1.82563 74.1101 7.73729 55.6947 23.0862C33.9754 41.1697 21.4805 70.7012 21.4204 104.067Z" fill="white"/>
<path d="M1.54991 120.26H1.04932C1.10271 89.8838 13.1838 61.3376 35.09 39.8894C58.1843 17.2481 89.1546 5.19694 122.274 5.91411V6.4168C89.208 5.64601 58.4045 17.7106 35.4104 40.2312C13.631 61.5856 1.60331 89.9978 1.54991 120.26Z" fill="white"/>
<path d="M122.982 156.916C77.9015 156.916 34.3828 149.872 13.2308 137.807L13.104 137.734V137.586C13.2241 73.0806 62.1693 14.0042 122.208 5.90076H122.295L122.368 5.94098C151.823 22.7443 175.685 88.8584 175.565 153.324V153.545H175.351C157.988 155.827 140.493 156.953 122.982 156.916ZM13.6046 137.439C42.973 154.108 115.32 161.119 175.064 153.089C175.131 88.912 151.436 23.18 122.194 6.41015C62.4763 14.5203 13.7982 73.2615 13.6046 137.439Z" fill="white"/>
<path d="M122.708 39.3867C99.9471 39.3867 77.9875 35.8276 67.3081 29.735L67.5551 29.2926C82.3327 37.7244 118.903 41.2701 149.079 37.1949L149.146 37.6909C140.38 38.8432 131.548 39.4097 122.708 39.3867Z" fill="white"/>
<path d="M122.968 93.4496C84.0419 93.4496 46.4637 87.3636 28.1885 76.9479L28.4354 76.5055C53.759 90.9562 116.407 97.0354 168.089 90.0514L168.156 90.5541C153.173 92.5169 138.078 93.4842 122.968 93.4496Z" fill="white"/>
<path d="M55.3741 150.924H54.8735C54.9603 86.4522 85.1497 21.3971 122.121 5.91418L122.314 6.37666C85.5168 21.7926 55.4542 86.6332 55.3741 150.924Z" fill="white"/>
<path d="M113.444 156.568H112.943C113.057 92.1695 117.122 24.6612 122.001 6.08173L122.488 6.20907C117.616 24.7551 113.557 92.203 113.444 156.568Z" fill="white"/>
<path d="M175.064 153.599V153.31C175.185 89.0059 151.436 23.0728 122.121 6.36328L121.454 5.99464L122.188 5.9008C150.048 2.14066 176.553 9.92234 196.83 27.7311C207.613 37.2666 216.142 49.0982 221.794 62.3632C227.867 76.385 230.944 91.7674 230.931 108.088C240.035 113.316 244.28 119.147 243.139 124.952C240.763 137.271 214.778 148.23 175.331 153.558L175.064 153.599ZM123.009 6.31636C152.124 23.676 175.612 89.1266 175.565 153.036C214.632 147.727 240.309 136.949 242.665 124.885C243.746 119.281 239.568 113.611 230.577 108.484L230.451 108.41V108.262C230.451 91.955 227.42 76.5928 221.36 62.5911C215.73 49.3951 207.243 37.6242 196.517 28.1332C176.533 10.5189 150.448 2.79081 123.009 6.31636Z" fill="white"/>
<path d="M149.119 37.6909L149.053 37.1949C168.783 34.5139 181.758 29.1518 182.933 23.0659C183.467 20.3044 181.385 17.4893 176.926 14.929L177.173 14.4933C181.845 17.1743 184.035 20.1637 183.454 23.1664C182.192 29.4333 169.07 34.9964 149.119 37.6909Z" fill="white"/>
<path d="M168.176 90.5205L168.109 90.0178C201.963 85.4467 224.243 76.1301 226.258 65.6942C227.186 60.8751 223.589 55.9956 215.833 51.5719L216.08 51.1362C224.036 55.6739 227.72 60.741 226.759 65.7947C224.683 76.4451 202.216 85.9159 168.176 90.5205Z" fill="white"/>
<path d="M223.135 141.755H222.635C222.755 77.4842 177.701 16.7656 122.201 6.39675L122.288 5.90076C178.015 16.3098 223.255 77.2563 223.135 141.755Z" fill="white"/>
<path d="M243.005 125.582H242.504C242.625 61.3378 188.673 7.87142 122.241 6.39686V5.89417C188.954 7.37543 243.125 61.063 243.005 125.582Z" fill="white"/>
<path d="M121.76 239.927L121.687 239.887C92.2381 223.084 68.3696 156.97 68.4897 92.5112V92.29H68.71C128.675 84.1866 201.402 91.2578 230.824 108.041L230.951 108.115V108.262C230.83 172.761 181.885 231.837 121.847 239.941L121.76 239.927ZM68.9903 92.7324C68.9302 156.903 92.6185 222.635 121.86 239.405C181.578 231.288 230.25 172.54 230.45 108.383C201.061 91.7136 128.735 84.7362 68.9903 92.7324Z" fill="white"/>
<path d="M215.606 169.343C190.282 154.899 127.634 148.819 75.952 155.797L75.8853 155.301C127.66 148.31 190.449 154.416 215.859 168.907L215.606 169.343Z" fill="white"/>
<path d="M176.526 216.522C161.748 208.09 125.178 204.545 95.0018 208.62L94.9351 208.124C125.198 204.035 161.915 207.608 176.773 216.086L176.526 216.522Z" fill="white"/>
<path d="M121.907 239.901L121.714 239.438C158.545 224.022 188.6 159.182 188.721 94.8973H189.221C189.101 159.369 158.905 224.418 121.907 239.901Z" fill="white"/>
<path d="M122.054 239.733L121.573 239.606C126.439 221.06 130.497 153.612 130.617 89.2538H131.118C130.998 153.652 126.933 221.154 122.054 239.733Z" fill="white"/>
<path d="M108.184 240.846C85.4035 240.846 64.1315 232.984 47.2046 218.057C36.4216 208.521 27.8934 196.69 22.2414 183.425C16.1675 169.41 13.0971 154.027 13.1038 137.707C3.99959 132.479 -0.245477 126.647 0.895887 120.843C3.27873 108.524 29.2631 97.5582 68.7103 92.2364L68.9906 92.1962V92.4844C68.8705 156.782 92.6255 222.702 121.934 239.425L122.601 239.793L121.867 239.887C117.333 240.514 112.761 240.834 108.184 240.846ZM68.49 92.7793C29.4233 98.0877 3.74595 108.865 1.3898 120.93C0.308512 126.533 4.48684 132.204 13.4776 137.331L13.6044 137.405V137.552C13.6044 153.86 16.6347 169.222 22.7019 183.217C28.3255 196.413 36.8078 208.185 47.5316 217.675C67.5222 235.262 93.5867 242.99 121.053 239.478C91.938 222.139 68.4433 156.702 68.49 92.7793Z" fill="white"/>
<path d="M28.008 194.658C20.0585 190.128 16.3674 185.054 17.3286 180.007C19.3844 169.356 41.8312 159.899 75.8986 155.281L75.9653 155.777C42.1115 160.348 19.8316 169.671 17.8225 180.1C16.888 184.92 20.4924 189.806 28.2416 194.223L28.008 194.658Z" fill="white"/>
<path d="M66.9149 231.321C62.2426 228.64 60.0533 225.651 60.6273 222.655C61.8421 216.381 74.9845 210.818 94.935 208.124L95.0018 208.62C75.2715 211.301 62.296 216.696 61.1213 222.749C60.5873 225.517 62.6765 228.325 67.1285 230.886L66.9149 231.321Z" fill="white"/>
<path d="M121.767 239.914C66.0536 229.511 20.7995 168.558 20.9197 104.066H21.4203C21.3001 168.33 66.354 229.049 121.86 239.418L121.767 239.914Z" fill="white"/>
<path d="M121.807 239.921C55.1004 238.439 0.92896 184.752 1.0491 120.24H1.5497C1.42956 184.484 55.3807 237.943 121.82 239.418L121.807 239.921Z" fill="white"/>
<path d="M135.25 243.802C130.495 243.709 125.846 242.374 121.761 239.928C117.261 240.537 112.725 240.844 108.184 240.846C85.4039 240.846 64.1318 232.984 47.2049 218.057C36.422 208.521 27.8937 196.69 22.2418 183.425C16.1478 169.349 13.0775 153.934 13.1042 137.559V137.13L13.4713 137.338C42.8397 154.094 115.4 161.125 175.278 153.035L175.558 152.995V153.283C175.478 196.817 164.432 230.269 146.724 240.591C143.254 242.672 139.292 243.781 135.25 243.802ZM121.861 239.405L121.934 239.452C130.611 244.385 138.848 244.633 146.477 240.189C163.991 229.974 174.938 196.81 175.064 153.598C115.406 161.601 43.2202 154.624 13.6048 138.015C13.6048 154.161 16.6885 169.376 22.7023 183.251C28.3259 196.447 36.8081 208.218 47.532 217.709C67.6961 235.45 94.0676 243.178 121.781 239.418L121.861 239.405Z" fill="white"/>
<path d="M122.748 211.187C83.8217 211.187 46.2434 205.101 27.9683 194.678L28.2152 194.243C53.5388 208.694 116.187 214.773 167.875 207.789L167.942 208.291C152.957 210.254 137.86 211.221 122.748 211.187Z" fill="white"/>
<path d="M122.334 240.98C99.5736 240.98 77.614 237.421 66.9346 231.322L67.1815 230.886C81.9592 239.318 118.53 242.864 148.699 238.788L148.766 239.284C140.002 240.437 131.172 241.003 122.334 240.98Z" fill="white"/>
<path d="M106.202 243.238C99.1244 243.219 92.2169 241.061 86.378 237.045C66.5543 223.747 54.7602 191.555 54.8402 150.924H55.3742C55.2941 191.387 67.0081 223.426 86.6917 236.63C97.1909 243.667 109.312 244.639 121.747 239.438L121.94 239.9C116.967 242.051 111.616 243.185 106.202 243.238Z" fill="white"/>
<path d="M119.378 244.686H119.271C114.786 244.096 112.863 200.007 112.943 156.574H113.444C113.337 213.546 116.327 243.795 119.331 244.19C119.625 244.19 120.452 243.862 121.574 239.612L122.054 239.74C121.166 243.105 120.319 244.686 119.378 244.686Z" fill="white"/>
<path d="M135.25 243.802C130.831 243.802 126.266 242.495 121.687 239.887L121.019 239.519L121.754 239.418C134.786 237.606 147.4 233.507 159.018 227.307C169.077 211.455 174.977 185.08 175.037 153.31V153.102H175.258C197.017 150.167 214.638 145.529 226.439 139.919C229.059 129.575 230.404 118.948 230.444 108.276V107.847L230.817 108.055C240.022 113.262 244.267 119.12 243.159 124.952C242.104 130.421 236.391 135.629 226.906 140.187C217.408 177.721 192.024 210.383 159.379 227.695C155.688 233.48 151.442 237.87 146.73 240.618C143.256 242.69 139.291 243.79 135.25 243.802ZM122.568 239.814C130.985 244.398 139.021 244.505 146.457 240.189C150.909 237.588 154.94 233.486 158.471 228.158C147.248 234.042 135.117 237.983 122.588 239.814H122.568ZM175.545 153.531C175.458 184.806 169.711 210.858 159.893 226.844C191.931 209.565 216.834 177.426 226.299 140.468C214.498 146.031 197.03 150.616 175.565 153.531H175.545ZM230.944 108.671C230.876 119.099 229.567 129.481 227.046 139.597C236.157 135.16 241.644 130.133 242.658 124.851C243.733 119.335 239.681 113.738 230.951 108.671H230.944Z" fill="white"/>
<path d="M167.955 208.291L167.889 207.789C201.736 203.218 224.016 193.901 226.031 183.465C226.959 178.646 223.362 173.766 215.606 169.343L215.859 168.907C223.809 173.445 227.5 178.512 226.539 183.566C224.463 194.216 202.023 203.687 167.955 208.291Z" fill="white"/>
<path d="M148.746 239.284L148.679 238.788C168.416 236.107 181.385 230.745 182.56 224.659C183.094 221.898 181.011 219.083 176.552 216.522L176.799 216.087C181.472 218.768 183.661 221.757 183.08 224.76C181.845 231.027 168.696 236.59 148.746 239.284Z" fill="white"/>
<path d="M137.859 241.429C132.46 241.421 127.073 240.914 121.767 239.914L121.86 239.418C146.336 243.996 169.951 238.078 188.366 222.729C210.086 204.632 222.574 175.14 222.634 141.755H223.134C223.074 175.268 210.519 204.927 188.68 223.111C174.421 235.044 156.421 241.532 137.859 241.429Z" fill="white"/>
<path d="M124.657 239.948C123.709 239.948 122.762 239.948 121.807 239.948V239.445C154.807 240.175 185.637 228.158 208.638 205.61C230.41 184.256 242.438 155.844 242.491 125.609H242.992C242.939 155.985 230.857 184.524 208.985 205.972C186.571 227.937 156.709 239.948 124.657 239.948Z" fill="white"/>
<path d="M122.161 244.72C119.424 244.72 117.088 244.612 115.867 244.559C114.118 244.478 110.1 244.17 107.39 243.821C104.68 243.473 104.72 243.473 100.915 242.85C100.201 242.736 99.3603 242.568 98.5393 242.401L97.4647 242.186C92.5588 241.163 87.7196 239.84 82.974 238.225C80.2107 237.24 76.9669 235.986 74.6908 235.041C72.7752 234.237 70.2722 233.084 68.4767 232.172C65.7001 230.758 62.2026 228.821 59.7997 227.4C57.3968 225.979 54.6869 224.216 52.8781 222.903C47.7152 219.29 42.8352 215.286 38.2806 210.925C36.118 208.847 33.6751 206.327 32.0465 204.498C30.1042 202.319 27.3743 199.062 25.4052 196.454C21.4766 191.26 17.9657 185.76 14.906 180.006C12.0812 174.401 9.57637 168.639 7.40373 162.747C6.22486 159.453 5.22442 156.097 4.40681 152.693C3.91956 150.77 3.45902 148.417 3.01182 146.152C2.81158 145.126 2.618 144.141 2.43111 143.236C1.76975 139.734 1.33499 136.192 1.12956 132.633L1.09619 132.096C0.779291 128.211 0.670122 124.311 0.769135 120.414C0.815858 119.63 0.855907 118.772 0.895955 117.887C1.00942 115.461 1.14291 112.706 1.36985 110.514C1.69276 106.945 2.2097 103.396 2.91837 99.8839C3.07856 99.2136 3.23875 98.4361 3.41229 97.6586C3.92624 95.2859 4.5136 92.6049 5.10097 90.507C6.00872 87.2764 7.32364 83.1945 8.38491 80.3459C9.44617 77.4973 10.8745 74.0656 12.0159 71.6326C12.8636 69.8229 15.0529 65.2718 17.0286 61.9742C20.0655 56.8936 24.4908 50.6468 27.3542 46.8398C28.8894 44.829 31.0653 42.4295 32.9876 40.3383C33.6551 39.668 34.2358 38.9978 34.7898 38.3275C36.7946 36.1639 38.9159 34.1121 41.144 32.1813C44.0675 29.6276 48.0924 26.4573 50.8623 24.2991C53.4527 22.3314 56.1561 20.5186 58.9587 18.87C62.5363 16.7587 67.4889 14.0977 71.2734 12.2545C73.5094 11.162 76.9268 9.74108 80.4177 8.45419C83.1209 7.44881 86.6718 6.30267 89.2415 5.5989C93.4344 4.40993 97.6878 3.44784 101.983 2.71679C104.259 2.30123 108.798 1.6913 112.156 1.4299C114.538 1.24893 116.407 1.13499 117.716 1.10148C121.36 1.00764 121.72 1.00094 125.605 1.10148C126.119 1.10148 130.785 1.21542 136.692 1.9393C140.162 2.36156 143.053 2.88436 143.173 2.91117C144.261 3.11224 145.796 3.40046 146.951 3.64175C147.798 3.82272 148.839 4.06401 149.801 4.31201L150.962 4.58011C152.21 4.86832 153.939 5.3375 156.095 5.96754C157.283 6.32278 158.925 6.84558 161.101 7.56945C163.924 8.50111 167.181 9.75449 169.397 10.7599C171.039 11.5039 172.855 12.3685 174.65 13.2599C177.084 14.3726 179.469 15.5947 181.805 16.9262L181.952 17.0134C185.592 19.0976 189.124 21.3683 192.532 23.8165C194.894 25.6128 198.459 28.3273 200.975 30.4587C201.916 31.2563 205.167 34.0446 207.463 36.491L207.897 36.9468C210.013 39.1787 212.649 41.9536 214.571 44.1856C216.233 46.1293 218.496 49.0181 220.205 51.3707C221.913 53.7233 224.209 57.2288 225.925 59.9969C227.74 62.9863 229.429 66.0292 230.43 68.1606C231.645 70.7411 233.487 74.6353 234.682 77.5844C235.583 79.8164 236.771 83.161 237.859 86.5324C239.611 92.0613 240.95 97.7139 241.864 103.443C242.83 109.954 243.345 116.525 243.406 123.108C243.406 126.325 243.192 130.675 242.912 133.926C242.718 136.172 242.311 138.98 241.951 141.46C241.844 142.217 241.737 142.948 241.644 143.618C241.072 147.115 240.321 150.581 239.394 154C238.727 156.628 237.619 160.207 236.598 163.123C235.576 166.038 234.081 169.825 232.686 172.935C231.899 174.705 230.831 176.776 229.803 178.786C229.349 179.671 228.908 180.522 228.521 181.3C226.818 184.465 224.944 187.535 222.908 190.496C221.853 192.098 220.478 193.948 219.15 195.737C218.583 196.501 218.042 197.232 217.555 197.909C215.266 200.884 212.814 203.73 210.213 206.435C208.17 208.626 205.694 211.073 203.912 212.668C201.309 214.994 197.564 218.097 194.374 220.584C192.185 222.293 189.188 224.277 187.599 225.309C185.73 226.515 183.221 227.99 181.198 229.163L180.584 229.518C176.546 231.833 172.35 233.86 168.029 235.584C164.338 237.032 161.535 238.057 159.465 238.734C156.869 239.579 153.305 240.591 150.581 241.254C147.751 241.925 144.427 242.642 142.111 243.024L141.798 243.071C140.643 243.265 139.208 243.493 138.1 243.634C136.098 243.889 133.521 244.157 131.926 244.304C131.792 244.304 128.475 244.632 123.703 244.706L122.161 244.72ZM121.82 1.62428C120.686 1.62428 119.678 1.62428 117.702 1.698C116.401 1.73152 114.538 1.84546 112.169 2.02643C108.832 2.28783 104.306 2.89106 102.043 3.30662C97.7693 4.04003 93.5362 4.99757 89.3617 6.17532C86.7986 6.84557 83.2677 8.01852 80.5712 9.0172C77.1004 10.3041 73.6963 11.6982 71.4803 12.7975C67.7025 14.6407 62.7699 17.2882 59.199 19.3928C56.4143 21.0182 53.7286 22.8087 51.156 24.7548C48.386 26.9131 44.3746 30.0767 41.4578 32.6236C39.2452 34.5411 37.1395 36.5796 35.1502 38.7297L33.3414 40.7404C31.4258 42.8182 29.2632 45.1775 27.7414 47.2017C24.8846 51.0021 20.4727 57.2556 17.4424 62.2892C15.48 65.5734 13.2974 70.1111 12.4564 71.9074C11.3217 74.3069 9.90672 77.7051 8.83878 80.5604C7.77083 83.4157 6.46928 87.464 5.56821 90.6813C4.98751 92.7657 4.40014 95.4468 3.88619 97.8061C3.71933 98.5836 3.55246 99.341 3.39227 100.031C2.68951 103.527 2.17481 107.057 1.85042 110.608C1.63016 112.766 1.49667 115.508 1.3832 117.927C1.34315 118.819 1.3031 119.677 1.25638 120.461C1.15863 124.338 1.26557 128.217 1.57676 132.083L1.61014 132.619C1.81899 136.156 2.25374 139.675 2.91169 143.156C3.09858 144.054 3.29215 145.046 3.49239 146.071C3.93292 148.337 4.39347 150.676 4.88072 152.586C5.69221 155.969 6.68596 159.305 7.8576 162.58C9.78658 167.647 12.65 174.745 15.3332 179.778C18.3769 185.515 21.8768 190.995 25.799 196.166C27.7213 198.747 30.4713 201.991 32.4069 204.162C34.0222 205.979 36.4585 208.492 38.6077 210.563C43.1495 214.902 48.0114 218.891 53.1517 222.494C54.9539 223.794 57.6571 225.557 60.04 226.965C62.4228 228.372 65.947 230.316 68.717 231.723C70.5058 232.635 72.9888 233.781 74.8977 234.579C77.1537 235.517 80.3976 236.764 83.1543 237.749C87.8756 239.362 92.6902 240.684 97.5715 241.71L98.6528 241.925C99.4671 242.085 100.308 242.253 101.009 242.367C104.78 242.99 104.78 242.99 107.463 243.339C110.147 243.687 114.138 244.009 115.887 244.069C117.342 244.13 120.345 244.264 123.723 244.217C128.475 244.143 131.772 243.835 131.906 243.821C133.494 243.667 136.064 243.406 138.067 243.151C139.161 243.01 140.596 242.776 141.744 242.588L142.058 242.541C144.361 242.159 147.671 241.469 150.495 240.779C153.198 240.108 156.756 239.11 159.339 238.265C161.394 237.595 164.191 236.569 167.875 235.128C172.172 233.41 176.345 231.394 180.364 229.096L180.971 228.741C182.974 227.568 185.497 226.1 187.359 224.9C188.627 224.069 191.837 221.964 194.093 220.208C197.277 217.728 201.008 214.625 203.605 212.313C205.38 210.724 207.843 208.291 209.872 206.113C212.454 203.423 214.883 200.59 217.148 197.627C217.635 196.957 218.182 196.22 218.75 195.462C220.085 193.673 221.419 191.823 222.487 190.234C224.492 187.29 226.339 184.24 228.021 181.099C228.408 180.321 228.848 179.463 229.302 178.579C230.33 176.568 231.391 174.517 232.172 172.761C233.567 169.624 235.096 165.79 236.077 162.989C237.058 160.187 238.186 156.474 238.854 153.9C239.777 150.5 240.525 147.055 241.096 143.578C241.19 142.908 241.297 142.17 241.403 141.42C241.764 138.946 242.164 136.138 242.358 133.906C242.638 130.669 242.832 126.339 242.852 123.128C242.788 116.558 242.268 110.001 241.297 103.503C240.4 97.802 239.079 92.1763 237.345 86.6731C236.257 83.3218 235.076 79.9706 234.175 77.7587C232.987 74.823 231.151 70.9355 229.936 68.3751C228.942 66.2705 227.266 63.2342 225.451 60.2583C223.776 57.4969 221.486 54.045 219.764 51.6656C218.042 49.2862 215.806 46.4443 214.151 44.514C212.249 42.2887 209.619 39.5206 207.51 37.2953L207.076 36.8396C204.793 34.4333 201.562 31.6652 200.628 30.8676C198.118 28.7496 194.561 26.035 192.205 24.2454C188.807 21.8102 185.29 19.5485 181.665 17.4691L181.532 17.3954C179.529 16.3364 177 15.016 174.417 13.7425C158.511 6.45683 140.67 3.91655 122.354 6.36969H122.301L122.234 5.8737C136.563 3.84518 151.163 5.0799 164.952 9.48639C163.617 8.97699 162.222 8.481 160.947 8.05203C158.771 7.32816 157.136 6.80536 155.955 6.45682C153.805 5.82678 152.09 5.36431 150.848 5.0761L149.687 4.80799C148.733 4.58681 147.685 4.33881 146.844 4.13774C145.696 3.88974 144.174 3.60153 143.086 3.40716C142.959 3.40716 140.089 2.85755 136.631 2.43529C130.751 1.71811 126.106 1.61087 125.592 1.60417C123.803 1.62428 122.788 1.62428 121.82 1.62428Z" fill="white"/>
<path d="M230.951 108.664L230.577 108.456C201.208 91.6999 128.655 84.669 68.7768 92.7589L68.4897 92.7992V92.511C68.5698 48.9778 79.623 15.5186 97.3309 5.19665C104.993 0.726037 113.624 0.967329 122.294 5.8669C150.154 2.14698 176.592 9.90855 196.877 27.7642C207.66 37.2998 216.188 49.1313 221.84 62.3963C227.934 76.4717 231.004 91.8876 230.977 108.269L230.951 108.664ZM121.073 88.905C165.886 88.905 209.178 95.8689 230.45 107.806C230.45 91.6597 227.366 76.4382 221.359 62.5639C215.729 49.3679 207.242 37.597 196.516 28.106C176.352 10.3643 149.987 2.63627 122.274 6.39641H122.194L122.121 6.34949C113.443 1.4164 105.207 1.1684 97.5779 5.6122C80.0703 15.8403 69.1238 49.0046 68.9903 92.2227C86.26 89.9725 103.658 88.8642 121.073 88.905Z" fill="white"/>
<path d="M176.899 14.9289C162.122 6.49703 125.545 2.96477 95.3753 7.02653L95.3086 6.53054C125.571 2.44197 162.282 6.01444 177.146 14.4932L176.899 14.9289Z" fill="white"/>
<path d="M215.826 51.5717C190.502 37.1478 127.854 31.0484 76.1723 38.0258L76.1055 37.5298C127.874 30.539 190.669 36.6451 216.073 51.136L215.826 51.5717Z" fill="white"/>
<path d="M189.221 94.8972H188.721C188.794 54.4338 177.087 22.3955 157.397 9.18479C146.897 2.1471 134.776 1.14171 122.341 6.37642L122.121 5.91394C134.723 0.645726 147.004 1.631 157.65 8.76924C177.521 22.0671 189.295 54.2662 189.221 94.8972Z" fill="white"/>
<path d="M131.118 89.2536H130.617C130.718 32.2818 127.734 2.02639 124.724 1.63764C124.43 1.59742 123.602 1.95936 122.488 6.20879L122 6.08144C122.922 2.576 123.809 1.0009 124.79 1.13495C129.269 1.72477 131.198 45.8142 131.118 89.2536Z" fill="white"/>
<path d="M13.6043 138.015L13.2306 137.807C4.03957 132.559 -0.225523 126.701 0.895817 120.87C1.95709 115.4 7.67058 110.192 17.1553 105.628C26.6733 68.0734 52.0369 35.432 84.676 18.1192C88.367 12.3349 92.6121 7.94473 97.3578 5.19668C105.04 0.712663 113.697 0.967358 122.394 5.92726L123.062 6.2959L122.321 6.39644C109.29 8.20533 96.6778 12.3052 85.0631 18.508C74.9977 34.3595 69.0973 60.7341 69.0439 92.511V92.7322H68.8304C47.0643 95.6679 29.4499 100.306 17.6425 105.916C15.0224 116.259 13.6774 126.886 13.6377 137.559L13.6043 138.015ZM17.0017 106.224C7.89084 110.662 2.41095 115.688 1.38973 120.97C0.321791 126.493 4.3733 132.083 13.1104 137.157C13.1764 126.727 14.4827 116.343 17.0017 106.224ZM84.1487 18.9704C52.1104 36.2497 27.2006 68.3952 17.7359 105.353C29.5567 99.79 47.0243 95.2054 68.4632 92.2898C68.5767 61.0157 74.3303 34.9561 84.1487 18.9704ZM108.845 2.46874C104.873 2.49382 100.982 3.59116 97.5781 5.64575C93.1261 8.24635 89.1012 12.3483 85.5637 17.7104C96.7847 11.8052 108.919 7.84635 121.453 6.00099C117.603 3.7795 113.258 2.56492 108.818 2.46874H108.845Z" fill="white"/>
<path d="M67.2821 29.7349C62.6099 27.0539 60.4206 24.0578 61.0013 21.0618C62.2161 14.7949 75.3585 9.22507 95.309 6.53064L95.3757 7.02663C75.6455 9.70765 62.67 15.0697 61.4952 21.1556C60.9613 23.9238 63.0504 26.7389 67.5024 29.2925L67.2821 29.7349Z" fill="white"/>
<path d="M28.2016 76.9142C20.2454 72.3765 16.561 67.3094 17.5221 62.2557C19.5779 51.6053 42.0181 42.148 76.0921 37.5299L76.1589 38.0259C42.3184 42.597 20.0385 51.8935 17.996 62.3495C17.0682 67.1687 20.6659 72.0548 28.4218 76.4718L28.2016 76.9142Z" fill="white"/>
<path d="M21.4204 104.066H20.9198C20.9799 70.5534 33.5416 40.8946 55.3743 22.7038C73.9031 7.28792 97.6649 1.30253 122.288 5.90049L122.201 6.39648C97.725 1.82533 74.1101 7.73699 55.6947 23.0859C33.9754 41.1694 21.4805 70.7009 21.4204 104.066Z" fill="white"/>
<path d="M1.54991 120.26H1.04932C1.10271 89.8836 13.1838 61.3374 35.09 39.8892C58.1843 17.2479 89.1546 5.19669 122.274 5.91387V6.41656C89.208 5.64576 58.4045 17.7104 35.4104 40.231C13.631 61.5854 1.60331 89.9975 1.54991 120.26Z" fill="white"/>
<path d="M122.982 156.916C77.9015 156.916 34.3828 149.872 13.2308 137.807L13.104 137.733V137.586C13.2241 73.0803 62.1693 14.0039 122.208 5.90051H122.295L122.368 5.94073C151.823 22.7441 175.685 88.8581 175.565 153.323V153.545H175.351C157.988 155.827 140.493 156.953 122.982 156.916ZM13.6046 137.438C42.973 154.108 115.32 161.119 175.064 153.089C175.131 88.9118 151.436 23.1797 122.194 6.40991C62.4763 14.52 13.7982 73.2613 13.6046 137.438Z" fill="white"/>
<path d="M122.708 39.3864C99.9471 39.3864 77.9875 35.8274 67.3081 29.7347L67.5551 29.2924C82.3327 37.7242 118.903 41.2698 149.079 37.1947L149.146 37.6907C140.38 38.843 131.548 39.4095 122.708 39.3864Z" fill="white"/>
<path d="M122.968 93.4493C84.0419 93.4493 46.4636 87.3634 28.1885 76.9476L28.4354 76.5052C53.759 90.956 116.407 97.0352 168.089 90.0511L168.156 90.5538C153.173 92.5167 138.078 93.4839 122.968 93.4493Z" fill="white"/>
<path d="M55.3741 150.924H54.8735C54.9603 86.4517 85.1497 21.3966 122.121 5.9137L122.314 6.37617C85.5168 21.7921 55.4542 86.6327 55.3741 150.924Z" fill="white"/>
<path d="M113.444 156.567H112.943C113.057 92.1692 117.122 24.661 122.001 6.08148L122.488 6.20883C117.616 24.7548 113.557 92.2027 113.444 156.567Z" fill="white"/>
<path d="M175.064 153.598V153.31C175.185 89.0057 151.436 23.0725 122.121 6.36304L121.454 5.99439L122.188 5.90056C150.048 2.14042 176.553 9.9221 196.83 27.7308C207.613 37.2664 216.142 49.0979 221.794 62.363C227.867 76.3847 230.944 91.7671 230.931 108.088C240.035 113.316 244.28 119.147 243.139 124.952C240.763 137.271 214.778 148.23 175.331 153.558L175.064 153.598ZM123.009 6.31612C152.124 23.6758 175.612 89.1263 175.565 153.035C214.632 147.727 240.309 136.949 242.665 124.884C243.746 119.281 239.568 113.611 230.577 108.483L230.451 108.41V108.262C230.451 91.9548 227.42 76.5925 221.36 62.5909C215.73 49.3949 207.243 37.6239 196.517 28.133C176.533 10.5186 150.448 2.79057 123.009 6.31612Z" fill="white"/>
<path d="M149.119 37.6906L149.053 37.1946C168.783 34.5136 181.758 29.1516 182.933 23.0656C183.467 20.3042 181.385 17.4891 176.926 14.9287L177.173 14.493C181.845 17.1741 184.035 20.1634 183.454 23.1662C182.192 29.4331 169.07 34.9962 149.119 37.6906Z" fill="white"/>
<path d="M168.176 90.5201L168.109 90.0175C201.963 85.4463 224.243 76.1297 226.259 65.6938C227.187 60.8747 223.589 55.9952 215.833 51.5715L216.08 51.1359C224.036 55.6735 227.721 60.7406 226.759 65.7944C224.684 76.4448 202.217 85.9155 168.176 90.5201Z" fill="white"/>
<path d="M223.135 141.755H222.635C222.755 77.4839 177.701 16.7654 122.201 6.39651L122.288 5.90051C178.015 16.3096 223.255 77.256 223.135 141.755Z" fill="white"/>
<path d="M243.005 125.582H242.504C242.625 61.3375 188.673 7.87118 122.241 6.39661V5.89392C188.954 7.37519 243.125 61.0627 243.005 125.582Z" fill="white"/>
<path d="M121.76 239.927L121.687 239.887C92.2381 223.084 68.3696 156.97 68.4897 92.511V92.2898H68.71C128.675 84.1864 201.402 91.2576 230.824 108.041L230.951 108.115V108.262C230.83 172.761 181.885 231.837 121.847 239.941L121.76 239.927ZM68.9903 92.7321C68.9302 156.902 92.6185 222.635 121.86 239.404C181.578 231.288 230.25 172.54 230.45 108.383C201.061 91.7133 128.735 84.736 68.9903 92.7321Z" fill="white"/>
<path d="M215.606 169.342C190.282 154.898 127.634 148.819 75.952 155.796L75.8853 155.301C127.66 148.31 190.449 154.416 215.859 168.907L215.606 169.342Z" fill="white"/>
<path d="M176.526 216.522C161.748 208.09 125.178 204.544 95.0018 208.62L94.9351 208.124C125.198 204.035 161.915 207.607 176.773 216.086L176.526 216.522Z" fill="white"/>
<path d="M121.907 239.9L121.714 239.438C158.545 224.022 188.6 159.181 188.721 94.8971H189.221C189.101 159.369 158.905 224.417 121.907 239.9Z" fill="white"/>
<path d="M122.054 239.733L121.573 239.605C126.439 221.059 130.497 153.612 130.617 89.2535H131.118C130.998 153.652 126.933 221.153 122.054 239.733Z" fill="white"/>
<path d="M108.184 240.846C85.4035 240.846 64.1315 232.984 47.2046 218.057C36.4216 208.521 27.8934 196.69 22.2414 183.425C16.1675 169.41 13.0971 154.027 13.1038 137.707C3.99959 132.479 -0.245477 126.647 0.895887 120.843C3.27873 108.524 29.2631 97.5582 68.7103 92.2364L68.9906 92.1962V92.4844C68.8705 156.782 92.6255 222.702 121.934 239.425L122.601 239.793L121.867 239.887C117.333 240.514 112.761 240.834 108.184 240.846ZM68.49 92.7793C29.4233 98.0877 3.74595 108.865 1.3898 120.93C0.308512 126.533 4.48684 132.204 13.4776 137.331L13.6044 137.405V137.552C13.6044 153.86 16.6347 169.222 22.7019 183.217C28.3255 196.413 36.8078 208.185 47.5316 217.675C67.5222 235.262 93.5867 242.99 121.053 239.478C91.938 222.139 68.4433 156.702 68.49 92.7793Z" fill="white"/>
<path d="M28.008 194.658C20.0585 190.127 16.3674 185.053 17.3286 180.006C19.3844 169.356 41.8312 159.898 75.8986 155.28L75.9653 155.776C42.1115 160.348 19.8316 169.671 17.8225 180.1C16.888 184.919 20.4924 189.805 28.2416 194.222L28.008 194.658Z" fill="white"/>
<path d="M66.9149 231.321C62.2426 228.64 60.0533 225.651 60.6273 222.655C61.8421 216.381 74.9845 210.818 94.935 208.123L95.0018 208.619C75.2715 211.3 62.296 216.696 61.1213 222.748C60.5873 225.517 62.6765 228.325 67.1285 230.885L66.9149 231.321Z" fill="white"/>
<path d="M121.767 239.914C66.0536 229.511 20.7995 168.558 20.9197 104.066H21.4203C21.3001 168.33 66.354 229.049 121.86 239.418L121.767 239.914Z" fill="white"/>
<path d="M121.807 239.92C55.1004 238.439 0.92896 184.752 1.0491 120.239H1.5497C1.42956 184.484 55.3807 237.943 121.82 239.418L121.807 239.92Z" fill="white"/>
<path d="M135.25 243.801C130.495 243.709 125.846 242.374 121.761 239.927C117.261 240.537 112.725 240.844 108.184 240.845C85.4039 240.845 64.1318 232.983 47.2049 218.057C36.422 208.521 27.8937 196.69 22.2418 183.425C16.1478 169.349 13.0775 153.933 13.1042 137.559V137.13L13.4713 137.338C42.8397 154.094 115.4 161.125 175.278 153.035L175.558 152.995V153.283C175.478 196.816 164.432 230.269 146.724 240.591C143.254 242.672 139.292 243.78 135.25 243.801ZM121.861 239.404L121.934 239.451C130.611 244.384 138.848 244.632 146.477 240.189C163.991 229.974 174.938 196.81 175.064 153.598C115.406 161.601 43.2202 154.624 13.6048 138.015C13.6048 154.161 16.6885 169.376 22.7023 183.25C28.3259 196.447 36.8081 208.218 47.532 217.708C67.6961 235.45 94.0676 243.178 121.781 239.418L121.861 239.404Z" fill="white"/>
<path d="M122.748 211.187C83.8217 211.187 46.2434 205.101 27.9683 194.678L28.2152 194.243C53.5388 208.693 116.187 214.773 167.875 207.788L167.942 208.291C152.957 210.254 137.86 211.221 122.748 211.187Z" fill="white"/>
<path d="M122.334 240.98C99.5736 240.98 77.614 237.421 66.9346 231.321L67.1815 230.886C81.9592 239.317 118.53 242.863 148.699 238.788L148.766 239.284C140.002 240.436 131.172 241.003 122.334 240.98Z" fill="white"/>
<path d="M106.202 243.238C99.1244 243.219 92.2169 241.061 86.378 237.045C66.5543 223.747 54.7602 191.555 54.8402 150.924H55.3742C55.2941 191.387 67.0081 223.425 86.6917 236.629C97.1909 243.667 109.312 244.639 121.747 239.438L121.94 239.9C116.967 242.051 111.616 243.185 106.202 243.238Z" fill="white"/>
<path d="M119.378 244.686H119.271C114.786 244.096 112.863 200.007 112.943 156.574H113.444C113.337 213.546 116.327 243.795 119.331 244.19C119.625 244.19 120.452 243.862 121.574 239.612L122.054 239.74C121.166 243.104 120.319 244.686 119.378 244.686Z" fill="white"/>
<path d="M135.25 243.801C130.831 243.801 126.266 242.494 121.687 239.887L121.019 239.518L121.754 239.418C134.786 237.606 147.4 233.506 159.018 227.306C169.077 211.455 174.977 185.08 175.037 153.31V153.102H175.258C197.017 150.167 214.638 145.528 226.439 139.918C229.059 129.575 230.404 118.948 230.444 108.275V107.846L230.817 108.054C240.022 113.262 244.267 119.12 243.159 124.951C242.104 130.421 236.391 135.629 226.906 140.186C217.408 177.721 192.024 210.382 159.379 227.695C155.688 233.479 151.442 237.87 146.73 240.618C143.256 242.69 139.291 243.79 135.25 243.801ZM122.568 239.813C130.985 244.398 139.021 244.505 146.457 240.189C150.909 237.588 154.94 233.486 158.471 228.158C147.248 234.042 135.117 237.982 122.588 239.813H122.568ZM175.545 153.531C175.458 184.805 169.711 210.858 159.893 226.844C191.931 209.565 216.834 177.426 226.299 140.468C214.498 146.031 197.03 150.616 175.565 153.531H175.545ZM230.944 108.671C230.876 119.099 229.567 129.481 227.046 139.597C236.157 135.159 241.644 130.133 242.658 124.851C243.733 119.335 239.681 113.738 230.951 108.671H230.944Z" fill="white"/>
<path d="M167.955 208.291L167.889 207.788C201.736 203.217 224.016 193.901 226.031 183.465C226.959 178.646 223.362 173.766 215.606 169.343L215.859 168.907C223.809 173.444 227.5 178.512 226.539 183.565C224.463 194.216 202.023 203.686 167.955 208.291Z" fill="white"/>
<path d="M148.746 239.284L148.679 238.788C168.416 236.107 181.385 230.745 182.56 224.659C183.094 221.897 181.011 219.082 176.552 216.522L176.799 216.086C181.472 218.767 183.661 221.757 183.08 224.759C181.845 231.026 168.696 236.589 148.746 239.284Z" fill="white"/>
<path d="M137.859 241.429C132.46 241.421 127.073 240.913 121.767 239.914L121.86 239.418C146.336 243.996 169.951 238.077 188.366 222.728C210.086 204.632 222.574 175.14 222.634 141.755H223.134C223.074 175.268 210.519 204.926 188.68 223.11C174.421 235.044 156.421 241.532 137.859 241.429Z" fill="white"/>
<path d="M124.657 239.947C123.709 239.947 122.762 239.947 121.807 239.947V239.445C154.807 240.175 185.637 228.158 208.638 205.61C230.41 184.256 242.438 155.844 242.491 125.608H242.992C242.939 155.984 230.857 184.524 208.985 205.972C186.571 227.936 156.709 239.947 124.657 239.947Z" fill="white"/>
<path d="M122.001 244.72H121.093C119.438 244.686 117.329 244.626 115.854 244.565C112.67 244.431 109.132 244.029 107.437 243.835C104.914 243.547 101.27 242.923 101.029 242.876C98.0858 242.327 95.9833 241.931 93.4536 241.288C91.9585 240.913 90.2565 240.477 88.9816 240.108C87.3063 239.626 85.404 239.063 83.989 238.567L83.2281 238.292C81.5394 237.702 79.4436 236.951 77.8884 236.335C75.1518 235.256 73.1293 234.391 71.6943 233.694C69.505 232.621 65.3667 230.57 62.3031 228.861C59.6332 227.36 56.9634 225.751 55.308 224.552C54.7006 224.116 54.0198 223.647 53.3056 223.164C51.6303 221.998 49.8949 220.798 48.5199 219.712C47.2851 218.74 43 215.336 39.7762 212.339C38.0808 210.764 35.4043 208.17 33.4486 206.032C31.7065 204.129 28.456 200.503 26.24 197.56C22.1791 192.328 18.5516 186.771 15.3937 180.945C12.5066 175.378 9.95234 169.644 7.74454 163.773C6.53213 160.437 5.49831 157.038 4.6475 153.591C4.14023 151.688 3.66633 149.355 3.20578 147.103C2.99886 146.071 2.79195 145.093 2.59838 144.168C1.90801 140.653 1.44206 137.098 1.20338 133.524C0.936397 129.885 0.756186 125.642 0.749512 122.713C0.749512 120.541 0.896353 117.813 1.02985 115.407C1.08324 114.482 1.12996 113.597 1.17001 112.786C1.4037 108.778 1.93019 104.793 2.74522 100.862L3.16573 98.9052C3.67968 96.4387 4.26705 93.6437 4.86109 91.4587C5.7021 88.3353 6.96361 84.3138 7.99818 81.4518C8.9927 78.697 10.4144 75.1849 11.5491 72.7384C12.3434 71.0025 14.3925 66.6123 16.2747 63.3883C19.1448 58.4552 23.4033 52.2554 26.4269 48.0998C28.5464 45.3313 30.803 42.6715 33.1883 40.1304C35.7047 37.3768 38.3626 34.757 41.1511 32.2817C42.8999 30.7737 49.0139 25.5792 54.2134 22.0402C56.7498 20.3109 60.5877 17.8645 63.7515 16.1822L64.2988 15.8872C66.0475 14.9556 68.2302 13.796 69.9389 12.985C71.6476 12.174 74.9649 10.6391 77.4879 9.67397L78.429 9.30533C79.5637 8.86966 80.8452 8.36697 81.8865 8.02514C84.1358 7.28116 87.8937 6.01437 90.697 5.2972C95.7055 3.95282 100.793 2.92309 105.929 2.21402L105.962 2.46201L105.929 2.21402C109.012 1.79846 112.39 1.47003 114.966 1.33598C117.242 1.21533 118.09 1.16841 120.372 1.1349C122.655 1.10139 124.978 1.1349 125.612 1.18182C127.214 1.23544 128.729 1.28906 130.952 1.45662C133.174 1.62419 134.336 1.74484 136.659 2.01294C138.661 2.25423 138.935 2.29445 143.02 2.9647C143.807 3.09205 144.748 3.27972 145.583 3.44729L146.504 3.62825C148.68 4.05052 152.785 5.06261 155.107 5.74627C158.271 6.67122 162.316 8.01844 165.186 9.09755C167.589 10.0024 170.426 11.1955 172.415 12.1405C175.085 13.414 178.869 15.351 181.813 16.9731C182.961 17.6433 184.095 18.3136 185.203 18.9838C186.465 19.7412 187.693 20.4986 188.728 21.2091C192.225 23.6287 196.297 26.6449 199.1 28.8969C203.278 32.2482 208.391 37.4762 211.875 41.109C214.548 43.9285 217.02 46.9343 219.271 50.1039L220.419 51.7594C222.074 54.1254 223.943 56.8131 225.318 59.0116C226.979 61.6404 228.507 64.3517 229.897 67.1351L230.471 68.3281C231.719 70.9287 233.267 74.1728 234.315 76.7063C235.363 79.2399 236.665 82.8057 237.566 85.6208C238.467 88.4358 239.615 92.6182 240.349 95.7952C241.117 99.1465 241.838 103.57 242.118 105.333C242.974 111.219 243.394 117.16 243.373 123.108C243.216 129.683 242.677 136.242 241.758 142.753C241.271 146.248 240.549 149.706 239.595 153.102C239.341 153.96 239.068 154.925 238.787 155.917C238.16 158.116 237.512 160.395 236.872 162.251C235.791 165.544 234.532 168.775 233.101 171.93C232.74 172.68 232.353 173.512 231.946 174.369C231.011 176.38 229.943 178.605 229.016 180.341C227.48 183.183 225.365 186.769 223.749 189.256C222.134 191.743 220.052 194.692 218.47 196.749C217.582 197.895 214.465 201.883 211.795 204.792C209.239 207.554 207.123 209.692 205.601 211.153C203.038 213.566 199.888 216.321 197.591 218.171C195.796 219.612 193.099 221.669 190.917 223.137C188.053 225.081 184.169 227.474 181.492 229.062C177.15 231.504 172.671 233.691 168.076 235.611C166.474 236.241 162.389 237.829 159.152 238.875C156.622 239.693 153.058 240.691 150.282 241.368C147.505 242.045 144.181 242.709 141.838 243.104C137.333 243.835 135.664 243.989 132.013 244.331C131.192 244.405 128.175 244.659 123.757 244.733L122.001 244.72ZM121.834 1.62419H120.346C118.07 1.6577 117.229 1.70462 114.966 1.82527C112.39 1.95932 109.032 2.28774 105.962 2.6966C100.848 3.40381 95.7833 4.43131 90.7971 5.77308C88.0205 6.50366 84.256 7.74363 82.0066 8.45411C80.9787 8.79594 79.7039 9.29192 78.5759 9.72759L77.6347 10.0962C75.1251 11.0547 71.8478 12.5762 70.1191 13.3939C68.3904 14.2116 66.2478 15.3577 64.499 16.2827L63.9517 16.5776C60.6926 18.358 57.5248 20.302 54.4604 22.4021C49.2808 25.9344 43.1869 31.1155 41.4448 32.6102C38.6701 35.0702 36.0277 37.6767 33.5287 40.4186C31.1521 42.946 28.9043 45.5924 26.794 48.3478C23.777 52.49 19.5386 58.6697 16.6752 63.5894C14.8063 66.7932 12.7572 71.1633 11.9696 72.8993C10.8416 75.3524 9.42655 78.8512 8.43202 81.6126C7.4375 84.3741 6.1493 88.4693 5.30829 91.5793C4.72093 93.751 4.13356 96.5392 3.61961 98.9924C3.47277 99.6626 3.33927 100.333 3.20578 100.956C2.38976 104.859 1.86546 108.818 1.63724 112.8C1.59719 113.611 1.55047 114.495 1.49707 115.42C1.36358 117.82 1.21673 120.541 1.21673 122.693C1.21673 125.615 1.40362 129.844 1.67061 133.47C1.90794 137.022 2.36943 140.554 3.05226 144.047C3.2525 144.952 3.45274 145.951 3.66633 146.989C4.1202 149.235 4.5941 151.554 5.0947 153.451C5.94533 156.878 6.98144 160.257 8.19842 163.572C10.3972 169.423 12.9426 175.137 15.8209 180.683C18.9678 186.488 22.5819 192.025 26.6271 197.239C28.8297 200.161 32.0669 203.78 33.8023 205.67C35.7447 207.795 38.4145 210.362 40.1032 211.951C43.307 214.933 47.5855 218.332 48.7802 219.324C50.1485 220.403 51.8706 221.596 53.5459 222.755L55.5483 224.149C57.7893 225.691 60.1061 227.118 62.49 228.426C65.547 230.128 69.6719 232.179 71.8345 233.245C73.2562 233.915 75.2719 234.8 77.9885 235.879C79.5637 236.496 81.6529 237.219 83.3282 237.829L84.0958 238.097C85.4975 238.593 87.3931 239.15 89.0617 239.632C90.3299 239.994 92.0253 240.43 93.5137 240.805C96.0301 241.442 98.1259 241.837 101.029 242.387C101.303 242.441 104.921 243.057 107.43 243.339C109.126 243.533 112.65 243.935 115.814 244.069C117.289 244.13 119.391 244.19 121.047 244.224C121.894 244.224 123.049 244.224 123.65 244.224C128.055 244.15 131.059 243.902 131.873 243.821C135.517 243.486 137.173 243.325 141.665 242.602C144.001 242.22 147.298 241.543 150.068 240.872C152.838 240.202 156.389 239.203 158.905 238.392C162.129 237.347 166.201 235.765 167.802 235.135C172.374 233.228 176.832 231.055 181.152 228.627C183.822 227.038 187.693 224.652 190.55 222.715C192.706 221.254 195.389 219.203 197.184 217.769C199.48 215.932 202.617 213.184 205.194 210.778C206.736 209.33 208.812 207.199 211.361 204.444C214.031 201.568 217.128 197.601 218.036 196.454C219.611 194.444 221.72 191.407 223.289 188.994C224.857 186.582 227.007 182.962 228.535 180.114C229.463 178.391 230.537 176.146 231.452 174.168L232.613 171.729C234.034 168.588 235.286 165.373 236.364 162.097C236.999 160.254 237.639 157.982 238.267 155.79C238.547 154.798 238.821 153.833 239.074 152.968C240.02 149.602 240.738 146.176 241.224 142.713C242.137 136.222 242.674 129.682 242.832 123.128C242.855 117.207 242.438 111.292 241.584 105.434C241.304 103.684 240.583 99.2471 239.822 95.936C239.088 92.7657 237.973 88.6972 237.052 85.8017C236.131 82.9062 234.856 79.4276 233.815 76.9208C232.773 74.4141 231.225 71.17 229.977 68.5694L229.409 67.3764C228.025 64.6205 226.503 61.9361 224.851 59.3333C223.482 57.1416 221.62 54.4605 219.972 52.1012L218.817 50.4457C216.584 47.296 214.13 44.3103 211.475 41.5112C207.997 37.8851 202.898 32.6839 198.746 29.3393L197.718 28.5283C218.236 46.9067 230.25 74.3001 230.918 105.232C230.918 106.157 230.951 107.076 230.951 108.007V108.235C230.831 172.734 181.886 231.81 121.848 239.914L121.781 239.418C181.579 231.375 230.331 172.493 230.451 108.235V108.007C230.451 70.2048 213.51 37.4159 184.91 19.4195L183.715 18.709C182.941 18.2466 182.2 17.8042 181.532 17.3685C178.602 15.7599 174.858 13.8229 172.188 12.5561C170.185 11.6177 167.382 10.4247 164.999 9.52652C162.142 8.4407 158.104 7.09348 154.987 6.17523C152.671 5.50498 148.593 4.49959 146.43 4.07733L145.482 3.90977C144.655 3.7489 143.72 3.56123 142.973 3.44058C138.868 2.77033 138.621 2.72341 136.599 2.48882C134.282 2.21402 133.201 2.10007 130.912 1.93251C128.622 1.76494 127.194 1.71132 125.572 1.651C125.071 1.62419 123.523 1.62419 121.834 1.62419Z" fill="white"/>
<path d="M121.76 240.571L121.687 240.531C92.085 223.633 68.0563 157.157 68.1965 92.3437V92.1091H68.4167C128.715 83.9654 201.836 91.0702 231.425 107.947L231.552 108.021V108.168C231.432 173.009 182.193 232.407 121.847 240.557L121.76 240.571ZM68.7238 92.5648C68.6637 157.09 92.4855 223.184 121.887 240.021C181.959 231.864 230.884 172.801 231.071 108.276C201.502 91.5393 128.796 84.4882 68.7238 92.5648Z" fill="white"/>
<path d="M176.853 217.038C161.995 208.559 125.218 204.974 94.8818 209.089L94.815 208.593C125.245 204.484 162.162 208.077 177.1 216.596L176.853 217.038Z" fill="white"/>
<path d="M216.127 169.598C190.663 155.073 127.668 148.96 75.6991 155.978L75.6324 155.482C127.695 148.451 190.83 154.591 216.374 169.162L216.127 169.598Z" fill="white"/>
<path d="M121.907 240.544L121.714 240.081C158.745 224.578 188.968 159.383 189.088 94.7431H189.588C189.468 159.57 159.105 224.974 121.907 240.544Z" fill="white"/>
<path d="M122.054 240.376L121.567 240.249C126.466 221.603 130.544 153.786 130.664 89.0661H131.165C131.045 153.82 126.96 221.696 122.054 240.376Z" fill="white"/>
<path d="M108.104 241.496C85.1971 241.496 63.8115 233.587 46.7845 218.607C35.9385 209.011 27.3642 197.103 21.6879 183.753C15.5806 169.678 12.4902 154.188 12.5036 137.78C3.34595 132.519 -0.899127 126.661 0.222213 120.83C2.64511 108.47 28.7496 97.4711 68.417 92.1091L68.6974 92.0688V92.3571C68.5772 157.01 92.4591 223.292 121.934 240.108L122.602 240.477L121.868 240.571C117.306 241.187 112.708 241.496 108.104 241.496ZM68.1901 92.6319C28.9032 97.9939 3.05894 108.819 0.716135 120.957C-0.371832 126.587 3.83319 132.291 12.8773 137.445L13.0042 137.519V137.687C12.9708 154.081 16.0478 169.53 22.1417 183.606C27.7982 196.876 36.3309 208.711 47.1183 218.251C67.2156 235.933 93.447 243.721 121.047 240.175C91.7716 222.702 68.1501 156.889 68.1968 92.6319H68.1901Z" fill="white"/>
<path d="M66.6082 231.918C61.8959 229.237 59.7133 226.214 60.294 223.205C61.5088 216.904 74.7246 211.307 94.7886 208.6L94.8553 209.096C75.0116 211.777 61.9627 217.219 60.8146 223.305C60.274 226.087 62.3765 228.915 66.8819 231.489L66.6082 231.918Z" fill="white"/>
<path d="M27.4679 195.074C19.4583 190.516 15.7605 185.422 16.7417 180.328C18.8109 169.604 41.3712 160.093 75.6321 155.468L75.6988 155.964C41.6582 160.562 19.2581 169.932 17.229 180.422C16.2945 185.268 19.8988 190.181 27.7148 194.625L27.4679 195.074Z" fill="white"/>
<path d="M121.767 240.557C65.7002 230.088 20.2459 168.84 20.366 103.966H20.8666C20.7465 168.585 66.0473 229.639 121.854 240.061L121.767 240.557Z" fill="white"/>
<path d="M121.807 240.564C54.707 239.076 0.261952 185.094 0.382095 120.22H0.882694C0.76255 184.812 55.0141 238.574 121.814 240.055L121.807 240.564Z" fill="white"/>
<path d="M135.324 244.472C130.542 244.376 125.868 243.032 121.761 240.571C93.781 244.331 67.1626 236.549 46.7916 218.607C35.9456 209.011 27.3712 197.103 21.6949 183.753C15.5676 169.617 12.4772 154.094 12.5106 137.633V137.204L12.8844 137.412C42.3863 154.248 115.374 161.326 175.572 153.196L175.859 153.156V153.444C175.779 197.212 164.666 230.852 146.864 241.248C143.375 243.341 139.389 244.454 135.324 244.472ZM121.861 240.048L121.935 240.095C130.612 245.055 138.942 245.31 146.631 240.832C164.245 230.564 175.252 197.212 175.379 153.766C115.387 161.809 42.8068 154.791 13.0312 138.095C13.0312 154.329 16.1282 169.631 22.1688 183.586C27.8253 196.855 36.3579 208.691 47.1453 218.231C67.4229 236.073 93.9346 243.828 121.801 240.061L121.861 240.048Z" fill="white"/>
<path d="M122.335 241.623C99.4543 241.623 77.3546 238.051 66.6084 231.918L66.8553 231.482C81.7131 239.961 118.49 243.547 148.827 239.425L148.893 239.927C140.087 241.079 131.215 241.645 122.335 241.623Z" fill="white"/>
<path d="M122.749 211.669C83.6154 211.669 45.8303 205.55 27.4683 195.074L27.7153 194.638C53.1791 209.169 116.168 215.275 168.143 208.258L168.203 208.754C153.132 210.731 137.948 211.705 122.749 211.669Z" fill="white"/>
<path d="M106.102 243.902C98.9872 243.882 92.0426 241.712 86.1719 237.675C66.2348 224.304 54.3806 191.93 54.454 151.078H54.9546C54.8812 191.763 66.6553 223.975 86.4523 237.253C97.0049 244.338 109.199 245.296 121.701 240.081L121.895 240.544C116.904 242.703 111.536 243.844 106.102 243.902Z" fill="white"/>
<path d="M119.365 245.356H119.252C114.746 244.767 112.811 200.449 112.891 156.755H113.391C113.284 214.062 116.295 244.451 119.318 244.847C119.639 244.907 120.453 244.512 121.568 240.249L122.055 240.376C121.167 243.761 120.306 245.356 119.365 245.356Z" fill="white"/>
<path d="M135.323 244.472C130.878 244.472 126.286 243.131 121.687 240.531L121.02 240.162L121.76 240.061C134.864 238.243 147.546 234.121 159.225 227.883C169.344 211.944 175.278 185.429 175.338 153.484V153.263H175.551C197.438 150.307 215.172 145.649 227.026 140.005C229.653 129.604 230.998 118.919 231.031 108.188V107.759L231.405 107.967C240.649 113.242 244.934 119.134 243.806 124.992C242.745 130.495 236.998 135.716 227.46 140.321C217.915 178.076 192.385 210.899 159.566 228.305C155.855 234.123 151.556 238.533 146.844 241.301C143.354 243.372 139.377 244.467 135.323 244.472ZM122.588 240.45C131.052 245.062 139.135 245.189 146.617 240.825C151.096 238.218 155.147 234.123 158.698 228.727C147.407 234.657 135.198 238.623 122.588 240.457V240.45ZM175.858 153.692C175.772 185.141 169.991 211.334 160.12 227.42C192.331 210.041 217.381 177.721 226.866 140.562C215.005 146.158 197.444 150.77 175.858 153.699V153.692ZM231.545 108.584C231.48 119.07 230.164 129.511 227.627 139.684C236.798 135.227 242.311 130.166 243.332 124.858C244.407 119.315 240.329 113.691 231.545 108.591V108.584Z" fill="white"/>
<path d="M148.893 239.927L148.827 239.425C168.67 236.744 181.726 231.308 182.901 225.222C183.435 222.44 181.332 219.612 176.827 217.038L177.074 216.596C181.786 219.277 183.969 222.3 183.388 225.309C182.193 231.616 168.957 237.213 148.893 239.927Z" fill="white"/>
<path d="M168.176 208.734L168.116 208.238C202.157 203.64 224.55 194.27 226.579 183.78C227.514 178.934 223.91 174.021 216.1 169.577L216.347 169.142C224.357 173.706 228.048 178.8 227.073 183.887C225.031 194.605 202.464 204.129 168.176 208.734Z" fill="white"/>
<path d="M137.947 242.079C132.519 242.072 127.103 241.562 121.768 240.557L121.854 240.061C146.464 244.659 170.212 238.721 188.728 223.305C210.567 205.108 223.129 175.435 223.196 141.882H223.696C223.629 175.583 211.014 205.403 189.048 223.654C174.711 235.655 156.612 242.181 137.947 242.079Z" fill="white"/>
<path d="M124.671 240.591C123.717 240.591 122.762 240.591 121.808 240.591V240.088C155.014 240.819 185.998 228.741 209.119 206.066C231.018 184.618 243.113 156.031 243.159 125.635H243.66C243.607 156.172 231.459 184.866 209.466 206.435C186.926 228.513 156.903 240.591 124.671 240.591Z" fill="white"/>
<path d="M231.545 108.584L231.172 108.376C201.67 91.5394 128.689 84.4615 68.4839 92.5917L68.1969 92.6319V92.3437C68.2769 48.5692 79.3902 14.929 97.1982 4.54006C104.901 0.0493436 113.578 0.290636 122.295 5.21032C150.268 1.45688 176.893 9.23186 197.264 27.1746C208.108 36.7724 216.682 48.6797 222.361 62.028C228.488 76.1637 231.579 91.6801 231.552 108.148L231.545 108.584ZM121.067 88.7176C166.134 88.7176 209.646 95.7218 231.051 107.726C231.051 91.4858 227.948 76.1838 221.907 62.2357C216.251 48.964 207.718 37.1259 196.931 27.5835C176.653 9.74126 150.155 1.99309 122.281 5.75323H122.195L122.121 5.71301C113.444 0.74641 105.114 0.498415 97.4251 4.96903C79.8374 15.2508 68.8309 48.6027 68.7241 92.0555C86.08 89.7928 103.565 88.6778 121.067 88.7176Z" fill="white"/>
<path d="M216.347 51.1831C190.87 36.6519 127.881 30.5459 75.9194 37.5635L75.8526 37.0608C127.915 30.0298 191.044 36.1693 216.594 50.7407L216.347 51.1831Z" fill="white"/>
<path d="M177.2 14.3594C162.342 5.88062 125.572 2.29475 95.2289 6.41683L95.1622 5.92084C125.592 1.81217 162.509 5.39804 177.447 13.9237L177.2 14.3594Z" fill="white"/>
<path d="M189.589 94.7431H189.088C189.161 54.0585 177.387 21.8393 157.59 8.56149C147.038 1.47688 134.85 0.518415 122.342 5.73971L122.148 5.27054C134.83 -0.0311929 147.165 0.967489 157.871 8.13923C177.808 21.5176 189.662 53.9043 189.589 94.7431Z" fill="white"/>
<path d="M131.165 89.0661H130.665C130.798 31.7859 127.761 1.36298 124.738 0.954126C124.437 0.907208 123.61 1.28255 122.488 5.55209L122.001 5.42474C122.929 1.90589 123.83 0.330788 124.804 0.451434C129.31 1.05466 131.245 45.3921 131.165 89.0661Z" fill="white"/>
<path d="M13.0106 138.095L12.6368 137.888C3.38573 132.613 -0.899391 126.721 0.228624 120.863C1.29657 115.36 7.03676 110.139 16.5748 105.534C26.1196 67.7721 51.6501 34.9496 84.476 17.543C88.1871 11.7252 92.4855 7.31492 97.1978 4.54676C104.92 0.042636 113.624 0.297332 122.368 5.28404L123.035 5.65268L122.301 5.75322C109.188 7.5679 96.4967 11.6906 84.8097 17.9318C74.691 33.8705 68.7906 60.3858 68.6971 92.3303V92.5515H68.4835C46.5974 95.5073 28.8695 100.166 17.0154 105.809C14.3884 116.21 13.0434 126.896 13.0106 137.626V138.095ZM16.428 106.131C7.2637 110.588 1.74377 115.648 0.722546 120.957C-0.352072 126.507 3.72614 132.13 12.51 137.231C12.5752 126.744 13.8905 116.303 16.428 106.131ZM83.942 18.3809C51.7235 35.8075 26.6736 68.0938 17.1622 105.26C29.0497 99.6629 46.6107 95.0515 68.1965 92.1225C68.2833 60.6674 74.0635 34.467 83.942 18.3809ZM108.772 1.80541C104.774 1.81965 100.855 2.91478 97.4248 4.97572C92.9461 7.58973 88.8946 11.6783 85.3437 17.0403C96.6393 11.132 108.848 7.18219 121.453 5.35777C117.111 2.994 112.883 1.80988 108.772 1.80541Z" fill="white"/>
<path d="M27.6816 76.693C19.672 72.1286 15.981 67.0346 16.9621 61.9474C19.0246 51.2233 41.5916 41.7124 75.8525 37.0876L75.9193 37.5903C41.8786 42.1815 19.4785 51.5584 17.4494 62.0479C16.5149 66.8939 20.1192 71.8002 27.9286 76.244L27.6816 76.693Z" fill="white"/>
<path d="M66.9818 29.2189C62.2695 26.5378 60.0869 23.515 60.6676 20.5055C61.8823 14.2051 75.1048 8.60847 95.1621 5.90063L95.2289 6.39663C75.3851 9.07765 62.3362 14.5201 61.1882 20.5994C60.6475 23.3809 62.7501 26.2161 67.2554 28.7899L66.9818 29.2189Z" fill="white"/>
<path d="M20.8669 103.966H20.3663C20.4263 70.2588 33.0481 40.4391 55.0144 22.1545C73.6433 6.63132 97.5385 0.632521 122.288 5.25729L122.201 5.75328C97.5919 1.15532 73.8435 7.0938 55.328 22.5097C33.4886 40.734 20.9269 70.4129 20.8669 103.966Z" fill="white"/>
<path d="M0.883014 120.26H0.382416C0.442488 89.7228 12.5837 61.0225 34.5833 39.4536C57.8044 16.6649 88.9349 4.55336 122.248 5.27053V5.77323C89.0617 5.03594 58.0647 17.1207 34.9437 39.7954C13.0309 61.2772 0.943086 89.8167 0.883014 120.26Z" fill="white"/>
<path d="M122.989 157.124C77.6615 157.124 33.9025 150.019 12.6572 137.887L12.5303 137.814V137.686C12.6572 72.8055 61.8426 13.4073 122.215 5.25702H122.295L122.368 5.29724C151.984 22.1944 175.979 88.6772 175.859 153.491V153.712H175.639C158.183 156.015 140.595 157.154 122.989 157.124ZM13.0109 137.519C42.5596 154.275 115.28 161.333 175.358 153.256C175.425 88.7308 151.603 22.6301 122.195 5.79993C62.1496 13.9234 13.1978 72.9865 13.0109 137.519Z" fill="white"/>
<path d="M122.969 93.2485C83.8356 93.2485 46.0504 87.1358 27.6818 76.6597L27.9287 76.2173C53.3725 90.7686 116.388 96.8612 168.357 89.8369L168.423 90.3396C153.352 92.3144 138.168 93.2861 122.969 93.2485Z" fill="white"/>
<path d="M122.709 38.9241C99.8279 38.9241 77.7281 35.345 66.9819 29.2188L67.2289 28.7831C82.0933 37.2552 118.864 40.8478 149.207 36.7257L149.274 37.2217C140.466 38.3783 131.591 38.947 122.709 38.9241Z" fill="white"/>
<path d="M54.9679 151.092H54.4673C54.5875 86.2643 84.9505 20.8539 122.148 5.28387L122.342 5.75306C85.3109 21.236 55.0881 86.4318 54.9679 151.092Z" fill="white"/>
<path d="M113.391 156.755H112.89C113.01 92.002 117.102 24.1251 122.001 5.44501L122.488 5.57236C117.589 24.2122 113.511 92.0355 113.391 156.755Z" fill="white"/>
<path d="M175.359 153.773V153.485C175.479 88.8249 151.597 22.5432 122.122 5.73319L121.454 5.36455L122.195 5.26401C150.229 1.48376 176.854 9.28555 197.245 27.2149C208.089 36.8127 216.663 48.7199 222.341 62.0682C228.449 76.1436 231.539 91.6333 231.532 108.041C240.69 113.296 244.935 119.161 243.807 124.992C241.411 137.385 215.286 148.404 175.619 153.759L175.359 153.773ZM123.009 5.64605C152.284 23.0727 175.906 88.9187 175.859 153.176C215.146 147.814 240.99 136.99 243.333 124.851C244.421 119.221 240.216 113.517 231.172 108.363L231.052 108.289V108.142C231.052 91.7472 228.001 76.2978 221.908 62.2224C216.251 48.9506 207.719 37.1125 196.931 27.5701C176.854 9.90218 150.609 2.12721 123.009 5.64605Z" fill="white"/>
<path d="M168.423 90.3394L168.357 89.8367C202.397 85.2455 224.797 75.8686 226.826 65.3791C227.761 60.5398 224.157 55.6268 216.347 51.183L216.594 50.7407C224.604 55.3051 228.295 60.3991 227.314 65.4863C225.251 76.1836 202.684 85.7146 168.423 90.3394Z" fill="white"/>
<path d="M149.273 37.2216L149.207 36.7256C169.044 34.0446 182.099 28.6021 183.247 22.5162C183.781 19.7346 181.685 16.9061 177.173 14.3323L177.42 13.8967C182.133 16.5777 184.322 19.6006 183.735 22.61C182.546 28.9171 169.331 34.5138 149.273 37.2216Z" fill="white"/>
<path d="M223.696 141.855H223.195C223.315 77.2359 178.008 16.1755 122.201 5.75301L122.288 5.25702C178.322 15.6996 223.816 77.0013 223.696 141.855Z" fill="white"/>
<path d="M243.674 125.622H243.173C243.293 61.0225 189.042 7.26124 122.242 5.77997V5.27728C189.322 6.73844 243.794 60.7276 243.674 125.622Z" fill="white"/>
<path d="M122.048 245.39C116.117 245.388 110.194 244.951 104.327 244.083C99.127 243.319 95.0488 242.347 93.3067 241.931C88.4809 240.785 83.8287 239.21 83.7886 239.19C79.5722 237.791 75.4365 236.157 71.4005 234.297C68.5504 233.024 64.7258 231.067 61.9425 229.438C59.5997 228.097 56.9365 226.502 54.9942 225.155C51.4767 222.722 47.3851 219.692 44.5684 217.427C40.3701 214.076 35.2239 208.801 31.7197 205.148C29.0308 202.312 26.5461 199.289 24.2842 196.099L23.1361 194.457C21.4741 192.071 19.5919 189.363 18.2036 187.145C16.4214 184.296 14.3924 180.496 13.5981 178.994C12.0429 176.032 10.2607 172.077 9.15275 169.356C8.41187 167.56 7.63761 165.335 6.89005 163.217C6.54297 162.225 6.22258 161.266 5.88885 160.401C4.72121 157.055 3.78673 153.63 3.09217 150.153C1.79753 143.732 0.86383 137.242 0.295501 130.716C-0.0582552 125.629 -0.198425 118.222 0.475714 112.686C0.589183 111.741 0.695981 110.675 0.802775 109.623C1.06309 107.109 1.3501 104.261 1.824 102.036C2.01756 101.137 2.2178 100.139 2.42471 99.1065C2.87859 96.8276 3.34581 94.475 3.84641 92.5447C4.68077 89.1205 5.69903 85.7442 6.89672 82.4305C7.21043 81.6329 7.56419 80.7482 7.89124 79.8299C8.71223 77.665 9.56658 75.4263 10.3742 73.6032C11.7091 70.5938 13.578 66.7934 15.0465 64.1593C16.5149 61.5252 18.3838 58.3884 19.8122 56.1833C21.7345 53.1745 23.8085 50.2662 26.0263 47.4699C29.7858 42.8263 33.7966 38.3937 38.0406 34.1921C40.2432 32.1076 43.4137 29.3328 46.1103 27.1343C48.166 25.452 50.8559 23.4479 52.7849 22.1342C55.4548 20.3178 59.2927 17.925 62.2562 16.1756C64.0984 15.0965 66.6281 13.756 68.5571 12.8244C70.6463 11.8391 73.0358 10.7265 74.8713 9.93556C76.293 9.33232 78.2086 8.59504 79.6971 8.03202L80.211 7.83765C83.6017 6.54405 87.9536 5.29068 89.2085 4.94214C91.1508 4.39923 92.5992 4.01719 93.6404 3.7826C95.8364 3.29331 99.3739 2.53592 102.124 2.03993C103.966 1.7048 108.391 1.08147 112.049 0.799958C120.258 0.12324 128.515 0.28493 136.692 1.28254C142.425 1.98631 146.704 2.92467 146.704 2.93137C149.46 3.55471 152.671 4.33891 154.88 4.94214C156.696 5.43813 159.019 6.18882 160.22 6.59098C162.076 7.20761 164.559 8.11246 166.387 8.83634C168.457 9.65405 171.173 10.8471 172.608 11.5174C174.45 12.3418 176.613 13.4477 178.615 14.5134C179.77 15.1099 180.918 15.7333 182.046 16.3767L182.413 16.6046C186.725 19.2856 192.085 22.5632 195.889 25.5726C198.873 27.9319 202.324 30.8409 204.686 32.9857C206.756 34.8691 209.312 37.4161 211.054 39.3397C213.544 42.0878 216.394 45.4256 218.296 47.852C219.845 49.8225 221.96 52.7716 223.683 55.3655C225.405 57.9594 227.514 61.4917 229.202 64.5615C230.364 66.6795 231.665 69.4275 232.813 71.8472L233.361 73.0067C234.742 75.9022 236.244 79.964 237.252 82.8595C237.92 84.7094 238.587 86.9816 239.188 89.18C239.481 90.1921 239.762 91.1908 240.029 92.0487C241.027 95.4671 241.77 98.9553 242.251 102.485C242.365 103.389 242.505 104.381 242.652 105.414C242.979 107.773 243.319 110.206 243.486 112.237C243.753 115.501 243.94 119.871 243.947 123.108C243.837 129.724 243.293 136.324 242.318 142.868C241.75 146.81 240.914 150.709 239.815 154.537C239.602 155.247 239.368 156.025 239.148 156.829C238.48 159.108 237.713 161.688 236.998 163.699C235.874 166.996 234.572 170.229 233.1 173.384L232.253 175.281C231.205 177.446 230.017 179.899 228.975 181.789C227.4 184.631 225.231 188.21 223.582 190.69C219.944 196.169 215.873 201.344 211.408 206.167C210.56 207.071 207.597 210.188 205.127 212.48C202.504 214.893 199.307 217.635 196.977 219.464C195.155 220.885 192.439 222.923 190.269 224.357C187.352 226.288 183.408 228.667 180.691 230.242C176.21 232.702 171.585 234.889 166.841 236.791C164.385 237.729 160.761 239.049 157.984 239.914C155.474 240.691 151.943 241.643 149.2 242.28C140.296 244.345 131.187 245.388 122.048 245.39ZM62.1962 229.002C64.9862 230.624 68.764 232.568 71.6074 233.835C75.629 235.689 79.749 237.32 83.9488 238.721C83.9955 238.721 88.6211 240.303 93.4135 241.442C95.1555 241.858 99.2204 242.823 104.4 243.587C119.288 245.8 134.457 245.189 149.12 241.784C151.85 241.154 155.361 240.209 157.857 239.431C160.627 238.567 164.238 237.26 166.694 236.321C171.399 234.427 175.989 232.253 180.437 229.813C183.154 228.231 187.112 225.865 189.996 223.942C192.151 222.514 194.855 220.483 196.67 219.062C198.993 217.246 202.183 214.511 204.8 212.105C206.455 210.584 208.805 208.231 211.047 205.825C215.494 201.02 219.55 195.865 223.175 190.409C224.817 187.929 226.973 184.377 228.515 181.535C229.556 179.658 230.738 177.211 231.779 175.053L232.7 173.156C234.16 170.015 235.452 166.798 236.571 163.518C237.285 161.507 238.046 158.947 238.714 156.682C238.954 155.877 239.181 155.1 239.381 154.383C240.471 150.581 241.303 146.709 241.871 142.794C242.842 136.275 243.384 129.699 243.493 123.108C243.493 119.871 243.306 115.521 243.039 112.27C242.872 110.26 242.532 107.827 242.205 105.481C242.058 104.442 241.918 103.47 241.804 102.538C241.323 99.0408 240.585 95.5839 239.595 92.1962C239.328 91.3114 239.048 90.3328 238.754 89.3207C238.126 87.129 237.472 84.8635 236.832 83.027C235.817 80.1449 234.329 76.1033 232.96 73.2279L232.406 72.0616C231.265 69.6487 229.963 66.9141 228.809 64.8027C227.127 61.7397 224.971 58.1471 223.309 55.6471C221.647 53.147 219.498 50.1241 217.969 48.167C216.067 45.7474 213.23 42.4162 210.747 39.6748C209.018 37.7713 206.475 35.231 204.419 33.361C202.057 31.2229 198.619 28.3207 195.649 25.9882C191.858 22.9787 186.511 19.6811 182.193 17.0403L181.839 16.8191C180.838 16.2695 179.663 15.626 178.428 14.9692C161.535 6.25585 142.252 3.08553 122.361 5.74645H122.321H122.235L122.168 5.25046C136.475 3.21765 151.055 4.4222 164.839 8.77601C163.277 8.18618 161.535 7.56285 160.167 7.10037C158.945 6.69151 156.636 5.94753 154.827 5.45824C152.624 4.86171 149.427 4.11773 146.677 3.44747C146.637 3.44747 142.445 2.51582 136.699 1.80534C128.539 0.813584 120.3 0.658627 112.109 1.34287C108.465 1.62437 104.06 2.24101 102.237 2.57614C99.4941 3.07213 95.9632 3.82282 93.7739 4.3121C92.7327 4.54669 91.2976 4.92204 89.362 5.46495C88.1138 5.81348 83.7753 7.06015 80.4113 8.34705L79.8906 8.54142C78.3822 9.11784 76.4999 9.83502 75.0849 10.4382C73.256 11.2224 70.8799 12.3351 68.7907 13.3203C66.8751 14.2252 64.3587 15.5523 62.5299 16.6314C59.573 18.3741 55.7751 20.7602 53.0786 22.5699C51.1429 23.9104 48.4664 25.8743 46.4039 27.5432C43.7341 29.7416 40.5636 32.4964 38.3944 34.5742C34.1519 38.7631 30.1411 43.1823 26.38 47.8118C24.1744 50.597 22.1093 53.4917 20.1926 56.4849C18.7709 58.6431 16.8553 61.8469 15.4536 64.4274C14.0519 67.0079 12.1563 70.8351 10.8214 73.811C10.0205 75.614 9.17278 77.8325 8.3518 80.0109C8.00472 80.9291 7.68433 81.8139 7.35727 82.6182C6.16351 85.9108 5.15188 89.2673 4.32699 92.672C3.82639 94.589 3.35916 96.9349 2.90528 99.207C2.69837 100.239 2.49813 101.218 2.31124 102.143C1.84402 104.341 1.55033 107.176 1.29669 109.676C1.18322 110.756 1.07643 111.801 0.96296 112.746C0.295496 118.249 0.435667 125.615 0.789423 130.682C1.3553 137.18 2.28454 143.64 3.57275 150.033C4.26761 153.484 5.19757 156.884 6.35607 160.207C6.66978 161.065 7.02354 162.03 7.3506 163.022C8.09816 165.154 8.87242 167.352 9.6133 169.142C10.7346 171.823 12.4834 175.784 14.0386 178.726C14.8262 180.228 16.8486 184.015 18.6241 186.85C19.9991 189.062 21.8813 191.763 23.5433 194.142L24.6913 195.791C26.9371 198.957 29.404 201.958 32.0735 204.772C35.5643 208.419 40.6971 213.653 44.8755 217.011C47.6788 219.263 51.7637 222.293 55.2679 224.713C57.2035 226.053 59.8534 227.615 62.1895 228.975L62.1962 229.002Z" fill="white"/>
<path d="M121.76 240.571L121.687 240.53C92.085 223.633 68.0562 157.157 68.1964 92.3435V92.1089H68.4167C128.715 83.9653 201.836 91.07 231.425 107.947L231.552 108.021V108.168C231.432 173.009 182.193 232.407 121.847 240.557L121.76 240.571ZM68.7237 92.5646C68.6636 157.09 92.4854 223.184 121.887 240.021C181.959 231.864 230.884 172.801 231.071 108.275C201.502 91.5392 128.796 84.4881 68.7237 92.5646Z" fill="white"/>
<path d="M176.853 217.038C161.995 208.559 125.218 204.974 94.8817 209.089L94.8149 208.593C125.245 204.484 162.162 208.077 177.1 216.596L176.853 217.038Z" fill="white"/>
<path d="M216.127 169.597C190.663 155.073 127.668 148.96 75.6992 155.978L75.6324 155.482C127.695 148.451 190.83 154.59 216.374 169.162L216.127 169.597Z" fill="white"/>
<path d="M121.908 240.544L121.714 240.081C158.745 224.578 188.968 159.382 189.088 94.7429H189.588C189.468 159.57 159.105 224.974 121.908 240.544Z" fill="white"/>
<path d="M122.054 240.376L121.567 240.249C126.466 221.602 130.544 153.786 130.664 89.0659H131.165C131.045 153.819 126.96 221.696 122.054 240.376Z" fill="white"/>
<path d="M108.104 241.496C85.197 241.496 63.8115 233.587 46.7845 218.606C35.9385 209.01 27.3641 197.103 21.6878 183.753C15.5805 169.678 12.4901 154.188 12.5035 137.78C3.34589 132.519 -0.899188 126.661 0.222152 120.829C2.64505 108.47 28.7496 97.4709 68.417 92.1088L68.6973 92.0686V92.3568C68.5772 157.01 92.459 223.291 121.934 240.108L122.602 240.477L121.868 240.571C117.305 241.187 112.708 241.496 108.104 241.496ZM68.19 92.6316C28.9031 97.9937 3.05887 108.818 0.716074 120.957C-0.371893 126.587 3.83313 132.291 12.8773 137.445L13.0041 137.519V137.686C12.9707 154.081 16.0477 169.53 22.1417 183.606C27.7982 196.875 36.3308 208.711 47.1182 218.251C67.2155 235.933 93.4469 243.721 121.047 240.175C91.7716 222.702 68.15 156.889 68.1967 92.6316H68.19Z" fill="white"/>
<path d="M66.6082 231.918C61.8959 229.237 59.7132 226.214 60.2939 223.204C61.5087 216.904 74.7245 211.307 94.7885 208.599L94.8552 209.095C75.0115 211.776 61.9626 217.219 60.8146 223.305C60.2739 226.086 62.3764 228.915 66.8818 231.489L66.6082 231.918Z" fill="white"/>
<path d="M27.4678 195.074C19.4582 190.516 15.7605 185.422 16.7417 180.328C18.8108 169.604 41.3711 160.093 75.632 155.468L75.6988 155.964C41.6581 160.562 19.258 169.932 17.2289 180.422C16.2945 185.268 19.8988 190.181 27.7148 194.624L27.4678 195.074Z" fill="white"/>
<path d="M121.767 240.557C65.7001 230.088 20.2458 168.84 20.366 103.966H20.8666C20.7464 168.585 66.0472 229.639 121.854 240.061L121.767 240.557Z" fill="white"/>
<path d="M121.807 240.564C54.707 239.076 0.261891 185.094 0.382034 120.219H0.882633C0.762489 184.812 55.014 238.573 121.814 240.055L121.807 240.564Z" fill="white"/>
<path d="M135.324 244.471C130.542 244.376 125.868 243.032 121.761 240.571C93.781 244.331 67.1625 236.549 46.7915 218.606C35.9455 209.01 27.3712 197.103 21.6948 183.753C15.5675 169.617 12.4771 154.094 12.5105 137.633V137.204L12.8843 137.411C42.3862 154.248 115.373 161.326 175.572 153.196L175.859 153.156V153.444C175.779 197.212 164.666 230.852 146.864 241.248C143.375 243.341 139.389 244.454 135.324 244.471ZM121.861 240.048L121.935 240.095C130.612 245.055 138.942 245.309 146.631 240.832C164.245 230.564 175.252 197.212 175.379 153.766C115.387 161.809 42.8067 154.791 13.0311 138.095C13.0311 154.329 16.1282 169.631 22.1687 183.585C27.8252 196.855 36.3579 208.691 47.1452 218.231C67.4228 236.073 93.9345 243.828 121.801 240.061L121.861 240.048Z" fill="white"/>
<path d="M122.335 241.623C99.4538 241.623 77.3541 238.05 66.6079 231.918L66.8549 231.482C81.7126 239.961 118.49 243.547 148.826 239.424L148.893 239.927C140.087 241.078 131.215 241.645 122.335 241.623Z" fill="white"/>
<path d="M122.749 211.669C83.6154 211.669 45.8302 205.55 27.4683 195.074L27.7152 194.638C53.179 209.169 116.168 215.275 168.143 208.258L168.203 208.754C153.132 210.731 137.948 211.705 122.749 211.669Z" fill="white"/>
<path d="M106.102 243.902C98.9871 243.882 92.0425 241.712 86.1719 237.675C66.2347 224.304 54.3805 191.93 54.454 151.078H54.9546C54.8811 191.763 66.6552 223.975 86.4522 237.253C97.0048 244.338 109.199 245.296 121.701 240.081L121.895 240.544C116.904 242.703 111.536 243.844 106.102 243.902Z" fill="white"/>
<path d="M119.365 245.356H119.252C114.746 244.767 112.81 200.449 112.891 156.755H113.391C113.284 214.062 116.295 244.451 119.318 244.847C119.639 244.907 120.453 244.512 121.568 240.249L122.055 240.376C121.167 243.761 120.306 245.356 119.365 245.356Z" fill="white"/>
<path d="M135.323 244.472C130.878 244.472 126.286 243.131 121.687 240.53L121.02 240.162L121.76 240.061C134.864 238.243 147.546 234.121 159.225 227.883C169.344 211.944 175.278 185.429 175.338 153.484V153.263H175.551C197.438 150.307 215.172 145.649 227.026 140.005C229.653 129.604 230.998 118.919 231.031 108.188V107.759L231.405 107.967C240.649 113.242 244.934 119.134 243.806 124.992C242.745 130.494 236.998 135.716 227.46 140.32C217.915 178.076 192.385 210.898 159.566 228.305C155.854 234.123 151.556 238.533 146.844 241.301C143.354 243.372 139.376 244.467 135.323 244.472ZM122.588 240.45C131.052 245.061 139.135 245.189 146.617 240.825C151.095 238.218 155.147 234.123 158.698 228.727C147.407 234.657 135.198 238.623 122.588 240.457V240.45ZM175.858 153.692C175.772 185.14 169.991 211.334 160.12 227.42C192.331 210.04 217.381 177.721 226.866 140.562C215.005 146.158 197.444 150.77 175.858 153.699V153.692ZM231.545 108.584C231.48 119.07 230.164 129.511 227.627 139.684C236.798 135.226 242.311 130.166 243.332 124.858C244.407 119.314 240.329 113.691 231.545 108.59V108.584Z" fill="white"/>
<path d="M148.893 239.927L148.826 239.425C168.67 236.744 181.726 231.308 182.9 225.222C183.434 222.44 181.332 219.612 176.826 217.038L177.073 216.596C181.786 219.277 183.968 222.3 183.387 225.309C182.193 231.616 168.957 237.213 148.893 239.927Z" fill="white"/>
<path d="M168.176 208.734L168.116 208.238C202.157 203.64 224.55 194.27 226.579 183.78C227.514 178.934 223.91 174.021 216.1 169.577L216.347 169.142C224.357 173.706 228.048 178.8 227.073 183.887C225.031 194.605 202.464 204.129 168.176 208.734Z" fill="white"/>
<path d="M137.947 242.079C132.519 242.071 127.103 241.562 121.768 240.557L121.854 240.061C146.464 244.659 170.212 238.721 188.728 223.305C210.567 205.107 223.129 175.435 223.195 141.882H223.696C223.629 175.583 211.014 205.402 189.048 223.653C174.711 235.655 156.611 242.181 137.947 242.079Z" fill="white"/>
<path d="M124.671 240.591C123.717 240.591 122.762 240.591 121.808 240.591V240.088C155.014 240.819 185.998 228.741 209.119 206.066C231.018 184.618 243.113 156.031 243.159 125.635H243.66C243.607 156.172 231.459 184.866 209.466 206.434C186.925 228.513 156.903 240.591 124.671 240.591Z" fill="white"/>
<path d="M231.545 108.584L231.172 108.376C201.67 91.5392 128.689 84.4613 68.4838 92.5915L68.1968 92.6317V92.3435C68.2769 48.569 79.3902 14.9289 97.1981 4.53988C104.901 0.0491605 113.578 0.290453 122.295 5.21014C150.268 1.4567 176.893 9.23168 197.264 27.1744C208.108 36.7722 216.682 48.6795 222.361 62.0278C228.488 76.1635 231.579 91.6799 231.552 108.148L231.545 108.584ZM121.067 88.7174C166.134 88.7174 209.646 95.7216 231.051 107.726C231.051 91.4856 227.948 76.1836 221.907 62.2356C216.251 48.9638 207.718 37.1257 196.931 27.5833C176.653 9.74107 150.155 1.99291 122.281 5.75305H122.195L122.121 5.71283C113.444 0.746227 105.114 0.498232 97.4251 4.96884C79.8374 15.2506 68.8309 48.6026 68.7241 92.0553C86.08 89.7926 103.565 88.6776 121.067 88.7174Z" fill="white"/>
<path d="M216.347 51.1829C190.87 36.6517 127.881 30.5457 75.9193 37.5633L75.8525 37.0606C127.915 30.0296 191.044 36.1691 216.594 50.7405L216.347 51.1829Z" fill="white"/>
<path d="M177.2 14.3591C162.342 5.88032 125.572 2.29444 95.2289 6.41652L95.1621 5.92053C125.592 1.81186 162.509 5.39773 177.447 13.9234L177.2 14.3591Z" fill="white"/>
<path d="M189.589 94.7431H189.088C189.161 54.0585 177.387 21.8393 157.59 8.56149C147.038 1.47688 134.85 0.518415 122.341 5.73971L122.148 5.27054C134.83 -0.0311931 147.164 0.967489 157.871 8.13923C177.808 21.5176 189.662 53.9043 189.589 94.7431Z" fill="white"/>
<path d="M131.165 89.0659H130.665C130.798 31.7857 127.761 1.3628 124.738 0.953943C124.437 0.907025 123.61 1.28237 122.488 5.5519L122.001 5.42455C122.929 1.90571 123.83 0.330605 124.804 0.451251C129.31 1.05448 131.245 45.392 131.165 89.0659Z" fill="white"/>
<path d="M13.0105 138.095L12.6367 137.887C3.38567 132.613 -0.899452 126.721 0.228563 120.863C1.29651 115.36 7.0367 110.139 16.5748 105.534C26.1195 67.7719 51.65 34.9494 84.4759 17.5429C88.187 11.725 92.4855 7.31474 97.1978 4.54658C104.92 0.0424529 113.624 0.297149 122.368 5.28386L123.035 5.6525L122.301 5.75304C109.188 7.56772 96.4967 11.6904 84.8097 17.9316C74.6909 33.8703 68.7905 60.3857 68.6971 92.3301V92.5513H68.4835C46.5973 95.5071 28.8695 100.165 17.0153 105.809C14.3884 116.21 13.0434 126.896 13.0105 137.626V138.095ZM16.4279 106.131C7.26364 110.588 1.74371 115.648 0.722485 120.957C-0.352133 126.506 3.72608 132.13 12.5099 137.231C12.5751 126.744 13.8905 116.303 16.4279 106.131ZM83.942 18.3807C51.7235 35.8073 26.6735 68.0936 17.1621 105.259C29.0497 99.6627 46.6107 95.0513 68.1965 92.1223C68.2832 60.6672 74.0635 34.4668 83.942 18.3807ZM108.772 1.80523C104.774 1.81947 100.855 2.9146 97.4247 4.97554C92.9461 7.58954 88.8945 11.6781 85.3436 17.0402C96.6392 11.1318 108.848 7.18201 121.453 5.35759C117.11 2.99382 112.883 1.8097 108.772 1.80523Z" fill="white"/>
<path d="M27.6816 76.6929C19.672 72.1284 15.9809 67.0345 16.9621 61.9472C19.0245 51.2231 41.5915 41.7122 75.8525 37.0874L75.9192 37.5901C41.8785 42.1814 19.4784 51.5582 17.4493 62.0478C16.5149 66.8937 20.1192 71.8 27.9285 76.2438L27.6816 76.6929Z" fill="white"/>
<path d="M66.9817 29.2187C62.2694 26.5376 60.0868 23.5148 60.6675 20.5053C61.8823 14.2049 75.1047 8.60829 95.162 5.90045L95.2288 6.39645C75.3851 9.07747 62.3362 14.5199 61.1881 20.5992C60.6475 23.3807 62.75 26.2159 67.2554 28.7897L66.9817 29.2187Z" fill="white"/>
<path d="M20.8668 103.966H20.3662C20.4263 70.2586 33.048 40.4389 55.0143 22.1543C73.6432 6.63113 97.5385 0.632338 122.288 5.25711L122.201 5.7531C97.5919 1.15514 73.8435 7.09361 55.328 22.5095C33.4886 40.7338 20.9269 70.4128 20.8668 103.966Z" fill="white"/>
<path d="M0.882953 120.26H0.382355C0.442427 89.7227 12.5836 61.0223 34.5832 39.4534C57.8043 16.6647 88.9349 4.55318 122.248 5.27035V5.77304C89.0617 5.03576 58.0646 17.1205 34.9437 39.7953C13.0308 61.277 0.943025 89.8165 0.882953 120.26Z" fill="white"/>
<path d="M122.989 157.124C77.6615 157.124 33.9025 150.019 12.6571 137.887L12.5303 137.814V137.686C12.6571 72.8055 61.8426 13.4073 122.215 5.25702H122.295L122.368 5.29724C151.984 22.1944 175.979 88.6771 175.859 153.491V153.712H175.639C158.183 156.015 140.595 157.154 122.989 157.124ZM13.0109 137.519C42.5595 154.275 115.28 161.333 175.358 153.256C175.425 88.7308 151.603 22.6301 122.195 5.79993C62.1496 13.9234 13.1978 72.9864 13.0109 137.519Z" fill="white"/>
<path d="M122.969 93.2483C83.8355 93.2483 46.0503 87.1356 27.6817 76.6595L27.9287 76.2171C53.3724 90.7684 116.388 96.861 168.357 89.8367L168.423 90.3394C153.352 92.3142 138.168 93.2859 122.969 93.2483Z" fill="white"/>
<path d="M122.708 38.9239C99.8278 38.9239 77.7281 35.3448 66.9819 29.2186L67.2288 28.783C82.0933 37.255 118.864 40.8476 149.207 36.7255L149.274 37.2215C140.466 38.3781 131.591 38.9468 122.708 38.9239Z" fill="white"/>
<path d="M54.9679 151.091H54.4673C54.5874 86.2641 84.9504 20.8538 122.148 5.28369L122.342 5.75287C85.3108 21.2358 55.088 86.4317 54.9679 151.091Z" fill="white"/>
<path d="M113.391 156.755H112.89C113.01 92.0018 117.102 24.1249 122.001 5.44482L122.488 5.57217C117.589 24.212 113.511 92.0353 113.391 156.755Z" fill="white"/>
<path d="M175.359 153.773V153.484C175.479 88.8247 151.597 22.543 122.122 5.733L121.454 5.36436L122.195 5.26382C150.228 1.48358 176.854 9.28536 197.245 27.2147C208.089 36.8125 216.663 48.7198 222.341 62.0681C228.449 76.1434 231.539 91.6331 231.532 108.041C240.69 113.296 244.935 119.161 243.807 124.992C241.411 137.385 215.286 148.404 175.619 153.759L175.359 153.773ZM123.009 5.64587C152.284 23.0725 175.906 88.9185 175.859 153.176C215.146 147.814 240.99 136.989 243.333 124.851C244.421 119.221 240.216 113.517 231.172 108.363L231.052 108.289V108.142C231.052 91.747 228.001 76.2976 221.907 62.2222C216.251 48.9504 207.718 37.1124 196.931 27.57C176.854 9.902 150.609 2.12702 123.009 5.64587Z" fill="white"/>
<path d="M168.423 90.3392L168.356 89.8365C202.397 85.2453 224.797 75.8684 226.826 65.3789C227.761 60.5396 224.156 55.6267 216.347 51.1829L216.594 50.7405C224.604 55.3049 228.295 60.3989 227.314 65.4861C225.251 76.1834 202.684 85.7145 168.423 90.3392Z" fill="white"/>
<path d="M149.273 37.2214L149.207 36.7254C169.044 34.0444 182.099 28.6019 183.247 22.516C183.781 19.7344 181.685 16.9059 177.173 14.3322L177.42 13.8965C182.133 16.5775 184.322 19.6004 183.734 22.6098C182.546 28.9169 169.331 34.5136 149.273 37.2214Z" fill="white"/>
<path d="M223.696 141.855H223.195C223.315 77.2359 178.008 16.1755 122.201 5.75301L122.288 5.25702C178.322 15.6996 223.816 77.0013 223.696 141.855Z" fill="white"/>
<path d="M243.673 125.622H243.172C243.292 61.0223 189.041 7.26106 122.241 5.77979V5.2771C189.321 6.73826 243.793 60.7274 243.673 125.622Z" fill="white"/>
<path d="M121.607 245.383H121.093L119.271 245.35H118.457C117.716 245.35 116.675 245.296 115.787 245.243C110.755 244.983 105.744 244.412 100.782 243.533C91.7246 241.926 82.8791 239.286 74.4175 235.665C70.1544 233.811 65.9884 231.739 61.9359 229.458C58.2042 227.372 54.6021 225.059 51.1497 222.534C50.5623 222.085 49.9282 221.609 49.2674 221.12C47.0314 219.444 44.4951 217.548 42.6529 215.845C42.0388 215.282 41.3647 214.665 40.6505 214.029C39.0686 212.601 37.4266 211.12 36.1317 209.813C33.8623 207.52 30.9922 204.411 28.9965 202.078C26.1732 198.78 22.6423 193.901 18.1903 187.171C16.3252 184.194 14.6099 181.125 13.0508 177.976C11.4491 174.895 10.0207 171.726 8.77235 168.485C6.56865 162.485 4.66621 156.378 3.07221 150.187C1.8641 145.059 1.01642 138.162 0.402353 132.727C0.122018 130.18 0.0752948 126.956 0.0419216 124.114V122.733C-0.0256214 119.093 0.141595 115.453 0.54252 111.835C0.662664 110.916 0.782804 109.898 0.909622 108.839C1.18328 106.499 1.47029 104.08 1.81737 102.089C2.38472 98.8451 3.29247 94.656 4.08008 91.6666C4.84099 88.7778 5.96901 85.0847 6.89011 82.4841C7.67104 80.2656 8.80573 77.5242 9.80693 75.1113L10.8215 72.6313C12.2512 69.2735 13.899 66.0135 15.754 62.8724C18.3438 58.4822 22.3619 52.4566 25.9863 47.5168C28.2368 44.493 30.6898 41.6265 33.3284 38.9375L35.1439 37.101C36.599 35.6198 38.2543 33.9307 39.6559 32.6774C42.2657 30.3449 46.0302 27.2215 49.2474 24.7147C51.5435 22.9251 54.774 20.8004 56.0555 19.9693C57.9378 18.7494 60.4675 17.2883 62.5032 16.0818L63.104 15.7333C67.1676 13.4087 71.3872 11.3706 75.7324 9.63393C79.4568 8.17947 82.2802 7.14058 84.3494 6.46362C87.0593 5.58558 90.737 4.5802 93.2734 3.93005C96.4638 3.11904 100.615 2.36835 101.79 2.15387C104.46 1.68469 106.663 1.42329 108.985 1.15518C109.833 1.05465 113.11 0.746329 114.879 0.659196C117.295 0.538549 119.378 0.431307 122.935 0.451415C128.562 0.510343 134.177 0.95824 139.742 1.79193C142.445 2.18068 145.583 2.78391 147.031 3.09223C149.107 3.5413 152.164 4.29869 155.227 5.103C156.963 5.57218 159.392 6.33627 161.268 6.99982C164.051 7.9918 167.315 9.24518 169.598 10.2037C173.603 11.8793 178.689 14.6072 182.073 16.4102C182.847 16.8526 183.615 17.3084 184.376 17.7507C186.752 19.165 189.508 20.8674 191.558 22.3956C192.158 22.8447 192.826 23.334 193.52 23.8367C195.108 25.0029 196.911 26.3233 198.286 27.4494C201.054 29.6424 203.71 31.9757 206.242 34.4401C206.836 35.0568 207.497 35.727 208.191 36.4509C209.706 37.9791 211.274 39.5542 212.503 40.9349C214.799 43.5154 217.415 46.6857 219.177 48.978C220.939 51.2703 223.075 54.34 224.484 56.5653C225.258 57.7785 227.934 62.0279 229.736 65.5266C232.845 71.3696 235.472 77.4579 237.593 83.7308C239.809 90.2658 241.597 99.0126 242.265 102.464C242.886 105.675 243.319 110.032 243.6 113.122C243.78 115.333 243.853 118.122 243.913 120.588C243.913 121.473 243.96 122.324 243.987 123.102C244.057 127.193 243.848 131.285 243.359 135.347C242.946 138.786 242.492 142.338 241.978 145.066C241.377 148.29 240.423 152.472 239.602 155.462C238.821 158.33 237.653 161.997 236.705 164.597C235.87 166.863 234.702 169.658 233.628 172.124L232.66 174.41C231.384 177.275 229.956 180.07 228.382 182.781C227.113 185.013 225.371 187.748 223.836 190.154L222.708 191.977C220.569 195.194 218.242 198.28 215.74 201.22C211.922 205.784 207.794 210.078 203.385 214.069C200.715 216.401 196.897 219.511 193.613 222.005C191.791 223.385 189.288 225.014 187.279 226.321L186.805 226.63C182.387 229.404 177.805 231.905 173.082 234.116C171.42 234.854 167.188 236.71 163.898 237.93C161.435 238.842 157.891 239.994 155.021 240.799C150.804 241.987 146.528 242.956 142.212 243.701C138.981 244.251 137.159 244.458 135.043 244.7C133.808 244.84 130.785 245.108 129.15 245.189C126.827 245.31 125.325 245.383 123.723 245.39H121.607V245.383ZM122.121 0.954107C119.078 0.954107 117.149 1.04794 114.939 1.16189C113.177 1.24902 109.92 1.55064 109.079 1.65118C106.756 1.92598 104.567 2.18068 101.91 2.64986C98.7399 3.21287 95.5694 3.86972 93.4335 4.41933C90.9039 5.08959 87.2395 6.06817 84.5363 6.9462C82.4738 7.61646 79.6638 8.64865 75.946 10.1031C71.6256 11.8164 67.4303 13.8322 63.391 16.1354L62.7903 16.484C60.7879 17.6703 58.2315 19.165 56.3559 20.358C55.081 21.1824 51.8705 23.3005 49.5878 25.0498C46.3773 27.5499 42.6262 30.6666 40.023 32.9924C38.6347 34.2323 36.9861 35.9147 35.531 37.396L33.7155 39.2325C31.0859 41.9012 28.6438 44.75 26.4068 47.7581C22.7824 52.6845 18.7777 58.69 16.1946 63.0735C14.3595 66.2043 12.7318 69.4532 11.3221 72.7989C11.0084 73.5697 10.6546 74.4075 10.3009 75.2789C9.30633 77.6918 8.17164 80.4264 7.39071 82.6517C6.47628 85.2456 5.38831 88.9119 4.59403 91.794C3.79975 94.6761 2.91202 98.9456 2.34468 102.176C1.9976 104.154 1.71059 106.566 1.43693 108.879C1.31678 109.938 1.19663 110.957 1.07649 111.882C0.675307 115.475 0.50809 119.091 0.575895 122.706V124.087C0.615943 126.915 0.662663 130.119 0.942998 132.646C1.54372 138.075 2.38472 144.952 3.61286 150.073C5.20016 156.247 7.0982 162.336 9.29966 168.317C10.5404 171.54 11.9598 174.691 13.5514 177.754C15.0991 180.886 16.8033 183.938 18.6575 186.897C21.9579 192.056 25.555 197.017 29.4304 201.756C31.4328 204.082 34.2762 207.185 36.5389 209.471C37.8271 210.765 39.4557 212.239 41.0376 213.667C41.7451 214.303 42.4259 214.913 43.04 215.476C44.8688 217.165 47.3985 219.056 49.6212 220.725C50.2887 221.214 50.9161 221.69 51.5034 222.139C54.9374 224.648 58.5193 226.947 62.2296 229.022C66.2671 231.295 70.4175 233.36 74.6645 235.209C87.7356 240.796 101.686 244.025 115.874 244.747C116.735 244.8 117.769 244.84 118.51 244.854H119.318L121.133 244.887C121.681 244.887 122.348 244.887 122.969 244.887H123.763C125.352 244.887 126.854 244.807 129.103 244.693C130.772 244.606 133.775 244.338 135.01 244.197C137.112 243.956 138.935 243.748 142.145 243.205C146.446 242.466 150.706 241.502 154.907 240.316C157.744 239.519 161.295 238.366 163.744 237.461C167.028 236.248 171.24 234.398 172.902 233.654C177.598 231.454 182.156 228.969 186.552 226.214L187.025 225.899C189.028 224.599 191.524 222.97 193.333 221.603C196.61 219.116 200.435 216.013 203.078 213.694C207.467 209.716 211.578 205.438 215.379 200.892C217.869 197.97 220.182 194.901 222.308 191.702L223.456 189.893C224.984 187.493 226.72 184.772 227.988 182.52C229.555 179.83 230.979 177.058 232.253 174.215L233.221 171.923C234.269 169.463 235.457 166.675 236.284 164.423C237.232 161.836 238.393 158.183 239.174 155.328C239.989 152.345 240.943 148.189 241.544 144.979C242.045 142.258 242.498 138.712 242.912 135.287C243.4 131.251 243.61 127.187 243.54 123.122C243.54 122.338 243.493 121.486 243.466 120.595C243.406 118.142 243.339 115.36 243.159 113.162C242.906 110.085 242.492 105.749 241.824 102.565C241.157 99.1132 239.348 90.3999 237.152 83.8917C235.043 77.6357 232.429 71.5631 229.336 65.7344C227.541 62.2558 224.877 58.0265 224.103 56.8133C222.701 54.6148 220.626 51.6523 218.817 49.2662C217.008 46.8801 214.465 43.7969 212.142 41.2231C210.921 39.8826 209.359 38.2807 207.85 36.7592C207.183 36.089 206.515 35.4187 205.895 34.7484C203.377 32.2938 200.735 29.9716 197.979 27.7912L197.812 27.6504C218.843 46.4176 231.111 74.5282 231.519 106.265C231.519 106.801 231.519 107.344 231.519 107.887V108.121C231.432 173.009 182.193 232.407 121.848 240.557L121.781 240.061C181.913 231.938 230.918 172.768 231.051 108.155V107.92C231.051 69.4275 213.584 36.1024 184.149 18.1663L181.859 16.8258C178.489 15.0295 173.382 12.3083 169.431 10.6393C167.162 9.68755 163.904 8.43417 161.128 7.4489C159.266 6.77864 156.849 6.02795 155.121 5.56547C152.07 4.74106 149.02 3.98367 146.951 3.5547C145.509 3.23968 142.392 2.64315 139.702 2.2544C134.158 1.43948 128.565 1.00504 122.962 0.954107H122.121Z" fill="white"/>
</svg>
