<svg width="348" height="95" viewBox="0 0 348 95" fill="none" xmlns="http://www.w3.org/2000/svg">
<path d="M163.551 2.61758C163.551 2.61758 173.171 93.2573 181.99 93.2573C190.809 93.2573 187.603 2.61758 198.025 2.61758C208.447 2.61758 209.249 93.2573 216.465 93.2573C223.68 93.2573 222.878 17.7241 231.697 2.61758C240.516 -12.4889 238.111 82.921 246.93 93.2573C255.749 103.594 257.352 2.61758 266.171 2.61758C274.99 2.61758 269.378 84.5113 280.602 93.2573C291.827 102.003 284.611 -6.12831 298.24 2.61758C311.87 11.3635 302.249 93.2573 311.87 93.2573C321.49 93.2573 323.094 2.61754 331.913 2.61758C340.732 2.61763 346.344 93.2573 346.344 93.2573" stroke="#6B7280" stroke-width="1.5"/>
<path d="M107.431 47.4998H346.344" stroke="#6B7280" stroke-width="1.5"/>
<path d="M0 47.4997L101.017 47.4997" stroke="#6B7280" stroke-width="1.5"/>
</svg>
