<svg width="188" height="51" viewBox="0 0 188 51" fill="none" xmlns="http://www.w3.org/2000/svg">
<g clip-path="url(#clip0_0_2481)">
<path fill-rule="evenodd" clip-rule="evenodd" d="M6.34961 6.91309C8.52693 7.86946 10.5816 8.84906 12.6931 9.67636C14.722 10.4727 16.8026 11.1387 18.8753 11.8188C19.7788 12.1157 20.7661 11.3348 20.8965 10.2559C20.9855 9.51761 21.0165 8.77162 21.0785 7.97787C22.6944 8.9949 24.3232 10.0235 25.9532 11.0457C29.5748 13.3173 33.2144 15.563 36.8166 17.8616C39.8948 19.8286 41.9173 22.5919 42.8375 26.1489C43.9242 30.3461 43.2518 34.2632 40.8009 37.8022C38.5629 41.0288 35.4692 43.0435 31.5405 43.6617C26.4282 44.4658 22.0439 43.0228 18.5307 39.2283C16.9884 37.5608 15.6629 35.6919 14.2406 33.9121C12.7138 31.9994 11.1882 30.0854 9.63043 28.1326C10.5726 28.4217 11.4464 28.7431 12.3472 28.9457C12.8262 29.0459 13.3218 29.0339 13.7954 28.9109C14.1986 28.7762 15.0783 27.9919 14.7311 27.0769C13.6702 24.2697 12.6402 21.4484 11.4748 18.6877C9.85888 14.8544 8.13199 11.0728 6.45286 7.26027C6.42059 7.18025 6.40382 7.09765 6.34961 6.91309ZM29.6742 20.5126C24.2999 20.4959 19.8833 24.8647 19.7982 30.1447C19.7117 35.5577 24.2535 40.2324 29.8729 40.1034C35.3956 39.9743 39.2766 35.5784 39.4857 30.6894C39.7374 24.826 34.7438 20.4171 29.6742 20.5126Z" fill="#818CF8"/>
<path d="M64.2681 40.9131H60.1993L53.7334 33.6271V40.9131H50.3269V18.8343H53.7334V32.1131L59.8524 25.1425H64.0158L57.0767 32.8701L64.2681 40.9131ZM76.5729 25.1425H79.9793V40.9131H76.5729V38.8945C75.5425 40.5136 73.9129 41.3231 71.684 41.3231C69.8756 41.3231 68.4142 40.7449 67.2998 39.5884C66.1853 38.4318 65.6281 36.8443 65.6281 34.8256V25.1425H69.0345V34.4787C69.0345 35.6562 69.3499 36.5604 69.9808 37.1912C70.6116 37.8221 71.4737 38.1375 72.5671 38.1375C73.7657 38.1375 74.733 37.7695 75.4689 37.0335C76.2049 36.2765 76.5729 35.1305 76.5729 33.5955V25.1425ZM92.8888 24.7325C95.0546 24.7325 96.905 25.5315 98.44 27.1296C99.975 28.7277 100.743 30.6938 100.743 33.0278C100.743 35.3408 99.975 37.3069 98.44 38.926C96.905 40.5241 95.0546 41.3231 92.8888 41.3231C90.4916 41.3231 88.6517 40.4295 87.3691 38.6421V40.9131H83.9626V18.8343H87.3691V27.3819C88.6517 25.6156 90.4916 24.7325 92.8888 24.7325ZM88.7884 36.655C89.7346 37.6013 90.9227 38.0744 92.3526 38.0744C93.7824 38.0744 94.9705 37.6013 95.9167 36.655C96.8629 35.6878 97.3361 34.4787 97.3361 33.0278C97.3361 31.5769 96.8629 30.3783 95.9167 29.4321C94.9705 28.4648 93.7824 27.9812 92.3526 27.9812C90.9227 27.9812 89.7346 28.4648 88.7884 29.4321C87.8422 30.3783 87.3691 31.5769 87.3691 33.0278C87.3691 34.4787 87.8422 35.6878 88.7884 36.655ZM106.511 34.4787C106.763 35.6773 107.341 36.6025 108.246 37.2543C109.15 37.8851 110.254 38.2005 111.557 38.2005C113.366 38.2005 114.722 37.5487 115.626 36.245L118.433 37.8851C116.877 40.1771 114.575 41.3231 111.526 41.3231C108.961 41.3231 106.889 40.5451 105.312 38.9891C103.735 37.412 102.947 35.4249 102.947 33.0278C102.947 30.6727 103.725 28.7067 105.281 27.1296C106.837 25.5315 108.834 24.7325 111.274 24.7325C113.587 24.7325 115.479 25.542 116.951 27.1611C118.444 28.7803 119.19 30.7463 119.19 33.0593C119.19 33.4168 119.148 33.8899 119.064 34.4787H106.511ZM106.479 31.7031H115.752C115.521 30.4204 114.985 29.4531 114.144 28.8013C113.324 28.1494 112.356 27.8235 111.242 27.8235C109.98 27.8235 108.929 28.1705 108.088 28.8644C107.247 29.5583 106.711 30.5045 106.479 31.7031ZM122.188 40.9131V17.888H125.594V40.9131H122.188ZM138.349 28.4228H134.438V35.9927C134.438 36.6445 134.586 37.1176 134.88 37.412C135.174 37.6854 135.605 37.8431 136.173 37.8851C136.762 37.9062 137.487 37.8956 138.349 37.8536V40.9131C135.742 41.2285 133.871 41.0077 132.735 40.2507C131.6 39.4727 131.032 38.0534 131.032 35.9927V28.4228H128.13V25.1425H131.032V21.7361L134.438 20.7267V25.1425H138.349V28.4228Z" fill="#F9FAFB"/>
</g>
<path d="M145.938 40.9482V32.221H149.279C149.91 32.221 150.434 32.3204 150.851 32.5193C151.272 32.7153 151.586 32.9838 151.793 33.3247C152.003 33.6656 152.109 34.0519 152.109 34.4838C152.109 34.8389 152.04 35.1428 151.904 35.3957C151.768 35.6457 151.584 35.8488 151.354 36.0051C151.124 36.1613 150.867 36.2735 150.583 36.3417V36.4269C150.893 36.444 151.19 36.5392 151.474 36.7124C151.761 36.8829 151.995 37.1244 152.177 37.4369C152.359 37.7494 152.449 38.1272 152.449 38.5704C152.449 39.0221 152.34 39.4284 152.121 39.7892C151.903 40.1471 151.573 40.4298 151.133 40.6372C150.692 40.8445 150.138 40.9482 149.471 40.9482H145.938ZM147.519 39.6272H149.219C149.793 39.6272 150.207 39.5178 150.459 39.2991C150.715 39.0775 150.843 38.7934 150.843 38.4468C150.843 38.1883 150.779 37.9553 150.651 37.748C150.523 37.5377 150.342 37.373 150.106 37.2536C149.87 37.1315 149.589 37.0704 149.262 37.0704H147.519V39.6272ZM147.519 35.9326H149.083C149.356 35.9326 149.601 35.8829 149.82 35.7835C150.039 35.6812 150.211 35.5377 150.336 35.3531C150.464 35.1656 150.528 34.944 150.528 34.6883C150.528 34.3502 150.408 34.0718 150.17 33.8531C149.934 33.6343 149.583 33.5249 149.117 33.5249H147.519V35.9326ZM154.125 40.9482V32.221H159.801V33.5463H155.706V35.9156H159.507V37.2409H155.706V39.623H159.835V40.9482H154.125ZM161.33 33.5463V32.221H168.293V33.5463H165.596V40.9482H164.028V33.5463H161.33ZM170.002 40.9482H168.314L171.387 32.221H173.338L176.415 40.9482H174.728L172.397 34.0107H172.329L170.002 40.9482ZM170.057 37.5264H174.66V38.7963H170.057V37.5264Z" fill="white"/>
<defs>
<clipPath id="clip0_0_2481">
<rect width="139.077" height="50" fill="white" transform="translate(0 0.948242)"/>
</clipPath>
</defs>
</svg>
