<svg width="15" height="15" viewBox="0 0 15 15" fill="none" xmlns="http://www.w3.org/2000/svg">
<path fill-rule="evenodd" clip-rule="evenodd" d="M7.52249 0.814453C3.69629 0.814453 0.594727 3.92086 0.594727 7.75399C0.594727 10.8195 2.57953 13.4209 5.33262 14.3381C5.67901 14.4019 5.8051 14.1878 5.8051 14.0035C5.8051 13.8393 5.79956 13.4022 5.79609 12.8237C3.86879 13.2429 3.46213 11.8933 3.46213 11.8933C3.14761 11.0911 2.69315 10.8777 2.69315 10.8777C2.06411 10.4482 2.74095 10.4565 2.74095 10.4565C3.4358 10.505 3.80159 11.1715 3.80159 11.1715C4.41955 12.2314 5.42338 11.9252 5.81757 11.7479C5.8813 11.2996 6.06004 10.9941 6.25817 10.8209C4.72021 10.6456 3.10258 10.0499 3.10258 7.39098C3.10258 6.63378 3.37276 6.01374 3.81544 5.5288C3.74409 5.35352 3.50647 4.64759 3.88334 3.69294C3.88334 3.69294 4.46527 3.50589 5.78847 4.40373C6.35362 4.2496 6.9367 4.17109 7.52249 4.17026C8.11135 4.17303 8.70367 4.24993 9.2572 4.40373C10.5797 3.50589 11.1603 3.69225 11.1603 3.69225C11.5385 4.64758 11.3002 5.35352 11.2295 5.5288C11.6729 6.01374 11.9417 6.63378 11.9417 7.39098C11.9417 10.0568 10.3213 10.6436 8.77849 10.8154C9.0272 11.0294 9.2482 11.4527 9.2482 12.1005C9.2482 13.0274 9.23988 13.7763 9.23988 14.0035C9.23988 14.1892 9.36458 14.4053 9.71651 14.3375C11.096 13.8748 12.2953 12.9902 13.1447 11.8088C13.9941 10.6275 14.4508 9.20904 14.4503 7.75399C14.4503 3.92086 11.348 0.814453 7.52249 0.814453Z" fill="#F9FAFB"/>
</svg>
