<svg width="147" height="49" viewBox="0 0 147 49" fill="none" xmlns="http://www.w3.org/2000/svg">
<g clip-path="url(#clip0_0_2540)">
<path fill-rule="evenodd" clip-rule="evenodd" d="M29.277 34.372C29.277 36.815 28.427 37.814 26.112 37.814H5.57001C3.25401 37.814 2.40501 36.815 2.40501 34.372V29.615C2.40501 27.321 1.30001 26.025 0.238006 25.431C0.164944 25.3867 0.104535 25.3243 0.062609 25.2499C0.0206832 25.1754 -0.00134277 25.0915 -0.00134277 25.006C-0.00134277 24.9206 0.0206832 24.8366 0.062609 24.7621C0.104535 24.6877 0.164944 24.6253 0.238006 24.581C1.34301 23.88 2.40501 22.414 2.40501 20.46V15.785C2.40501 13.151 3.12701 12.385 5.44201 12.385H26.24C28.556 12.385 29.278 13.151 29.278 15.785V20.458C29.278 22.412 30.34 23.878 31.444 24.578C31.764 24.791 31.764 25.238 31.444 25.428C30.382 26.044 29.278 27.34 29.278 29.613V34.371L29.277 34.372ZM9.81901 31.25C11.497 32.715 13.303 33.459 15.789 33.459C19.697 33.459 22.246 31.505 22.246 28.339C22.246 24.987 19.21 24.132 16.741 23.437C15.048 22.96 13.621 22.558 13.621 21.478C13.621 20.778 14.365 20.098 15.618 20.098C16.829 20.098 17.828 20.353 18.783 20.841C19.102 20.99 19.399 21.096 19.675 21.096C20.079 21.096 20.398 20.905 20.674 20.523L21.056 19.949C21.205 19.737 21.269 19.503 21.269 19.249C21.269 18.823 21.056 18.399 20.738 18.186C19.463 17.379 17.742 16.699 15.406 16.699C12.092 16.699 9.54301 18.441 9.54301 21.563C9.54301 25.054 12.645 25.94 15.129 26.648C16.786 27.121 18.167 27.515 18.167 28.552C18.167 29.55 17.233 30.039 16.064 30.039C14.6603 30.0524 13.2847 29.6456 12.114 28.871C11.752 28.637 11.412 28.488 11.051 28.488C10.732 28.488 10.456 28.637 10.201 28.956L9.69101 29.614C9.50101 29.827 9.43701 30.103 9.43701 30.358C9.43701 30.676 9.54301 30.995 9.81901 31.25ZM41.555 29.295C41.279 29.295 41.045 29.402 40.833 29.678L40.408 30.273C40.238 30.463 40.195 30.697 40.195 30.91C40.195 31.186 40.301 31.462 40.535 31.675C41.937 32.885 43.467 33.523 45.57 33.523C48.862 33.523 51.029 31.866 51.029 29.21C51.029 26.386 48.461 25.665 46.375 25.079C44.946 24.677 43.743 24.339 43.743 23.433C43.743 22.817 44.38 22.264 45.421 22.264C46.3444 22.2608 47.2549 22.4796 48.076 22.902L48.14 22.926C48.392 23.024 48.625 23.114 48.84 23.114C49.16 23.114 49.436 22.965 49.67 22.625L50.01 22.137C50.1248 21.9523 50.1838 21.7384 50.18 21.521C50.18 21.16 50.01 20.799 49.733 20.629C48.65 19.906 47.205 19.354 45.23 19.354C42.447 19.354 40.28 20.841 40.28 23.475C40.28 26.402 42.895 27.149 44.992 27.747C46.395 28.147 47.566 28.482 47.566 29.359C47.566 30.23 46.78 30.634 45.782 30.634C44.486 30.634 43.402 30.273 42.447 29.635C42.171 29.423 41.831 29.295 41.555 29.295ZM61.841 31.59C61.8444 31.4088 61.7924 31.2309 61.692 31.08L61.416 30.634C61.161 30.188 60.864 30.018 60.481 30.018C60.291 30.018 60.078 30.06 59.801 30.166C59.526 30.273 59.207 30.315 58.846 30.315C57.72 30.315 57.231 29.338 57.231 27.872V22.945H60.481C61.097 22.945 61.607 22.435 61.607 21.819V20.799C61.607 20.184 61.097 19.674 60.481 19.674H57.231V17.04C57.231 16.424 56.721 15.914 56.106 15.914H54.895C54.279 15.914 53.769 16.424 53.769 17.04V28C53.769 31.463 54.916 33.439 57.954 33.439C59.292 33.439 60.312 33.163 61.331 32.546C61.671 32.376 61.841 31.973 61.841 31.591V31.59ZM68.723 24.835C65.983 24.835 63.795 26.237 63.795 29.21C63.795 31.823 65.558 33.353 67.959 33.374C69.785 33.374 71.229 32.673 71.952 31.654V32.099C71.952 32.715 72.462 33.225 73.078 33.225H73.864C74.48 33.225 74.99 32.715 74.99 32.099V25.005C74.99 21.437 73.609 19.398 69.616 19.398C68.235 19.398 66.896 19.758 65.728 20.29C65.368 20.46 65.091 20.863 65.091 21.246C65.0961 21.3684 65.1239 21.4888 65.173 21.601C65.189 21.646 65.206 21.691 65.218 21.734L65.388 22.095C65.601 22.52 65.962 22.733 66.408 22.733C66.542 22.733 66.689 22.693 66.829 22.655L66.939 22.626C67.576 22.414 68.235 22.266 69.254 22.266C71.124 22.266 71.761 23.327 71.761 25.303V25.707C71.102 25.218 69.913 24.836 68.723 24.836V24.835ZM69.403 27.15C70.38 27.15 71.145 27.362 71.761 27.809H71.782V29.21C71.357 29.784 70.614 30.421 69.169 30.421C68.065 30.421 67.236 29.848 67.236 28.828C67.236 27.681 68.256 27.15 69.403 27.15ZM86.312 31.59C86.3154 31.4088 86.2634 31.2309 86.163 31.08L85.887 30.634C85.632 30.188 85.335 30.018 84.952 30.018C84.762 30.018 84.549 30.06 84.272 30.166C83.996 30.273 83.678 30.315 83.317 30.315C82.191 30.315 81.702 29.338 81.702 27.872V22.945H84.952C85.568 22.945 86.078 22.435 86.078 21.819V20.799C86.078 20.184 85.568 19.674 84.952 19.674H81.702V17.04C81.702 16.424 81.192 15.914 80.576 15.914H79.366C78.75 15.914 78.24 16.424 78.24 17.04V28C78.24 31.463 79.387 33.439 82.424 33.439C83.763 33.439 84.782 33.163 85.802 32.546C86.142 32.376 86.312 31.973 86.312 31.591V31.59ZM93.194 24.835C90.454 24.835 88.266 26.237 88.266 29.21C88.266 31.823 90.05 33.353 92.429 33.374C94.256 33.374 95.701 32.673 96.423 31.654V32.099C96.423 32.715 96.933 33.225 97.549 33.225H98.335C98.951 33.225 99.461 32.715 99.461 32.099V25.005C99.461 21.437 98.08 19.398 94.086 19.398C92.706 19.398 91.367 19.758 90.199 20.29C89.838 20.46 89.562 20.863 89.562 21.246C89.5671 21.3684 89.5949 21.4888 89.644 21.601C89.66 21.646 89.677 21.691 89.689 21.734L89.859 22.095C90.072 22.52 90.433 22.733 90.879 22.733C91.013 22.733 91.16 22.693 91.299 22.655L91.409 22.626C92.047 22.414 92.706 22.266 93.725 22.266C95.595 22.266 96.232 23.327 96.232 25.303V25.707C95.573 25.218 94.384 24.836 93.194 24.836V24.835ZM93.874 27.15C94.851 27.15 95.616 27.362 96.232 27.809H96.253V29.21C95.828 29.784 95.085 30.421 93.64 30.421C92.536 30.421 91.707 29.848 91.707 28.828C91.707 27.681 92.727 27.15 93.874 27.15ZM110.676 19.44C109.019 19.44 107.426 20.098 106.47 21.16H106.407V20.777C106.407 20.161 105.897 19.651 105.281 19.651H104.07C103.454 19.651 102.944 20.161 102.944 20.777V32.057C102.944 32.673 103.454 33.183 104.07 33.183H105.281C105.897 33.183 106.407 32.673 106.407 32.057V24.112C107.023 23.199 108.021 22.668 109.232 22.668C110.676 22.668 111.462 23.581 111.462 25.005V32.015C111.462 32.63 111.972 33.14 112.588 33.14H113.799C114.415 33.14 114.925 32.63 114.925 32.014V25.196C114.925 25.02 114.918 24.8 114.913 24.602C114.908 24.44 114.903 24.292 114.903 24.197C115.371 23.284 116.39 22.647 117.686 22.647C119.322 22.647 120.002 23.56 120.002 25.238V32.057C120.002 32.673 120.511 33.183 121.127 33.183H122.338C122.954 33.183 123.464 32.673 123.464 32.057V24.367C123.464 20.65 121.616 19.439 119.152 19.439C117.07 19.439 115.562 20.331 114.606 21.606C114.118 20.374 112.737 19.439 110.676 19.439V19.44ZM129.284 16.975C130.261 16.975 131.26 16.189 131.26 14.808C131.26 13.598 130.261 12.812 129.284 12.812C128.116 12.812 127.118 13.598 127.118 14.808C127.118 16.189 128.116 16.975 129.284 16.975ZM130.941 20.799C130.941 20.183 130.431 19.673 129.815 19.673V19.651H128.605C127.989 19.651 127.479 20.161 127.479 20.777V32.057C127.479 32.673 127.989 33.183 128.605 33.183H129.815C130.431 33.183 130.941 32.673 130.941 32.057V20.799ZM141.881 22.583C142.752 22.583 143.453 22.732 144.26 23.114C144.403 23.194 144.558 23.225 144.698 23.254L144.833 23.284C145.237 23.284 145.619 23.029 145.853 22.647L146.299 21.861C146.405 21.712 146.427 21.542 146.427 21.372C146.427 20.99 146.235 20.544 145.896 20.374C144.579 19.651 143.262 19.354 141.456 19.354C137.335 19.354 134.467 22.498 134.467 26.428C134.467 30.676 137.42 33.501 141.881 33.501C143.559 33.501 144.982 33.204 146.597 31.908C146.851 31.717 147 31.313 147 30.952C147 30.719 146.936 30.485 146.788 30.336L146.278 29.699C146.166 29.5594 146.023 29.4468 145.861 29.3696C145.699 29.2924 145.522 29.2526 145.343 29.253C145.11 29.253 144.855 29.338 144.621 29.487C143.835 29.997 143.07 30.273 142.008 30.273C139.969 30.273 138.121 28.786 138.121 26.407C138.121 24.049 139.948 22.583 141.881 22.583Z" fill="#6B7280"/>
</g>
<defs>
<clipPath id="clip0_0_2540">
<rect width="147" height="48" fill="white" transform="translate(0 0.695068)"/>
</clipPath>
</defs>
</svg>
