<svg width="139" height="49" viewBox="0 0 139 49" fill="none" xmlns="http://www.w3.org/2000/svg">
<g clip-path="url(#clip0_0_2530)">
<path fill-rule="evenodd" clip-rule="evenodd" d="M38.029 12.9681C38.029 8.95124 34.8002 5.69534 30.8165 5.69507C26.8327 5.69534 23.603 8.95124 23.603 12.9681C23.5995 14.8554 24.3291 16.6703 25.638 18.0301L23.788 20.8391L17.84 11.6501C17.7362 11.4898 17.5927 11.3592 17.4234 11.2708C17.2542 11.1824 17.065 11.1393 16.8742 11.1456C16.6833 11.152 16.4974 11.2075 16.3344 11.307C16.1714 11.4064 16.0369 11.5463 15.944 11.7131L5.59098 30.2751H1.61098C0.997976 30.2751 0.500977 30.7751 0.500977 31.3931C0.500977 32.0111 0.997977 32.5111 1.60998 32.5111H38.406C38.4173 32.5113 38.4286 32.5113 38.44 32.5111H43.052C43.665 32.5111 44.162 32.0111 44.162 31.3931C44.162 30.7751 43.665 30.2751 43.052 30.2751H39.072L33.258 19.8131C34.6596 19.2997 35.8693 18.3675 36.7228 17.1429C37.5764 15.9183 38.0324 14.4607 38.029 12.9681ZM29.895 30.2751L25.107 22.8781L29.072 16.8571L36.529 30.2751H29.895ZM16.98 14.4151L27.247 30.2751H8.13498L16.98 14.4151ZM34.9174 16.0812C35.5899 15.1829 35.9519 14.0902 35.949 12.9681C35.949 10.1091 33.651 7.79207 30.816 7.79207C27.981 7.79207 25.682 10.1091 25.682 12.9681C25.6797 14.1526 26.0835 15.3021 26.826 16.2251L28.228 14.0951C28.3327 13.9362 28.4767 13.807 28.646 13.72C28.8152 13.6329 29.0041 13.591 29.1943 13.5982C29.3844 13.6055 29.5695 13.6616 29.7317 13.7613C29.8939 13.8609 30.0276 14.0007 30.12 14.1671L32.221 17.9481C33.2985 17.6348 34.2449 16.9795 34.9174 16.0812Z" fill="#6B7280"/>
<path d="M9.01297 36.985C9.01297 36.368 9.50897 35.868 10.12 35.868H34.541C35.152 35.868 35.648 36.368 35.648 36.985C35.648 37.601 35.152 38.101 34.54 38.101H10.12C9.50897 38.101 9.01297 37.602 9.01297 36.985Z" fill="#6B7280"/>
<path d="M17.523 42.577C17.523 41.959 18.02 41.458 18.633 41.458H26.028C26.641 41.458 27.138 41.959 27.138 42.577C27.138 43.195 26.641 43.695 26.029 43.695H18.633C18.02 43.695 17.523 43.194 17.523 42.577Z" fill="#6B7280"/>
<path fill-rule="evenodd" clip-rule="evenodd" d="M120.527 22.5661C119.545 21.3161 118.074 20.6431 116.18 20.6431C113.196 20.6431 110.131 23.1711 110.131 27.4291C110.131 31.6871 113.196 34.2151 116.18 34.2151C118.074 34.2151 119.545 33.5551 120.527 32.2921V33.3501C120.527 35.7951 119.055 37.2791 116.385 37.2791C114.791 37.2791 113.278 36.7561 111.957 35.9461L110.921 38.3781C112.297 39.3671 114.436 39.9031 116.385 39.9031C120.745 39.9031 123.388 37.3621 123.388 33.2261V20.9861H120.527V22.5661ZM113.06 27.4291C113.06 25.2041 114.504 23.3491 116.915 23.3491C119.218 23.3491 120.772 25.1221 120.772 27.4291C120.772 29.7371 119.218 31.5091 116.915 31.5091C114.504 31.5091 113.06 29.6421 113.06 27.4291Z" fill="#6B7280"/>
<path fill-rule="evenodd" clip-rule="evenodd" d="M104.841 22.5801C103.942 21.4121 102.593 20.6431 100.74 20.6431C97.09 20.6431 94.214 23.5411 94.214 27.5661C94.214 31.5911 97.089 34.4901 100.74 34.4901C102.594 34.4901 103.942 33.7351 104.841 32.5671V34.1471H107.689V20.9871H104.841V22.5801ZM97.143 27.5661C97.143 25.2591 98.629 23.3491 101.081 23.3491C103.438 23.3491 105.019 25.1621 105.019 27.5661C105.019 29.9701 103.438 31.7841 101.081 31.7841C98.629 31.7841 97.143 29.8741 97.143 27.5661Z" fill="#6B7280"/>
<path fill-rule="evenodd" clip-rule="evenodd" d="M138.5 27.5531C138.487 23.4461 135.98 20.6431 132.328 20.6431C128.486 20.6431 125.829 23.4461 125.829 27.5671C125.829 31.7431 128.595 34.4911 132.505 34.4911C134.481 34.4911 136.279 34.0111 137.873 32.6371L136.456 30.5891C135.38 31.4541 133.99 31.9771 132.682 31.9771C130.829 31.9771 129.181 30.9871 128.799 28.6241H138.446C138.473 28.2951 138.5 27.9241 138.5 27.5531ZM128.813 26.4401C129.113 24.5171 130.243 23.1981 132.273 23.1981C134.086 23.1981 135.271 24.3931 135.584 26.4401H128.813Z" fill="#6B7280"/>
<path d="M64.8325 28.6509L59.287 14.9141H54.559V34.1471H57.639V18.4721L63.21 32.2651H66.453L72.026 18.3211V34.1471H75.106V14.9141H70.377L64.8325 28.6509Z" fill="#6B7280"/>
<path d="M81.704 20.9871V34.1471H78.843V20.9871H81.704Z" fill="#6B7280"/>
<path d="M93.886 21.0141C93.886 21.0142 93.8859 21.0141 93.886 21.0141V21.0141Z" fill="#6B7280"/>
<path d="M91.692 20.6441C92.5639 20.6441 93.232 20.7532 93.886 21.0141L93.204 23.8561C92.605 23.5401 91.733 23.3751 91.038 23.3751C89.226 23.3751 87.932 24.6671 87.932 26.9051V34.1451H85.084V20.9851H87.904V22.4701C88.762 21.2201 90.098 20.6441 91.692 20.6441Z" fill="#6B7280"/>
<path d="M80.259 14.4061C81.39 14.4061 82.276 15.2991 82.276 16.4391C82.276 17.5791 81.39 18.4451 80.259 18.4451C79.129 18.4451 78.269 17.5791 78.269 16.4391C78.269 15.2991 79.129 14.4061 80.259 14.4061Z" fill="#6B7280"/>
</g>
<defs>
<clipPath id="clip0_0_2530">
<rect width="138" height="48" fill="white" transform="translate(0.5 0.695068)"/>
</clipPath>
</defs>
</svg>
