<svg width="105" height="49" viewBox="0 0 105 49" fill="none" xmlns="http://www.w3.org/2000/svg">
<path fill-rule="evenodd" clip-rule="evenodd" d="M0 10.6951L18 4.69507V14.1951L24 12.1951V43.6951L6 37.6951V32.1951L0 30.1951V10.6951ZM18 36.1951L8 32.8621V36.2551L22 40.9201V14.9701L18 16.3031V36.1951Z" fill="#6B7280"/>
<path d="M42.9 31.6951V21.1461H39.39V17.7531H50.876V21.1451H47.346V31.6951H42.9Z" fill="#6B7280"/>
<path d="M59.481 31.9491C55.405 31.9491 53.105 29.9211 53.105 25.9431V17.7531H57.511V25.7681C57.511 27.5811 57.901 28.4781 59.481 28.4781C61.041 28.4781 61.431 27.5811 61.431 25.7481V17.7531H65.877V25.9041C65.877 30.0961 63.381 31.9491 59.481 31.9491Z" fill="#6B7280"/>
<path fill-rule="evenodd" clip-rule="evenodd" d="M68.965 31.6951V17.7531H74.523C78.54 17.7531 80.256 19.5471 80.256 22.5301V22.6081C80.256 25.5141 78.326 27.1521 74.718 27.1521H73.372V31.6951H68.965ZM74.288 24.1881H73.372V21.0481H74.308C75.458 21.0481 76.063 21.4781 76.063 22.5501V22.6281C76.063 23.6611 75.458 24.1881 74.288 24.1881Z" fill="#6B7280"/>
<path d="M82.563 17.7531V31.6951H92.06V28.2831H86.99V17.7531H82.563Z" fill="#6B7280"/>
<path d="M94.562 31.6951V17.7531H104.468V21.1461H98.969V23.1161H103.337V26.2161H98.969V28.3021H104.78V31.6951H94.562Z" fill="#6B7280"/>
</svg>
