<svg width="24" height="25" viewBox="0 0 24 25" fill="none" xmlns="http://www.w3.org/2000/svg">
<path d="M8.29 21.2173C15.837 21.2173 19.965 14.9643 19.965 9.54227C19.965 9.36427 19.965 9.18726 19.953 9.01226C20.7562 8.43079 21.4493 7.71088 22 6.88627C21.2511 7.21827 20.4566 7.43603 19.643 7.53227C20.4996 7.01933 21.1408 6.21261 21.447 5.26227C20.6417 5.74015 19.7607 6.07699 18.842 6.25827C18.2234 5.60003 17.405 5.1641 16.5136 5.01797C15.6222 4.87184 14.7075 5.02366 13.9111 5.44993C13.1147 5.8762 12.4811 6.55314 12.1083 7.37593C11.7355 8.19871 11.6444 9.12145 11.849 10.0013C10.2176 9.91951 8.6216 9.49559 7.16465 8.75703C5.70769 8.01848 4.42233 6.98179 3.392 5.71427C2.86732 6.61747 2.70659 7.68669 2.94254 8.70423C3.17848 9.72177 3.79337 10.6111 4.662 11.1913C4.00926 11.1724 3.37063 10.9968 2.8 10.6793V10.7313C2.80039 11.6786 3.1284 12.5966 3.7284 13.3296C4.3284 14.0627 5.16347 14.5657 6.092 14.7533C5.48781 14.918 4.85389 14.9419 4.239 14.8233C4.50116 15.6387 5.01168 16.3519 5.69913 16.8629C6.38658 17.3739 7.21657 17.6572 8.073 17.6733C7.22212 18.3418 6.24779 18.8361 5.20573 19.1278C4.16367 19.4195 3.07432 19.5029 2 19.3733C3.8766 20.5776 6.06019 21.2164 8.29 21.2133" fill="#D1D5DB"/>
</svg>
