<svg width="24" height="25" viewBox="0 0 24 25" fill="none" xmlns="http://www.w3.org/2000/svg">
<path fill-rule="evenodd" clip-rule="evenodd" d="M12 2.96387C6.477 2.96387 2 7.44787 2 12.9809C2 17.4059 4.865 21.1609 8.839 22.4849C9.339 22.5769 9.521 22.2679 9.521 22.0019C9.521 21.7649 9.513 21.1339 9.508 20.2989C6.726 20.9039 6.139 18.9559 6.139 18.9559C5.685 17.7979 5.029 17.4899 5.029 17.4899C4.121 16.8699 5.098 16.8819 5.098 16.8819C6.101 16.9519 6.629 17.9139 6.629 17.9139C7.521 19.4439 8.97 19.0019 9.539 18.7459C9.631 18.0989 9.889 17.6579 10.175 17.4079C7.955 17.1549 5.62 16.2949 5.62 12.4569C5.62 11.3639 6.01 10.4689 6.649 9.76887C6.546 9.51587 6.203 8.49687 6.747 7.11887C6.747 7.11887 7.587 6.84887 9.497 8.14487C10.3128 7.92238 11.1544 7.80906 12 7.80787C12.85 7.81187 13.705 7.92287 14.504 8.14487C16.413 6.84887 17.251 7.11787 17.251 7.11787C17.797 8.49687 17.453 9.51587 17.351 9.76887C17.991 10.4689 18.379 11.3639 18.379 12.4569C18.379 16.3049 16.04 17.1519 13.813 17.3999C14.172 17.7089 14.491 18.3199 14.491 19.2549C14.491 20.5929 14.479 21.6739 14.479 22.0019C14.479 22.2699 14.659 22.5819 15.167 22.4839C17.1583 21.816 18.8893 20.5392 20.1155 18.8339C21.3416 17.1287 22.0009 15.0812 22 12.9809C22 7.44787 17.522 2.96387 12 2.96387Z" fill="#D1D5DB"/>
</svg>
