<svg width="38" height="46" viewBox="0 0 38 46" fill="none" xmlns="http://www.w3.org/2000/svg">
<path fill-rule="evenodd" clip-rule="evenodd" d="M8.4229 2.18972C5.56273 3.10497 2.68349 4.02023 2.00658 4.22997L0.795776 4.62086L0.795776 13.0298C0.795776 18.0637 0.833912 21.8582 0.891115 22.4874C1.31061 26.8921 3.21739 31.0679 6.40171 34.5382C7.12629 35.3296 18.6242 45.3497 18.9483 45.4736C19.0818 45.5213 29.1877 36.9026 30.8466 35.32C33.7259 32.5838 35.9759 28.5795 36.7767 24.7469C37.1962 22.7257 37.2248 21.9726 37.1962 13.0107L37.1676 4.58273L30.6941 2.54247C27.1379 1.42701 24.211 0.521286 24.192 0.530823C24.1824 0.549889 24.7163 1.60815 25.3932 2.89523L26.6231 5.23103L28.4632 5.82214C29.4737 6.14629 30.9992 6.63251 31.8572 6.89946L33.4112 7.38569L33.3731 15.1272C33.3445 22.5637 33.335 22.9069 33.1443 23.7745C32.4197 27.0446 30.9229 29.819 28.6252 32.1643C28.1867 32.6124 25.9557 34.5859 23.6771 36.5404C21.3985 38.5043 19.4155 40.2109 19.2725 40.3444L19.0246 40.5732L14.6485 36.8073C9.30001 32.1929 8.49917 31.4111 7.22162 29.4471C6.23963 27.9312 5.51506 26.3009 5.0765 24.6134C4.64747 22.8973 4.60934 22.2586 4.60934 14.6124L4.60934 7.39523L5.97268 6.9662C6.71633 6.72786 8.24175 6.24163 9.35722 5.88887C10.4632 5.53612 11.3784 5.21196 11.3784 5.18336C11.3784 5.15476 11.9123 4.10603 12.5701 2.85709C13.228 1.59862 13.7619 0.559422 13.7619 0.540356C13.7619 0.48315 13.6475 0.521286 8.4229 2.18972Z" fill="#FF4C2F"/>
<path fill-rule="evenodd" clip-rule="evenodd" d="M18.7576 0.816847C18.6718 0.988457 16.2693 5.57426 13.4282 10.9991L8.2608 20.8666L8.33707 21.6675C8.50868 23.3073 9.11885 25.0425 10.1104 26.6156C10.4631 27.1876 10.568 27.2925 10.6633 27.1876C10.7205 27.1209 12.6083 23.5552 14.8583 19.2649C17.0987 14.9842 18.9578 11.4757 18.996 11.4757C19.0246 11.4757 20.9123 14.9461 23.1814 19.1791C25.4504 23.4122 27.3477 26.9493 27.4049 27.0446C27.5002 27.2067 27.5193 27.1971 27.6718 26.9969C28.6538 25.7099 29.4642 23.5838 29.693 21.7056L29.8074 20.7522L24.3922 10.6558C21.4176 5.1071 18.9674 0.540363 18.9483 0.53083C18.9388 0.511763 18.853 0.635702 18.7576 0.816847Z" fill="#FF4C2F"/>
<path fill-rule="evenodd" clip-rule="evenodd" d="M16.3361 25.0997L13.7142 30.3338L15.192 31.6209C16.0024 32.3264 17.1941 33.3465 17.8329 33.8804L19.0055 34.8528L19.263 34.6431C19.4155 34.5287 20.5882 33.5086 21.8753 32.374L24.2301 30.3147L21.6178 25.0901C20.1782 22.2204 18.996 19.8656 18.9769 19.8656C18.9674 19.8656 17.7757 22.2204 16.3361 25.0997Z" fill="#FF4C2F"/>
</svg>
