<svg width="42" height="45" viewBox="0 0 42 45" fill="none" xmlns="http://www.w3.org/2000/svg">
<g clip-path="url(#clip0_233_4219)">
<path d="M3.06074 25.6011L4.15786 24.5039C4.49905 24.1628 4.6583 24.0746 4.84974 24.0165C5.04118 23.9585 5.23696 23.9585 5.4284 24.0165C5.61985 24.0746 5.77909 24.1628 6.12028 24.5039L22.5151 40.8988C22.8563 41.24 22.9445 41.3992 23.0025 41.5906C23.0605 41.7821 23.0605 41.9779 23.0025 42.1693C22.9445 42.3608 22.8563 42.52 22.5151 42.8612L21.418 43.9583C21.0768 44.2995 20.9175 44.3877 20.7261 44.4457C20.5347 44.5037 20.3389 44.5037 20.1474 44.4457C19.956 44.3877 19.7967 44.2995 19.4556 43.9583L3.06074 27.5635C2.71955 27.2223 2.63135 27.0631 2.57333 26.8716C2.5153 26.6802 2.5153 26.4844 2.57333 26.2929C2.63135 26.1015 2.71955 25.9423 3.06074 25.6011Z" fill="#4100EA"/>
<path d="M3.06074 25.6011L4.15786 24.5039C4.49905 24.1628 4.6583 24.0746 4.84974 24.0165C5.04118 23.9585 5.23696 23.9585 5.4284 24.0165C5.61985 24.0746 5.77909 24.1628 6.12028 24.5039L22.5151 40.8988C22.8563 41.24 22.9445 41.3992 23.0025 41.5906C23.0605 41.7821 23.0605 41.9779 23.0025 42.1693C22.9445 42.3608 22.8563 42.52 22.5151 42.8612L21.418 43.9583C21.0768 44.2995 20.9175 44.3877 20.7261 44.4457C20.5347 44.5037 20.3389 44.5037 20.1474 44.4457C19.956 44.3877 19.7967 44.2995 19.4556 43.9583L3.06074 27.5635C2.71955 27.2223 2.63135 27.0631 2.57333 26.8716C2.5153 26.6802 2.5153 26.4844 2.57333 26.2929C2.63135 26.1015 2.71955 25.9423 3.06074 25.6011Z" fill="url(#paint0_linear_233_4219)"/>
<path d="M0.841776 12.3363L8.66196 4.51614C13.8387 -0.660604 19.7497 -0.256744 24.3758 4.36928C24.9632 4.95671 25.6975 5.98472 26.1381 6.64558C26.3216 6.90258 26.4318 7.08615 26.5786 7.23301C26.8724 7.52673 27.1661 7.60016 27.7902 7.41658C31.6452 6.35186 35.023 7.52673 38.2538 10.7576C42.7697 15.2735 43.247 21.3314 37.5196 27.0588L26.5419 38.0365C25.9545 38.6239 25.4772 38.5872 24.8898 37.9998L0.878491 13.9885C0.291059 13.401 0.254344 12.9238 0.841776 12.3363ZM16.886 16.4851L18.7584 14.6126C19.713 13.658 19.8599 12.3363 18.7217 11.1982C17.6203 10.0967 16.2619 10.2069 15.3073 11.1615L13.4348 13.0339C12.8474 13.6213 12.8841 14.0986 13.4716 14.6861L15.2339 16.4483C15.8213 17.0358 16.2986 17.0725 16.886 16.4851ZM25.8443 25.4434L30.7641 20.5237C32.196 19.0918 32.4897 17.7701 31.2781 16.5585C30.1032 15.3836 28.7448 15.6406 27.3129 17.0725L22.3932 21.9922C21.8058 22.5797 21.8425 23.057 22.4299 23.6444L24.1922 25.4067C24.7796 25.9941 25.2569 26.0308 25.8443 25.4434Z" fill="#2926CF"/>
</g>
<defs>
<linearGradient id="paint0_linear_233_4219" x1="12.6245" y1="33.9901" x2="12.508" y2="34.1442" gradientUnits="userSpaceOnUse">
<stop stop-color="#CF0BC3"/>
<stop offset="1" stop-color="#FF3568"/>
</linearGradient>
<clipPath id="clip0_233_4219">
<rect width="41.9318" height="45" fill="white" transform="translate(0.0340576)"/>
</clipPath>
</defs>
</svg>
