<svg width="14" height="11" viewBox="0 0 14 11" fill="none" xmlns="http://www.w3.org/2000/svg">
<path d="M11.8076 1.02498C10.9234 0.619269 9.97517 0.320356 8.98378 0.149156C8.96572 0.145852 8.94769 0.154109 8.93839 0.170623C8.81644 0.387512 8.68137 0.670462 8.58678 0.892859C7.52048 0.733222 6.45965 0.733222 5.41521 0.892859C5.3206 0.665518 5.18062 0.387512 5.05813 0.170623C5.04883 0.15466 5.03079 0.146403 5.01274 0.149156C4.0219 0.319808 3.07371 0.618721 2.18895 1.02498C2.18129 1.02829 2.17473 1.0338 2.17037 1.04095C0.371859 3.72788 -0.120828 6.34877 0.120868 8.93717C0.121961 8.94983 0.12907 8.96195 0.138913 8.96964C1.32552 9.84106 2.47495 10.3701 3.60303 10.7207C3.62109 10.7263 3.64022 10.7196 3.65171 10.7048C3.91855 10.3404 4.15643 9.95613 4.36038 9.55205C4.37241 9.52839 4.36092 9.50031 4.33632 9.49095C3.95902 9.34783 3.59975 9.17332 3.25416 8.97515C3.22682 8.95919 3.22463 8.92009 3.24978 8.90137C3.32251 8.84688 3.39525 8.79018 3.46469 8.73293C3.47726 8.72247 3.49477 8.72026 3.50954 8.72687C5.77993 9.76345 8.2379 9.76345 10.4815 8.72687C10.4963 8.71972 10.5138 8.72192 10.5269 8.73238C10.5964 8.78963 10.6691 8.84688 10.7424 8.90137C10.7675 8.92009 10.7659 8.95919 10.7385 8.97515C10.3929 9.17717 10.0337 9.34783 9.65582 9.49041C9.63122 9.49977 9.62027 9.52839 9.63231 9.55205C9.84064 9.95556 10.0785 10.3398 10.3404 10.7042C10.3514 10.7196 10.3711 10.7263 10.3891 10.7207C11.5227 10.3701 12.6721 9.84106 13.8587 8.96964C13.8691 8.96195 13.8757 8.95038 13.8767 8.93772C14.166 5.94525 13.3922 3.34585 11.8256 1.04149C11.8218 1.0338 11.8152 1.02829 11.8076 1.02498ZM4.69942 7.36111C4.01588 7.36111 3.45266 6.73356 3.45266 5.96287C3.45266 5.19218 4.00496 4.56463 4.69942 4.56463C5.39934 4.56463 5.95711 5.19769 5.94617 5.96287C5.94617 6.73356 5.39387 7.36111 4.69942 7.36111ZM9.30913 7.36111C8.6256 7.36111 8.06238 6.73356 8.06238 5.96287C8.06238 5.19218 8.61466 4.56463 9.30913 4.56463C10.0091 4.56463 10.5668 5.19769 10.5559 5.96287C10.5559 6.73356 10.0091 7.36111 9.30913 7.36111Z" fill="#5865F2"/>
</svg>
