<svg width="38" height="31" viewBox="0 0 38 31" fill="none" xmlns="http://www.w3.org/2000/svg">
<path d="M13 17.7568H25H13ZM19 11.7568V23.7568V11.7568ZM1 25.7568V5.75684C1 4.69597 1.42143 3.67855 2.17157 2.92841C2.92172 2.17826 3.93913 1.75684 5 1.75684H17L21 5.75684H33C34.0609 5.75684 35.0783 6.17826 35.8284 6.92841C36.5786 7.67855 37 8.69597 37 9.75684V25.7568C37 26.8177 36.5786 27.8351 35.8284 28.5853C35.0783 29.3354 34.0609 29.7568 33 29.7568H5C3.93913 29.7568 2.92172 29.3354 2.17157 28.5853C1.42143 27.8351 1 26.8177 1 25.7568Z" stroke="#9CA3AF" stroke-width="2" stroke-linecap="round" stroke-linejoin="round"/>
</svg>
