<svg width="52" height="46" viewBox="0 0 52 46" fill="none" xmlns="http://www.w3.org/2000/svg">
<g clip-path="url(#clip0_233_4241)">
<path fill-rule="evenodd" clip-rule="evenodd" d="M15.2409 42.2195L21.8331 43.9701V41.6809L22.3712 41.1422H26.1381V43.8354V45.7207H22.1021L17.1244 43.5661L15.2409 42.2195Z" fill="#CDBDB2"/>
<path fill-rule="evenodd" clip-rule="evenodd" d="M36.7663 42.2195L30.3087 43.9701V41.6809L29.7706 41.1422H26.0036V43.8354V45.7207H30.0396L35.0174 43.5661L36.7663 42.2195Z" fill="#CDBDB2"/>
<path fill-rule="evenodd" clip-rule="evenodd" d="M22.3712 37.237L21.8331 41.6808L22.5057 41.1422H29.5015L30.3087 41.6808L29.7706 37.237L28.6943 36.5637L23.3129 36.6984L22.3712 37.237Z" fill="#393939"/>
<path fill-rule="evenodd" clip-rule="evenodd" d="M18.7388 7.20776L21.9676 14.7488L23.4474 36.6985H28.6943L30.3087 14.7488L33.2684 7.20776H18.7388Z" fill="#F89C35"/>
<path fill-rule="evenodd" clip-rule="evenodd" d="M4.61277 23.771L0.845825 34.6785L10.2632 34.1399H16.3172V29.4268L16.0481 19.7312L14.7028 20.8085L4.61277 23.771Z" fill="#F89D35"/>
<path fill-rule="evenodd" clip-rule="evenodd" d="M11.743 24.9829L22.7748 25.2522L21.564 30.908L16.3172 29.5614L11.743 24.9829Z" fill="#D87C30"/>
<path fill-rule="evenodd" clip-rule="evenodd" d="M11.743 25.1176L16.3172 29.4267V33.7358L11.743 25.1176Z" fill="#EA8D3A"/>
<path fill-rule="evenodd" clip-rule="evenodd" d="M16.3172 29.5614L21.6986 30.908L23.4475 36.6984L22.2367 37.3717L16.3172 33.8706V29.5614Z" fill="#F89D35"/>
<path fill-rule="evenodd" clip-rule="evenodd" d="M16.3172 33.8705L15.2409 42.2194L22.3712 37.237L16.3172 33.8705Z" fill="#EB8F35"/>
<path fill-rule="evenodd" clip-rule="evenodd" d="M22.7748 25.2522L23.4474 36.6984L21.4294 30.8406L22.7748 25.2522Z" fill="#EA8E3A"/>
<path fill-rule="evenodd" clip-rule="evenodd" d="M10.1287 34.0051L16.3172 33.8705L15.2409 42.2194L10.1287 34.0051Z" fill="#D87C30"/>
<path fill-rule="evenodd" clip-rule="evenodd" d="M3.80556 45.8553L15.2409 42.2194L10.1286 34.0051L0.845825 34.6784L3.80556 45.8553Z" fill="#EB8F35"/>
<path fill-rule="evenodd" clip-rule="evenodd" d="M21.9676 14.7487L16.1827 19.5964L11.743 24.9829L22.7748 25.3869L21.9676 14.7487Z" fill="#E8821E"/>
<path fill-rule="evenodd" clip-rule="evenodd" d="M15.2409 42.2195L22.3712 37.2371L21.8331 41.5462V43.9701L16.9898 43.0275L15.2409 42.2195Z" fill="#DFCEC3"/>
<path fill-rule="evenodd" clip-rule="evenodd" d="M36.7663 42.2195L29.7706 37.2371L30.3087 41.5462V43.9701L35.1519 43.0275L36.7663 42.2195Z" fill="#DFCEC3"/>
<path fill-rule="evenodd" clip-rule="evenodd" d="M19.8151 27.6761L21.2949 30.7733L16.0481 29.4267L19.8151 27.6761Z" fill="#393939"/>
<path fill-rule="evenodd" clip-rule="evenodd" d="M3.67102 0.878662L21.9676 14.7487L18.8733 7.20771L3.67102 0.878662Z" fill="#E88F35"/>
<path fill-rule="evenodd" clip-rule="evenodd" d="M3.67099 0.878662L1.24939 8.285L2.59473 16.3646L1.65299 16.9033L2.99833 18.1152L1.92206 19.0578L3.40193 20.4044L2.46019 21.2124L4.61273 23.9056L14.7027 20.8084C19.6356 16.8584 22.0572 14.8385 21.9676 14.7487C21.8779 14.6589 15.779 10.0356 3.67099 0.878662Z" fill="#8E5A30"/>
<path fill-rule="evenodd" clip-rule="evenodd" d="M47.3945 23.771L51.1614 34.6785L41.7441 34.1399H35.6901V29.4268L35.9591 19.7312L37.3045 20.8085L47.3945 23.771Z" fill="#F89D35"/>
<path fill-rule="evenodd" clip-rule="evenodd" d="M40.2642 24.9829L29.2324 25.2522L30.4433 30.908L35.6901 29.5614L40.2642 24.9829Z" fill="#D87C30"/>
<path fill-rule="evenodd" clip-rule="evenodd" d="M40.2642 25.1176L35.6901 29.4267V33.7358L40.2642 25.1176Z" fill="#EA8D3A"/>
<path fill-rule="evenodd" clip-rule="evenodd" d="M35.6901 29.5614L30.3087 30.908L28.5598 36.6984L29.7706 37.3717L35.6901 33.8706V29.5614Z" fill="#F89D35"/>
<path fill-rule="evenodd" clip-rule="evenodd" d="M35.69 33.8705L36.7663 42.2194L29.7706 37.3717L35.69 33.8705Z" fill="#EB8F35"/>
<path fill-rule="evenodd" clip-rule="evenodd" d="M29.2324 25.2522L28.5598 36.6984L30.5778 30.8406L29.2324 25.2522Z" fill="#EA8E3A"/>
<path fill-rule="evenodd" clip-rule="evenodd" d="M41.8786 34.0051L35.6901 33.8705L36.7663 42.2194L41.8786 34.0051Z" fill="#D87C30"/>
<path fill-rule="evenodd" clip-rule="evenodd" d="M48.2017 45.8553L36.7663 42.2194L41.8786 34.0051L51.1614 34.6784L48.2017 45.8553Z" fill="#EB8F35"/>
<path fill-rule="evenodd" clip-rule="evenodd" d="M30.0397 14.7487L35.8246 19.5964L40.2642 24.9829L29.2324 25.3869L30.0397 14.7487Z" fill="#E8821E"/>
<path fill-rule="evenodd" clip-rule="evenodd" d="M32.1922 27.6761L30.7123 30.7733L35.9591 29.4267L32.1922 27.6761Z" fill="#393939"/>
<path fill-rule="evenodd" clip-rule="evenodd" d="M48.3362 0.878662L30.0397 14.7487L33.1339 7.20771L48.3362 0.878662Z" fill="#E88F35"/>
<path fill-rule="evenodd" clip-rule="evenodd" d="M48.3362 0.878662L50.7578 8.285L49.4125 16.3646L50.3542 16.9033L49.0089 18.1152L50.0851 19.0578L48.6053 20.4044L49.547 21.2124L47.3945 23.9056L37.3045 20.8084C32.3716 16.8584 29.95 14.8385 30.0397 14.7487C30.1293 14.6589 36.2282 10.0356 48.3362 0.878662Z" fill="#8E5A30"/>
</g>
<defs>
<clipPath id="clip0_233_4241">
<rect width="50.3239" height="45" fill="white" transform="translate(0.838013 0.870728)"/>
</clipPath>
</defs>
</svg>
