<svg width="14" height="12" viewBox="0 0 14 12" fill="none" xmlns="http://www.w3.org/2000/svg">
<path d="M12.5613 2.93555C12.567 3.06524 12.567 3.18902 12.567 3.31871C12.5727 7.25051 9.684 11.7895 4.4013 11.7895C2.84322 11.7895 1.31357 11.3238 0 10.4514C0.227457 10.4808 0.454915 10.4926 0.682372 10.4926C1.97319 10.4926 3.22989 10.0446 4.24777 9.21347C3.0195 9.18989 1.93907 8.35873 1.56377 7.14441C1.99594 7.23283 2.43948 7.21514 2.86028 7.09135C1.52396 6.82019 0.562957 5.59998 0.557271 4.17934C0.557271 4.16755 0.557271 4.15577 0.557271 4.14398C0.955321 4.37387 1.40455 4.50356 1.85946 4.51535C0.602762 3.64292 0.210398 1.90397 0.97238 0.54228C2.43379 2.40502 4.58327 3.53092 6.89196 3.65471C6.65881 2.62313 6.97725 1.53849 7.72218 0.807544C8.87652 -0.318355 10.6962 -0.259407 11.788 0.937228C12.4305 0.807544 13.0504 0.559964 13.6133 0.212173C13.3972 0.90186 12.948 1.48544 12.3509 1.85681C12.9196 1.78607 13.4768 1.62691 14 1.39112C13.6133 1.99239 13.1243 2.51113 12.5613 2.93555Z" fill="#1D9BF0"/>
</svg>
