<svg width="46" height="45" viewBox="0 0 46 45" fill="none" xmlns="http://www.w3.org/2000/svg">
<g clip-path="url(#clip0_233_4237)">
<path fill-rule="evenodd" clip-rule="evenodd" d="M23 0C35.4264 0 45.5 10.0736 45.5 22.5C45.5 34.9264 35.4264 45 23 45C10.5736 45 0.5 34.9264 0.5 22.5C0.5 10.0736 10.5736 0 23 0Z" fill="url(#paint0_radial_233_4237)"/>
<path d="M14.7991 17.3768C19.3283 12.9577 26.6717 12.9577 31.2009 17.3768L31.746 17.9086C31.9725 18.1295 31.9725 18.4878 31.746 18.7087L29.8814 20.528C29.7681 20.6385 29.5845 20.6385 29.4713 20.528L28.7212 19.7961C25.5615 16.7133 20.4386 16.7133 17.2788 19.7961L16.4755 20.5799C16.3623 20.6904 16.1787 20.6904 16.0655 20.5799L14.2008 18.7606C13.9743 18.5397 13.9743 18.1814 14.2008 17.9605L14.7991 17.3768ZM35.0573 21.1393L36.7169 22.7584C36.9433 22.9794 36.9433 23.3376 36.7169 23.5586L29.2337 30.8597C29.0073 31.0806 28.6401 31.0806 28.4136 30.8597C28.4136 30.8597 28.4136 30.8597 28.4136 30.8597L23.1026 25.6779C23.0459 25.6226 22.9542 25.6226 22.8975 25.6779C22.8975 25.6779 22.8975 25.6779 22.8975 25.6779L17.5866 30.8597C17.3601 31.0806 16.9929 31.0806 16.7665 30.8597C16.7665 30.8597 16.7665 30.8597 16.7665 30.8597L9.28313 23.5585C9.05667 23.3375 9.05667 22.9793 9.28313 22.7583L10.9427 21.1392C11.1692 20.9182 11.5363 20.9182 11.7628 21.1392L17.074 26.321C17.1306 26.3763 17.2224 26.3763 17.279 26.321C17.279 26.321 17.279 26.321 17.279 26.321L22.5899 21.1392C22.8163 20.9182 23.1835 20.9182 23.41 21.1391C23.41 21.1391 23.41 21.1391 23.41 21.1392L28.7211 26.321C28.7777 26.3763 28.8695 26.3763 28.9261 26.321L34.2372 21.1393C34.4637 20.9183 34.8308 20.9183 35.0573 21.1393Z" fill="white"/>
</g>
<defs>
<radialGradient id="paint0_radial_233_4237" cx="0" cy="0" r="1" gradientUnits="userSpaceOnUse" gradientTransform="translate(0.5 22.5) scale(45)">
<stop stop-color="#5D9DF6"/>
<stop offset="1" stop-color="#006FFF"/>
</radialGradient>
<clipPath id="clip0_233_4237">
<rect width="45" height="45" fill="white" transform="translate(0.5)"/>
</clipPath>
</defs>
</svg>
