<svg width="36" height="29" viewBox="0 0 36 29" fill="none" xmlns="http://www.w3.org/2000/svg">
<path fill-rule="evenodd" clip-rule="evenodd" d="M5.5421 2.04242C3.9545 2.04242 2.66721 3.32938 2.66721 4.9173V24.0829C2.66721 25.6705 3.9545 26.9578 5.5421 26.9578H28.5412C30.1288 26.9578 31.4161 25.6705 31.4161 24.0829V20.2496H26.6247C26.0953 20.2496 25.6663 19.8206 25.6663 19.2916V13.5418C25.6663 13.0124 26.0953 12.5834 26.6247 12.5834H31.4161V8.7501C31.4161 7.16251 30.1288 5.87522 28.5412 5.87522H8.41698C7.88789 5.87522 7.45858 5.44622 7.45858 4.91714C7.45858 4.38773 7.88789 3.95873 8.41698 3.95873H28.5412C31.1873 3.95873 33.3325 6.10397 33.3325 8.7501V12.5834H34.2909C34.82 12.5834 35.2494 13.0124 35.2494 13.5418V19.2916C35.2494 19.8207 34.82 20.2496 34.2909 20.2496H33.3325V24.0829C33.3325 26.7291 31.1873 28.8743 28.5412 28.8743H5.5421C2.89597 28.8743 0.750732 26.7291 0.750732 24.0829V4.9173C0.750732 2.27085 2.89597 0.12561 5.5421 0.12561H25.6663C26.1954 0.12561 26.6247 0.554921 26.6247 1.08401C26.6247 1.61311 26.1954 2.04242 25.6663 2.04242H5.5421ZM33.3324 18.3332V14.4999H27.5826V18.3332H33.3324Z" fill="#9CA3AF"/>
</svg>
