<svg width="20" height="20" viewBox="0 0 20 20" fill="none" xmlns="http://www.w3.org/2000/svg">
<circle cx="10" cy="10" r="10" fill="#5865F2"/>
<path d="M14.1585 6.74605C13.3937 6.40074 12.5735 6.14632 11.7159 6.00061C11.7003 5.9978 11.6847 6.00483 11.6767 6.01888C11.5712 6.20348 11.4544 6.44431 11.3725 6.6336C10.4502 6.49773 9.53259 6.49773 8.62916 6.6336C8.54732 6.4401 8.42624 6.20348 8.32029 6.01888C8.31224 6.0053 8.29664 5.99827 8.28102 6.00061C7.42395 6.14586 6.60378 6.40027 5.83847 6.74605C5.83184 6.74886 5.82616 6.75355 5.82239 6.75964C4.2667 9.04656 3.84052 11.2773 4.04959 13.4803C4.05054 13.4911 4.05668 13.5014 4.0652 13.508C5.0916 14.2496 6.08585 14.6999 7.06164 14.9984C7.07726 15.003 7.0938 14.9974 7.10374 14.9848C7.33456 14.6746 7.54032 14.3476 7.71674 14.0037C7.72715 13.9835 7.71721 13.9596 7.69593 13.9517C7.36957 13.8298 7.0588 13.6813 6.75986 13.5126C6.73622 13.4991 6.73433 13.4658 6.75608 13.4498C6.81899 13.4035 6.88191 13.3552 6.94198 13.3065C6.95285 13.2976 6.96799 13.2957 6.98077 13.3013C8.94464 14.1836 11.0708 14.1836 13.0115 13.3013C13.0243 13.2952 13.0394 13.2971 13.0507 13.306C13.1108 13.3547 13.1737 13.4035 13.2371 13.4498C13.2589 13.4658 13.2574 13.4991 13.2338 13.5126C12.9349 13.6846 12.6241 13.8298 12.2973 13.9512C12.276 13.9592 12.2665 13.9835 12.2769 14.0037C12.4571 14.3471 12.6629 14.6741 12.8894 14.9843C12.8989 14.9974 12.9159 15.003 12.9315 14.9984C13.9121 14.6999 14.9063 14.2496 15.9327 13.508C15.9417 13.5014 15.9474 13.4916 15.9483 13.4808C16.1985 10.9338 15.5292 8.7214 14.1741 6.7601C14.1708 6.75355 14.1651 6.74886 14.1585 6.74605ZM8.01001 12.1389C7.41875 12.1389 6.93157 11.6048 6.93157 10.9488C6.93157 10.2929 7.4093 9.75874 8.01001 9.75874C8.61544 9.75874 9.0979 10.2975 9.08844 10.9488C9.08844 11.6048 8.6107 12.1389 8.01001 12.1389ZM11.9974 12.1389C11.4061 12.1389 10.9189 11.6048 10.9189 10.9488C10.9189 10.2929 11.3967 9.75874 11.9974 9.75874C12.6028 9.75874 13.0853 10.2975 13.0758 10.9488C13.0758 11.6048 12.6028 12.1389 11.9974 12.1389Z" fill="white"/>
</svg>
