<svg width="333" height="266" viewBox="0 0 333 266" fill="none" xmlns="http://www.w3.org/2000/svg">
<line x1="32.4545" y1="28.6366" x2="32.4545" y2="213.182" stroke="#F3F4F6" stroke-width="3.81818" stroke-linecap="round" stroke-dasharray="6.36 6.36"/>
<line x1="128.37" y1="28.6366" x2="128.37" y2="213.182" stroke="#F3F4F6" stroke-width="3.81818" stroke-linecap="round" stroke-dasharray="6.36 6.36"/>
<line x1="224.285" y1="28.6366" x2="224.285" y2="213.182" stroke="#F3F4F6" stroke-width="3.81818" stroke-linecap="round" stroke-dasharray="6.36 6.36"/>
<rect y="1.27246" width="70.4605" height="70.4605" rx="12.5263" fill="#F9FAFB"/>
<path d="M35.8143 14H13.9746C12.5828 14 11.4546 15.1282 11.4546 16.52C11.4546 17.9117 12.5828 19.0399 13.9746 19.0399H35.8143C37.2061 19.0399 38.3343 17.9117 38.3343 16.52C38.3343 15.1282 37.2061 14 35.8143 14Z" fill="#E5E7EB"/>
<path d="M50.9342 24.9199H13.9746C12.5828 24.9199 11.4546 26.0482 11.4546 27.4399C11.4546 28.8316 12.5828 29.9599 13.9746 29.9599H50.9342C52.3259 29.9599 53.4541 28.8316 53.4541 27.4399C53.4541 26.0482 52.3259 24.9199 50.9342 24.9199Z" fill="#F3F4F6"/>
<path d="M35.8148 36.6787H13.9751C12.5833 36.6787 11.4551 37.8069 11.4551 39.1987C11.4551 40.5904 12.5833 41.7187 13.9751 41.7187H35.8148C37.2066 41.7187 38.3348 40.5904 38.3348 39.1987C38.3348 37.8069 37.2066 36.6787 35.8148 36.6787Z" fill="#E5E7EB"/>
<path d="M50.9346 47.5977H13.9751C12.5833 47.5977 11.4551 48.7259 11.4551 50.1176C11.4551 51.5094 12.5833 52.6376 13.9751 52.6376H50.9346C52.3264 52.6376 53.4546 51.5094 53.4546 50.1176C53.4546 48.7259 52.3264 47.5977 50.9346 47.5977Z" fill="#F3F4F6"/>
<rect y="97.1875" width="70.4605" height="70.4605" rx="12.5263" fill="#F9FAFB"/>
<path d="M35.8143 109.915H13.9746C12.5828 109.915 11.4546 111.043 11.4546 112.435C11.4546 113.827 12.5828 114.955 13.9746 114.955H35.8143C37.2061 114.955 38.3343 113.827 38.3343 112.435C38.3343 111.043 37.2061 109.915 35.8143 109.915Z" fill="#E5E7EB"/>
<path d="M50.9342 120.835H13.9746C12.5828 120.835 11.4546 121.963 11.4546 123.355C11.4546 124.747 12.5828 125.875 13.9746 125.875H50.9342C52.3259 125.875 53.4541 124.747 53.4541 123.355C53.4541 121.963 52.3259 120.835 50.9342 120.835Z" fill="#F3F4F6"/>
<path d="M35.8148 132.595H13.9751C12.5833 132.595 11.4551 133.723 11.4551 135.115C11.4551 136.506 12.5833 137.635 13.9751 137.635H35.8148C37.2066 137.635 38.3348 136.506 38.3348 135.115C38.3348 133.723 37.2066 132.595 35.8148 132.595Z" fill="#E5E7EB"/>
<path d="M50.9346 143.514H13.9751C12.5833 143.514 11.4551 144.642 11.4551 146.034C11.4551 147.425 12.5833 148.554 13.9751 148.554H50.9346C52.3264 148.554 53.4546 147.425 53.4546 146.034C53.4546 144.642 52.3264 143.514 50.9346 143.514Z" fill="#F3F4F6"/>
<rect y="193.104" width="70.4605" height="70.4605" rx="12.5263" fill="#F9FAFB"/>
<path d="M35.8143 205.831H13.9746C12.5828 205.831 11.4546 206.959 11.4546 208.351C11.4546 209.743 12.5828 210.871 13.9746 210.871H35.8143C37.2061 210.871 38.3343 209.743 38.3343 208.351C38.3343 206.959 37.2061 205.831 35.8143 205.831Z" fill="#E5E7EB"/>
<path d="M50.9342 216.751H13.9746C12.5828 216.751 11.4546 217.879 11.4546 219.271C11.4546 220.663 12.5828 221.791 13.9746 221.791H50.9342C52.3259 221.791 53.4541 220.663 53.4541 219.271C53.4541 217.879 52.3259 216.751 50.9342 216.751Z" fill="#F3F4F6"/>
<path d="M35.8148 228.51H13.9751C12.5833 228.51 11.4551 229.638 11.4551 231.03C11.4551 232.421 12.5833 233.55 13.9751 233.55H35.8148C37.2066 233.55 38.3348 232.421 38.3348 231.03C38.3348 229.638 37.2066 228.51 35.8148 228.51Z" fill="#E5E7EB"/>
<path d="M50.9346 239.429H13.9751C12.5833 239.429 11.4551 240.557 11.4551 241.949C11.4551 243.34 12.5833 244.469 13.9751 244.469H50.9346C52.3264 244.469 53.4546 243.34 53.4546 241.949C53.4546 240.557 52.3264 239.429 50.9346 239.429Z" fill="#F3F4F6"/>
<rect y="193.104" width="70.4605" height="70.4605" rx="12.5263" fill="#F9FAFB"/>
<path d="M35.8143 205.831H13.9746C12.5828 205.831 11.4546 206.959 11.4546 208.351C11.4546 209.743 12.5828 210.871 13.9746 210.871H35.8143C37.2061 210.871 38.3343 209.743 38.3343 208.351C38.3343 206.959 37.2061 205.831 35.8143 205.831Z" fill="#E5E7EB"/>
<path d="M50.9342 216.751H13.9746C12.5828 216.751 11.4546 217.879 11.4546 219.271C11.4546 220.663 12.5828 221.791 13.9746 221.791H50.9342C52.3259 221.791 53.4541 220.663 53.4541 219.271C53.4541 217.879 52.3259 216.751 50.9342 216.751Z" fill="#F3F4F6"/>
<path d="M35.8148 228.51H13.9751C12.5833 228.51 11.4551 229.638 11.4551 231.03C11.4551 232.421 12.5833 233.55 13.9751 233.55H35.8148C37.2066 233.55 38.3348 232.421 38.3348 231.03C38.3348 229.638 37.2066 228.51 35.8148 228.51Z" fill="#E5E7EB"/>
<path d="M50.9346 239.429H13.9751C12.5833 239.429 11.4551 240.557 11.4551 241.949C11.4551 243.34 12.5833 244.469 13.9751 244.469H50.9346C52.3264 244.469 53.4546 243.34 53.4546 241.949C53.4546 240.557 52.3264 239.429 50.9346 239.429Z" fill="#F3F4F6"/>
<rect x="95.4546" y="1.27246" width="70.4605" height="70.4605" rx="12.5263" fill="#F9FAFB"/>
<path d="M131.269 14H109.429C108.037 14 106.909 15.1282 106.909 16.52C106.909 17.9117 108.037 19.0399 109.429 19.0399H131.269C132.661 19.0399 133.789 17.9117 133.789 16.52C133.789 15.1282 132.661 14 131.269 14Z" fill="#E5E7EB"/>
<path d="M146.389 24.9199H109.429C108.037 24.9199 106.909 26.0482 106.909 27.4399C106.909 28.8316 108.037 29.9599 109.429 29.9599H146.389C147.78 29.9599 148.909 28.8316 148.909 27.4399C148.909 26.0482 147.78 24.9199 146.389 24.9199Z" fill="#F3F4F6"/>
<path d="M131.27 36.6787H109.43C108.038 36.6787 106.91 37.8069 106.91 39.1987C106.91 40.5904 108.038 41.7187 109.43 41.7187H131.27C132.662 41.7187 133.79 40.5904 133.79 39.1987C133.79 37.8069 132.662 36.6787 131.27 36.6787Z" fill="#E5E7EB"/>
<path d="M146.39 47.5977H109.43C108.038 47.5977 106.91 48.7259 106.91 50.1176C106.91 51.5094 108.038 52.6376 109.43 52.6376H146.39C147.781 52.6376 148.91 51.5094 148.91 50.1176C148.91 48.7259 147.781 47.5977 146.39 47.5977Z" fill="#F3F4F6"/>
<rect x="95.4546" y="97.1875" width="70.4605" height="70.4605" rx="12.5263" fill="#F9FAFB"/>
<path d="M131.269 109.915H109.429C108.037 109.915 106.909 111.043 106.909 112.435C106.909 113.827 108.037 114.955 109.429 114.955H131.269C132.661 114.955 133.789 113.827 133.789 112.435C133.789 111.043 132.661 109.915 131.269 109.915Z" fill="#E5E7EB"/>
<path d="M146.389 120.835H109.429C108.037 120.835 106.909 121.963 106.909 123.355C106.909 124.747 108.037 125.875 109.429 125.875H146.389C147.78 125.875 148.909 124.747 148.909 123.355C148.909 121.963 147.78 120.835 146.389 120.835Z" fill="#F3F4F6"/>
<path d="M131.27 132.595H109.43C108.038 132.595 106.91 133.723 106.91 135.115C106.91 136.506 108.038 137.635 109.43 137.635H131.27C132.662 137.635 133.79 136.506 133.79 135.115C133.79 133.723 132.662 132.595 131.27 132.595Z" fill="#E5E7EB"/>
<path d="M146.39 143.514H109.43C108.038 143.514 106.91 144.642 106.91 146.034C106.91 147.425 108.038 148.554 109.43 148.554H146.39C147.781 148.554 148.91 147.425 148.91 146.034C148.91 144.642 147.781 143.514 146.39 143.514Z" fill="#F3F4F6"/>
<rect x="95.4546" y="193.104" width="70.4605" height="70.4605" rx="12.5263" fill="#F9FAFB"/>
<path d="M131.269 205.831H109.429C108.037 205.831 106.909 206.959 106.909 208.351C106.909 209.743 108.037 210.871 109.429 210.871H131.269C132.661 210.871 133.789 209.743 133.789 208.351C133.789 206.959 132.661 205.831 131.269 205.831Z" fill="#E5E7EB"/>
<path d="M146.389 216.751H109.429C108.037 216.751 106.909 217.879 106.909 219.271C106.909 220.663 108.037 221.791 109.429 221.791H146.389C147.78 221.791 148.909 220.663 148.909 219.271C148.909 217.879 147.78 216.751 146.389 216.751Z" fill="#F3F4F6"/>
<path d="M131.27 228.51H109.43C108.038 228.51 106.91 229.638 106.91 231.03C106.91 232.421 108.038 233.55 109.43 233.55H131.27C132.662 233.55 133.79 232.421 133.79 231.03C133.79 229.638 132.662 228.51 131.27 228.51Z" fill="#E5E7EB"/>
<path d="M146.39 239.429H109.43C108.038 239.429 106.91 240.557 106.91 241.949C106.91 243.34 108.038 244.469 109.43 244.469H146.39C147.781 244.469 148.91 243.34 148.91 241.949C148.91 240.557 147.781 239.429 146.39 239.429Z" fill="#F3F4F6"/>
<rect x="190.909" width="70.4605" height="70.4605" rx="12.5263" fill="#F9FAFB"/>
<path d="M226.724 12.7275H204.884C203.492 12.7275 202.364 13.8558 202.364 15.2475C202.364 16.6393 203.492 17.7675 204.884 17.7675H226.724C228.115 17.7675 229.243 16.6393 229.243 15.2475C229.243 13.8558 228.115 12.7275 226.724 12.7275Z" fill="#E5E7EB"/>
<path d="M241.843 23.6475H204.884C203.492 23.6475 202.364 24.7757 202.364 26.1674C202.364 27.5592 203.492 28.6874 204.884 28.6874H241.843C243.235 28.6874 244.363 27.5592 244.363 26.1674C244.363 24.7757 243.235 23.6475 241.843 23.6475Z" fill="#F3F4F6"/>
<path d="M226.724 35.4062H204.884C203.492 35.4062 202.364 36.5345 202.364 37.9262C202.364 39.318 203.492 40.4462 204.884 40.4462H226.724C228.116 40.4462 229.244 39.318 229.244 37.9262C229.244 36.5345 228.116 35.4062 226.724 35.4062Z" fill="#E5E7EB"/>
<path d="M241.844 46.3252H204.884C203.492 46.3252 202.364 47.4534 202.364 48.8452C202.364 50.2369 203.492 51.3651 204.884 51.3651H241.844C243.236 51.3651 244.364 50.2369 244.364 48.8452C244.364 47.4534 243.236 46.3252 241.844 46.3252Z" fill="#F3F4F6"/>
<rect x="190.909" y="95.916" width="70.4605" height="70.4605" rx="12.5263" fill="#F9FAFB"/>
<path d="M226.724 108.644H204.884C203.492 108.644 202.364 109.772 202.364 111.164C202.364 112.555 203.492 113.683 204.884 113.683H226.724C228.115 113.683 229.243 112.555 229.243 111.164C229.243 109.772 228.115 108.644 226.724 108.644Z" fill="#E5E7EB"/>
<path d="M241.843 119.563H204.884C203.492 119.563 202.364 120.692 202.364 122.083C202.364 123.475 203.492 124.603 204.884 124.603H241.843C243.235 124.603 244.363 123.475 244.363 122.083C244.363 120.692 243.235 119.563 241.843 119.563Z" fill="#F3F4F6"/>
<path d="M226.724 131.322H204.884C203.492 131.322 202.364 132.45 202.364 133.842C202.364 135.234 203.492 136.362 204.884 136.362H226.724C228.116 136.362 229.244 135.234 229.244 133.842C229.244 132.45 228.116 131.322 226.724 131.322Z" fill="#E5E7EB"/>
<path d="M241.844 142.241H204.884C203.492 142.241 202.364 143.369 202.364 144.761C202.364 146.153 203.492 147.281 204.884 147.281H241.844C243.236 147.281 244.364 146.153 244.364 144.761C244.364 143.369 243.236 142.241 241.844 142.241Z" fill="#F3F4F6"/>
<rect x="190.909" y="191.831" width="70.4605" height="70.4605" rx="12.5263" fill="#F9FAFB"/>
<path d="M226.724 204.559H204.884C203.492 204.559 202.364 205.687 202.364 207.079C202.364 208.47 203.492 209.599 204.884 209.599H226.724C228.115 209.599 229.243 208.47 229.243 207.079C229.243 205.687 228.115 204.559 226.724 204.559Z" fill="#E5E7EB"/>
<path d="M241.843 215.479H204.884C203.492 215.479 202.364 216.607 202.364 217.998C202.364 219.39 203.492 220.518 204.884 220.518H241.843C243.235 220.518 244.363 219.39 244.363 217.998C244.363 216.607 243.235 215.479 241.843 215.479Z" fill="#F3F4F6"/>
<path d="M226.724 227.238H204.884C203.492 227.238 202.364 228.367 202.364 229.758C202.364 231.15 203.492 232.278 204.884 232.278H226.724C228.116 232.278 229.244 231.15 229.244 229.758C229.244 228.367 228.116 227.238 226.724 227.238Z" fill="#E5E7EB"/>
<path d="M241.844 238.157H204.884C203.492 238.157 202.364 239.285 202.364 240.677C202.364 242.069 203.492 243.197 204.884 243.197H241.844C243.236 243.197 244.364 242.069 244.364 240.677C244.364 239.285 243.236 238.157 241.844 238.157Z" fill="#F3F4F6"/>
</svg>
