<svg width="296" height="235" viewBox="0 0 296 235" fill="none" xmlns="http://www.w3.org/2000/svg">
<g clip-path="url(#clip0_8872_22850)">
<rect width="296" height="235" rx="6.53741" fill="#F9FAFB"/>
<rect x="18" y="97.1201" width="261.496" height="24" rx="4.90306" fill="#F3F4F6"/>
<rect x="18" y="97.1201" width="261.496" height="24" rx="4.90306" fill="#F3F4F6"/>
<rect x="18" y="127.657" width="261.496" height="24" rx="4.90306" fill="#F3F4F6"/>
<rect x="18" y="158.195" width="261.496" height="24" rx="4.90306" fill="#F3F4F6"/>
<rect x="18" y="189" width="261.496" height="24" rx="4.90306" fill="#F3F4F6"/>
</g>
<rect x="19.6118" y="12.2578" width="47.3962" height="47.3962" rx="23.6981" fill="white"/>
<path d="M34.4233 35.9552C34.4233 37.1222 34.6532 38.2778 35.0998 39.356C35.5464 40.4342 36.201 41.4138 37.0262 42.2391C37.8514 43.0643 38.8311 43.7189 39.9093 44.1655C40.9875 44.6121 42.1431 44.8419 43.3101 44.8419C44.4772 44.8419 45.6328 44.6121 46.711 44.1655C47.7892 43.7189 48.7688 43.0643 49.594 42.2391C50.4193 41.4138 51.0739 40.4342 51.5205 39.356C51.9671 38.2778 52.1969 37.1222 52.1969 35.9552C52.1969 34.7881 51.9671 33.6325 51.5205 32.5543C51.0739 31.4761 50.4193 30.4965 49.594 29.6712C48.7688 28.846 47.7892 28.1914 46.711 27.7448C45.6328 27.2982 44.4772 27.0684 43.3101 27.0684C42.1431 27.0684 40.9875 27.2982 39.9093 27.7448C38.8311 28.1914 37.8514 28.846 37.0262 29.6712C36.201 30.4965 35.5464 31.4761 35.0998 32.5543C34.6532 33.6325 34.4233 34.7881 34.4233 35.9552Z" stroke="#D1D5DB" stroke-width="1.97484" stroke-linecap="round" stroke-linejoin="round"/>
<path d="M35.0161 32.9941H51.6048" stroke="#D1D5DB" stroke-width="1.97484" stroke-linecap="round" stroke-linejoin="round"/>
<path d="M35.0161 38.918H51.6048" stroke="#D1D5DB" stroke-width="1.97484" stroke-linecap="round" stroke-linejoin="round"/>
<path d="M42.8164 27.0684C41.1529 29.734 40.271 32.813 40.271 35.9552C40.271 39.0973 41.1529 42.1763 42.8164 44.8419" stroke="#D1D5DB" stroke-width="1.97484" stroke-linecap="round" stroke-linejoin="round"/>
<path d="M43.8037 27.0684C45.4672 29.734 46.3491 32.813 46.3491 35.9552C46.3491 39.0973 45.4672 42.1763 43.8037 44.8419" stroke="#D1D5DB" stroke-width="1.97484" stroke-linecap="round" stroke-linejoin="round"/>
<rect x="85.4404" y="43.8555" width="73.7275" height="6.58281" rx="3.2914" fill="#F3F4F6"/>
<rect x="85.4404" y="24.1064" width="152.721" height="6.58281" rx="3.2914" fill="#E5E7EB"/>
<defs>
<clipPath id="clip0_8872_22850">
<rect width="296" height="235" rx="6.53741" fill="white"/>
</clipPath>
</defs>
</svg>
