<svg width="296" height="266" viewBox="0 0 296 266" fill="none" xmlns="http://www.w3.org/2000/svg">
<rect x="24" y="183.067" width="248.126" height="61.6463" rx="8.47637" fill="#F9FAFB"/>
<rect x="87.957" y="200.79" width="64.7286" height="3.08232" rx="1.54116" fill="#E5E7EB"/>
<rect x="87.957" y="212.349" width="173.38" height="3.08232" rx="1.54116" fill="#E5E7EB"/>
<rect x="87.957" y="223.907" width="173.38" height="3.08232" rx="1.54116" fill="#E5E7EB"/>
<path d="M70.067 211.194C68.7736 208.474 67.2653 205.861 65.5564 203.381L65.0052 202.589C64.3265 201.604 63.4371 200.783 62.4016 200.185C61.366 199.588 60.21 199.228 59.0181 199.133L58.0504 199.055C55.048 198.814 52.0313 198.814 49.029 199.055L48.0613 199.133C46.8693 199.228 45.7135 199.588 44.6779 200.185C43.6423 200.783 42.7529 201.604 42.0743 202.589L41.5231 203.388C39.8142 205.868 38.3058 208.481 37.0124 211.201L36.5959 212.076C36.0827 213.156 35.8164 214.337 35.8164 215.532C35.8164 216.728 36.0827 217.909 36.5959 218.989L37.0124 219.864C38.3058 222.584 39.8142 225.197 41.5231 227.677L42.0743 228.476C42.7529 229.461 43.6423 230.282 44.6779 230.88C45.7135 231.477 46.8693 231.837 48.0613 231.932L49.029 232.01C52.0313 232.251 55.048 232.251 58.0504 232.01L59.0181 231.932C60.2109 231.836 61.3674 231.475 62.403 230.875C63.4387 230.275 64.3276 229.452 65.0052 228.465L65.5564 227.666C67.2653 225.186 68.7736 222.574 70.067 219.854L70.4835 218.978C70.9966 217.898 71.263 216.717 71.263 215.522C71.263 214.326 70.9966 213.146 70.4835 212.066L70.067 211.194Z" fill="#E5E7EB"/>
<path d="M49.8812 251.944L47.4818 236.862L63.5263 245.087L49.8812 251.944Z" fill="#F9FAFB"/>
<rect x="24" y="21" width="248.126" height="61.6463" rx="8.47637" fill="#F9FAFB"/>
<rect x="87.957" y="38.7246" width="64.7286" height="3.08232" rx="1.54116" fill="#E5E7EB"/>
<rect x="87.957" y="50.2832" width="173.38" height="3.08232" rx="1.54116" fill="#E5E7EB"/>
<rect x="87.957" y="61.8418" width="173.38" height="3.08232" rx="1.54116" fill="#E5E7EB"/>
<path d="M70.067 49.1273C68.7736 46.4074 67.2653 43.7949 65.5564 41.3147L65.0052 40.5225C64.3265 39.5379 63.4371 38.7169 62.4016 38.1191C61.366 37.5212 60.21 37.1616 59.0181 37.0664L58.0504 36.9884C55.048 36.7474 52.0313 36.7474 49.029 36.9884L48.0613 37.0664C46.8693 37.1616 45.7135 37.5212 44.6779 38.1191C43.6423 38.7169 42.7529 39.5379 42.0743 40.5225L41.5231 41.3218C39.8142 43.802 38.3058 46.4144 37.0124 49.1344L36.5959 50.01C36.0827 51.0899 35.8164 52.2705 35.8164 53.4661C35.8164 54.6617 36.0827 55.8423 36.5959 56.9222L37.0124 57.7977C38.3058 60.5178 39.8142 63.1303 41.5231 65.6103L42.0743 66.4097C42.7529 67.3942 43.6423 68.2154 44.6779 68.8132C45.7135 69.411 46.8693 69.7706 48.0613 69.8658L49.029 69.9438C52.0313 70.1848 55.048 70.1848 58.0504 69.9438L59.0181 69.8658C60.2109 69.7694 61.3674 69.4082 62.403 68.8084C63.4387 68.2086 64.3276 67.3855 65.0052 66.399L65.5564 65.5997C67.2653 63.1196 68.7736 60.5072 70.067 57.7871L70.4835 56.9116C70.9966 55.8317 71.263 54.6511 71.263 53.4555C71.263 52.2598 70.9966 51.0792 70.4835 49.9993L70.067 49.1273Z" fill="#E5E7EB"/>
<path d="M49.8812 89.8778L47.4818 74.796L63.5263 83.0201L49.8812 89.8778Z" fill="#F9FAFB"/>
<g clip-path="url(#clip0_8877_24009)">
<rect x="24" y="103.312" width="248.126" height="61.6463" rx="8.47637" fill="#E5E7EB"/>
<rect x="87.957" y="121.034" width="64.7286" height="3.08232" rx="1.54116" fill="white"/>
<rect x="87.957" y="132.593" width="173.38" height="3.08232" rx="1.54116" fill="white"/>
<rect x="87.957" y="144.151" width="173.38" height="3.08232" rx="1.54116" fill="white"/>
<path d="M69.7565 128.557C68.463 125.837 66.9547 123.225 65.2458 120.744L64.6946 119.952C64.016 118.968 63.1266 118.147 62.091 117.549C61.0554 116.951 59.8995 116.591 58.7076 116.496L57.7398 116.418C54.7375 116.177 51.7208 116.177 48.7185 116.418L47.7508 116.496C46.5588 116.591 45.403 116.951 44.3674 117.549C43.3317 118.147 42.4423 118.968 41.7637 119.952L41.2125 120.752C39.5036 123.232 37.9953 125.844 36.7018 128.564L36.2853 129.44C35.7721 130.52 35.5059 131.7 35.5059 132.896C35.5059 134.091 35.7721 135.272 36.2853 136.352L36.7018 137.227C37.9953 139.947 39.5036 142.56 41.2125 145.04L41.7637 145.839C42.4423 146.824 43.3317 147.645 44.3674 148.243C45.403 148.841 46.5588 149.2 47.7508 149.295L48.7185 149.373C51.7208 149.615 54.7375 149.615 57.7398 149.373L58.7076 149.295C59.9004 149.199 61.0568 148.838 62.0924 148.238C63.1282 147.638 64.017 146.815 64.6946 145.829L65.2458 145.029C66.9547 142.549 68.463 139.937 69.7565 137.217L70.173 136.341C70.6861 135.261 70.9525 134.081 70.9525 132.885C70.9525 131.69 70.6861 130.509 70.173 129.429L69.7565 128.557Z" fill="white"/>
</g>
<path d="M251.665 170.2L253.994 156.416L238.936 164.422L251.665 170.2Z" fill="#E5E7EB"/>
<defs>
<clipPath id="clip0_8877_24009">
<rect x="24" y="103.312" width="248.126" height="61.6463" rx="8.47637" fill="white"/>
</clipPath>
</defs>
</svg>
