<svg width="249" height="231" viewBox="0 0 249 231" fill="none" xmlns="http://www.w3.org/2000/svg">
<rect y="162.067" width="248.126" height="61.6463" rx="8.47637" fill="#F9FAFB"/>
<rect x="63.957" y="179.79" width="64.7286" height="3.08232" rx="1.54116" fill="#E5E7EB"/>
<rect x="63.957" y="191.349" width="173.38" height="3.08232" rx="1.54116" fill="#E5E7EB"/>
<rect x="63.957" y="202.907" width="173.38" height="3.08232" rx="1.54116" fill="#E5E7EB"/>
<path d="M46.067 190.194C44.7736 187.474 43.2653 184.861 41.5564 182.381L41.0052 181.589C40.3265 180.604 39.4371 179.783 38.4016 179.185C37.366 178.588 36.21 178.228 35.0181 178.133L34.0504 178.055C31.048 177.814 28.0313 177.814 25.029 178.055L24.0613 178.133C22.8693 178.228 21.7135 178.588 20.6779 179.185C19.6423 179.783 18.7529 180.604 18.0743 181.589L17.5231 182.388C15.8142 184.868 14.3058 187.481 13.0124 190.201L12.5959 191.076C12.0827 192.156 11.8164 193.337 11.8164 194.532C11.8164 195.728 12.0827 196.909 12.5959 197.989L13.0124 198.864C14.3058 201.584 15.8142 204.197 17.5231 206.677L18.0743 207.476C18.7529 208.461 19.6423 209.282 20.6779 209.88C21.7135 210.477 22.8693 210.837 24.0613 210.932L25.029 211.01C28.0313 211.251 31.048 211.251 34.0504 211.01L35.0181 210.932C36.2109 210.836 37.3674 210.475 38.403 209.875C39.4387 209.275 40.3276 208.452 41.0052 207.465L41.5564 206.666C43.2653 204.186 44.7736 201.574 46.067 198.854L46.4835 197.978C46.9966 196.898 47.263 195.717 47.263 194.522C47.263 193.326 46.9966 192.146 46.4835 191.066L46.067 190.194Z" fill="#E5E7EB"/>
<path d="M25.8812 230.944L23.4818 215.862L39.5263 224.087L25.8812 230.944Z" fill="#F9FAFB"/>
<rect width="248.126" height="61.6463" rx="8.47637" fill="#F9FAFB"/>
<rect x="63.957" y="17.7246" width="64.7286" height="3.08232" rx="1.54116" fill="#E5E7EB"/>
<rect x="63.957" y="29.2832" width="173.38" height="3.08232" rx="1.54116" fill="#E5E7EB"/>
<rect x="63.957" y="40.8418" width="173.38" height="3.08232" rx="1.54116" fill="#E5E7EB"/>
<path d="M46.067 28.1273C44.7736 25.4074 43.2653 22.7949 41.5564 20.3147L41.0052 19.5225C40.3265 18.5379 39.4371 17.7169 38.4016 17.1191C37.366 16.5212 36.21 16.1616 35.0181 16.0664L34.0504 15.9884C31.048 15.7474 28.0313 15.7474 25.029 15.9884L24.0613 16.0664C22.8693 16.1616 21.7135 16.5212 20.6779 17.1191C19.6423 17.7169 18.7529 18.5379 18.0743 19.5225L17.5231 20.3218C15.8142 22.802 14.3058 25.4144 13.0124 28.1344L12.5959 29.01C12.0827 30.0899 11.8164 31.2705 11.8164 32.4661C11.8164 33.6617 12.0827 34.8423 12.5959 35.9222L13.0124 36.7977C14.3058 39.5178 15.8142 42.1303 17.5231 44.6103L18.0743 45.4097C18.7529 46.3942 19.6423 47.2154 20.6779 47.8132C21.7135 48.411 22.8693 48.7706 24.0613 48.8658L25.029 48.9438C28.0313 49.1848 31.048 49.1848 34.0504 48.9438L35.0181 48.8658C36.2109 48.7694 37.3674 48.4082 38.403 47.8084C39.4387 47.2086 40.3276 46.3855 41.0052 45.399L41.5564 44.5997C43.2653 42.1196 44.7736 39.5072 46.067 36.7871L46.4835 35.9116C46.9966 34.8317 47.263 33.6511 47.263 32.4555C47.263 31.2598 46.9966 30.0792 46.4835 28.9993L46.067 28.1273Z" fill="#E5E7EB"/>
<path d="M25.8812 68.8778L23.4818 53.796L39.5263 62.0201L25.8812 68.8778Z" fill="#F9FAFB"/>
<g clip-path="url(#clip0_8877_24009)">
<rect y="82.3125" width="248.126" height="61.6463" rx="8.47637" fill="#E5E7EB"/>
<rect x="63.957" y="100.034" width="64.7286" height="3.08232" rx="1.54116" fill="white"/>
<rect x="63.957" y="111.593" width="173.38" height="3.08232" rx="1.54116" fill="white"/>
<rect x="63.957" y="123.151" width="173.38" height="3.08232" rx="1.54116" fill="white"/>
<path d="M45.7565 107.557C44.463 104.837 42.9547 102.225 41.2458 99.7444L40.6946 98.9522C40.016 97.9676 39.1266 97.1466 38.091 96.5487C37.0554 95.9509 35.8995 95.5913 34.7076 95.4961L33.7398 95.4181C30.7375 95.177 27.7208 95.177 24.7185 95.4181L23.7508 95.4961C22.5588 95.5913 21.403 95.9509 20.3674 96.5487C19.3317 97.1466 18.4423 97.9676 17.7637 98.9522L17.2125 99.7515C15.5036 102.232 13.9953 104.844 12.7018 107.564L12.2853 108.44C11.7721 109.52 11.5059 110.7 11.5059 111.896C11.5059 113.091 11.7721 114.272 12.2853 115.352L12.7018 116.227C13.9953 118.947 15.5036 121.56 17.2125 124.04L17.7637 124.839C18.4423 125.824 19.3317 126.645 20.3674 127.243C21.403 127.841 22.5588 128.2 23.7508 128.295L24.7185 128.373C27.7208 128.615 30.7375 128.615 33.7398 128.373L34.7076 128.295C35.9004 128.199 37.0568 127.838 38.0924 127.238C39.1282 126.638 40.017 125.815 40.6946 124.829L41.2458 124.029C42.9547 121.549 44.463 118.937 45.7565 116.217L46.173 115.341C46.6861 114.261 46.9525 113.081 46.9525 111.885C46.9525 110.69 46.6861 109.509 46.173 108.429L45.7565 107.557Z" fill="white"/>
</g>
<path d="M227.665 149.2L229.994 135.416L214.936 143.422L227.665 149.2Z" fill="#E5E7EB"/>
<defs>
<clipPath id="clip0_8877_24009">
<rect y="82.3125" width="248.126" height="61.6463" rx="8.47637" fill="white"/>
</clipPath>
</defs>
</svg>
