<svg width="262" height="264" viewBox="0 0 262 264" fill="none" xmlns="http://www.w3.org/2000/svg">
<line x1="32.454" y1="28.6357" x2="32.454" y2="213.181" stroke="#F3F4F6" stroke-width="3.81818" stroke-linecap="round" stroke-dasharray="6.36 6.36"/>
<line x1="128.369" y1="28.6357" x2="128.369" y2="213.181" stroke="#F3F4F6" stroke-width="3.81818" stroke-linecap="round" stroke-dasharray="6.36 6.36"/>
<line x1="224.285" y1="28.6357" x2="224.285" y2="213.181" stroke="#F3F4F6" stroke-width="3.81818" stroke-linecap="round" stroke-dasharray="6.36 6.36"/>
<rect y="1.27344" width="70.4605" height="70.4605" rx="12.5263" fill="#F9FAFB"/>
<path d="M35.8148 14H13.9751C12.5833 14 11.4551 15.1282 11.4551 16.52C11.4551 17.9117 12.5833 19.0399 13.9751 19.0399H35.8148C37.2066 19.0399 38.3348 17.9117 38.3348 16.52C38.3348 15.1282 37.2066 14 35.8148 14Z" fill="#E5E7EB"/>
<path d="M50.9346 24.9219H13.9751C12.5833 24.9219 11.4551 26.0501 11.4551 27.4418C11.4551 28.8336 12.5833 29.9618 13.9751 29.9618H50.9346C52.3264 29.9618 53.4546 28.8336 53.4546 27.4418C53.4546 26.0501 52.3264 24.9219 50.9346 24.9219Z" fill="#F3F4F6"/>
<path d="M35.8158 36.6797H13.976C12.5843 36.6797 11.4561 37.8079 11.4561 39.1997C11.4561 40.5914 12.5843 41.7196 13.976 41.7196H35.8158C37.2075 41.7196 38.3358 40.5914 38.3358 39.1997C38.3358 37.8079 37.2075 36.6797 35.8158 36.6797Z" fill="#E5E7EB"/>
<path d="M50.9356 47.5977H13.976C12.5843 47.5977 11.4561 48.7259 11.4561 50.1176C11.4561 51.5094 12.5843 52.6376 13.976 52.6376H50.9356C52.3274 52.6376 53.4556 51.5094 53.4556 50.1176C53.4556 48.7259 52.3274 47.5977 50.9356 47.5977Z" fill="#F3F4F6"/>
<rect y="97.1875" width="70.4605" height="70.4605" rx="12.5263" fill="#F9FAFB"/>
<path d="M35.8148 109.914H13.9751C12.5833 109.914 11.4551 111.042 11.4551 112.434C11.4551 113.826 12.5833 114.954 13.9751 114.954H35.8148C37.2066 114.954 38.3348 113.826 38.3348 112.434C38.3348 111.042 37.2066 109.914 35.8148 109.914Z" fill="#E5E7EB"/>
<path d="M50.9346 120.836H13.9751C12.5833 120.836 11.4551 121.964 11.4551 123.356C11.4551 124.748 12.5833 125.876 13.9751 125.876H50.9346C52.3264 125.876 53.4546 124.748 53.4546 123.356C53.4546 121.964 52.3264 120.836 50.9346 120.836Z" fill="#F3F4F6"/>
<path d="M35.8158 132.594H13.976C12.5843 132.594 11.4561 133.722 11.4561 135.114C11.4561 136.505 12.5843 137.634 13.976 137.634H35.8158C37.2075 137.634 38.3358 136.505 38.3358 135.114C38.3358 133.722 37.2075 132.594 35.8158 132.594Z" fill="#E5E7EB"/>
<path d="M50.9356 143.512H13.976C12.5843 143.512 11.4561 144.64 11.4561 146.032C11.4561 147.423 12.5843 148.552 13.976 148.552H50.9356C52.3274 148.552 53.4556 147.423 53.4556 146.032C53.4556 144.64 52.3274 143.512 50.9356 143.512Z" fill="#F3F4F6"/>
<rect y="193.105" width="70.4605" height="70.4605" rx="12.5263" fill="#F9FAFB"/>
<path d="M35.8148 205.832H13.9751C12.5833 205.832 11.4551 206.96 11.4551 208.352C11.4551 209.744 12.5833 210.872 13.9751 210.872H35.8148C37.2066 210.872 38.3348 209.744 38.3348 208.352C38.3348 206.96 37.2066 205.832 35.8148 205.832Z" fill="#E5E7EB"/>
<path d="M50.9346 216.754H13.9751C12.5833 216.754 11.4551 217.882 11.4551 219.274C11.4551 220.666 12.5833 221.794 13.9751 221.794H50.9346C52.3264 221.794 53.4546 220.666 53.4546 219.274C53.4546 217.882 52.3264 216.754 50.9346 216.754Z" fill="#F3F4F6"/>
<path d="M35.8158 228.512H13.976C12.5843 228.512 11.4561 229.64 11.4561 231.032C11.4561 232.423 12.5843 233.552 13.976 233.552H35.8158C37.2075 233.552 38.3358 232.423 38.3358 231.032C38.3358 229.64 37.2075 228.512 35.8158 228.512Z" fill="#E5E7EB"/>
<path d="M50.9356 239.43H13.976C12.5843 239.43 11.4561 240.558 11.4561 241.95C11.4561 243.341 12.5843 244.47 13.976 244.47H50.9356C52.3274 244.47 53.4556 243.341 53.4556 241.95C53.4556 240.558 52.3274 239.43 50.9356 239.43Z" fill="#F3F4F6"/>
<rect y="193.105" width="70.4605" height="70.4605" rx="12.5263" fill="#F9FAFB"/>
<path d="M35.8148 205.832H13.9751C12.5833 205.832 11.4551 206.96 11.4551 208.352C11.4551 209.744 12.5833 210.872 13.9751 210.872H35.8148C37.2066 210.872 38.3348 209.744 38.3348 208.352C38.3348 206.96 37.2066 205.832 35.8148 205.832Z" fill="#E5E7EB"/>
<path d="M50.9346 216.754H13.9751C12.5833 216.754 11.4551 217.882 11.4551 219.274C11.4551 220.666 12.5833 221.794 13.9751 221.794H50.9346C52.3264 221.794 53.4546 220.666 53.4546 219.274C53.4546 217.882 52.3264 216.754 50.9346 216.754Z" fill="#F3F4F6"/>
<path d="M35.8158 228.512H13.976C12.5843 228.512 11.4561 229.64 11.4561 231.032C11.4561 232.423 12.5843 233.552 13.976 233.552H35.8158C37.2075 233.552 38.3358 232.423 38.3358 231.032C38.3358 229.64 37.2075 228.512 35.8158 228.512Z" fill="#E5E7EB"/>
<path d="M50.9356 239.43H13.976C12.5843 239.43 11.4561 240.558 11.4561 241.95C11.4561 243.341 12.5843 244.47 13.976 244.47H50.9356C52.3274 244.47 53.4556 243.341 53.4556 241.95C53.4556 240.558 52.3274 239.43 50.9356 239.43Z" fill="#F3F4F6"/>
<rect x="95.4551" y="1.27344" width="70.4605" height="70.4605" rx="12.5263" fill="#F9FAFB"/>
<path d="M131.269 14H109.429C108.037 14 106.909 15.1282 106.909 16.52C106.909 17.9117 108.037 19.0399 109.429 19.0399H131.269C132.661 19.0399 133.789 17.9117 133.789 16.52C133.789 15.1282 132.661 14 131.269 14Z" fill="#E5E7EB"/>
<path d="M146.389 24.9219H109.429C108.037 24.9219 106.909 26.0501 106.909 27.4418C106.909 28.8336 108.037 29.9618 109.429 29.9618H146.389C147.78 29.9618 148.909 28.8336 148.909 27.4418C148.909 26.0501 147.78 24.9219 146.389 24.9219Z" fill="#F3F4F6"/>
<path d="M131.27 36.6797H109.43C108.038 36.6797 106.91 37.8079 106.91 39.1997C106.91 40.5914 108.038 41.7196 109.43 41.7196H131.27C132.662 41.7196 133.79 40.5914 133.79 39.1997C133.79 37.8079 132.662 36.6797 131.27 36.6797Z" fill="#E5E7EB"/>
<path d="M146.39 47.5977H109.43C108.038 47.5977 106.91 48.7259 106.91 50.1176C106.91 51.5094 108.038 52.6376 109.43 52.6376H146.39C147.781 52.6376 148.91 51.5094 148.91 50.1176C148.91 48.7259 147.781 47.5977 146.39 47.5977Z" fill="#F3F4F6"/>
<rect x="95.4551" y="97.1875" width="70.4605" height="70.4605" rx="12.5263" fill="#F9FAFB"/>
<path d="M131.269 109.914H109.429C108.037 109.914 106.909 111.042 106.909 112.434C106.909 113.826 108.037 114.954 109.429 114.954H131.269C132.661 114.954 133.789 113.826 133.789 112.434C133.789 111.042 132.661 109.914 131.269 109.914Z" fill="#E5E7EB"/>
<path d="M146.389 120.836H109.429C108.037 120.836 106.909 121.964 106.909 123.356C106.909 124.748 108.037 125.876 109.429 125.876H146.389C147.78 125.876 148.909 124.748 148.909 123.356C148.909 121.964 147.78 120.836 146.389 120.836Z" fill="#F3F4F6"/>
<path d="M131.27 132.594H109.43C108.038 132.594 106.91 133.722 106.91 135.114C106.91 136.505 108.038 137.634 109.43 137.634H131.27C132.662 137.634 133.79 136.505 133.79 135.114C133.79 133.722 132.662 132.594 131.27 132.594Z" fill="#E5E7EB"/>
<path d="M146.39 143.512H109.43C108.038 143.512 106.91 144.64 106.91 146.032C106.91 147.423 108.038 148.552 109.43 148.552H146.39C147.781 148.552 148.91 147.423 148.91 146.032C148.91 144.64 147.781 143.512 146.39 143.512Z" fill="#F3F4F6"/>
<rect x="95.4551" y="193.105" width="70.4605" height="70.4605" rx="12.5263" fill="#F9FAFB"/>
<path d="M131.269 205.832H109.429C108.038 205.832 106.909 206.96 106.909 208.352C106.909 209.744 108.038 210.872 109.429 210.872H131.269C132.661 210.872 133.789 209.744 133.789 208.352C133.789 206.96 132.661 205.832 131.269 205.832Z" fill="#E5E7EB"/>
<path d="M146.389 216.754H109.429C108.037 216.754 106.909 217.882 106.909 219.274C106.909 220.666 108.037 221.794 109.429 221.794H146.389C147.78 221.794 148.909 220.666 148.909 219.274C148.909 217.882 147.78 216.754 146.389 216.754Z" fill="#F3F4F6"/>
<path d="M131.27 228.512H109.43C108.038 228.512 106.91 229.64 106.91 231.032C106.91 232.423 108.038 233.552 109.43 233.552H131.27C132.662 233.552 133.79 232.423 133.79 231.032C133.79 229.64 132.662 228.512 131.27 228.512Z" fill="#E5E7EB"/>
<path d="M146.39 239.43H109.43C108.038 239.43 106.91 240.558 106.91 241.95C106.91 243.341 108.038 244.47 109.43 244.47H146.39C147.781 244.47 148.91 243.341 148.91 241.95C148.91 240.558 147.781 239.43 146.39 239.43Z" fill="#F3F4F6"/>
<rect x="190.909" width="70.4605" height="70.4605" rx="12.5263" fill="#F9FAFB"/>
<path d="M226.723 12.7266H204.883C203.492 12.7266 202.363 13.8548 202.363 15.2465C202.363 16.6383 203.492 17.7665 204.883 17.7665H226.723C228.115 17.7665 229.243 16.6383 229.243 15.2465C229.243 13.8548 228.115 12.7266 226.723 12.7266Z" fill="#E5E7EB"/>
<path d="M241.843 23.6445H204.883C203.492 23.6445 202.363 24.7728 202.363 26.1645C202.363 27.5562 203.492 28.6845 204.883 28.6845H241.843C243.235 28.6845 244.363 27.5562 244.363 26.1645C244.363 24.7728 243.235 23.6445 241.843 23.6445Z" fill="#F3F4F6"/>
<path d="M226.723 35.4062H204.883C203.492 35.4062 202.363 36.5345 202.363 37.9262C202.363 39.318 203.492 40.4462 204.883 40.4462H226.723C228.115 40.4462 229.243 39.318 229.243 37.9262C229.243 36.5345 228.115 35.4062 226.723 35.4062Z" fill="#E5E7EB"/>
<path d="M241.843 46.3242H204.883C203.492 46.3242 202.363 47.4524 202.363 48.8442C202.363 50.2359 203.492 51.3642 204.883 51.3642H241.843C243.235 51.3642 244.363 50.2359 244.363 48.8442C244.363 47.4524 243.235 46.3242 241.843 46.3242Z" fill="#F3F4F6"/>
<rect x="190.909" y="95.918" width="70.4605" height="70.4605" rx="12.5263" fill="#F9FAFB"/>
<path d="M226.723 108.645H204.883C203.492 108.645 202.363 109.773 202.363 111.165C202.363 112.556 203.492 113.684 204.883 113.684H226.723C228.115 113.684 229.243 112.556 229.243 111.165C229.243 109.773 228.115 108.645 226.723 108.645Z" fill="#E5E7EB"/>
<path d="M241.843 119.562H204.883C203.492 119.562 202.363 120.691 202.363 122.082C202.363 123.474 203.492 124.602 204.883 124.602H241.843C243.235 124.602 244.363 123.474 244.363 122.082C244.363 120.691 243.235 119.562 241.843 119.562Z" fill="#F3F4F6"/>
<path d="M226.723 131.324H204.883C203.492 131.324 202.363 132.452 202.363 133.844C202.363 135.236 203.492 136.364 204.883 136.364H226.723C228.115 136.364 229.243 135.236 229.243 133.844C229.243 132.452 228.115 131.324 226.723 131.324Z" fill="#E5E7EB"/>
<path d="M241.843 142.242H204.883C203.492 142.242 202.363 143.37 202.363 144.762C202.363 146.154 203.492 147.282 204.883 147.282H241.843C243.235 147.282 244.363 146.154 244.363 144.762C244.363 143.37 243.235 142.242 241.843 142.242Z" fill="#F3F4F6"/>
<rect x="190.909" y="191.832" width="70.4605" height="70.4605" rx="12.5263" fill="#F9FAFB"/>
<path d="M226.723 204.559H204.883C203.492 204.559 202.363 205.687 202.363 207.079C202.363 208.47 203.492 209.599 204.883 209.599H226.723C228.115 209.599 229.243 208.47 229.243 207.079C229.243 205.687 228.115 204.559 226.723 204.559Z" fill="#E5E7EB"/>
<path d="M241.843 215.477H204.883C203.492 215.477 202.363 216.605 202.363 217.997C202.363 219.388 203.492 220.517 204.883 220.517H241.843C243.235 220.517 244.363 219.388 244.363 217.997C244.363 216.605 243.235 215.477 241.843 215.477Z" fill="#F3F4F6"/>
<path d="M226.723 227.238H204.883C203.492 227.238 202.363 228.367 202.363 229.758C202.363 231.15 203.492 232.278 204.883 232.278H226.723C228.115 232.278 229.243 231.15 229.243 229.758C229.243 228.367 228.115 227.238 226.723 227.238Z" fill="#E5E7EB"/>
<path d="M241.843 238.156H204.883C203.492 238.156 202.363 239.284 202.363 240.676C202.363 242.068 203.492 243.196 204.883 243.196H241.843C243.235 243.196 244.363 242.068 244.363 240.676C244.363 239.284 243.235 238.156 241.843 238.156Z" fill="#F3F4F6"/>
</svg>
