<svg width="142" height="170" viewBox="0 0 142 170" fill="none" xmlns="http://www.w3.org/2000/svg">
<g clip-path="url(#clip0_8844_22265)">
<path d="M134.368 0H7.38286C3.30542 0 0 3.30542 0 7.38286V162.423C0 166.5 3.30542 169.806 7.38286 169.806H134.368C138.445 169.806 141.751 166.5 141.751 162.423V7.38286C141.751 3.30542 138.445 0 134.368 0Z" fill="#F9FAFB"/>
<path d="M59.3347 18.458H20.9439C18.4974 18.458 16.5142 20.4413 16.5142 22.8877C16.5142 25.3342 18.4974 27.3174 20.9439 27.3174H59.3347C61.7812 27.3174 63.7644 25.3342 63.7644 22.8877C63.7644 20.4413 61.7812 18.458 59.3347 18.458Z" fill="#F3F4F6"/>
<path d="M85.913 37.6533H20.9439C18.4974 37.6533 16.5142 39.6366 16.5142 42.083C16.5142 44.5295 18.4974 46.5127 20.9439 46.5127H85.913C88.3595 46.5127 90.3427 44.5295 90.3427 42.083C90.3427 39.6366 88.3595 37.6533 85.913 37.6533Z" fill="white"/>
<path d="M59.3357 58.3252H20.9449C18.4984 58.3252 16.5151 60.3084 16.5151 62.7549C16.5151 65.2014 18.4984 67.1846 20.9449 67.1846H59.3357C61.7822 67.1846 63.7654 65.2014 63.7654 62.7549C63.7654 60.3084 61.7822 58.3252 59.3357 58.3252Z" fill="#F3F4F6"/>
<path d="M85.914 77.5186H20.9449C18.4984 77.5186 16.5151 79.5018 16.5151 81.9483C16.5151 84.3947 18.4984 86.378 20.9449 86.378H85.914C88.3605 86.378 90.3437 84.3947 90.3437 81.9483C90.3437 79.5018 88.3605 77.5186 85.914 77.5186Z" fill="white"/>
<path d="M59.3342 98.1943H20.9434C18.4969 98.1943 16.5137 100.178 16.5137 102.624C16.5137 105.071 18.4969 107.054 20.9434 107.054H59.3342C61.7807 107.054 63.764 105.071 63.764 102.624C63.764 100.178 61.7807 98.1943 59.3342 98.1943Z" fill="#F3F4F6"/>
<path d="M85.9125 117.391H20.9434C18.4969 117.391 16.5137 119.374 16.5137 121.82C16.5137 124.267 18.4969 126.25 20.9434 126.25H85.9125C88.359 126.25 90.3422 124.267 90.3422 121.82C90.3422 119.374 88.359 117.391 85.9125 117.391Z" fill="#F9FAFB"/>
<g clip-path="url(#clip1_8844_22265)">
<path d="M127.55 130.831C126.501 134.145 124.435 137.044 121.643 139.116C127.634 141.175 132.835 145.046 136.528 150.192C140.221 155.338 142.222 161.506 142.254 167.84C142.254 168.508 141.989 169.149 141.516 169.621C141.044 170.094 140.403 170.359 139.734 170.359H-1.36561C-2.03386 170.359 -2.67474 170.094 -3.14727 169.621C-3.61979 169.149 -3.88525 168.508 -3.88525 167.84C-3.87387 161.488 -1.88247 155.299 1.81172 150.132C5.50592 144.966 10.7191 141.08 16.7254 139.015C13.9465 136.936 11.8925 134.035 10.8548 130.723C9.81714 127.411 9.84833 123.856 10.944 120.563C12.0396 117.27 14.1442 114.405 16.9592 112.375C19.7742 110.344 23.1569 109.252 26.6276 109.252C30.0984 109.252 33.481 110.344 36.296 112.375C39.1111 114.405 41.2156 117.27 42.3113 120.563C43.4069 123.856 43.4381 127.411 42.4004 130.723C41.3627 134.035 39.3088 136.936 36.5298 139.015L37.7393 139.519C42.9309 133.873 49.5717 129.76 56.9389 127.626C52.811 125.096 49.6226 121.286 47.8586 116.777C46.0946 112.268 45.8515 107.306 47.1662 102.646C48.481 97.9858 51.2817 93.8827 55.1424 90.9605C59.0031 88.0384 63.7126 86.457 68.5545 86.457C73.3964 86.457 78.1058 88.0384 81.9665 90.9605C85.8272 93.8827 88.628 97.9858 89.9427 102.646C91.2575 107.306 91.0144 112.268 89.2504 116.777C87.4863 121.286 84.2979 125.096 80.17 127.626C87.7331 129.821 94.5261 134.1 99.7729 139.973L101.94 139.116C99.1486 137.044 97.0817 134.145 96.0329 130.831C94.9842 127.517 95.0069 123.956 96.098 120.656C97.1891 117.355 99.293 114.483 102.11 112.447C104.928 110.411 108.315 109.315 111.792 109.315C115.268 109.315 118.655 110.411 121.473 112.447C124.29 114.483 126.394 117.355 127.485 120.656C128.576 123.956 128.599 127.517 127.55 130.831Z" fill="#E5E7EB"/>
</g>
</g>
<defs>
<clipPath id="clip0_8844_22265">
<rect width="141.829" height="170" rx="13.2683" fill="white"/>
</clipPath>
<clipPath id="clip1_8844_22265">
<rect width="141.829" height="123.371" fill="white" transform="translate(0 46.6279)"/>
</clipPath>
</defs>
</svg>
