<svg width="240" height="287" viewBox="0 0 240 287" fill="none" xmlns="http://www.w3.org/2000/svg">
<g clip-path="url(#clip0_8867_22261)">
<path d="M226.845 0H12.464C5.58032 0 0 5.58032 0 12.464V274.208C0 281.092 5.58032 286.672 12.464 286.672H226.845C233.728 286.672 239.309 281.092 239.309 274.208V12.464C239.309 5.58032 233.728 0 226.845 0Z" fill="#F9FAFB"/>
<path d="M100.171 31.1621H35.3583C31.2281 31.1621 27.8799 34.5103 27.8799 38.6405C27.8799 42.7707 31.2281 46.1189 35.3583 46.1189H100.171C104.301 46.1189 107.649 42.7707 107.649 38.6405C107.649 34.5103 104.301 31.1621 100.171 31.1621Z" fill="#F3F4F6"/>
<path d="M145.041 63.5684H35.3583C31.2281 63.5684 27.8799 66.9166 27.8799 71.0468C27.8799 75.177 31.2281 78.5252 35.3583 78.5252H145.041C149.172 78.5252 152.52 75.177 152.52 71.0468C152.52 66.9166 149.172 63.5684 145.041 63.5684Z" fill="white"/>
<path d="M100.173 98.4668H35.3602C31.23 98.4668 27.8818 101.815 27.8818 105.945C27.8818 110.075 31.23 113.424 35.3602 113.424H100.173C104.303 113.424 107.651 110.075 107.651 105.945C107.651 101.815 104.303 98.4668 100.173 98.4668Z" fill="#F3F4F6"/>
<path d="M145.043 130.869H35.3602C31.23 130.869 27.8818 134.217 27.8818 138.348C27.8818 142.478 31.23 145.826 35.3602 145.826H145.043C149.174 145.826 152.522 142.478 152.522 138.348C152.522 134.217 149.174 130.869 145.043 130.869Z" fill="white"/>
<path d="M100.17 165.775H35.3573C31.2271 165.775 27.8789 169.124 27.8789 173.254C27.8789 177.384 31.2271 180.732 35.3573 180.732H100.17C104.3 180.732 107.649 177.384 107.649 173.254C107.649 169.124 104.3 165.775 100.17 165.775Z" fill="#F3F4F6"/>
<path d="M145.041 198.184H35.3573C31.2271 198.184 27.8789 201.532 27.8789 205.662C27.8789 209.792 31.2271 213.14 35.3573 213.14H145.041C149.171 213.14 152.519 209.792 152.519 205.662C152.519 201.532 149.171 198.184 145.041 198.184Z" fill="#F9FAFB"/>
<g clip-path="url(#clip1_8867_22261)">
<path d="M215.334 220.873C213.564 226.468 210.074 231.363 205.362 234.86C215.475 238.337 224.257 244.871 230.491 253.56C236.725 262.248 240.103 272.66 240.158 283.353C240.158 284.481 239.71 285.563 238.912 286.361C238.114 287.159 237.032 287.607 235.904 287.607H-2.30582C-3.43398 287.607 -4.51594 287.159 -5.31368 286.361C-6.11141 285.563 -6.55957 284.481 -6.55957 283.353C-6.54036 272.631 -3.1784 262.181 3.05827 253.459C9.29494 244.737 18.096 238.176 28.2361 234.69C23.5446 231.18 20.077 226.282 18.3252 220.691C16.5733 215.099 16.6259 209.098 18.4757 203.538C20.3254 197.979 23.8783 193.142 28.6308 189.715C33.3832 186.287 39.0939 184.443 44.9533 184.443C50.8128 184.443 56.5235 186.287 61.2759 189.715C66.0283 193.142 69.5813 197.979 71.431 203.538C73.2807 209.098 73.3334 215.099 71.5815 220.691C69.8297 226.282 66.3621 231.18 61.6706 234.69L63.7124 235.541C72.4771 226.01 83.6884 219.065 96.126 215.463C89.1571 211.191 83.7743 204.759 80.7962 197.147C77.8181 189.534 77.4077 181.158 79.6273 173.29C81.847 165.423 86.5753 158.496 93.093 153.563C99.6108 148.63 107.561 145.96 115.736 145.96C123.91 145.96 131.861 148.63 138.378 153.563C144.896 158.496 149.624 165.423 151.844 173.29C154.064 181.158 153.653 189.534 150.675 197.147C147.697 204.759 142.314 211.191 135.346 215.463C148.114 219.169 159.582 226.392 168.44 236.307L172.098 234.86C167.386 231.363 163.896 226.468 162.126 220.873C160.355 215.278 160.394 209.267 162.236 203.696C164.078 198.124 167.63 193.274 172.386 189.837C177.143 186.4 182.862 184.55 188.73 184.55C194.599 184.55 200.318 186.4 205.074 189.837C209.831 193.274 213.382 198.124 215.224 203.696C217.066 209.267 217.105 215.278 215.334 220.873Z" fill="#E5E7EB"/>
</g>
</g>
<defs>
<clipPath id="clip0_8867_22261">
<rect width="239.44" height="287" rx="12" fill="white"/>
</clipPath>
<clipPath id="clip1_8867_22261">
<rect width="239.44" height="208.28" fill="white" transform="translate(0 78.7188)"/>
</clipPath>
</defs>
</svg>
