<svg width="136" height="60" viewBox="0 0 136 60" fill="none" xmlns="http://www.w3.org/2000/svg">
<path d="M77.6271 51.5046C85.3732 47.9358 90.75 40.1036 90.75 31.0156C90.75 18.5633 80.6554 8.46875 68.2031 8.46875C55.7508 8.46875 45.6562 18.5633 45.6562 31.0156C45.6562 39.2227 50.0412 46.4057 56.5962 50.3493V30.8822L56.5969 30.883C56.668 24.5337 61.837 19.4087 68.2031 19.4087C74.6135 19.4087 79.8101 24.6053 79.8101 31.0156C79.8101 37.4252 74.6147 42.6213 68.2055 42.6226L77.6271 51.5046Z" fill="#374151"/>
<path d="M3.00107 44.7557V36.5312L20.8775 8.36364H28.1857V19.5284H23.9457L13.484 36.1051V36.446H39.3718V44.7557H3.00107ZM24.0735 52V42.2415L24.2866 38.6406V8.36364H34.1516V52H24.0735Z" fill="#374151"/>
<path d="M97.0011 44.7557V36.5312L114.877 8.36364H122.186V19.5284H117.946L107.484 36.1051V36.446H133.372V44.7557H97.0011ZM118.074 52V42.2415L118.287 38.6406V8.36364H128.152V52H118.074Z" fill="#374151"/>
</svg>
