<svg width="147" height="60" viewBox="0 0 147 60" fill="none" xmlns="http://www.w3.org/2000/svg">
<path d="M77.6271 51.5046C85.3732 47.9358 90.75 40.1036 90.75 31.0156C90.75 18.5633 80.6554 8.46875 68.2031 8.46875C55.7508 8.46875 45.6562 18.5633 45.6562 31.0156C45.6562 39.2227 50.0412 46.4057 56.5962 50.3493V30.8822L56.5969 30.883C56.668 24.5337 61.837 19.4087 68.2031 19.4087C74.6135 19.4087 79.8101 24.6053 79.8101 31.0156C79.8101 37.4252 74.6147 42.6213 68.2055 42.6226L77.6271 51.5046Z" fill="#374151"/>
<path d="M130.627 51.5046C138.373 47.9358 143.75 40.1036 143.75 31.0156C143.75 18.5633 133.655 8.46875 121.203 8.46875C108.751 8.46875 98.6562 18.5633 98.6562 31.0156C98.6562 39.2227 103.041 46.4057 109.596 50.3493V30.8822L109.597 30.883C109.668 24.5337 114.837 19.4087 121.203 19.4087C127.613 19.4087 132.81 24.6053 132.81 31.0156C132.81 37.4252 127.615 42.6213 121.205 42.6226L130.627 51.5046Z" fill="#374151"/>
<path d="M21.2051 52.5966C18.0233 52.5966 15.1966 52.0213 12.725 50.8707C10.2534 49.7202 8.30025 48.1364 6.86559 46.1193C5.44513 44.1023 4.7065 41.7869 4.64968 39.1733H14.877C14.9622 40.7784 15.6156 42.071 16.8372 43.0511C18.0588 44.017 19.5147 44.5 21.2051 44.5C22.5261 44.5 23.698 44.2088 24.7207 43.6264C25.7434 43.044 26.546 42.2273 27.1284 41.1761C27.7108 40.1108 27.9949 38.8892 27.9806 37.5114C27.9949 36.1051 27.7037 34.8764 27.1071 33.8253C26.5247 32.7741 25.715 31.9574 24.6781 31.375C23.6554 30.7784 22.4764 30.4801 21.1412 30.4801C19.877 30.4659 18.6767 30.7429 17.5403 31.3111C16.4181 31.8793 15.5659 32.6534 14.9835 33.6335L5.67241 31.8864L7.56871 8.36364H35.5659V16.8651H16.2406L15.2392 27.1562H15.4949C16.2193 25.9489 17.3841 24.9545 18.9892 24.1733C20.6085 23.3778 22.448 22.9801 24.5076 22.9801C27.1213 22.9801 29.4508 23.5909 31.4963 24.8125C33.5559 26.0199 35.1752 27.696 36.3542 29.8409C37.5474 31.9858 38.144 34.4432 38.144 37.2131C38.144 40.2102 37.4338 42.8665 36.0133 45.1818C34.6071 47.4972 32.6326 49.3153 30.09 50.6364C27.5616 51.9432 24.6 52.5966 21.2051 52.5966Z" fill="#374151"/>
</svg>
