<svg width="20" height="20" viewBox="0 0 20 20" fill="none" xmlns="http://www.w3.org/2000/svg">
<g clip-path="url(#clip0_11264_31894)">
<path d="M16.6663 9.16658C16.4625 7.7001 15.7822 6.3413 14.7302 5.2995C13.6782 4.25769 12.3128 3.59068 10.8444 3.40121C9.376 3.21174 7.88603 3.51032 6.60401 4.25096C5.32199 4.99159 4.31905 6.1332 3.74967 7.49992M3.33301 4.16658V7.49992H6.66634" stroke="#4B5563" stroke-width="1.66667" stroke-linecap="round" stroke-linejoin="round"/>
<path d="M3.33301 10.833C3.53681 12.2995 4.21712 13.6583 5.26914 14.7001C6.32117 15.7419 7.68654 16.4089 9.15495 16.5984C10.6234 16.7879 12.1133 16.4893 13.3953 15.7486C14.6774 15.008 15.6803 13.8664 16.2497 12.4997M16.6663 15.833V12.4997H13.333" stroke="#4B5563" stroke-width="1.66667" stroke-linecap="round" stroke-linejoin="round"/>
</g>
<defs>
<clipPath id="clip0_11264_31894">
<rect width="20" height="20" fill="white"/>
</clipPath>
</defs>
</svg>
