<svg width="457" height="457" viewBox="0 0 457 457" fill="none" xmlns="http://www.w3.org/2000/svg">
<rect width="457" height="457" fill="#F9FAFB"/>
<g clip-path="url(#clip0_5432_16558)">
<path d="M253.829 194.728H253.914" stroke="#E5E7EB" stroke-width="8.443" stroke-linecap="round" stroke-linejoin="round"/>
<path d="M236.943 296.044H186.285C179.567 296.044 173.125 293.375 168.375 288.625C163.625 283.875 160.956 277.433 160.956 270.715V186.285C160.956 179.567 163.625 173.125 168.375 168.375C173.125 163.625 179.567 160.956 186.285 160.956H270.715C277.433 160.956 283.875 163.625 288.625 168.375C293.376 173.125 296.044 179.567 296.044 186.285V236.943" stroke="#E5E7EB" stroke-width="8.443" stroke-linecap="round" stroke-linejoin="round"/>
<path d="M160.956 253.829L194.728 220.057C202.563 212.518 212.222 212.518 220.057 220.057L241.165 241.165" stroke="#E5E7EB" stroke-width="8.443" stroke-linecap="round" stroke-linejoin="round"/>
<path d="M308.708 308.709L266.493 266.494" stroke="#E5E7EB" stroke-width="8.443" stroke-linecap="round" stroke-linejoin="round"/>
<path d="M266.493 308.709L308.708 266.494" stroke="#E5E7EB" stroke-width="8.443" stroke-linecap="round" stroke-linejoin="round"/>
</g>
<defs>
<clipPath id="clip0_5432_16558">
<rect width="202.632" height="202.632" fill="white" transform="translate(127.184 127.184)"/>
</clipPath>
</defs>
</svg>