<svg width="32" height="32" viewBox="0 0 32 32" fill="none" xmlns="http://www.w3.org/2000/svg">
<path d="M23.4482 5.61247V0H24.5083V5.61247H23.4482Z" fill="#F9FAFB"/>
<path d="M25.6768 5.61247V0H27.4931C27.5372 0 27.6282 0.00129924 27.7659 0.00389773C27.9036 0.00649591 28.0361 0.0155902 28.1635 0.0311805C28.6156 0.0857462 28.9988 0.242947 29.3132 0.502784C29.6276 0.76262 29.8667 1.09261 30.0304 1.49276C30.1941 1.89291 30.2759 2.33073 30.2759 2.80624C30.2759 3.28174 30.1941 3.71956 30.0304 4.11971C29.8667 4.51986 29.6276 4.84985 29.3132 5.10969C28.9988 5.36952 28.6156 5.52673 28.1635 5.58129C28.0361 5.59688 27.9036 5.60598 27.7659 5.60857C27.6282 5.61117 27.5372 5.61247 27.4931 5.61247H25.6768ZM26.7525 4.6147H27.4931C27.5632 4.6147 27.6581 4.6134 27.7776 4.6108C27.8971 4.6056 28.005 4.59391 28.1011 4.57572C28.3453 4.52635 28.5441 4.41203 28.6974 4.23274C28.8533 4.05345 28.9676 3.83779 29.0404 3.58575C29.1158 3.3337 29.1534 3.07387 29.1534 2.80624C29.1534 2.52561 29.1145 2.25928 29.0365 2.00724C28.9612 1.7552 28.8455 1.54213 28.6896 1.36804C28.5337 1.19395 28.3375 1.08352 28.1011 1.03675C28.005 1.01596 27.8971 1.00427 27.7776 1.00167C27.6581 0.999072 27.5632 0.997773 27.4931 0.997773H26.7525V4.6147Z" fill="#F9FAFB"/>
<path d="M11.4065 22.4428C12.3852 22.8593 13.4316 23.0676 14.5457 23.0676C15.9514 23.0676 17.2164 22.75 18.3409 22.1149C19.4758 21.4797 20.3765 20.6051 21.0428 19.491C21.7196 18.3769 22.058 17.1015 22.058 15.6646C22.058 14.3319 21.7717 13.1293 21.199 12.0568C20.6368 10.974 19.835 10.1202 18.7938 9.49549C18.0237 9.02573 17.1511 8.72969 16.176 8.60738L21.73 3.26389V0.155902H8.20481V3.26389H17.7336L10.8599 9.33931L12.3904 11.9163C12.7132 11.7497 13.0568 11.6143 13.4212 11.5102C13.7961 11.4061 14.1605 11.354 14.5145 11.354C15.7639 11.354 16.7739 11.7601 17.5444 12.5722C18.3253 13.3844 18.7158 14.4152 18.7158 15.6646C18.7158 16.4976 18.5387 17.2368 18.1847 17.8824C17.8307 18.5175 17.3414 19.0225 16.7166 19.3973C16.0919 19.7722 15.3683 19.9648 14.5457 19.9752C13.6295 19.9856 12.7965 19.7357 12.0468 19.2255C11.2972 18.7049 10.7714 17.9605 10.4694 16.9921L7.31458 17.8668C7.63735 18.9288 8.15275 19.8503 8.86077 20.6312C9.5792 21.4121 10.4278 22.016 11.4065 22.4428Z" fill="#F9FAFB"/>
<path d="M24.6435 27.7127H4.63604V32H1.77783V24.8545H27.5017V32H24.6435V27.7127Z" fill="#F9FAFB"/>
</svg>
