<svg width="127" height="119" viewBox="0 0 127 119" fill="none" xmlns="http://www.w3.org/2000/svg">
<rect x="2.58293" y="21.1876" width="69" height="89" rx="2.5" transform="rotate(-10.5257 2.58293 21.1876)" fill="#FCFCFC"/>
<path d="M15.9392 40.7974C15.5354 38.6254 16.9689 36.5374 19.1408 36.1337L59.4503 28.641C61.6223 28.2372 63.7103 29.6707 64.114 31.8426C64.5177 34.0145 63.0843 36.1025 60.9123 36.5062L20.6028 43.999C18.4309 44.4027 16.3429 42.9693 15.9392 40.7974Z" fill="#E5E7EB" fill-opacity="0.5"/>
<path d="M19.4114 59.4774C19.0077 57.3054 20.4411 55.2175 22.6131 54.8137L43.2594 50.976C45.4313 50.5723 47.5193 52.0057 47.923 54.1776C48.3268 56.3496 46.8933 58.4375 44.7214 58.8413L24.0751 62.679C21.9031 63.0827 19.8151 61.6493 19.4114 59.4774Z" fill="#E5E7EB" fill-opacity="0.5"/>
<path d="M22.8837 78.1574C22.48 75.9855 23.9134 73.8975 26.0853 73.4938L46.7317 69.656C48.9036 69.2523 50.9916 70.6857 51.3953 72.8576C51.799 75.0296 50.3656 77.1176 48.1937 77.5213L27.5473 81.359C25.3754 81.7628 23.2874 80.3293 22.8837 78.1574Z" fill="#E5E7EB" fill-opacity="0.5"/>
<path d="M53.822 53.0811C53.4183 50.9092 54.8517 48.8212 57.0236 48.4175L62.9226 47.321C65.0945 46.9173 67.1825 48.3507 67.5862 50.5226C67.99 52.6945 66.5565 54.7825 64.3846 55.1863L58.4856 56.2828C56.3137 56.6865 54.2257 55.2531 53.822 53.0811Z" fill="#E5E7EB" fill-opacity="0.5"/>
<path d="M57.2943 71.7611C56.8905 69.5892 58.324 67.5012 60.4959 67.0975L66.3948 66.001C68.5668 65.5973 70.6548 67.0307 71.0585 69.2026C71.4622 71.3746 70.0288 73.4626 67.8568 73.8663L61.9579 74.9628C59.786 75.3665 57.698 73.9331 57.2943 71.7611Z" fill="#E5E7EB" fill-opacity="0.5"/>
<rect x="2.58293" y="21.1876" width="69" height="89" rx="2.5" transform="rotate(-10.5257 2.58293 21.1876)" stroke="#E5E7EB"/>
<rect x="28.5" y="3.5" width="69" height="89" rx="2.5" fill="white"/>
<rect x="28.5" y="3.5" width="69" height="89" rx="2.5" stroke="#E5E7EB"/>
<path d="M38 26C38 23.7909 39.7909 22 42 22H83C85.2091 22 87 23.7909 87 26C87 28.2091 85.2091 30 83 30H42C39.7909 30 38 28.2091 38 26Z" fill="#E5E7EB"/>
<path d="M38 45C38 42.7909 39.7909 41 42 41H63C65.2091 41 67 42.7909 67 45C67 47.2091 65.2091 49 63 49H42C39.7909 49 38 47.2091 38 45Z" fill="#E5E7EB"/>
<path d="M38 64C38 61.7909 39.7909 60 42 60H63C65.2091 60 67 61.7909 67 64C67 66.2091 65.2091 68 63 68H42C39.7909 68 38 66.2091 38 64Z" fill="#E5E7EB"/>
<path d="M73 45C73 42.7909 74.7909 41 77 41H83C85.2091 41 87 42.7909 87 45C87 47.2091 85.2091 49 83 49H77C74.7909 49 73 47.2091 73 45Z" fill="#E5E7EB"/>
<path d="M75 63.7143C75 60.5584 77.5584 58 80.7143 58H89.2857C92.4416 58 95 60.5584 95 63.7143C95 66.8702 92.4416 69.4286 89.2857 69.4286H80.7143C77.5584 69.4286 75 66.8702 75 63.7143Z" fill="#E5E7EB"/>
<mask id="path-5-outside-1_1974_10030" maskUnits="userSpaceOnUse" x="57" y="52" width="47" height="47" fill="black">
<rect fill="white" x="57" y="52" width="47" height="47"/>
<path d="M103 75.5C103 87.9264 92.9264 98 80.5 98C68.0736 98 58 87.9264 58 75.5C58 63.0736 68.0736 53 80.5 53C92.9264 53 103 63.0736 103 75.5ZM62.7142 75.5C62.7142 85.3228 70.6772 93.2858 80.5 93.2858C90.3228 93.2858 98.2858 85.3228 98.2858 75.5C98.2858 65.6772 90.3228 57.7142 80.5 57.7142C70.6772 57.7142 62.7142 65.6772 62.7142 75.5Z"/>
</mask>
<path d="M103 75.5C103 87.9264 92.9264 98 80.5 98C68.0736 98 58 87.9264 58 75.5C58 63.0736 68.0736 53 80.5 53C92.9264 53 103 63.0736 103 75.5ZM62.7142 75.5C62.7142 85.3228 70.6772 93.2858 80.5 93.2858C90.3228 93.2858 98.2858 85.3228 98.2858 75.5C98.2858 65.6772 90.3228 57.7142 80.5 57.7142C70.6772 57.7142 62.7142 65.6772 62.7142 75.5Z" fill="#E5E7EB"/>
<path d="M103 75.5C103 87.9264 92.9264 98 80.5 98C68.0736 98 58 87.9264 58 75.5C58 63.0736 68.0736 53 80.5 53C92.9264 53 103 63.0736 103 75.5ZM62.7142 75.5C62.7142 85.3228 70.6772 93.2858 80.5 93.2858C90.3228 93.2858 98.2858 85.3228 98.2858 75.5C98.2858 65.6772 90.3228 57.7142 80.5 57.7142C70.6772 57.7142 62.7142 65.6772 62.7142 75.5Z" stroke="#9CA3AF" stroke-width="2" mask="url(#path-5-outside-1_1974_10030)"/>
<path d="M95.2198 93.1572C96.9021 91.7521 99.0345 89.711 100.807 86.9678C102.869 89.2876 103.173 92.7806 101.01 94.8158C98.7384 96.9535 95.1124 97.0562 92.7106 95.1239C92.7997 95.0525 92.9078 94.9686 93.0361 94.8705C93.1257 94.802 93.2232 94.7281 93.3279 94.6487C93.8239 94.2725 94.4807 93.7745 95.2198 93.1572ZM100.743 86.1045C100.736 86.1232 100.729 86.1427 100.722 86.163C100.712 86.1496 100.705 86.1364 100.7 86.1235C100.667 86.0404 100.725 85.9744 100.781 85.9978C100.77 86.0299 100.757 86.0654 100.743 86.1045Z" stroke="#9CA3AF"/>
<path d="M107.359 95.7903C107.625 95.495 107.857 95.2393 108.031 95.0483L123.443 108.891C125.235 110.502 125.383 113.26 123.773 115.053C122.163 116.845 119.405 116.993 117.612 115.383L102.211 101.55C102.428 101.317 102.731 100.99 103.079 100.612C103.776 99.8534 104.654 98.8839 105.369 98.0484C106.025 97.2821 106.774 96.441 107.359 95.7903Z" stroke="#9CA3AF"/>
<rect x="102.78" y="92.6518" width="5.5145" height="5.08085" transform="rotate(41.93 102.78 92.6518)" fill="#E5E7EB" stroke="#9CA3AF"/>
</svg>
