<svg width="38" height="38" viewBox="0 0 38 38" fill="none" xmlns="http://www.w3.org/2000/svg">
<rect width="38" height="38" rx="5.06594" fill="#F9FAFB"/>
<g clip-path="url(#clip0_10971_26065)">
<path fill-rule="evenodd" clip-rule="evenodd" d="M11.8787 10.8787C12.4413 10.3161 13.2044 10 14 10H24C24.5304 10 25.0391 10.2107 25.4142 10.5858C25.7893 10.9609 26 11.4696 26 12V14C26.5304 14 27.0391 14.2107 27.4142 14.5858C27.7893 14.9609 28 15.4696 28 16V17.5C28 18.0523 27.5523 18.5 27 18.5C26.4477 18.5 26 18.0523 26 17.5V16H25H14C13.6561 16 13.3182 15.9409 13 15.8284V25C13 25.2652 13.1054 25.5196 13.2929 25.7071C13.4804 25.8946 13.7348 26 14 26H21.5C22.0523 26 22.5 26.4477 22.5 27C22.5 27.5523 22.0523 28 21.5 28H14C13.2043 28 12.4413 27.6839 11.8787 27.1213C11.3161 26.5587 11 25.7956 11 25V13C11 12.2044 11.3161 11.4413 11.8787 10.8787ZM13 13C13 13.2652 13.1054 13.5196 13.2929 13.7071C13.4804 13.8946 13.7348 14 14 14H24L24 12L14 12C13.7348 12 13.4804 12.1054 13.2929 12.2929C13.1054 12.4804 13 12.7348 13 13ZM25.8944 20.4472C26.1414 19.9532 25.9412 19.3526 25.4472 19.1056C24.9532 18.8586 24.3526 19.0588 24.1056 19.5528L22.1056 23.5528C21.9506 23.8628 21.9671 24.2309 22.1493 24.5257C22.3316 24.8205 22.6534 25 23 25H25.382L24.1056 27.5528C23.8586 28.0468 24.0588 28.6474 24.5528 28.8944C25.0468 29.1414 25.6474 28.9412 25.8944 28.4472L27.8944 24.4472C28.0494 24.1372 28.0329 23.7691 27.8507 23.4743C27.6684 23.1795 27.3466 23 27 23H24.618L25.8944 20.4472Z" fill="#4B5563"/>
</g>
<defs>
<clipPath id="clip0_10971_26065">
<rect width="24" height="24" fill="white" transform="translate(8 7)"/>
</clipPath>
</defs>
</svg>
