<svg width="180" height="48" viewBox="0 0 180 48" fill="none" xmlns="http://www.w3.org/2000/svg">
<rect y="0.312988" width="42.9939" height="42.9939" rx="7.16564" fill="url(#paint0_linear_6346_12022)"/>
<path d="M29.0208 14.2861H13.973C12.7857 14.2861 11.8233 15.2486 11.8233 16.4358V27.1843C11.8233 28.3715 12.7857 29.334 13.973 29.334H29.0208C30.208 29.334 31.1705 28.3715 31.1705 27.1843V16.4358C31.1705 15.2486 30.208 14.2861 29.0208 14.2861Z" stroke="white" stroke-width="2.14969" stroke-linecap="round" stroke-linejoin="round"/>
<path d="M15.0479 17.5107H15.0582" stroke="white" stroke-width="2.14969" stroke-linecap="round" stroke-linejoin="round"/>
<path d="M18.2723 17.5107H18.2826" stroke="white" stroke-width="2.14969" stroke-linecap="round" stroke-linejoin="round"/>
<path d="M62.0043 40.1105C59.5321 40.1105 57.5329 39.3151 56.0067 37.7243C54.5019 36.1121 53.7495 34.1129 53.7495 31.7267C53.7495 29.3405 54.5019 27.3521 56.0067 25.7613C57.5329 24.149 59.5321 23.3429 62.0043 23.3429C64.0895 23.3429 65.863 23.9126 67.3248 25.0519C68.7866 26.1912 69.6035 27.6853 69.7754 29.534H65.8415C65.691 28.7386 65.2611 28.083 64.5517 27.567C63.8638 27.0296 63.0469 26.7609 62.101 26.7609C60.7682 26.7609 59.7256 27.2231 58.9732 28.1475C58.2423 29.0718 57.8769 30.2649 57.8769 31.7267C57.8769 33.1885 58.2531 34.3816 59.0055 35.3059C59.7579 36.2303 60.8112 36.6925 62.1655 36.6925C63.0899 36.6925 63.8853 36.456 64.5517 35.9831C65.2396 35.4887 65.6803 34.833 65.8737 34.0161H69.8722C69.6142 35.8004 68.7543 37.2622 67.2925 38.4015C65.8522 39.5408 64.0895 40.1105 62.0043 40.1105ZM86.1483 37.7566C84.5575 39.3259 82.5261 40.1105 80.0539 40.1105C77.5818 40.1105 75.5396 39.3259 73.9273 37.7566C72.3365 36.1658 71.5411 34.1559 71.5411 31.7267C71.5411 29.2975 72.3365 27.2983 73.9273 25.7291C75.5396 24.1383 77.5818 23.3429 80.0539 23.3429C82.5261 23.3429 84.5575 24.1383 86.1483 25.7291C87.7391 27.2983 88.5345 29.2975 88.5345 31.7267C88.5345 34.1559 87.7391 36.1658 86.1483 37.7566ZM80.0539 36.6925C81.3867 36.6925 82.4616 36.2303 83.2785 35.3059C84.1168 34.3816 84.536 33.1885 84.536 31.7267C84.536 30.2649 84.1168 29.0718 83.2785 28.1475C82.4616 27.2231 81.3867 26.7609 80.0539 26.7609C78.6996 26.7609 77.6033 27.2231 76.7649 28.1475C75.948 29.0718 75.5396 30.2649 75.5396 31.7267C75.5396 33.1885 75.948 34.3816 76.7649 35.3059C77.6033 36.2303 78.6996 36.6925 80.0539 36.6925ZM91.2111 39.8525V23.6009H95.1773V26.116C96.1231 24.2673 97.8106 23.3429 100.24 23.3429C102.067 23.3429 103.529 23.9448 104.625 25.1486C105.743 26.331 106.302 27.8787 106.302 29.792V39.8525H102.336V30.6304C102.336 29.5125 102.024 28.6096 101.401 27.9217C100.777 27.2123 99.9603 26.8576 98.95 26.8576C97.8321 26.8576 96.9185 27.2446 96.2091 28.0185C95.5212 28.7924 95.1773 29.7812 95.1773 30.9851V39.8525H91.2111ZM115.722 40.1105C113.744 40.1105 112.142 39.6053 110.917 38.595C109.713 37.5631 109.068 36.1766 108.982 34.4353H112.594C112.68 35.2092 113.002 35.8219 113.561 36.2733C114.12 36.7247 114.84 36.9505 115.722 36.9505C116.474 36.9505 117.087 36.7892 117.56 36.4668C118.054 36.1228 118.301 35.7036 118.301 35.2092C118.301 34.6503 118.076 34.2203 117.624 33.9194C117.194 33.5969 116.646 33.3927 115.98 33.3067C115.335 33.2207 114.625 33.0918 113.851 32.9198C113.077 32.7263 112.357 32.5006 111.691 32.2426C111.046 31.9847 110.498 31.5117 110.046 30.8238C109.616 30.1359 109.402 29.2546 109.402 28.1797C109.402 26.7609 109.95 25.6001 111.046 24.6972C112.164 23.7943 113.561 23.3429 115.238 23.3429C117.13 23.3429 118.677 23.8266 119.881 24.7939C121.085 25.7398 121.73 27.0081 121.816 28.5989H118.205C118.097 27.8895 117.764 27.3306 117.205 26.9221C116.646 26.5137 116.023 26.3095 115.335 26.3095C114.625 26.3095 114.056 26.4707 113.626 26.7932C113.196 27.0941 112.981 27.5133 112.981 28.0507C112.981 28.5237 113.142 28.8891 113.464 29.1471C113.808 29.405 114.238 29.5878 114.754 29.6952C115.292 29.8027 115.883 29.8887 116.528 29.9532C117.173 30.0177 117.818 30.1359 118.462 30.3079C119.107 30.4799 119.688 30.7271 120.204 31.0495C120.741 31.372 121.171 31.8772 121.494 32.5651C121.837 33.2315 122.009 34.0591 122.009 35.048C122.009 36.5743 121.429 37.7996 120.268 38.724C119.129 39.6483 117.613 40.1105 115.722 40.1105ZM138.453 37.7566C136.862 39.3259 134.83 40.1105 132.358 40.1105C129.886 40.1105 127.844 39.3259 126.232 37.7566C124.641 36.1658 123.845 34.1559 123.845 31.7267C123.845 29.2975 124.641 27.2983 126.232 25.7291C127.844 24.1383 129.886 23.3429 132.358 23.3429C134.83 23.3429 136.862 24.1383 138.453 25.7291C140.043 27.2983 140.839 29.2975 140.839 31.7267C140.839 34.1559 140.043 36.1658 138.453 37.7566ZM132.358 36.6925C133.691 36.6925 134.766 36.2303 135.583 35.3059C136.421 34.3816 136.84 33.1885 136.84 31.7267C136.84 30.2649 136.421 29.0718 135.583 28.1475C134.766 27.2231 133.691 26.7609 132.358 26.7609C131.004 26.7609 129.908 27.2231 129.069 28.1475C128.252 29.0718 127.844 30.2649 127.844 31.7267C127.844 33.1885 128.252 34.3816 129.069 35.3059C129.908 36.2303 131.004 36.6925 132.358 36.6925ZM143.741 39.8525V16.6359H147.675V39.8525H143.741ZM162.64 34.4353H166.509C166.208 36.1551 165.359 37.5309 163.962 38.5627C162.565 39.5946 160.866 40.1105 158.867 40.1105C156.331 40.1105 154.31 39.2721 152.805 37.5954C151.322 35.9186 150.58 33.9409 150.58 31.6622C150.58 29.362 151.279 27.4058 152.676 25.7935C154.073 24.1598 156.03 23.3429 158.545 23.3429C161.103 23.3429 163.059 24.1168 164.413 25.6646C165.768 27.2123 166.445 29.0503 166.445 31.1785C166.445 31.6515 166.423 32.1029 166.38 32.5328H154.385C154.536 33.8441 155.009 34.8867 155.804 35.6606C156.599 36.4345 157.62 36.8215 158.867 36.8215C160.952 36.8215 162.21 36.0261 162.64 34.4353ZM158.545 26.3095C156.245 26.3095 154.89 27.5133 154.482 29.921H162.479C162.393 28.8461 161.995 27.9755 161.286 27.3091C160.598 26.6427 159.684 26.3095 158.545 26.3095Z" fill="#F9FAFB"/>
<rect x="50.1595" y="0.312988" width="33.1411" height="16.1227" rx="8.06135" fill="#374151"/>
<path d="M61.3447 12.5546C60.9719 12.5546 60.6163 12.4803 60.278 12.3319C59.9396 12.18 59.6445 11.9677 59.3925 11.695C59.1439 11.4222 58.9661 11.1012 58.8591 10.7318L60.2262 10.3693C60.2987 10.642 60.4402 10.8543 60.6508 11.0062C60.8648 11.1547 61.0961 11.2289 61.3447 11.2289C61.5587 11.2289 61.7538 11.1771 61.9298 11.0736C62.1094 10.97 62.2509 10.8302 62.3545 10.6541C62.4615 10.4781 62.515 10.283 62.515 10.069C62.515 9.74792 62.4045 9.47347 62.1836 9.24563C61.9661 9.01433 61.6865 8.89868 61.3447 8.89868C61.2411 8.89868 61.141 8.91421 61.0444 8.94528C60.9477 8.9729 60.8545 9.0126 60.7647 9.06439L60.133 7.95623L62.5046 5.98848L62.6082 6.28882H59.1491V4.96317H63.8096V6.28882L61.9661 8.07015L61.9557 7.6766C62.3838 7.74219 62.7446 7.89236 63.038 8.12711C63.3349 8.35841 63.5593 8.64494 63.7112 8.98671C63.8665 9.32503 63.9442 9.68578 63.9442 10.069C63.9442 10.5385 63.8251 10.9614 63.5869 11.3377C63.3487 11.7105 63.0328 12.0074 62.6393 12.2283C62.2457 12.4458 61.8142 12.5546 61.3447 12.5546ZM65.3923 12.4199V4.96317H66.8008V12.4199H65.3923ZM68.3532 12.4199V4.96317H70.7663C70.825 4.96317 70.9458 4.9649 71.1288 4.96835C71.3117 4.9718 71.4878 4.98389 71.657 5.0046C72.2576 5.0771 72.7668 5.28595 73.1845 5.63117C73.6023 5.97639 73.9199 6.41482 74.1374 6.94646C74.3548 7.4781 74.4636 8.0598 74.4636 8.69155C74.4636 9.3233 74.3548 9.905 74.1374 10.4366C73.9199 10.9683 73.6023 11.4067 73.1845 11.7519C72.7668 12.0971 72.2576 12.306 71.657 12.3785C71.4878 12.3992 71.3117 12.4113 71.1288 12.4147C70.9458 12.4182 70.825 12.4199 70.7663 12.4199H68.3532ZM69.7824 11.0943H70.7663C70.8595 11.0943 70.9855 11.0926 71.1443 11.0891C71.3031 11.0822 71.4464 11.0667 71.5741 11.0425C71.8986 10.9769 72.1627 10.825 72.3664 10.5868C72.5735 10.3486 72.7254 10.0621 72.8221 9.72721C72.9222 9.39234 72.9722 9.04712 72.9722 8.69155C72.9722 8.31871 72.9205 7.96486 72.8169 7.63C72.7168 7.29513 72.5632 7.01205 72.356 6.78076C72.1489 6.54946 71.8882 6.40274 71.5741 6.3406C71.4464 6.31298 71.3031 6.29745 71.1443 6.294C70.9855 6.29054 70.8595 6.28882 70.7663 6.28882H69.7824V11.0943Z" fill="#F9FAFB"/>
<defs>
<linearGradient id="paint0_linear_6346_12022" x1="21.4969" y1="0.312988" x2="21.4969" y2="43.3069" gradientUnits="userSpaceOnUse">
<stop stop-color="#6366F1"/>
<stop offset="1" stop-color="#3946D0"/>
</linearGradient>
</defs>
</svg>
