<svg width="280" height="74" viewBox="0 0 280 74" fill="none" xmlns="http://www.w3.org/2000/svg">
<path d="M102.321 50.6823C98.3281 50.6823 95.0988 49.3975 92.6334 46.828C90.2028 44.2237 88.9875 40.9944 88.9875 37.14C88.9875 33.2857 90.2028 30.0738 92.6334 27.5042C95.0988 24.8999 98.3281 23.5978 102.321 23.5978C105.69 23.5978 108.554 24.518 110.916 26.3583C113.277 28.1987 114.596 30.612 114.874 33.5982H108.52C108.276 32.3134 107.582 31.2544 106.436 30.421C105.325 29.5529 104.005 29.1189 102.478 29.1189C100.325 29.1189 98.6407 29.8654 97.4253 31.3585C96.2447 32.8517 95.6544 34.7788 95.6544 37.14C95.6544 39.5013 96.2621 41.4284 97.4774 42.9216C98.6927 44.4147 100.394 45.1612 102.582 45.1612C104.075 45.1612 105.36 44.7793 106.436 44.0153C107.547 43.2167 108.259 42.1576 108.572 40.8381H115.03C114.614 43.7202 113.225 46.0814 110.863 47.9218C108.537 49.7621 105.69 50.6823 102.321 50.6823ZM141.321 46.8801C138.751 49.4149 135.47 50.6823 131.477 50.6823C127.483 50.6823 124.185 49.4149 121.58 46.8801C119.011 44.3105 117.726 41.0638 117.726 37.14C117.726 33.2163 119.011 29.987 121.58 27.4521C124.185 24.8826 127.483 23.5978 131.477 23.5978C135.47 23.5978 138.751 24.8826 141.321 27.4521C143.89 29.987 145.175 33.2163 145.175 37.14C145.175 41.0638 143.89 44.3105 141.321 46.8801ZM131.477 45.1612C133.63 45.1612 135.366 44.4147 136.685 42.9216C138.04 41.4284 138.717 39.5013 138.717 37.14C138.717 34.7788 138.04 32.8517 136.685 31.3585C135.366 29.8654 133.63 29.1189 131.477 29.1189C129.289 29.1189 127.518 29.8654 126.164 31.3585C124.844 32.8517 124.185 34.7788 124.185 37.14C124.185 39.5013 124.844 41.4284 126.164 42.9216C127.518 44.4147 129.289 45.1612 131.477 45.1612ZM149.499 50.2656V24.0145H155.905V28.0771C157.433 25.0909 160.159 23.5978 164.083 23.5978C167.034 23.5978 169.395 24.57 171.166 26.5146C172.972 28.4244 173.875 30.9245 173.875 34.0149V50.2656H167.468V35.3691C167.468 33.5635 166.965 32.1051 165.958 30.9939C164.951 29.8481 163.631 29.2751 161.999 29.2751C160.194 29.2751 158.718 29.9001 157.572 31.1502C156.461 32.4003 155.905 33.9975 155.905 35.9421V50.2656H149.499ZM189.09 50.6823C185.896 50.6823 183.309 49.8663 181.33 48.2343C179.385 46.5675 178.343 44.3279 178.204 41.5152H184.038C184.177 42.7653 184.698 43.7549 185.601 44.4841C186.503 45.2133 187.667 45.5779 189.09 45.5779C190.306 45.5779 191.295 45.3175 192.059 44.7966C192.858 44.2411 193.257 43.5639 193.257 42.7653C193.257 41.8625 192.893 41.168 192.163 40.6819C191.469 40.161 190.583 39.8311 189.507 39.6922C188.465 39.5533 187.319 39.345 186.069 39.0672C184.819 38.7547 183.656 38.3901 182.58 37.9734C181.538 37.5567 180.652 36.7928 179.923 35.6816C179.229 34.5705 178.882 33.1468 178.882 31.4106C178.882 29.1189 179.767 27.2438 181.538 25.7854C183.344 24.327 185.601 23.5978 188.309 23.5978C191.365 23.5978 193.865 24.3791 195.809 25.9416C197.754 27.4695 198.796 29.5182 198.935 32.0877H193.101C192.927 30.9419 192.389 30.039 191.486 29.3793C190.583 28.7195 189.576 28.3897 188.465 28.3897C187.319 28.3897 186.399 28.6501 185.705 29.1709C185.01 29.6571 184.663 30.3342 184.663 31.2023C184.663 31.9662 184.923 32.5565 185.444 32.9732C186 33.3899 186.694 33.685 187.528 33.8586C188.396 34.0323 189.351 34.1712 190.392 34.2753C191.434 34.3795 192.476 34.5705 193.518 34.8483C194.559 35.1261 195.497 35.5254 196.33 36.0462C197.198 36.5671 197.893 37.3831 198.414 38.4943C198.969 39.5707 199.247 40.9076 199.247 42.5049C199.247 44.9703 198.31 46.9495 196.434 48.4426C194.594 49.9357 192.146 50.6823 189.09 50.6823ZM225.807 46.8801C223.238 49.4149 219.957 50.6823 215.963 50.6823C211.97 50.6823 208.671 49.4149 206.067 46.8801C203.497 44.3105 202.213 41.0638 202.213 37.14C202.213 33.2163 203.497 29.987 206.067 27.4521C208.671 24.8826 211.97 23.5978 215.963 23.5978C219.957 23.5978 223.238 24.8826 225.807 27.4521C228.377 29.987 229.662 33.2163 229.662 37.14C229.662 41.0638 228.377 44.3105 225.807 46.8801ZM215.963 45.1612C218.116 45.1612 219.852 44.4147 221.172 42.9216C222.526 41.4284 223.203 39.5013 223.203 37.14C223.203 34.7788 222.526 32.8517 221.172 31.3585C219.852 29.8654 218.116 29.1189 215.963 29.1189C213.776 29.1189 212.005 29.8654 210.651 31.3585C209.331 32.8517 208.671 34.7788 208.671 37.14C208.671 39.5013 209.331 41.4284 210.651 42.9216C212.005 44.4147 213.776 45.1612 215.963 45.1612ZM234.35 50.2656V12.764H240.704V50.2656H234.35ZM264.877 41.5152H271.127C270.641 44.2931 269.27 46.5155 267.012 48.1822C264.755 49.8489 262.012 50.6823 258.783 50.6823C254.686 50.6823 251.422 49.3281 248.991 46.6196C246.595 43.9112 245.397 40.7166 245.397 37.0359C245.397 33.3204 246.525 30.1606 248.783 27.5563C251.04 24.9173 254.199 23.5978 258.262 23.5978C262.394 23.5978 265.554 24.8478 267.742 27.3479C269.929 29.8481 271.023 32.8169 271.023 36.2546C271.023 37.0185 270.988 37.7477 270.919 38.4422H251.543C251.786 40.5603 252.55 42.2444 253.835 43.4945C255.12 44.7445 256.769 45.3696 258.783 45.3696C262.151 45.3696 264.183 44.0848 264.877 41.5152ZM258.262 28.3897C254.547 28.3897 252.359 30.3342 251.699 34.2232H264.617C264.478 32.4871 263.835 31.0807 262.689 30.0043C261.578 28.9279 260.102 28.3897 258.262 28.3897Z" fill="#1F2937"/>
<rect x="4.62817" y="6.35938" width="61.9008" height="61.8594" rx="10.3192" fill="url(#paint0_linear_8450_20977)"/>
<path d="M43.9044 56.6074C51.0597 53.3109 56.0265 46.076 56.0265 37.681C56.0265 26.1783 46.7017 16.8535 35.1991 16.8535C23.6964 16.8535 14.3716 26.1783 14.3716 37.681C14.3716 45.2622 18.4222 51.8974 24.4772 55.5403V37.5577L24.4779 37.5584C24.5436 31.6934 29.3184 26.9592 35.1991 26.9592C41.1206 26.9592 45.9209 31.7595 45.9209 37.681C45.9209 43.6018 41.1217 48.4017 35.2012 48.4028L43.9044 56.6074Z" fill="white"/>
<defs>
<linearGradient id="paint0_linear_8450_20977" x1="35.5786" y1="6.35937" x2="35.5786" y2="68.2188" gradientUnits="userSpaceOnUse">
<stop stop-color="#6366F1"/>
<stop offset="1" stop-color="#3946D0"/>
</linearGradient>
</defs>
</svg>
