<svg width="542" height="128" viewBox="0 0 542 128" fill="none" xmlns="http://www.w3.org/2000/svg">
<path d="M185.929 97.8712C177.579 97.8712 170.827 95.1849 165.673 89.8123C160.59 84.3671 158.049 77.615 158.049 69.5561C158.049 61.4972 160.59 54.7814 165.673 49.4088C170.827 43.9636 177.579 41.241 185.929 41.241C192.971 41.241 198.961 43.165 203.898 47.0129C208.835 50.8609 211.594 55.9068 212.175 62.1506H198.888C198.38 59.4643 196.928 57.2499 194.532 55.5075C192.209 53.6924 189.45 52.7849 186.256 52.7849C181.754 52.7849 178.233 54.3458 175.692 57.4677C173.223 60.5897 171.989 64.6191 171.989 69.5561C171.989 74.4931 173.26 78.5226 175.801 81.6445C178.342 84.7664 181.899 86.3274 186.473 86.3274C189.595 86.3274 192.282 85.5287 194.532 83.9315C196.856 82.2616 198.344 80.0472 198.997 77.2883H212.501C211.63 83.3144 208.726 88.2514 203.789 92.0993C198.925 95.9473 192.971 97.8712 185.929 97.8712ZM267.472 89.9212C262.099 95.2212 255.238 97.8712 246.889 97.8712C238.54 97.8712 231.642 95.2212 226.197 89.9212C220.824 84.5486 218.138 77.7602 218.138 69.5561C218.138 61.352 220.824 54.5999 226.197 49.2999C231.642 43.9273 238.54 41.241 246.889 41.241C255.238 41.241 262.099 43.9273 267.472 49.2999C272.844 54.5999 275.531 61.352 275.531 69.5561C275.531 77.7602 272.844 84.5486 267.472 89.9212ZM246.889 86.3274C251.39 86.3274 255.02 84.7664 257.779 81.6445C260.611 78.5226 262.027 74.4931 262.027 69.5561C262.027 64.6191 260.611 60.5897 257.779 57.4677C255.02 54.3458 251.39 52.7849 246.889 52.7849C242.315 52.7849 238.612 54.3458 235.781 57.4677C233.022 60.5897 231.642 64.6191 231.642 69.5561C231.642 74.4931 233.022 78.5226 235.781 81.6445C238.612 84.7664 242.315 86.3274 246.889 86.3274ZM284.571 97V42.1122H297.966V50.6068C301.16 44.3629 306.86 41.241 315.064 41.241C321.235 41.241 326.172 43.2739 329.875 47.3396C333.65 51.3328 335.538 56.5602 335.538 63.0219V97H322.143V65.8534C322.143 62.078 321.09 59.0287 318.984 56.7054C316.879 54.3095 314.12 53.1116 310.708 53.1116C306.932 53.1116 303.847 54.4184 301.451 57.0321C299.127 59.6458 297.966 62.9856 297.966 67.0513V97H284.571ZM367.351 97.8712C360.672 97.8712 355.263 96.1651 351.125 92.7527C347.059 89.2678 344.881 84.5849 344.59 78.7041H356.788C357.078 81.3178 358.167 83.387 360.055 84.9116C361.943 86.4363 364.375 87.1986 367.351 87.1986C369.893 87.1986 371.962 86.6541 373.559 85.565C375.229 84.4034 376.064 82.9876 376.064 81.3178C376.064 79.4301 375.301 77.9781 373.777 76.9616C372.325 75.8726 370.473 75.1828 368.223 74.8924C366.045 74.602 363.649 74.1664 361.035 73.5856C358.421 72.9322 355.989 72.1698 353.738 71.2986C351.56 70.4274 349.709 68.8301 348.184 66.5068C346.732 64.1835 346.006 61.2068 346.006 57.5766C346.006 52.7849 347.858 48.8643 351.56 45.815C355.336 42.7657 360.055 41.241 365.718 41.241C372.107 41.241 377.334 42.8746 381.4 46.1417C385.466 49.3362 387.644 53.6198 387.934 58.9924H375.737C375.374 56.5965 374.249 54.7088 372.361 53.3294C370.473 51.9499 368.368 51.2602 366.045 51.2602C363.649 51.2602 361.725 51.8047 360.273 52.8938C358.821 53.9102 358.095 55.326 358.095 57.141C358.095 58.7383 358.639 59.9725 359.728 60.8438C360.89 61.715 362.342 62.3321 364.084 62.6951C365.899 63.0582 367.896 63.3486 370.074 63.5664C372.252 63.7842 374.43 64.1835 376.608 64.7643C378.786 65.3452 380.747 66.1801 382.489 67.2691C384.304 68.3582 385.756 70.0643 386.845 72.3876C388.007 74.6383 388.588 77.4335 388.588 80.7733C388.588 85.9281 386.627 90.0664 382.707 93.1884C378.859 96.3103 373.74 97.8712 367.351 97.8712ZM444.122 89.9212C438.75 95.2212 431.889 97.8712 423.539 97.8712C415.19 97.8712 408.293 95.2212 402.847 89.9212C397.475 84.5486 394.789 77.7602 394.789 69.5561C394.789 61.352 397.475 54.5999 402.847 49.2999C408.293 43.9273 415.19 41.241 423.539 41.241C431.889 41.241 438.75 43.9273 444.122 49.2999C449.495 54.5999 452.181 61.352 452.181 69.5561C452.181 77.7602 449.495 84.5486 444.122 89.9212ZM423.539 86.3274C428.041 86.3274 431.671 84.7664 434.43 81.6445C437.261 78.5226 438.677 74.4931 438.677 69.5561C438.677 64.6191 437.261 60.5897 434.43 57.4677C431.671 54.3458 428.041 52.7849 423.539 52.7849C418.965 52.7849 415.263 54.3458 412.431 57.4677C409.672 60.5897 408.293 64.6191 408.293 69.5561C408.293 74.4931 409.672 78.5226 412.431 81.6445C415.263 84.7664 418.965 86.3274 423.539 86.3274ZM461.983 97V18.5889H475.27V97H461.983ZM525.811 78.7041H538.88C537.863 84.5123 534.996 89.1589 530.276 92.6438C525.557 96.1288 519.822 97.8712 513.07 97.8712C504.502 97.8712 497.678 95.0397 492.596 89.3767C487.586 83.7137 485.081 77.0342 485.081 69.3383C485.081 61.5698 487.441 54.9629 492.16 49.5177C496.879 43.9999 503.486 41.241 511.981 41.241C520.62 41.241 527.227 43.8547 531.801 49.0821C536.375 54.3095 538.662 60.5171 538.662 67.7047C538.662 69.302 538.59 70.8267 538.444 72.2787H497.932C498.44 76.7075 500.037 80.2287 502.724 82.8424C505.41 85.4561 508.859 86.763 513.07 86.763C520.112 86.763 524.359 84.0767 525.811 78.7041ZM511.981 51.2602C504.212 51.2602 499.638 55.326 498.259 63.4575H525.267C524.976 59.8273 523.633 56.8869 521.237 54.6362C518.914 52.3855 515.829 51.2602 511.981 51.2602Z" fill="white"/>
<rect x="8" y="11" width="106.985" height="106.985" rx="17.8308" fill="url(#paint0_linear_7598_11952)"/>
<g clip-path="url(#clip0_7598_11952)">
<path d="M82.375 41.6245H38.625C35.1732 41.6245 32.375 44.4227 32.375 47.8745V79.1245C32.375 82.5763 35.1732 85.3745 38.625 85.3745H82.375C85.8268 85.3745 88.625 82.5763 88.625 79.1245V47.8745C88.625 44.4227 85.8268 41.6245 82.375 41.6245Z" stroke="white" stroke-width="6.25" stroke-linecap="round" stroke-linejoin="round"/>
<path d="M41.75 50.9995H41.7785" stroke="white" stroke-width="6.25" stroke-linecap="round" stroke-linejoin="round"/>
<path d="M51.125 50.9995H51.1535" stroke="white" stroke-width="6.25" stroke-linecap="round" stroke-linejoin="round"/>
</g>
<defs>
<linearGradient id="paint0_linear_7598_11952" x1="61.4924" y1="11" x2="61.4924" y2="117.985" gradientUnits="userSpaceOnUse">
<stop stop-color="#6366F1"/>
<stop offset="1" stop-color="#3946D0"/>
</linearGradient>
<clipPath id="clip0_7598_11952">
<rect width="75" height="75" fill="white" transform="translate(23 26)"/>
</clipPath>
</defs>
</svg>
