<svg width="262" height="1024" viewBox="0 0 262 1024" fill="none" xmlns="http://www.w3.org/2000/svg">
<rect width="256" height="1024" transform="translate(3)" fill="#111827"/>
<rect x="19" y="20.313" width="42.9939" height="42.9939" rx="7.16564" fill="url(#paint0_linear_6263_12085)"/>
<path d="M48.0208 34.2861H32.9729C31.7857 34.2861 30.8232 35.2486 30.8232 36.4358V47.1843C30.8232 48.3715 31.7857 49.334 32.9729 49.334H48.0208C49.208 49.334 50.1705 48.3715 50.1705 47.1843V36.4358C50.1705 35.2486 49.208 34.2861 48.0208 34.2861Z" stroke="white" stroke-width="2.14969" stroke-linecap="round" stroke-linejoin="round"/>
<path d="M34.0479 37.5107H34.0581" stroke="white" stroke-width="2.14969" stroke-linecap="round" stroke-linejoin="round"/>
<path d="M37.2722 37.5107H37.2825" stroke="white" stroke-width="2.14969" stroke-linecap="round" stroke-linejoin="round"/>
<path d="M81.0044 60.1105C78.5322 60.1105 76.533 59.3151 75.0067 57.7243C73.5019 56.1121 72.7496 54.1129 72.7496 51.7267C72.7496 49.3405 73.5019 47.3521 75.0067 45.7613C76.533 44.149 78.5322 43.3429 81.0044 43.3429C83.0896 43.3429 84.8631 43.9126 86.3249 45.0519C87.7867 46.1912 88.6035 47.6853 88.7755 49.534H84.8416C84.6911 48.7386 84.2612 48.083 83.5518 47.567C82.8639 47.0296 82.047 46.7609 81.1011 46.7609C79.7683 46.7609 78.7257 47.2231 77.9733 48.1475C77.2424 49.0718 76.877 50.2649 76.877 51.7267C76.877 53.1885 77.2532 54.3816 78.0056 55.3059C78.7579 56.2303 79.8113 56.6925 81.1656 56.6925C82.09 56.6925 82.8854 56.456 83.5518 55.9831C84.2397 55.4887 84.6803 54.833 84.8738 54.0161H88.8723C88.6143 55.8004 87.7544 57.2622 86.2926 58.4015C84.8523 59.5408 83.0896 60.1105 81.0044 60.1105ZM105.148 57.7566C103.558 59.3259 101.526 60.1105 99.054 60.1105C96.5818 60.1105 94.5396 59.3259 92.9274 57.7566C91.3366 56.1658 90.5412 54.1559 90.5412 51.7267C90.5412 49.2975 91.3366 47.2983 92.9274 45.7291C94.5396 44.1383 96.5818 43.3429 99.054 43.3429C101.526 43.3429 103.558 44.1383 105.148 45.7291C106.739 47.2983 107.535 49.2975 107.535 51.7267C107.535 54.1559 106.739 56.1658 105.148 57.7566ZM99.054 56.6925C100.387 56.6925 101.462 56.2303 102.279 55.3059C103.117 54.3816 103.536 53.1885 103.536 51.7267C103.536 50.2649 103.117 49.0718 102.279 48.1475C101.462 47.2231 100.387 46.7609 99.054 46.7609C97.6997 46.7609 96.6033 47.2231 95.765 48.1475C94.9481 49.0718 94.5396 50.2649 94.5396 51.7267C94.5396 53.1885 94.9481 54.3816 95.765 55.3059C96.6033 56.2303 97.6997 56.6925 99.054 56.6925ZM110.211 59.8525V43.6009H114.177V46.116C115.123 44.2673 116.811 43.3429 119.24 43.3429C121.067 43.3429 122.529 43.9448 123.625 45.1486C124.743 46.331 125.302 47.8787 125.302 49.792V59.8525H121.336V50.6304C121.336 49.5125 121.024 48.6096 120.401 47.9217C119.777 47.2123 118.96 46.8576 117.95 46.8576C116.832 46.8576 115.919 47.2446 115.209 48.0185C114.521 48.7924 114.177 49.7812 114.177 50.9851V59.8525H110.211ZM134.722 60.1105C132.744 60.1105 131.142 59.6053 129.917 58.595C128.713 57.5631 128.068 56.1766 127.982 54.4353H131.594C131.68 55.2092 132.002 55.8219 132.561 56.2733C133.12 56.7247 133.84 56.9505 134.722 56.9505C135.474 56.9505 136.087 56.7892 136.56 56.4668C137.054 56.1228 137.301 55.7036 137.301 55.2092C137.301 54.6503 137.076 54.2203 136.624 53.9194C136.194 53.5969 135.646 53.3927 134.98 53.3067C134.335 53.2207 133.625 53.0918 132.851 52.9198C132.078 52.7263 131.357 52.5006 130.691 52.2426C130.046 51.9847 129.498 51.5117 129.046 50.8238C128.617 50.1359 128.402 49.2546 128.402 48.1797C128.402 46.7609 128.95 45.6001 130.046 44.6972C131.164 43.7943 132.561 43.3429 134.238 43.3429C136.13 43.3429 137.678 43.8266 138.881 44.7939C140.085 45.7398 140.73 47.0081 140.816 48.5989H137.205C137.097 47.8895 136.764 47.3306 136.205 46.9221C135.646 46.5137 135.023 46.3095 134.335 46.3095C133.625 46.3095 133.056 46.4707 132.626 46.7932C132.196 47.0941 131.981 47.5133 131.981 48.0507C131.981 48.5237 132.142 48.8891 132.465 49.1471C132.808 49.405 133.238 49.5878 133.754 49.6952C134.292 49.8027 134.883 49.8887 135.528 49.9532C136.173 50.0177 136.818 50.1359 137.463 50.3079C138.107 50.4799 138.688 50.7271 139.204 51.0495C139.741 51.372 140.171 51.8772 140.494 52.5651C140.838 53.2315 141.01 54.0591 141.01 55.048C141.01 56.5743 140.429 57.7996 139.268 58.724C138.129 59.6483 136.613 60.1105 134.722 60.1105ZM157.453 57.7566C155.862 59.3259 153.83 60.1105 151.358 60.1105C148.886 60.1105 146.844 59.3259 145.232 57.7566C143.641 56.1658 142.846 54.1559 142.846 51.7267C142.846 49.2975 143.641 47.2983 145.232 45.7291C146.844 44.1383 148.886 43.3429 151.358 43.3429C153.83 43.3429 155.862 44.1383 157.453 45.7291C159.043 47.2983 159.839 49.2975 159.839 51.7267C159.839 54.1559 159.043 56.1658 157.453 57.7566ZM151.358 56.6925C152.691 56.6925 153.766 56.2303 154.583 55.3059C155.421 54.3816 155.84 53.1885 155.84 51.7267C155.84 50.2649 155.421 49.0718 154.583 48.1475C153.766 47.2231 152.691 46.7609 151.358 46.7609C150.004 46.7609 148.908 47.2231 148.069 48.1475C147.252 49.0718 146.844 50.2649 146.844 51.7267C146.844 53.1885 147.252 54.3816 148.069 55.3059C148.908 56.2303 150.004 56.6925 151.358 56.6925ZM162.741 59.8525V36.6359H166.675V59.8525H162.741ZM181.64 54.4353H185.509C185.208 56.1551 184.359 57.5309 182.962 58.5627C181.565 59.5946 179.866 60.1105 177.867 60.1105C175.331 60.1105 173.31 59.2721 171.805 57.5954C170.322 55.9186 169.58 53.9409 169.58 51.6622C169.58 49.362 170.279 47.4058 171.676 45.7935C173.073 44.1598 175.03 43.3429 177.545 43.3429C180.103 43.3429 182.059 44.1168 183.413 45.6646C184.768 47.2123 185.445 49.0503 185.445 51.1785C185.445 51.6515 185.423 52.1029 185.38 52.5328H173.385C173.536 53.8441 174.009 54.8867 174.804 55.6606C175.599 56.4345 176.62 56.8215 177.867 56.8215C179.952 56.8215 181.21 56.0261 181.64 54.4353ZM177.545 46.3095C175.245 46.3095 173.89 47.5133 173.482 49.921H181.479C181.393 48.8461 180.995 47.9755 180.286 47.3091C179.598 46.6427 178.684 46.3095 177.545 46.3095Z" fill="#F9FAFB"/>
<rect x="69.1594" y="20.313" width="33.1411" height="16.1227" rx="8.06135" fill="#374151"/>
<path d="M80.3447 32.5546C79.9718 32.5546 79.6163 32.4803 79.2779 32.3319C78.9396 32.18 78.6445 31.9677 78.3925 31.695C78.1439 31.4222 77.9661 31.1012 77.8591 30.7318L79.2262 30.3693C79.2987 30.642 79.4402 30.8543 79.6508 31.0062C79.8648 31.1547 80.0961 31.2289 80.3447 31.2289C80.5587 31.2289 80.7538 31.1771 80.9298 31.0736C81.1093 30.97 81.2509 30.8302 81.3544 30.6541C81.4615 30.4781 81.515 30.283 81.515 30.069C81.515 29.7479 81.4045 29.4735 81.1836 29.2456C80.9661 29.0143 80.6864 28.8987 80.3447 28.8987C80.2411 28.8987 80.141 28.9142 80.0443 28.9453C79.9477 28.9729 79.8545 29.0126 79.7647 29.0644L79.1329 27.9562L81.5046 25.9885L81.6082 26.2888H78.1491V24.9632H82.8095V26.2888L80.9661 28.0702L80.9557 27.6766C81.3838 27.7422 81.7445 27.8924 82.038 28.1271C82.3349 28.3584 82.5593 28.6449 82.7112 28.9867C82.8665 29.325 82.9442 29.6858 82.9442 30.069C82.9442 30.5385 82.8251 30.9614 82.5869 31.3377C82.3487 31.7105 82.0328 32.0074 81.6392 32.2283C81.2457 32.4458 80.8142 32.5546 80.3447 32.5546ZM84.3922 32.4199V24.9632H85.8007V32.4199H84.3922ZM87.3532 32.4199V24.9632H89.7663C89.8249 24.9632 89.9458 24.9649 90.1287 24.9684C90.3117 24.9718 90.4878 24.9839 90.6569 25.0046C91.2576 25.0771 91.7668 25.286 92.1845 25.6312C92.6022 25.9764 92.9198 26.4148 93.1373 26.9465C93.3548 27.4781 93.4636 28.0598 93.4636 28.6915C93.4636 29.3233 93.3548 29.905 93.1373 30.4366C92.9198 30.9683 92.6022 31.4067 92.1845 31.7519C91.7668 32.0971 91.2576 32.306 90.6569 32.3785C90.4878 32.3992 90.3117 32.4113 90.1287 32.4147C89.9458 32.4182 89.8249 32.4199 89.7663 32.4199H87.3532ZM88.7824 31.0943H89.7663C89.8595 31.0943 89.9855 31.0926 90.1443 31.0891C90.3031 31.0822 90.4463 31.0667 90.5741 31.0425C90.8986 30.9769 91.1627 30.825 91.3664 30.5868C91.5735 30.3486 91.7254 30.0621 91.822 29.7272C91.9222 29.3923 91.9722 29.0471 91.9722 28.6915C91.9722 28.3187 91.9204 27.9649 91.8169 27.63C91.7168 27.2951 91.5631 27.0121 91.356 26.7808C91.1489 26.5495 90.8882 26.4027 90.5741 26.3406C90.4463 26.313 90.3031 26.2974 90.1443 26.294C89.9855 26.2905 89.8595 26.2888 89.7663 26.2888H88.7824V31.0943Z" fill="#F9FAFB"/>
<g filter="url(#filter0_d_6263_12085)">
<path d="M42.5 114C42.5 118.971 38.4706 123 33.5 123M42.5 114C42.5 109.029 38.4706 105 33.5 105M42.5 114H24.5M33.5 123C28.5294 123 24.5 118.971 24.5 114M33.5 123C35.1569 123 36.5 118.971 36.5 114C36.5 109.029 35.1569 105 33.5 105M33.5 123C31.8431 123 30.5 118.971 30.5 114C30.5 109.029 31.8431 105 33.5 105M24.5 114C24.5 109.029 28.5294 105 33.5 105" stroke="#6B7280" stroke-width="2" stroke-linecap="round" stroke-linejoin="round"/>
<path d="M64.1705 108.364V120H62.5568L56.642 111.466H56.5341V120H54.7784V108.364H56.4034L62.3239 116.909H62.4318V108.364H64.1705ZM70.2713 120.176C69.4531 120.176 68.7391 119.989 68.1293 119.614C67.5194 119.239 67.0459 118.714 66.7088 118.04C66.3717 117.366 66.2031 116.578 66.2031 115.676C66.2031 114.771 66.3717 113.979 66.7088 113.301C67.0459 112.623 67.5194 112.097 68.1293 111.722C68.7391 111.347 69.4531 111.159 70.2713 111.159C71.0895 111.159 71.8035 111.347 72.4134 111.722C73.0232 112.097 73.4967 112.623 73.8338 113.301C74.1709 113.979 74.3395 114.771 74.3395 115.676C74.3395 116.578 74.1709 117.366 73.8338 118.04C73.4967 118.714 73.0232 119.239 72.4134 119.614C71.8035 119.989 71.0895 120.176 70.2713 120.176ZM70.277 118.75C70.8073 118.75 71.2467 118.61 71.5952 118.33C71.9437 118.049 72.2012 117.676 72.3679 117.21C72.5384 116.744 72.6236 116.231 72.6236 115.67C72.6236 115.114 72.5384 114.602 72.3679 114.136C72.2012 113.667 71.9437 113.29 71.5952 113.006C71.2467 112.722 70.8073 112.58 70.277 112.58C69.7429 112.58 69.2997 112.722 68.9474 113.006C68.599 113.29 68.3395 113.667 68.169 114.136C68.0024 114.602 67.919 115.114 67.919 115.67C67.919 116.231 68.0024 116.744 68.169 117.21C68.3395 117.676 68.599 118.049 68.9474 118.33C69.2997 118.61 69.7429 118.75 70.277 118.75ZM81.5895 120H79.7259L83.9134 108.364H85.9418L90.1293 120H88.2656L84.9759 110.477H84.8849L81.5895 120ZM81.902 115.443H87.9474V116.92H81.902V115.443ZM91.6733 123.273V111.273H93.3324V112.688H93.4744C93.5729 112.506 93.715 112.295 93.9006 112.057C94.0862 111.818 94.3438 111.61 94.6733 111.432C95.0028 111.25 95.4384 111.159 95.9801 111.159C96.6847 111.159 97.3134 111.337 97.8665 111.693C98.4195 112.049 98.8532 112.562 99.1676 113.233C99.4858 113.903 99.6449 114.71 99.6449 115.653C99.6449 116.597 99.4877 117.405 99.1733 118.08C98.8589 118.75 98.4271 119.267 97.8778 119.631C97.3286 119.991 96.7017 120.17 95.9972 120.17C95.4669 120.17 95.0331 120.081 94.696 119.903C94.3627 119.725 94.1013 119.517 93.9119 119.278C93.7225 119.04 93.5767 118.828 93.4744 118.642H93.3722V123.273H91.6733ZM93.3381 115.636C93.3381 116.25 93.4271 116.788 93.6051 117.25C93.7831 117.712 94.0407 118.074 94.3778 118.335C94.715 118.593 95.1278 118.722 95.6165 118.722C96.1241 118.722 96.5483 118.587 96.8892 118.318C97.2301 118.045 97.4877 117.676 97.6619 117.21C97.84 116.744 97.929 116.22 97.929 115.636C97.929 115.061 97.8419 114.544 97.6676 114.085C97.4972 113.627 97.2396 113.265 96.8949 113C96.554 112.735 96.1278 112.602 95.6165 112.602C95.1241 112.602 94.7074 112.729 94.3665 112.983C94.0294 113.237 93.7737 113.591 93.5994 114.045C93.4252 114.5 93.3381 115.03 93.3381 115.636ZM101.548 123.273V111.273H103.207V112.688H103.349C103.448 112.506 103.59 112.295 103.776 112.057C103.961 111.818 104.219 111.61 104.548 111.432C104.878 111.25 105.313 111.159 105.855 111.159C106.56 111.159 107.188 111.337 107.741 111.693C108.295 112.049 108.728 112.562 109.043 113.233C109.361 113.903 109.52 114.71 109.52 115.653C109.52 116.597 109.363 117.405 109.048 118.08C108.734 118.75 108.302 119.267 107.753 119.631C107.204 119.991 106.577 120.17 105.872 120.17C105.342 120.17 104.908 120.081 104.571 119.903C104.238 119.725 103.976 119.517 103.787 119.278C103.598 119.04 103.452 118.828 103.349 118.642H103.247V123.273H101.548ZM103.213 115.636C103.213 116.25 103.302 116.788 103.48 117.25C103.658 117.712 103.916 118.074 104.253 118.335C104.59 118.593 105.003 118.722 105.491 118.722C105.999 118.722 106.423 118.587 106.764 118.318C107.105 118.045 107.363 117.676 107.537 117.21C107.715 116.744 107.804 116.22 107.804 115.636C107.804 115.061 107.717 114.544 107.543 114.085C107.372 113.627 107.115 113.265 106.77 113C106.429 112.735 106.003 112.602 105.491 112.602C104.999 112.602 104.582 112.729 104.241 112.983C103.904 113.237 103.649 113.591 103.474 114.045C103.3 114.5 103.213 115.03 103.213 115.636ZM113.122 108.364V120H111.423V108.364H113.122ZM115.408 120V111.273H117.107V120H115.408ZM116.266 109.926C115.97 109.926 115.716 109.828 115.504 109.631C115.296 109.43 115.192 109.191 115.192 108.915C115.192 108.634 115.296 108.396 115.504 108.199C115.716 107.998 115.97 107.898 116.266 107.898C116.561 107.898 116.813 107.998 117.021 108.199C117.233 108.396 117.339 108.634 117.339 108.915C117.339 109.191 117.233 109.43 117.021 109.631C116.813 109.828 116.561 109.926 116.266 109.926ZM123.068 120.176C122.223 120.176 121.496 119.985 120.886 119.602C120.28 119.216 119.814 118.684 119.489 118.006C119.163 117.328 119 116.551 119 115.676C119 114.79 119.167 114.008 119.5 113.33C119.833 112.648 120.303 112.116 120.909 111.733C121.515 111.35 122.229 111.159 123.051 111.159C123.714 111.159 124.305 111.282 124.824 111.528C125.343 111.771 125.761 112.112 126.08 112.551C126.402 112.991 126.593 113.504 126.653 114.091H125C124.909 113.682 124.701 113.33 124.375 113.034C124.053 112.739 123.621 112.591 123.08 112.591C122.606 112.591 122.191 112.716 121.835 112.966C121.483 113.212 121.208 113.564 121.011 114.023C120.814 114.477 120.716 115.015 120.716 115.636C120.716 116.273 120.813 116.822 121.006 117.284C121.199 117.746 121.472 118.104 121.824 118.358C122.18 118.612 122.598 118.739 123.08 118.739C123.402 118.739 123.693 118.68 123.955 118.562C124.22 118.441 124.441 118.269 124.619 118.045C124.801 117.822 124.928 117.553 125 117.239H126.653C126.593 117.803 126.409 118.307 126.102 118.75C125.795 119.193 125.384 119.542 124.869 119.795C124.358 120.049 123.758 120.176 123.068 120.176ZM131.01 120.193C130.457 120.193 129.957 120.091 129.51 119.886C129.063 119.678 128.709 119.377 128.447 118.983C128.19 118.589 128.061 118.106 128.061 117.534C128.061 117.042 128.156 116.636 128.345 116.318C128.535 116 128.79 115.748 129.112 115.562C129.434 115.377 129.794 115.237 130.192 115.142C130.589 115.047 130.995 114.975 131.408 114.926C131.93 114.866 132.355 114.816 132.68 114.778C133.006 114.737 133.243 114.67 133.391 114.58C133.538 114.489 133.612 114.341 133.612 114.136V114.097C133.612 113.6 133.472 113.216 133.192 112.943C132.915 112.67 132.502 112.534 131.953 112.534C131.381 112.534 130.93 112.661 130.601 112.915C130.275 113.165 130.05 113.443 129.925 113.75L128.328 113.386C128.518 112.856 128.794 112.428 129.158 112.102C129.525 111.773 129.947 111.534 130.425 111.386C130.902 111.235 131.404 111.159 131.93 111.159C132.279 111.159 132.648 111.201 133.038 111.284C133.432 111.364 133.8 111.511 134.141 111.727C134.485 111.943 134.768 112.252 134.987 112.653C135.207 113.051 135.317 113.568 135.317 114.205V120H133.658V118.807H133.589C133.48 119.027 133.315 119.242 133.095 119.455C132.875 119.667 132.593 119.843 132.249 119.983C131.904 120.123 131.491 120.193 131.01 120.193ZM131.379 118.83C131.849 118.83 132.25 118.737 132.584 118.551C132.921 118.366 133.177 118.123 133.351 117.824C133.529 117.521 133.618 117.197 133.618 116.852V115.727C133.557 115.788 133.44 115.845 133.266 115.898C133.095 115.947 132.9 115.991 132.68 116.028C132.461 116.062 132.247 116.095 132.038 116.125C131.83 116.152 131.656 116.174 131.516 116.193C131.186 116.235 130.885 116.305 130.612 116.403C130.343 116.502 130.127 116.644 129.964 116.83C129.805 117.011 129.726 117.254 129.726 117.557C129.726 117.977 129.881 118.295 130.192 118.511C130.502 118.723 130.898 118.83 131.379 118.83ZM141.653 111.273V112.636H136.886V111.273H141.653ZM138.165 109.182H139.864V117.438C139.864 117.767 139.913 118.015 140.011 118.182C140.11 118.345 140.237 118.456 140.392 118.517C140.551 118.574 140.723 118.602 140.909 118.602C141.045 118.602 141.165 118.593 141.267 118.574C141.369 118.555 141.449 118.54 141.506 118.528L141.812 119.932C141.714 119.97 141.574 120.008 141.392 120.045C141.21 120.087 140.983 120.11 140.71 120.114C140.263 120.121 139.847 120.042 139.46 119.875C139.074 119.708 138.761 119.451 138.523 119.102C138.284 118.754 138.165 118.316 138.165 117.79V109.182ZM143.533 120V111.273H145.232V120H143.533ZM144.391 109.926C144.095 109.926 143.841 109.828 143.629 109.631C143.421 109.43 143.317 109.191 143.317 108.915C143.317 108.634 143.421 108.396 143.629 108.199C143.841 107.998 144.095 107.898 144.391 107.898C144.686 107.898 144.938 107.998 145.146 108.199C145.358 108.396 145.464 108.634 145.464 108.915C145.464 109.191 145.358 109.43 145.146 109.631C144.938 109.828 144.686 109.926 144.391 109.926ZM151.193 120.176C150.375 120.176 149.661 119.989 149.051 119.614C148.441 119.239 147.968 118.714 147.631 118.04C147.294 117.366 147.125 116.578 147.125 115.676C147.125 114.771 147.294 113.979 147.631 113.301C147.968 112.623 148.441 112.097 149.051 111.722C149.661 111.347 150.375 111.159 151.193 111.159C152.011 111.159 152.725 111.347 153.335 111.722C153.945 112.097 154.419 112.623 154.756 113.301C155.093 113.979 155.261 114.771 155.261 115.676C155.261 116.578 155.093 117.366 154.756 118.04C154.419 118.714 153.945 119.239 153.335 119.614C152.725 119.989 152.011 120.176 151.193 120.176ZM151.199 118.75C151.729 118.75 152.169 118.61 152.517 118.33C152.866 118.049 153.123 117.676 153.29 117.21C153.46 116.744 153.545 116.231 153.545 115.67C153.545 115.114 153.46 114.602 153.29 114.136C153.123 113.667 152.866 113.29 152.517 113.006C152.169 112.722 151.729 112.58 151.199 112.58C150.665 112.58 150.222 112.722 149.869 113.006C149.521 113.29 149.261 113.667 149.091 114.136C148.924 114.602 148.841 115.114 148.841 115.67C148.841 116.231 148.924 116.744 149.091 117.21C149.261 117.676 149.521 118.049 149.869 118.33C150.222 118.61 150.665 118.75 151.199 118.75ZM158.857 114.818V120H157.158V111.273H158.788V112.693H158.896C159.097 112.231 159.411 111.86 159.839 111.58C160.271 111.299 160.815 111.159 161.47 111.159C162.065 111.159 162.586 111.284 163.033 111.534C163.48 111.78 163.826 112.148 164.072 112.636C164.319 113.125 164.442 113.729 164.442 114.449V120H162.743V114.653C162.743 114.021 162.578 113.527 162.249 113.17C161.919 112.811 161.466 112.631 160.891 112.631C160.497 112.631 160.146 112.716 159.839 112.886C159.536 113.057 159.296 113.307 159.118 113.636C158.944 113.962 158.857 114.356 158.857 114.818ZM173.26 113.403L171.72 113.676C171.656 113.479 171.554 113.292 171.413 113.114C171.277 112.936 171.091 112.79 170.857 112.676C170.622 112.562 170.328 112.506 169.976 112.506C169.495 112.506 169.093 112.614 168.771 112.83C168.449 113.042 168.288 113.316 168.288 113.653C168.288 113.945 168.396 114.18 168.612 114.358C168.828 114.536 169.177 114.682 169.658 114.795L171.044 115.114C171.847 115.299 172.446 115.585 172.839 115.972C173.233 116.358 173.43 116.86 173.43 117.477C173.43 118 173.279 118.466 172.976 118.875C172.677 119.28 172.258 119.598 171.72 119.83C171.186 120.061 170.567 120.176 169.862 120.176C168.885 120.176 168.088 119.968 167.47 119.551C166.853 119.131 166.474 118.534 166.334 117.761L167.976 117.511C168.078 117.939 168.288 118.263 168.607 118.483C168.925 118.699 169.339 118.807 169.851 118.807C170.408 118.807 170.853 118.691 171.186 118.46C171.519 118.225 171.686 117.939 171.686 117.602C171.686 117.33 171.584 117.1 171.379 116.915C171.179 116.729 170.87 116.589 170.453 116.494L168.976 116.17C168.161 115.985 167.559 115.689 167.169 115.284C166.783 114.879 166.589 114.366 166.589 113.744C166.589 113.229 166.733 112.778 167.021 112.392C167.309 112.006 167.707 111.705 168.214 111.489C168.722 111.269 169.304 111.159 169.959 111.159C170.902 111.159 171.644 111.364 172.186 111.773C172.728 112.178 173.086 112.722 173.26 113.403Z" fill="#6B7280"/>
<path d="M225.167 111.5L228.5 108.167L231.833 111.5M231.833 116.5L228.5 119.833L225.167 116.5" stroke="#6B7280" stroke-width="2" stroke-linecap="round" stroke-linejoin="round"/>
</g>
<path d="M4.5 84H258.5V82H4.5V84ZM258.5 145H4.5V147H258.5V145Z" fill="#374151" mask="url(#path-8-inside-1_6263_12085)"/>
<defs>
<filter id="filter0_d_6263_12085" x="9.5" y="92" width="244" height="46" filterUnits="userSpaceOnUse" color-interpolation-filters="sRGB">
<feFlood flood-opacity="0" result="BackgroundImageFix"/>
<feColorMatrix in="SourceAlpha" type="matrix" values="0 0 0 0 0 0 0 0 0 0 0 0 0 0 0 0 0 0 127 0" result="hardAlpha"/>
<feOffset dy="1"/>
<feGaussianBlur stdDeviation="1"/>
<feColorMatrix type="matrix" values="0 0 0 0 0 0 0 0 0 0 0 0 0 0 0 0 0 0 0.05 0"/>
<feBlend mode="normal" in2="BackgroundImageFix" result="effect1_dropShadow_6263_12085"/>
<feBlend mode="normal" in="SourceGraphic" in2="effect1_dropShadow_6263_12085" result="shape"/>
</filter>
<linearGradient id="paint0_linear_6263_12085" x1="40.4969" y1="20.313" x2="40.4969" y2="63.3069" gradientUnits="userSpaceOnUse">
<stop stop-color="#6366F1"/>
<stop offset="1" stop-color="#3946D0"/>
</linearGradient>
</defs>
</svg>
