<svg width="720" height="1080" viewBox="0 0 720 1080" fill="none" xmlns="http://www.w3.org/2000/svg">
<rect x="468.299" y="273.174" width="108.766" height="108.766" rx="54.383" fill="#818CF8"/>
<mask id="path-2-inside-1_12407_35052" fill="white">
<path fill-rule="evenodd" clip-rule="evenodd" d="M469.234 760.678C469.234 790.713 493.582 815.061 523.617 815.061C553.652 815.061 578 790.713 578 760.678V651.912C578 621.877 553.652 597.529 523.617 597.529C493.582 597.529 469.234 621.877 469.234 651.912V760.678ZM497.708 755.595C497.708 770.556 509.836 782.684 524.797 782.684C539.758 782.684 551.886 770.556 551.886 755.595V658.074C551.886 643.113 539.758 630.984 524.797 630.984C509.836 630.984 497.708 643.113 497.708 658.074V755.595Z"/>
</mask>
<path fill-rule="evenodd" clip-rule="evenodd" d="M469.234 760.678C469.234 790.713 493.582 815.061 523.617 815.061C553.652 815.061 578 790.713 578 760.678V651.912C578 621.877 553.652 597.529 523.617 597.529C493.582 597.529 469.234 621.877 469.234 651.912V760.678ZM497.708 755.595C497.708 770.556 509.836 782.684 524.797 782.684C539.758 782.684 551.886 770.556 551.886 755.595V658.074C551.886 643.113 539.758 630.984 524.797 630.984C509.836 630.984 497.708 643.113 497.708 658.074V755.595Z" fill="#818CF8" fill-opacity="0.4"/>
<path d="M523.617 775.034C515.689 775.034 509.262 768.607 509.262 760.678H429.206C429.206 812.82 471.475 855.089 523.617 855.089V775.034ZM537.972 760.678C537.972 768.607 531.545 775.034 523.617 775.034V855.089C575.759 855.089 618.028 812.82 618.028 760.678H537.972ZM537.972 651.912V760.678H618.028V651.912H537.972ZM523.617 637.557C531.545 637.557 537.972 643.984 537.972 651.912H618.028C618.028 599.771 575.759 557.501 523.617 557.501V637.557ZM509.262 651.912C509.262 643.984 515.689 637.557 523.617 637.557V557.501C471.475 557.501 429.206 599.771 429.206 651.912H509.262ZM509.262 760.678V651.912H429.206V760.678H509.262ZM524.797 742.656C531.943 742.656 537.736 748.449 537.736 755.595H457.68C457.68 792.663 487.729 822.712 524.797 822.712V742.656ZM511.858 755.595C511.858 748.449 517.651 742.656 524.797 742.656V822.712C561.865 822.712 591.914 792.663 591.914 755.595H511.858ZM511.858 658.074V755.595H591.914V658.074H511.858ZM524.797 671.012C517.651 671.012 511.858 665.22 511.858 658.074H591.914C591.914 621.006 561.865 590.957 524.797 590.957V671.012ZM537.736 658.074C537.736 665.22 531.943 671.012 524.797 671.012V590.957C487.729 590.957 457.68 621.006 457.68 658.074H537.736ZM537.736 755.595V658.074H457.68V755.595H537.736Z" fill="#818CF8" fill-opacity="0.4" mask="url(#path-2-inside-1_12407_35052)"/>
<path d="M306.984 377.738H195.981C167.539 377.738 144.481 354.681 144.481 326.238C144.481 297.795 167.539 274.738 195.981 274.738H306.984C335.426 274.738 358.484 297.795 358.484 326.238C358.484 354.681 335.426 377.738 306.984 377.738Z" stroke="#818CF8" stroke-opacity="0.55" stroke-width="3.00209"/>
<rect x="142" y="379.532" width="108.766" height="108.766" rx="54.383" fill="#818CF8"/>
<rect x="164.384" y="729.084" width="62.2576" height="62.2576" rx="31.1288" stroke="#818CF8" stroke-width="3.00209"/>
<path fill-rule="evenodd" clip-rule="evenodd" d="M522.682 162C492.647 162 468.299 186.348 468.299 216.383C468.299 246.418 492.647 270.766 522.682 270.766C552.717 270.766 577.065 246.418 577.065 216.383V162H522.682ZM523.551 183.753C505.531 183.753 490.922 198.362 490.922 216.383C490.922 234.404 505.531 249.013 523.551 249.013C541.572 249.013 556.181 234.404 556.181 216.383C556.181 198.362 541.572 183.753 523.551 183.753Z" fill="#818CF8" fill-opacity="0.4"/>
<path fill-rule="evenodd" clip-rule="evenodd" d="M250.766 597.935C250.767 658.005 299.463 706.701 359.532 706.701C419.602 706.701 468.298 658.005 468.299 597.935H408.257C408.256 624.844 386.442 646.659 359.532 646.659C332.623 646.659 310.809 624.844 310.808 597.935H250.766Z" fill="#818CF8" fill-opacity="0.55"/>
<path d="M142 488.298H250.766V597.064V597.064C190.696 597.064 142 548.368 142 488.298V488.298Z" fill="#818CF8" fill-opacity="0.55"/>
<path d="M142 597.064H250.766V705.83V705.83C190.696 705.83 142 657.134 142 597.064V597.064Z" fill="#818CF8"/>
<path d="M472.834 380.969H364.068V272.203V272.203C424.138 272.203 472.834 320.899 472.834 380.969V380.969Z" fill="#818CF8"/>
<path d="M468.299 488.298H577.065V597.064V597.064C516.995 597.064 468.299 548.368 468.299 488.298V488.298Z" fill="#818CF8"/>
<path d="M577.064 379.532V488.298H468.298V488.298C468.298 428.229 516.995 379.532 577.064 379.532V379.532Z" fill="#818CF8" fill-opacity="0.4"/>
<rect x="143.501" y="707.331" width="105.764" height="105.764" rx="52.882" stroke="#818CF8" stroke-width="3.00209"/>
<path fill-rule="evenodd" clip-rule="evenodd" d="M192.903 814.596C164.79 814.596 142 837.386 142 865.499C142 893.612 164.79 916.401 192.903 916.401H196.818V814.597H200.063C199.997 814.597 199.93 814.596 199.864 814.596H192.903Z" fill="#818CF8" fill-opacity="0.55"/>
<path fill-rule="evenodd" clip-rule="evenodd" d="M413.915 815.467C443.95 815.467 468.298 791.119 468.298 761.084C468.298 731.049 443.95 706.701 413.915 706.701H305.149C275.114 706.701 250.766 731.049 250.766 761.084C250.766 791.119 275.114 815.467 305.149 815.467H413.915ZM363.013 761.084C363.013 734.893 384.244 713.662 410.435 713.662H412.272L412.359 713.662H411.74V808.506H410.435C384.244 808.506 363.013 787.274 363.013 761.084Z" fill="#818CF8"/>
<path fill-rule="evenodd" clip-rule="evenodd" d="M301.669 276.857C275.479 276.857 254.247 298.088 254.247 324.279C254.247 350.469 275.479 371.701 301.669 371.701H302.974V276.857H303.658C303.608 276.857 303.557 276.857 303.506 276.857H301.669Z" fill="#818CF8" fill-opacity="0.55"/>
<path fill-rule="evenodd" clip-rule="evenodd" d="M250.766 815.467H246.851C218.738 815.467 195.948 838.257 195.948 866.369C195.948 894.482 218.738 917.272 246.851 917.272H253.812C253.843 917.272 253.874 917.272 253.905 917.272H250.766V815.467Z" fill="#818CF8"/>
<mask id="mask0_12407_35052" style="mask-type:alpha" maskUnits="userSpaceOnUse" x="250" y="380" width="219" height="218">
<path d="M250.766 488.672C250.766 429.41 298.807 380.403 358.069 380.403H468.299V488.69C468.299 549.024 419.388 597.935 359.053 597.935V597.935C299.248 597.935 250.766 548.477 250.766 488.672V488.672Z" fill="#C7D2FE"/>
</mask>
<g mask="url(#mask0_12407_35052)">
<path d="M402.004 582.904C436.04 567.469 459.665 533.595 459.665 494.29C459.665 440.433 415.311 396.774 360.596 396.774C305.882 396.774 261.527 440.433 261.527 494.29C261.527 529.785 280.794 560.851 309.596 577.908V493.713L309.599 493.716C309.912 466.255 332.624 444.089 360.596 444.089C388.763 444.089 411.596 466.565 411.596 494.29C411.596 522.011 388.768 544.484 360.606 544.49L402.004 582.904Z" fill="#818CF8"/>
</g>
</svg>