<svg width="20" height="21" viewBox="0 0 20 21" fill="none" xmlns="http://www.w3.org/2000/svg">
<path d="M10 2.86834C10.7329 2.03792 11.8053 1.51416 13 1.51416C15.2091 1.51416 17 3.30502 17 5.51416C17 7.7233 15.2091 9.51416 13 9.51416C11.8053 9.51416 10.7329 8.9904 10 8.15998M13 19.5142H1V18.5142C1 15.2005 3.68629 12.5142 7 12.5142C10.3137 12.5142 13 15.2005 13 18.5142V19.5142ZM13 19.5142H19V18.5142C19 15.2005 16.3137 12.5142 13 12.5142C11.9071 12.5142 10.8825 12.8063 10 13.3169M11 5.51416C11 7.7233 9.20914 9.51416 7 9.51416C4.79086 9.51416 3 7.7233 3 5.51416C3 3.30502 4.79086 1.51416 7 1.51416C9.20914 1.51416 11 3.30502 11 5.51416Z" stroke="#4338CA" stroke-width="2" stroke-linecap="round" stroke-linejoin="round"/>
</svg>
