<svg width="19" height="19" viewBox="0 0 19 19" fill="none" xmlns="http://www.w3.org/2000/svg">
<path d="M17.5 1.51416H18.5C18.5 1.24894 18.3947 0.99459 18.2071 0.807053C18.0196 0.619517 17.7652 0.51416 17.5 0.51416V1.51416ZM16.5 13.5142C16.5 13.7794 16.6054 14.0337 16.7929 14.2213C16.9804 14.4088 17.2348 14.5142 17.5 14.5142C17.7652 14.5142 18.0196 14.4088 18.2071 14.2213C18.3947 14.0337 18.5 13.7794 18.5 13.5142H16.5ZM5.50002 0.51416C5.2348 0.51416 4.98045 0.619517 4.79291 0.807053C4.60538 0.99459 4.50002 1.24894 4.50002 1.51416C4.50002 1.77938 4.60538 2.03373 4.79291 2.22127C4.98045 2.4088 5.2348 2.51416 5.50002 2.51416V0.51416ZM0.79302 16.8072C0.69751 16.8994 0.621328 17.0098 0.568919 17.1318C0.51651 17.2538 0.488924 17.385 0.48777 17.5178C0.486616 17.6505 0.511918 17.7822 0.562198 17.9051C0.612479 18.028 0.686733 18.1397 0.780625 18.2336C0.874518 18.3274 0.98617 18.4017 1.10907 18.452C1.23196 18.5023 1.36364 18.5276 1.49642 18.5264C1.6292 18.5253 1.76042 18.4977 1.88242 18.4453C2.00443 18.3929 2.11477 18.3167 2.20702 18.2212L0.79302 16.8072ZM16.5 1.51416V13.5142H18.5V1.51416H16.5ZM17.5 0.51416H5.50002V2.51416H17.5V0.51416ZM16.793 0.80716L0.79302 16.8072L2.20702 18.2212L18.207 2.22116L16.793 0.80716Z" fill="#D1D5DB"/>
</svg>
