<svg width="38" height="31" viewBox="0 0 38 31" fill="none" xmlns="http://www.w3.org/2000/svg">
<path d="M13 17.0142H25H13ZM19 11.0142V23.0142V11.0142ZM1 25.0142V5.01416C1 3.95329 1.42143 2.93588 2.17157 2.18573C2.92172 1.43559 3.93913 1.01416 5 1.01416H17L21 5.01416H33C34.0609 5.01416 35.0783 5.43559 35.8284 6.18573C36.5786 6.93588 37 7.95329 37 9.01416V25.0142C37 26.075 36.5786 27.0924 35.8284 27.8426C35.0783 28.5927 34.0609 29.0142 33 29.0142H5C3.93913 29.0142 2.92172 28.5927 2.17157 27.8426C1.42143 27.0924 1 26.075 1 25.0142Z" stroke="#9CA3AF" stroke-width="2" stroke-linecap="round" stroke-linejoin="round"/>
</svg>
