<svg width="10" height="13" viewBox="0 0 10 13" fill="none" xmlns="http://www.w3.org/2000/svg">
<path fill-rule="evenodd" clip-rule="evenodd" d="M0.293153 6.22095C0.105447 6.03342 0 5.77911 0 5.51395C0 5.24878 0.105447 4.99447 0.293153 4.80695L4.29816 0.806947C4.48592 0.619476 4.74055 0.51416 5.00604 0.51416C5.27154 0.51416 5.52617 0.619476 5.71393 0.806947L9.71894 4.80695C9.90132 4.99555 10.0022 5.24815 9.99996 5.51035C9.99768 5.77254 9.89238 6.02336 9.70674 6.20877C9.5211 6.39417 9.26997 6.49934 9.00745 6.50162C8.74492 6.5039 8.49201 6.4031 8.30317 6.22095L6.0073 3.92795V11.5139C6.0073 11.7792 5.90181 12.0335 5.71404 12.2211C5.52627 12.4086 5.27159 12.5139 5.00604 12.5139C4.7405 12.5139 4.48582 12.4086 4.29805 12.2211C4.11028 12.0335 4.00479 11.7792 4.00479 11.5139V3.92795L1.70892 6.22095C1.52116 6.40842 1.26653 6.51373 1.00104 6.51373C0.735542 6.51373 0.480915 6.40842 0.293153 6.22095Z" fill="#10B981"/>
</svg>
