<svg width="38" height="38" viewBox="0 0 38 38" fill="none" xmlns="http://www.w3.org/2000/svg">
<path fill-rule="evenodd" clip-rule="evenodd" d="M0.349609 0.464844C2.52693 1.42121 4.58164 2.40082 6.69314 3.22812C8.72204 4.02445 10.8026 4.69042 12.8753 5.37059C13.7788 5.66744 14.7661 4.8866 14.8965 3.80762C14.9855 3.06937 15.0165 2.32338 15.0785 1.52963C16.6944 2.54666 18.3232 3.5753 19.9532 4.5975C23.5748 6.86903 27.2144 9.11476 30.8166 11.4134C33.8948 13.3804 35.9173 16.1436 36.8375 19.7006C37.9242 23.8978 37.2518 27.815 34.8009 31.3539C32.5629 34.5805 29.4692 36.5952 25.5405 37.2134C20.4282 38.0175 16.0439 36.5746 12.5307 32.7801C10.9884 31.1126 9.66292 29.2437 8.24062 27.4639C6.71379 25.5512 5.18824 23.6371 3.63043 21.6844C4.57261 21.9735 5.44638 22.2949 6.34725 22.4975C6.82619 22.5976 7.32179 22.5857 7.79535 22.4626C8.1986 22.328 9.07826 21.5437 8.73107 20.6286C7.67016 17.8215 6.64022 15.0001 5.47477 12.2394C3.85888 8.4062 2.13199 4.6246 0.45286 0.812028C0.420593 0.732008 0.403817 0.649406 0.349609 0.464844ZM23.6742 14.0644C18.2999 14.0476 13.8833 18.4165 13.7982 23.6965C13.7117 29.1095 18.2535 33.7842 23.8729 33.6551C29.3956 33.5261 33.2766 29.1301 33.4857 24.2411C33.7374 18.3777 28.7438 13.9689 23.6742 14.0644Z" fill="#818CF8"/>
</svg>
