<svg width="49" height="48" viewBox="0 0 49 48" fill="none" xmlns="http://www.w3.org/2000/svg">
<rect x="0.716797" width="48" height="48" rx="24" fill="#1F2937"/>
<path d="M30.2143 16.5954V12.6569H30.9583V16.5954H30.2143Z" fill="white"/>
<path d="M31.7783 16.5954V12.6569H33.0528C33.0838 12.6569 33.1476 12.6578 33.2443 12.6596C33.3409 12.6614 33.4339 12.6678 33.5233 12.6787C33.8405 12.717 34.1095 12.8273 34.3301 13.0097C34.5507 13.192 34.7185 13.4236 34.8334 13.7044C34.9483 13.9852 35.0057 14.2925 35.0057 14.6261C35.0057 14.9598 34.9483 15.2671 34.8334 15.5479C34.7185 15.8287 34.5507 16.0603 34.3301 16.2426C34.1095 16.4249 33.8405 16.5353 33.5233 16.5735C33.4339 16.5845 33.3409 16.5909 33.2443 16.5927C33.1476 16.5945 33.0838 16.5954 33.0528 16.5954H31.7783ZM32.5331 15.8952H33.0528C33.102 15.8952 33.1686 15.8943 33.2525 15.8925C33.3364 15.8889 33.412 15.8806 33.4795 15.8679C33.6509 15.8332 33.7904 15.753 33.898 15.6272C34.0074 15.5014 34.0876 15.35 34.1387 15.1732C34.1915 14.9963 34.218 14.814 34.218 14.6261C34.218 14.4292 34.1906 14.2423 34.1359 14.0654C34.083 13.8886 34.0019 13.7391 33.8925 13.6169C33.7831 13.4947 33.6454 13.4172 33.4795 13.3844C33.412 13.3698 33.3364 13.3616 33.2525 13.3598C33.1686 13.358 33.102 13.3571 33.0528 13.3571H32.5331V15.8952Z" fill="white"/>
<path d="M21.764 28.4062C22.4509 28.6985 23.1852 28.8446 23.967 28.8446C24.9534 28.8446 25.8411 28.6217 26.6303 28.176C27.4267 27.7303 28.0587 27.1166 28.5263 26.3347C29.0013 25.5529 29.2387 24.6579 29.2387 23.6495C29.2387 22.7143 29.0378 21.8704 28.6359 21.1178C28.2414 20.3579 27.6788 19.7587 26.9481 19.3203C26.4077 18.9907 25.7953 18.7829 25.111 18.6971L29.0086 14.9473V12.7663H19.5172V14.9473H26.2041L21.3804 19.2107L22.4545 21.0191C22.681 20.9022 22.9221 20.8073 23.1779 20.7342C23.4409 20.6611 23.6966 20.6246 23.9451 20.6246C24.8219 20.6246 25.5306 20.9095 26.0713 21.4795C26.6193 22.0494 26.8933 22.7727 26.8933 23.6495C26.8933 24.2341 26.7691 24.7529 26.5207 25.2059C26.2722 25.6516 25.9288 26.0059 25.4904 26.269C25.052 26.532 24.5442 26.6672 23.967 26.6745C23.324 26.6818 22.7395 26.5065 22.2134 26.1484C21.6873 25.7831 21.3183 25.2607 21.1064 24.5811L18.8925 25.1949C19.119 25.9402 19.4807 26.5868 19.9775 27.1348C20.4817 27.6828 21.0772 28.1066 21.764 28.4062Z" fill="white"/>
<path d="M31.0531 32.1043H17.0128V35.1129H15.0071V30.0986H33.0588V35.1129H31.0531V32.1043Z" fill="white"/>
</svg>
