<svg width="37" height="42" viewBox="0 0 37 42" fill="none" xmlns="http://www.w3.org/2000/svg">
<path d="M27.8 7.6743V0.474304H29.16V7.6743H27.8Z" fill="white"/>
<path d="M30.659 7.6743V0.474304H32.989C33.0457 0.474304 33.1623 0.475971 33.339 0.479304C33.5157 0.482638 33.6856 0.494304 33.849 0.514304C34.429 0.584304 34.9207 0.785971 35.324 1.1193C35.7273 1.45264 36.034 1.87597 36.244 2.3893C36.454 2.90264 36.559 3.4643 36.559 4.0743C36.559 4.6843 36.454 5.24597 36.244 5.7593C36.034 6.27264 35.7273 6.69597 35.324 7.0293C34.9207 7.36264 34.429 7.5643 33.849 7.6343C33.6856 7.6543 33.5157 7.66597 33.339 7.6693C33.1623 7.67264 33.0457 7.6743 32.989 7.6743H30.659ZM32.039 6.3943H32.989C33.079 6.3943 33.2007 6.39264 33.354 6.3893C33.5073 6.38264 33.6457 6.36764 33.769 6.3443C34.0823 6.28097 34.3373 6.1343 34.534 5.9043C34.734 5.6743 34.8806 5.39764 34.974 5.0743C35.0707 4.75097 35.119 4.41764 35.119 4.0743C35.119 3.7143 35.069 3.37264 34.969 3.0493C34.8723 2.72597 34.724 2.45264 34.524 2.2293C34.324 2.00597 34.0723 1.8643 33.769 1.8043C33.6457 1.77764 33.5073 1.76264 33.354 1.7593C33.2007 1.75597 33.079 1.7543 32.989 1.7543H32.039V6.3943Z" fill="white"/>
<path d="M12.3522 29.2653C13.6078 29.7996 14.9502 30.0667 16.3794 30.0667C18.1826 30.0667 19.8055 29.6593 21.2481 28.8445C22.704 28.0297 23.8594 26.9077 24.7143 25.4785C25.5825 24.0493 26.0166 22.4131 26.0166 20.5698C26.0166 18.8601 25.6493 17.3173 24.9146 15.9415C24.1933 14.5524 23.1648 13.4571 21.8291 12.6557C20.8412 12.053 19.7217 11.6733 18.4707 11.5163L25.5958 4.66141V0.674304H8.24489V4.66141H20.469L11.651 12.4553L13.6145 15.7612C14.0285 15.5475 14.4693 15.3738 14.9368 15.2403C15.4177 15.1067 15.8852 15.0399 16.3393 15.0399C17.9422 15.0399 19.2378 15.5608 20.2263 16.6027C21.228 17.6446 21.7289 18.9669 21.7289 20.5698C21.7289 21.6383 21.5019 22.5867 21.0477 23.4148C20.5936 24.2296 19.9658 24.8774 19.1644 25.3583C18.3629 25.8392 17.4346 26.0863 16.3794 26.0996C15.204 26.113 14.1354 25.7924 13.1737 25.1379C12.212 24.4701 11.5374 23.515 11.1501 22.2728L7.10286 23.3948C7.51693 24.7572 8.17811 25.9393 9.08639 26.9411C10.008 27.9429 11.0966 28.7176 12.3522 29.2653Z" fill="white"/>
<path d="M29.3333 36.0257H3.66667V41.5257H0V32.3591L33 32.3591V41.5257H29.3333V36.0257Z" fill="white"/>
</svg>
