<svg width="17" height="18" viewBox="0 0 17 18" fill="none" xmlns="http://www.w3.org/2000/svg">
<path d="M12.6879 3.15649V-0.00012207H13.2842V3.15649H12.6879Z" fill="white"/>
<path d="M13.9414 3.15649V-0.00012207H14.9629C14.9877 -0.00012207 15.0389 0.000608662 15.1163 0.00207013C15.1938 0.00353142 15.2683 0.00864628 15.3399 0.0174147C15.5942 0.0481041 15.8098 0.136519 15.9866 0.282658C16.1634 0.428798 16.2979 0.614395 16.3899 0.83945C16.482 1.06451 16.528 1.31075 16.528 1.57819C16.528 1.84562 16.482 2.09187 16.3899 2.31692C16.2979 2.54198 16.1634 2.72757 15.9866 2.87371C15.8098 3.01985 15.5942 3.10827 15.3399 3.13896C15.2683 3.14773 15.1938 3.15284 15.1163 3.1543C15.0389 3.15576 14.9877 3.15649 14.9629 3.15649H13.9414ZM14.5464 2.59532H14.9629C15.0023 2.59532 15.0557 2.59459 15.1229 2.59313C15.1901 2.5902 15.2508 2.58363 15.3048 2.5734C15.4422 2.54563 15.554 2.48133 15.6402 2.38049C15.7279 2.27966 15.7922 2.15836 15.8331 2.0166C15.8755 1.87485 15.8967 1.72871 15.8967 1.57819C15.8967 1.42036 15.8748 1.27056 15.8309 1.12881C15.7886 0.987051 15.7235 0.867217 15.6358 0.769303C15.5482 0.67139 15.4378 0.60928 15.3048 0.582975C15.2508 0.571284 15.1901 0.564708 15.1229 0.563246C15.0557 0.561785 15.0023 0.561054 14.9629 0.561054H14.5464V2.59532Z" fill="white"/>
<path d="M5.91532 12.6224C6.46579 12.8566 7.05432 12.9737 7.68091 12.9737C8.47148 12.9737 9.18298 12.7951 9.81544 12.4379C10.4537 12.0807 10.9603 11.5888 11.3351 10.9622C11.7157 10.3356 11.906 9.61824 11.906 8.81011C11.906 8.06054 11.745 7.38417 11.4229 6.781C11.1067 6.17197 10.6558 5.69178 10.0702 5.34042C9.63705 5.07621 9.14626 4.90971 8.5978 4.84092L11.7216 1.83558V0.0875618H4.1146V1.83558H9.47388L5.60788 5.25257L6.46872 6.70194C6.65025 6.60824 6.8435 6.53212 7.04846 6.47356C7.25928 6.415 7.46424 6.38572 7.66335 6.38572C8.36607 6.38572 8.9341 6.6141 9.36745 7.07087C9.80665 7.52764 10.0263 8.10739 10.0263 8.81011C10.0263 9.27859 9.9267 9.69437 9.7276 10.0574C9.52849 10.4147 9.25326 10.6987 8.9019 10.9095C8.55053 11.1203 8.14354 11.2286 7.68091 11.2345C7.16558 11.2404 6.6971 11.0998 6.27547 10.8129C5.85384 10.5201 5.55811 10.1014 5.38828 9.55675L3.61391 10.0487C3.79544 10.646 4.08532 11.1642 4.48353 11.6034C4.88759 12.0426 5.36486 12.3823 5.91532 12.6224Z" fill="white"/>
<path d="M13.3602 15.5863H2.10741V17.9976H0.499878V13.9788L14.9677 13.9788V17.9976H13.3602V15.5863Z" fill="white"/>
</svg>
