<svg width="17" height="20" viewBox="0 0 17 20" fill="none" xmlns="http://www.w3.org/2000/svg">
<g clip-path="url(#clip0_5837_16911)">
<path d="M16.262 6.818C16.146 6.908 14.098 8.062 14.098 10.628C14.098 13.596 16.704 14.646 16.782 14.672C16.77 14.736 16.368 16.11 15.408 17.51C14.552 18.742 13.658 19.972 12.298 19.972C10.938 19.972 10.588 19.182 9.018 19.182C7.488 19.182 6.944 19.998 5.7 19.998C4.456 19.998 3.588 18.858 2.59 17.458C1.434 15.814 0.5 13.26 0.5 10.836C0.5 6.948 3.028 4.886 5.516 4.886C6.838 4.886 7.94 5.754 8.77 5.754C9.56 5.754 10.792 4.834 12.296 4.834C12.866 4.834 14.914 4.886 16.262 6.818V6.818ZM11.582 3.188C12.204 2.45 12.644 1.426 12.644 0.402C12.644 0.26 12.632 0.116 12.606 0C11.594 0.038 10.39 0.674 9.664 1.516C9.094 2.164 8.562 3.188 8.562 4.226C8.562 4.382 8.588 4.538 8.6 4.588C8.664 4.6 8.768 4.614 8.872 4.614C9.78 4.614 10.922 4.006 11.582 3.188Z" fill="black"/>
</g>
<defs>
<clipPath id="clip0_5837_16911">
<rect width="16.28" height="20" fill="white" transform="translate(0.5)"/>
</clipPath>
</defs>
</svg>
