<svg width="17" height="18" viewBox="0 0 17 18" fill="none" xmlns="http://www.w3.org/2000/svg">
<path d="M12.688 3.15646V-0.000152588H13.2843V3.15646H12.688Z" fill="white"/>
<path d="M13.9415 3.15646V-0.000152588H14.963C14.9878 -0.000152588 15.039 0.000578144 15.1164 0.00203961C15.1939 0.0035009 15.2684 0.00861576 15.34 0.0173842C15.5943 0.0480736 15.8099 0.136488 15.9867 0.282627C16.1635 0.428767 16.298 0.614365 16.39 0.83942C16.4821 1.06447 16.5282 1.31072 16.5282 1.57816C16.5282 1.84559 16.4821 2.09184 16.39 2.31689C16.298 2.54195 16.1635 2.72754 15.9867 2.87368C15.8099 3.01982 15.5943 3.10824 15.34 3.13893C15.2684 3.1477 15.1939 3.15281 15.1164 3.15427C15.039 3.15573 14.9878 3.15646 14.963 3.15646H13.9415ZM14.5465 2.59529H14.963C15.0025 2.59529 15.0558 2.59456 15.123 2.5931C15.1902 2.59017 15.2509 2.5836 15.305 2.57337C15.4423 2.5456 15.5541 2.4813 15.6404 2.38046C15.728 2.27963 15.7923 2.15833 15.8333 2.01657C15.8756 1.87482 15.8968 1.72868 15.8968 1.57816C15.8968 1.42032 15.8749 1.27053 15.8311 1.12878C15.7887 0.987021 15.7237 0.867186 15.636 0.769272C15.5483 0.671359 15.438 0.60925 15.305 0.582945C15.2509 0.571253 15.1902 0.564677 15.123 0.563216C15.0558 0.561754 15.0025 0.561024 14.963 0.561024H14.5465V2.59529Z" fill="white"/>
<path d="M5.91545 12.6224C6.46591 12.8566 7.05444 12.9737 7.68104 12.9737C8.4716 12.9737 9.18311 12.7951 9.81556 12.4379C10.4539 12.0807 10.9604 11.5888 11.3352 10.9622C11.7158 10.3356 11.9062 9.61821 11.9062 8.81008C11.9062 8.06051 11.7451 7.38414 11.423 6.78097C11.1068 6.17194 10.6559 5.69175 10.0703 5.34038C9.63717 5.07618 9.14638 4.90968 8.59793 4.84088L11.7217 1.83555V0.0875313H4.11472V1.83555H9.474L5.608 5.25254L6.46884 6.70191C6.65038 6.60821 6.84363 6.53209 7.04859 6.47353C7.2594 6.41497 7.46436 6.38569 7.66347 6.38569C8.36619 6.38569 8.93423 6.61407 9.36757 7.07084C9.80677 7.52761 10.0264 8.10736 10.0264 8.81008C10.0264 9.27856 9.92682 9.69434 9.72772 10.0574C9.52861 10.4146 9.25338 10.6986 8.90202 10.9095C8.55066 11.1203 8.14366 11.2286 7.68104 11.2345C7.16571 11.2403 6.69722 11.0998 6.27559 10.8128C5.85396 10.52 5.55823 10.1013 5.3884 9.55672L3.61403 10.0486C3.79556 10.6459 4.08544 11.1642 4.48365 11.6034C4.88771 12.0426 5.36498 12.3823 5.91545 12.6224Z" fill="white"/>
<path d="M13.3603 15.5863H2.10754V17.9976H0.5V13.9787L14.9678 13.9787V17.9976H13.3603V15.5863Z" fill="white"/>
</svg>
