<?xml version="1.0" standalone="no"?>
<!DOCTYPE svg PUBLIC "-//W3C//DTD SVG 20010904//EN"
 "http://www.w3.org/TR/2001/REC-SVG-20010904/DTD/svg10.dtd">
<svg version="1.0" xmlns="http://www.w3.org/2000/svg"
 width="700.000000pt" height="700.000000pt" viewBox="0 0 700.000000 700.000000"
 preserveAspectRatio="xMidYMid meet">
<metadata>
Created by potrace 1.14, written by Peter Selinger 2001-2017
</metadata>
<g transform="translate(0.000000,700.000000) scale(0.100000,-0.100000)"
fill="#000000" stroke="none">
<path d="M5130 6385 l0 -615 115 0 115 0 0 615 0 615 -115 0 -115 0 0 -615z"/>
<path d="M5620 6385 l0 -617 283 4 c233 4 292 8 337 23 189 60 310 198 361
411 30 124 24 305 -14 414 -63 185 -171 300 -330 353 -55 18 -92 21 -349 25
l-288 4 0 -617z m586 368 c166 -88 224 -395 115 -607 -65 -127 -129 -156 -346
-156 l-125 0 0 396 0 396 158 -4 c139 -3 162 -6 198 -25z"/>
<path d="M1797 6963 c-4 -3 -7 -156 -7 -340 l0 -333 1041 0 c592 0 1039 -4
1037 -9 -1 -5 -335 -301 -740 -659 -405 -359 -739 -656 -743 -661 -4 -8 293
-526 321 -560 2 -2 43 13 92 32 263 106 514 110 754 13 180 -73 357 -241 443
-421 63 -131 87 -233 92 -400 6 -174 -4 -258 -49 -392 -40 -123 -100 -223
-192 -320 -124 -132 -273 -217 -456 -260 -101 -24 -336 -24 -434 0 -174 43
-308 118 -432 241 -97 97 -157 187 -203 305 -15 39 -30 73 -33 76 -4 4 -604
-156 -675 -180 -16 -5 33 -147 89 -260 255 -508 757 -832 1356 -875 611 -43
1173 219 1494 699 141 210 216 404 253 648 20 131 20 402 0 537 -59 395 -254
746 -541 971 -190 150 -418 253 -636 287 -43 7 -78 15 -78 19 0 4 270 267 600
584 l600 577 0 344 0 344 -1473 0 c-811 0 -1477 -3 -1480 -7z"/>
<path d="M390 780 l0 -780 310 0 310 0 2 468 3 467 2188 3 2187 2 0 -470 0
-470 315 0 315 0 0 780 0 780 -2815 0 -2815 0 0 -780z"/>
</g>
</svg>
