<svg width="60" height="60" viewBox="0 0 60 60" fill="none" xmlns="http://www.w3.org/2000/svg">
<rect width="60" height="60" rx="8" fill="url(#paint0_linear_6177_11720)"/>
<path d="M39.3333 18.314V12H40.5237V18.314H39.3333Z" fill="white"/>
<path d="M41.8357 18.314V12H43.8752C43.9248 12 44.0269 12.0015 44.1815 12.0044C44.3362 12.0073 44.485 12.0175 44.6279 12.0351C45.1356 12.0965 45.566 12.2733 45.919 12.5656C46.272 12.8579 46.5405 13.2292 46.7243 13.6794C46.9081 14.1295 47 14.6221 47 15.157C47 15.692 46.9081 16.1845 46.7243 16.6347C46.5405 17.0848 46.272 17.4561 45.919 17.7484C45.566 18.0407 45.1356 18.2176 44.6279 18.279C44.485 18.2965 44.3362 18.3067 44.1815 18.3096C44.0269 18.3126 43.9248 18.314 43.8752 18.314H41.8357ZM43.0437 17.1915H43.8752C43.954 17.1915 44.0605 17.1901 44.1947 17.1872C44.3289 17.1813 44.45 17.1682 44.5579 17.1477C44.8322 17.0921 45.0554 16.9635 45.2275 16.7618C45.4026 16.5601 45.531 16.3175 45.6127 16.034C45.6973 15.7504 45.7396 15.4581 45.7396 15.157C45.7396 14.8413 45.6958 14.5417 45.6083 14.2581C45.5237 13.9746 45.3938 13.7349 45.2188 13.539C45.0437 13.3432 44.8234 13.219 44.5579 13.1663C44.45 13.143 44.3289 13.1298 44.1947 13.1269C44.0605 13.124 43.954 13.1225 43.8752 13.1225H43.0437V17.1915Z" fill="white"/>
<path d="M25.8119 37.2482C26.9109 37.7167 28.0859 37.951 29.3369 37.951C30.9152 37.951 32.3357 37.5937 33.5984 36.8792C34.8728 36.1647 35.8841 35.1808 36.6323 33.9274C37.3923 32.6741 37.7723 31.2392 37.7723 29.6227C37.7723 28.1234 37.4507 26.7704 36.8077 25.564C36.1764 24.3457 35.2761 23.3852 34.107 22.6824C33.2422 22.1539 32.2624 21.8209 31.1674 21.6833L37.404 15.6719V12.1754H22.2167V15.6719H32.9165L25.1981 22.5067L26.9167 25.4058C27.2791 25.2184 27.665 25.0661 28.0742 24.949C28.4951 24.8319 28.9043 24.7733 29.3018 24.7733C30.7048 24.7733 31.8388 25.2301 32.704 26.1438C33.5809 27.0574 34.0193 28.2171 34.0193 29.6227C34.0193 30.5598 33.8205 31.3914 33.423 32.1177C33.0255 32.8322 32.476 33.4003 31.7745 33.822C31.073 34.2437 30.2605 34.4604 29.3369 34.4721C28.308 34.4838 27.3727 34.2027 26.5309 33.6287C25.6891 33.043 25.0987 32.2055 24.7596 31.1162L21.2171 32.1001C21.5796 33.2949 22.1583 34.3315 22.9533 35.21C23.76 36.0886 24.7129 36.7679 25.8119 37.2482Z" fill="white"/>
<path d="M40.6754 43.1768H18.2094V48H15V40.4613C15 40.1852 15.2239 39.9613 15.5 39.9613L43.3848 39.9613C43.661 39.9613 43.8848 40.1852 43.8848 40.4613V48H40.6754V43.1768Z" fill="white"/>
<defs>
<linearGradient id="paint0_linear_6177_11720" x1="12.5" y1="-8.07146e-08" x2="35" y2="65" gradientUnits="userSpaceOnUse">
<stop stop-color="#353535"/>
<stop offset="1" stop-color="#171717"/>
</linearGradient>
</defs>
</svg>
