<svg width="720" height="1080" viewBox="0 0 720 1080" fill="none" xmlns="http://www.w3.org/2000/svg">
<rect width="720" height="1080" fill="#EEF2FF"/>
<rect x="489.248" y="795.048" width="177.504" height="68.7382" rx="34.3691" transform="rotate(-90 489.248 795.048)" fill="#A5B4FC" stroke="#A5B4FC" stroke-width="40.0279"/>
<rect x="511.253" y="769.14" width="124.61" height="27.0892" rx="13.5446" transform="rotate(-90 511.253 769.14)" fill="#EEF2FF" stroke="#EEF2FF" stroke-width="27.0892"/>
<rect x="468.299" y="815.467" width="217.532" height="108.766" rx="54.383" transform="rotate(-180 468.299 815.467)" fill="#818CF8"/>
<path d="M306.984 377.738H195.982C167.539 377.738 144.482 354.681 144.482 326.238C144.482 297.795 167.539 274.738 195.982 274.738H306.984C335.427 274.738 358.484 297.795 358.484 326.238C358.484 354.681 335.427 377.738 306.984 377.738Z" fill="#EEF2FF" stroke="#A5B4FC" stroke-width="3.00209"/>
<rect x="142" y="379.532" width="108.766" height="108.766" rx="54.383" fill="#818CF8"/>
<rect x="164.384" y="729.084" width="62.2576" height="62.2576" rx="31.1288" fill="#EEF2FF" stroke="#818CF8" stroke-width="3.00209"/>
<path d="M468.299 216.383C468.299 186.348 492.647 162 522.682 162H577.065V216.383C577.065 246.418 552.717 270.766 522.682 270.766V270.766C492.647 270.766 468.299 246.418 468.299 216.383V216.383Z" fill="#C7D2FE"/>
<rect x="468.299" y="271.971" width="108.766" height="108.766" rx="54.383" fill="#818CF8"/>
<rect x="490.922" y="183.753" width="65.2597" height="65.2597" rx="32.6298" fill="#EEF2FF"/>
<path fill-rule="evenodd" clip-rule="evenodd" d="M250.767 597.935C250.767 658.005 299.463 706.7 359.533 706.7C419.602 706.7 468.298 658.005 468.299 597.935H408.257C408.257 624.844 386.442 646.659 359.533 646.659C332.623 646.659 310.809 624.844 310.808 597.935H250.767Z" fill="#A5B4FC"/>
<path d="M142 488.298H250.766V597.064V597.064C190.696 597.064 142 548.368 142 488.298V488.298Z" fill="#A5B4FC"/>
<path d="M142 597.064H250.766V705.83V705.83C190.696 705.83 142 657.134 142 597.064V597.064Z" fill="#818CF8"/>
<path d="M472.834 379.766H364.068V271V271C424.138 271 472.834 319.696 472.834 379.766V379.766Z" fill="#818CF8"/>
<path d="M468.299 488.298H577.065V597.064V597.064C516.995 597.064 468.299 548.368 468.299 488.298V488.298Z" fill="#818CF8"/>
<path d="M577.064 379.532V488.298H468.298V488.298C468.298 428.228 516.995 379.532 577.064 379.532V379.532Z" fill="#C7D2FE"/>
<rect x="143.501" y="707.331" width="105.764" height="105.764" rx="52.882" stroke="#818CF8" stroke-width="3.00209"/>
<path fill-rule="evenodd" clip-rule="evenodd" d="M192.903 814.596C164.79 814.596 142 837.386 142 865.499C142 893.612 164.79 916.401 192.903 916.401H196.818V814.597H200.063C199.997 814.597 199.93 814.596 199.864 814.596H192.903Z" fill="#A5B4FC"/>
<path fill-rule="evenodd" clip-rule="evenodd" d="M410.435 713.662C384.244 713.662 363.013 734.893 363.013 761.084C363.013 787.274 384.244 808.506 410.435 808.506H411.74V713.662H412.359C412.33 713.662 412.301 713.662 412.272 713.662H410.435Z" fill="#EEF2FF"/>
<path fill-rule="evenodd" clip-rule="evenodd" d="M301.669 276.857C275.479 276.857 254.247 298.088 254.247 324.279C254.247 350.469 275.479 371.701 301.669 371.701H302.974V276.857H303.658C303.608 276.857 303.557 276.857 303.506 276.857H301.669Z" fill="#A5B4FC"/>
<path fill-rule="evenodd" clip-rule="evenodd" d="M250.766 815.467H246.851C218.738 815.467 195.948 838.257 195.948 866.369C195.948 894.482 218.738 917.272 246.851 917.272H253.812C253.843 917.272 253.874 917.272 253.905 917.272H250.766V815.467Z" fill="#818CF8"/>
<path d="M401.477 578.13C435.513 562.695 459.138 528.821 459.138 489.515C459.138 435.659 414.783 392 360.069 392C305.355 392 261 435.659 261 489.515C261 525.011 280.267 556.077 309.069 573.134V488.938L309.072 488.941C309.385 461.481 332.097 439.315 360.069 439.315C388.236 439.315 411.069 461.79 411.069 489.515C411.069 517.237 388.241 539.71 360.079 539.715L401.477 578.13Z" fill="#818CF8"/>
</svg>