<svg width="76" height="23" viewBox="0 0 76 23" fill="none" xmlns="http://www.w3.org/2000/svg">
<line x1="0.179999" y1="11.5348" x2="75.6721" y2="11.6853" stroke="#E5E7EB" stroke-width="1.10758" stroke-dasharray="2.22 2.22"/>
<path fill-rule="evenodd" clip-rule="evenodd" d="M38.0575 20.7251C42.9511 20.7251 46.9182 16.758 46.9182 11.8644C46.9182 6.97078 42.9511 3.00372 38.0575 3.00372C33.1639 3.00372 29.1968 6.97078 29.1968 11.8644C29.1968 16.758 33.1639 20.7251 38.0575 20.7251ZM42.1634 10.4324C42.596 9.99987 42.596 9.29859 42.1634 8.86605C41.7309 8.43351 41.0296 8.43351 40.5971 8.86605L36.9499 12.5132L35.5179 11.0812C35.0854 10.6487 34.3841 10.6487 33.9515 11.0812C33.519 11.5138 33.519 12.215 33.9515 12.6476L36.1667 14.8627C36.5993 15.2953 37.3005 15.2953 37.7331 14.8627L42.1634 10.4324Z" fill="#10B981"/>
</svg>
