<svg width="436" height="756" viewBox="0 0 436 756" fill="none" xmlns="http://www.w3.org/2000/svg">
<path d="M326.299 54.383C326.299 24.3481 350.647 0 380.682 0H435.065V54.383C435.065 84.418 410.717 108.766 380.682 108.766C350.647 108.766 326.299 84.418 326.299 54.383Z" fill="#C7D2FE"/>
<rect x="326.299" y="111.174" width="108.766" height="108.766" rx="54.383" fill="#818CF8"/>
<rect x="347.248" y="633.048" width="177.504" height="68.7382" rx="34.3691" transform="rotate(-90 347.248 633.048)" fill="#A5B4FC" stroke="#A5B4FC" stroke-width="40.0279"/>
<rect x="369.253" y="607.139" width="124.61" height="27.0892" rx="13.5446" transform="rotate(-90 369.253 607.139)" fill="#EEF2FF" stroke="#EEF2FF" stroke-width="27.0892"/>
<rect x="326.299" y="653.467" width="217.532" height="108.766" rx="54.383" transform="rotate(-180 326.299 653.467)" fill="#818CF8"/>
<path d="M216.484 164.238C216.484 192.681 193.427 215.738 164.984 215.738L53.9815 215.738C25.5388 215.738 2.48138 192.681 2.48138 164.238C2.48138 135.795 25.5388 112.738 53.9815 112.738L164.984 112.738C193.427 112.738 216.484 135.795 216.484 164.238Z" fill="#EEF2FF" stroke="#A5B4FC" stroke-width="3.00209"/>
<rect y="217.532" width="108.766" height="108.766" rx="54.383" fill="#818CF8"/>
<rect x="22.3841" y="567.085" width="62.2576" height="62.2576" rx="31.1288" fill="#EEF2FF" stroke="#818CF8" stroke-width="3.00209"/>
<rect x="348.922" y="21.7529" width="65.2597" height="65.2597" rx="32.6298" fill="#EEF2FF"/>
<path fill-rule="evenodd" clip-rule="evenodd" d="M108.766 435.935C108.767 496.005 157.463 544.701 217.532 544.701C277.602 544.701 326.298 496.005 326.299 435.935H266.257C266.256 462.844 244.442 484.659 217.532 484.659C190.623 484.659 168.809 462.844 168.808 435.935H108.766Z" fill="#A5B4FC"/>
<path d="M0 326.298H108.766V435.064C48.6962 435.064 0 386.368 0 326.298Z" fill="#A5B4FC"/>
<path d="M0 435.064H108.766V543.831C48.6962 543.831 0 495.134 0 435.064Z" fill="#818CF8"/>
<path d="M330.834 218.969H222.068V110.203C282.138 110.203 330.834 158.899 330.834 218.969Z" fill="#818CF8"/>
<path d="M326.299 326.298H435.065V435.064C374.995 435.064 326.299 386.368 326.299 326.298Z" fill="#818CF8"/>
<path d="M435.065 217.532V326.298H326.298C326.298 266.228 374.995 217.532 435.065 217.532Z" fill="#C7D2FE"/>
<rect x="1.50105" y="545.331" width="105.764" height="105.764" rx="52.882" stroke="#818CF8" stroke-width="3.00209"/>
<path fill-rule="evenodd" clip-rule="evenodd" d="M50.9025 652.596C22.7898 652.596 0 675.386 0 703.499C0 731.611 22.7898 754.401 50.9025 754.401H54.8185V652.597H58.0631C57.9966 652.596 57.9301 652.596 57.8635 652.596H50.9025Z" fill="#A5B4FC"/>
<path fill-rule="evenodd" clip-rule="evenodd" d="M268.435 551.662C242.244 551.662 221.013 572.893 221.013 599.084C221.013 625.274 242.244 646.506 268.435 646.506H269.74V551.662H270.359C270.33 551.662 270.301 551.662 270.272 551.662H268.435Z" fill="#EEF2FF"/>
<path fill-rule="evenodd" clip-rule="evenodd" d="M159.669 114.857C133.479 114.857 112.247 136.089 112.247 162.279C112.247 188.469 133.479 209.701 159.669 209.701H160.974V114.857H161.658C161.608 114.857 161.557 114.857 161.506 114.857H159.669Z" fill="#A5B4FC"/>
<path fill-rule="evenodd" clip-rule="evenodd" d="M108.766 653.467H104.851C76.7381 653.467 53.9482 676.257 53.9482 704.369C53.9482 732.482 76.7381 755.272 104.851 755.272H111.812C111.843 755.272 111.874 755.272 111.905 755.272H108.766V653.467Z" fill="#818CF8"/>
<mask id="mask0_8567_21125" style="mask-type:alpha" maskUnits="userSpaceOnUse" x="108" y="218" width="219" height="218">
<path d="M108.766 326.672C108.766 267.411 156.807 218.403 216.069 218.403H326.299V326.69C326.299 387.024 277.388 435.935 217.053 435.935C157.248 435.935 108.766 386.478 108.766 326.672Z" fill="#C7D2FE"/>
</mask>
<g mask="url(#mask0_8567_21125)">
<path d="M260.004 420.905C294.04 405.47 317.665 371.596 317.665 332.29C317.665 278.434 273.311 234.775 218.596 234.775C163.882 234.775 119.527 278.434 119.527 332.29C119.527 367.786 138.794 398.852 167.596 415.908V331.713L167.599 331.716C167.912 304.256 190.624 282.09 218.596 282.09C246.763 282.09 269.596 304.565 269.596 332.29C269.596 360.012 246.768 382.485 218.606 382.49L260.004 420.905Z" fill="#818CF8"/>
</g>
</svg>
