<svg width="422" height="71" viewBox="0 0 422 71" fill="none" xmlns="http://www.w3.org/2000/svg">
<g style="mix-blend-mode:multiply" opacity="0.33">
<path d="M7.68343 32.2923C0.0753678 43.5996 -12.6089 46.8955 -18 47.13L-18 117.979L439 117.979L439 10.0698C432.525 12.1446 417.246 21.482 407.932 42.2328C396.29 68.1713 378.746 51.7073 371.695 46.7371C364.644 41.7668 352.183 40.2136 344.476 40.9902C336.769 41.7668 324.636 43.4754 318.897 33.8455C313.158 24.2156 307.364 17.9534 291.678 20.3326C277.741 20.7986 271.674 20.6432 265.115 15.9836C258.556 11.324 239.044 0.451588 225.106 13.8091C211.169 27.1667 196.74 33.2242 181.655 15.207C166.569 -2.81015 150.5 -0.635656 144.27 5.26652C138.039 11.1687 133.936 29.1598 118.921 34.4478C106.161 36.8504 98.7062 40.8006 85.2407 54.0372C67.86 71.1224 57.366 56.0563 49.3315 37.7285C41.297 19.4007 17.1935 18.1581 7.68343 32.2923Z" fill="#F9FAFB"/>
</g>
<path d="M-17.2544 47.0085C-11.8806 46.774 0.762814 43.4781 8.34639 32.1708C17.8259 18.0366 41.8518 19.2792 49.8604 37.607C57.8691 55.9348 68.3293 71.0009 85.6541 53.9157C102.979 36.8304 104.558 39.0033 119.487 34.6559C134.56 30.2666 134.906 15.5002 145.633 5.30571C151.844 -0.596478 166.721 -2.93163 181.758 15.0855C196.794 33.1027 211.177 27.0452 225.07 13.6877C238.962 0.330099 258.412 11.2025 264.95 15.8621C271.487 20.5218 279.304 21.968 291.427 20.2111C306.531 18.0223 312.838 24.0941 318.558 33.724C324.279 43.3539 336.374 41.6453 344.055 40.8687C351.737 40.0921 364.159 41.6453 371.187 46.6156C378.215 51.5858 395.703 68.0498 407.307 42.1113C416.591 21.3605 431.821 12.0231 438.275 9.94831" stroke="#E5E7EB" stroke-width="1.49303" stroke-linecap="round" stroke-linejoin="round"/>
<line x1="293.736" y1="19.4279" x2="293.736" y2="117.852" stroke="#E5E7EB" stroke-width="0.995353" stroke-linecap="round"/>
<path d="M297.745 18.9306C297.745 21.0903 295.889 22.8865 293.541 22.8865C291.194 22.8865 289.338 21.0903 289.338 18.9306C289.338 16.7709 291.194 14.9747 293.541 14.9747C295.889 14.9747 297.745 16.7709 297.745 18.9306Z" fill="#E5E7EB" stroke="white" stroke-width="0.995353"/>
</svg>
