<svg width="63" height="63" viewBox="0 0 63 63" fill="none" xmlns="http://www.w3.org/2000/svg">
<rect x="0.620239" y="0.358887" width="61.7946" height="61.8594" rx="10.3192" fill="url(#paint0_linear_8443_20964)"/>
<path d="M39.8964 50.607C47.0518 47.3104 52.0186 40.0755 52.0186 31.6805C52.0186 20.1778 42.6938 10.853 31.1911 10.853C19.6884 10.853 10.3636 20.1778 10.3636 31.6805C10.3636 39.2617 14.4142 45.8969 20.4693 49.5398V31.5573L20.47 31.558C20.5357 25.6929 25.3105 20.9587 31.1911 20.9587C37.1126 20.9587 41.913 25.759 41.913 31.6805C41.913 37.6013 37.1138 42.4012 31.1933 42.4023L39.8964 50.607Z" fill="white"/>
<defs>
<linearGradient id="paint0_linear_8443_20964" x1="31.5175" y1="0.358887" x2="31.5175" y2="62.2183" gradientUnits="userSpaceOnUse">
<stop stop-color="#46A765"/>
<stop offset="1" stop-color="#257840"/>
</linearGradient>
</defs>
</svg>
