<svg width="298" height="74" viewBox="0 0 298 74" fill="none" xmlns="http://www.w3.org/2000/svg">
<path d="M89.8573 60.313V23.4363H96.2117V26.7177C97.9479 24.2523 100.587 23.0197 104.129 23.0197C107.879 23.0197 110.848 24.2697 113.035 26.7698C115.223 29.2352 116.317 32.4992 116.317 36.5619C116.317 40.5899 115.154 43.8539 112.827 46.354C110.535 48.8541 107.48 50.1042 103.66 50.1042C102.063 50.1042 100.604 49.809 99.2848 49.2187C97.9653 48.6284 96.9409 47.8298 96.2117 46.8228V60.313H89.8573ZM102.931 44.5831C105.049 44.5831 106.75 43.8539 108.035 42.3955C109.32 40.9371 109.962 38.9926 109.962 36.5619C109.962 34.1313 109.32 32.1867 108.035 30.7283C106.75 29.2699 105.049 28.5407 102.931 28.5407C100.778 28.5407 99.0417 29.2699 97.7222 30.7283C96.4375 32.1867 95.7951 34.1313 95.7951 36.5619C95.7951 38.9926 96.4375 40.9371 97.7222 42.3955C99.0417 43.8539 100.778 44.5831 102.931 44.5831ZM131.147 23.0197C134.515 23.0197 137.241 23.9225 139.324 25.7281C141.443 27.499 142.502 29.8602 142.502 32.8118V49.6875H136.199V45.7811C135.644 47.1006 134.654 48.1597 133.23 48.9583C131.841 49.7222 130.209 50.1042 128.334 50.1042C125.765 50.1042 123.664 49.375 122.032 47.9166C120.4 46.4235 119.584 44.531 119.584 42.2393C119.584 39.7044 120.487 37.6904 122.292 36.1973C124.098 34.7042 126.477 33.9576 129.428 33.9576H134.272C135.557 33.9576 136.199 33.3673 136.199 32.1867C136.199 30.9019 135.713 29.8602 134.741 29.0616C133.803 28.2282 132.501 27.8115 130.834 27.8115C129.202 27.8115 127.883 28.2456 126.876 29.1137C125.904 29.9818 125.383 31.0408 125.313 32.2909H119.584C119.758 29.6172 120.886 27.4122 122.97 25.676C125.088 23.9051 127.813 23.0197 131.147 23.0197ZM129.845 45.3644C131.824 45.3644 133.369 44.7394 134.48 43.4893C135.626 42.2393 136.199 40.6072 136.199 38.5933V38.1766H130.314C128.959 38.1766 127.866 38.5238 127.032 39.2183C126.199 39.9128 125.782 40.8329 125.782 41.9788C125.782 42.9858 126.147 43.8018 126.876 44.4269C127.64 45.0519 128.629 45.3644 129.845 45.3644ZM157.314 50.1042C154.12 50.1042 151.533 49.2882 149.554 47.6562C147.609 45.9894 146.567 43.7497 146.428 40.9371H152.262C152.401 42.1872 152.922 43.1768 153.825 43.906C154.727 44.6352 155.891 44.9998 157.314 44.9998C158.53 44.9998 159.519 44.7394 160.283 44.2185C161.082 43.6629 161.481 42.9858 161.481 42.1872C161.481 41.2844 161.117 40.5899 160.387 40.1037C159.693 39.5829 158.807 39.253 157.731 39.1141C156.689 38.9752 155.543 38.7669 154.293 38.4891C153.043 38.1766 151.88 37.812 150.804 37.3953C149.762 36.9786 148.876 36.2147 148.147 35.1035C147.453 33.9924 147.106 32.5687 147.106 30.8325C147.106 28.5407 147.991 26.6656 149.762 25.2073C151.568 23.7489 153.825 23.0197 156.533 23.0197C159.589 23.0197 162.089 23.8009 164.033 25.3635C165.978 26.8914 167.02 28.9401 167.158 31.5096H161.325C161.151 30.3637 160.613 29.4609 159.71 28.8012C158.807 28.1414 157.8 27.8115 156.689 27.8115C155.543 27.8115 154.623 28.072 153.929 28.5928C153.234 29.0789 152.887 29.7561 152.887 30.6242C152.887 31.3881 153.147 31.9784 153.668 32.3951C154.224 32.8118 154.918 33.1069 155.752 33.2805C156.62 33.4541 157.575 33.593 158.616 33.6972C159.658 33.8014 160.7 33.9924 161.742 34.2702C162.783 34.5479 163.721 34.9473 164.554 35.4681C165.422 35.989 166.117 36.805 166.638 37.9161C167.193 38.9926 167.471 40.3294 167.471 41.9267C167.471 44.3921 166.533 46.3714 164.658 47.8645C162.818 49.3576 160.37 50.1042 157.314 50.1042ZM181.424 50.1042C178.23 50.1042 175.643 49.2882 173.663 47.6562C171.719 45.9894 170.677 43.7497 170.538 40.9371H176.372C176.511 42.1872 177.032 43.1768 177.935 43.906C178.837 44.6352 180.001 44.9998 181.424 44.9998C182.64 44.9998 183.629 44.7394 184.393 44.2185C185.192 43.6629 185.591 42.9858 185.591 42.1872C185.591 41.2844 185.227 40.5899 184.497 40.1037C183.803 39.5829 182.917 39.253 181.841 39.1141C180.799 38.9752 179.653 38.7669 178.403 38.4891C177.153 38.1766 175.99 37.812 174.914 37.3953C173.872 36.9786 172.986 36.2147 172.257 35.1035C171.563 33.9924 171.215 32.5687 171.215 30.8325C171.215 28.5407 172.101 26.6656 173.872 25.2073C175.677 23.7489 177.935 23.0197 180.643 23.0197C183.699 23.0197 186.199 23.8009 188.143 25.3635C190.088 26.8914 191.13 28.9401 191.268 31.5096H185.435C185.261 30.3637 184.723 29.4609 183.82 28.8012C182.917 28.1414 181.91 27.8115 180.799 27.8115C179.653 27.8115 178.733 28.072 178.039 28.5928C177.344 29.0789 176.997 29.7561 176.997 30.6242C176.997 31.3881 177.257 31.9784 177.778 32.3951C178.334 32.8118 179.028 33.1069 179.862 33.2805C180.73 33.4541 181.685 33.593 182.726 33.6972C183.768 33.8014 184.81 33.9924 185.852 34.2702C186.893 34.5479 187.831 34.9473 188.664 35.4681C189.532 35.989 190.227 36.805 190.748 37.9161C191.303 38.9926 191.581 40.3294 191.581 41.9267C191.581 44.3921 190.643 46.3714 188.768 47.8645C186.928 49.3576 184.48 50.1042 181.424 50.1042ZM196.419 60.313V23.4363H202.774V26.7177C204.51 24.2523 207.149 23.0197 210.691 23.0197C214.441 23.0197 217.41 24.2697 219.597 26.7698C221.785 29.2352 222.879 32.4992 222.879 36.5619C222.879 40.5899 221.715 43.8539 219.389 46.354C217.097 48.8541 214.042 50.1042 210.222 50.1042C208.625 50.1042 207.166 49.809 205.847 49.2187C204.527 48.6284 203.503 47.8298 202.774 46.8228V60.313H196.419ZM209.493 44.5831C211.611 44.5831 213.312 43.8539 214.597 42.3955C215.882 40.9371 216.524 38.9926 216.524 36.5619C216.524 34.1313 215.882 32.1867 214.597 30.7283C213.312 29.2699 211.611 28.5407 209.493 28.5407C207.34 28.5407 205.604 29.2699 204.284 30.7283C202.999 32.1867 202.357 34.1313 202.357 36.5619C202.357 38.9926 202.999 40.9371 204.284 42.3955C205.604 43.8539 207.34 44.5831 209.493 44.5831ZM249.372 46.3019C246.803 48.8368 243.521 50.1042 239.528 50.1042C235.535 50.1042 232.236 48.8368 229.632 46.3019C227.062 43.7324 225.778 40.4857 225.778 36.5619C225.778 32.6381 227.062 29.4088 229.632 26.874C232.236 24.3044 235.535 23.0197 239.528 23.0197C243.521 23.0197 246.803 24.3044 249.372 26.874C251.942 29.4088 253.227 32.6381 253.227 36.5619C253.227 40.4857 251.942 43.7324 249.372 46.3019ZM239.528 44.5831C241.681 44.5831 243.417 43.8365 244.737 42.3434C246.091 40.8503 246.768 38.9231 246.768 36.5619C246.768 34.2007 246.091 32.2735 244.737 30.7804C243.417 29.2873 241.681 28.5407 239.528 28.5407C237.341 28.5407 235.57 29.2873 234.215 30.7804C232.896 32.2735 232.236 34.2007 232.236 36.5619C232.236 38.9231 232.896 40.8503 234.215 42.3434C235.57 43.8365 237.341 44.5831 239.528 44.5831ZM274.947 15.5193H281.353V23.4363H288.645V28.8012H281.353V39.8954C281.353 42.5691 282.621 43.906 285.156 43.906H288.645V49.6875H284.426C281.51 49.6875 279.201 48.8889 277.499 47.2916C275.798 45.6595 274.947 43.4025 274.947 40.5204V15.5193ZM272.811 28.8012H269.634C265.849 28.8012 263.957 31.6311 263.957 37.2911V49.6875H257.55V23.4363H263.957V28.072C264.617 26.4052 265.467 25.2246 266.509 24.5301C267.585 23.8009 268.974 23.4363 270.676 23.4363H272.811V28.8012Z" fill="#33374C"/>
<rect x="4.62036" y="6.35889" width="61.7946" height="61.8594" rx="10.3192" fill="url(#paint0_linear_8462_20985)"/>
<path d="M43.8966 56.607C51.0519 53.3104 56.0187 46.0755 56.0187 37.6805C56.0187 26.1778 46.6939 16.853 35.1912 16.853C23.6885 16.853 14.3638 26.1778 14.3638 37.6805C14.3638 45.2617 18.4144 51.8969 24.4694 55.5398V37.5573L24.4701 37.558C24.5358 31.6929 29.3106 26.9587 35.1912 26.9587C41.1127 26.9587 45.9131 31.759 45.9131 37.6805C45.9131 43.6013 41.1139 48.4012 35.1934 48.4023L43.8966 56.607Z" fill="white"/>
<defs>
<linearGradient id="paint0_linear_8462_20985" x1="35.5176" y1="6.35889" x2="35.5176" y2="68.2183" gradientUnits="userSpaceOnUse">
<stop stop-color="#46A765"/>
<stop offset="1" stop-color="#257840"/>
</linearGradient>
</defs>
</svg>
