<svg width="542" height="128" viewBox="0 0 542 128" fill="none" xmlns="http://www.w3.org/2000/svg">
<path d="M181.001 51.8203H172.398C164.484 51.8203 160.527 57.7375 160.527 69.5717V95.491H147.132V40.6032H160.527V50.2957C161.907 46.8108 163.686 44.3423 165.864 42.8902C168.114 41.3655 171.018 40.6032 174.576 40.6032H181.001V51.8203ZM233.088 88.4122C227.716 93.7122 220.855 96.3622 212.505 96.3622C204.156 96.3622 197.259 93.7122 191.813 88.4122C186.441 83.0396 183.755 76.2512 183.755 68.0471C183.755 59.843 186.441 53.0909 191.813 47.7909C197.259 42.4183 204.156 39.732 212.505 39.732C220.855 39.732 227.716 42.4183 233.088 47.7909C238.461 53.0909 241.147 59.843 241.147 68.0471C241.147 76.2512 238.461 83.0396 233.088 88.4122ZM212.505 84.8183C217.007 84.8183 220.637 83.2574 223.396 80.1355C226.227 77.0135 227.643 72.9841 227.643 68.0471C227.643 63.1101 226.227 59.0806 223.396 55.9587C220.637 52.8368 217.007 51.2758 212.505 51.2758C207.931 51.2758 204.229 52.8368 201.397 55.9587C198.638 59.0806 197.259 63.1101 197.259 68.0471C197.259 72.9841 198.638 77.0135 201.397 80.1355C204.229 83.2574 207.931 84.8183 212.505 84.8183ZM250.949 95.491V17.0799H264.236V95.491H250.949ZM277.75 95.491V17.0799H291.036V95.491H277.75ZM354.756 40.6032V95.491H341.36V86.9964C338.166 93.2403 332.466 96.3622 324.262 96.3622C318.091 96.3622 313.118 94.3656 309.342 90.3725C305.64 86.3067 303.788 81.043 303.788 74.5813V40.6032H317.184V71.7498C317.184 75.5252 318.236 78.6108 320.342 81.0067C322.447 83.33 325.206 84.4916 328.619 84.4916C332.394 84.4916 335.443 83.1848 337.766 80.5711C340.162 77.9574 341.36 74.6176 341.36 70.5519V40.6032H354.756ZM367.511 117.707V40.6032H380.797V47.4642C384.427 42.3094 389.945 39.732 397.351 39.732C405.192 39.732 411.399 42.3457 415.973 47.5731C420.547 52.7279 422.834 59.5526 422.834 68.0471C422.834 76.469 420.402 83.2937 415.538 88.5211C410.746 93.7485 404.357 96.3622 396.371 96.3622C393.031 96.3622 389.982 95.7451 387.223 94.5108C384.464 93.2766 382.322 91.6067 380.797 89.5012V117.707H367.511ZM394.846 84.8183C399.275 84.8183 402.832 83.2937 405.519 80.2444C408.205 77.195 409.548 73.1293 409.548 68.0471C409.548 62.9649 408.205 58.8991 405.519 55.8498C402.832 52.8005 399.275 51.2758 394.846 51.2758C390.345 51.2758 386.714 52.8005 383.956 55.8498C381.269 58.8991 379.926 62.9649 379.926 68.0471C379.926 73.1293 381.269 77.195 383.956 80.2444C386.714 83.2937 390.345 84.8183 394.846 84.8183ZM430.173 81.3334H444.657V95.491H430.173V81.3334ZM457.773 19.258H472.148V32.5443H457.773V19.258ZM458.318 95.491V40.6032H471.713V95.491H458.318ZM506.932 96.3622C498.801 96.3622 492.412 93.7848 487.765 88.63C483.119 83.4026 480.795 76.5416 480.795 68.0471C480.795 59.5526 483.119 52.7279 487.765 47.5731C492.412 42.3457 498.728 39.732 506.714 39.732C513.902 39.732 519.275 42.2368 522.832 47.2464V17.0799H536.119V95.491H522.832V88.63C521.235 91.0259 519.021 92.9136 516.189 94.293C513.358 95.6725 510.272 96.3622 506.932 96.3622ZM498.111 80.2444C500.797 83.2937 504.391 84.8183 508.893 84.8183C513.394 84.8183 516.988 83.2937 519.674 80.2444C522.36 77.195 523.704 73.1293 523.704 68.0471C523.704 62.9649 522.36 58.8991 519.674 55.8498C516.988 52.8005 513.394 51.2758 508.893 51.2758C504.391 51.2758 500.797 52.8005 498.111 55.8498C495.425 58.8991 494.082 62.9649 494.082 68.0471C494.082 73.1293 495.425 77.195 498.111 80.2444Z" fill="white"/>
<path d="M83.1516 112.152C101.439 103.726 114.133 85.2356 114.133 63.7801C114.133 34.382 90.3011 10.55 60.9029 10.55C31.5048 10.55 7.67285 34.382 7.67285 63.7801C7.67285 83.1559 18.0252 100.114 33.5005 109.424V63.4651L33.5022 63.4669C33.6701 48.4772 45.8735 36.3777 60.9029 36.3777C76.0369 36.3777 88.3054 48.6461 88.3054 63.7801C88.3054 78.9122 76.0399 91.1796 60.9084 91.1826L83.1516 112.152Z" fill="white"/>
</svg>
