<svg width="46" height="46" viewBox="0 0 46 46" fill="none" xmlns="http://www.w3.org/2000/svg">
<circle cx="23" cy="23" r="20" fill="white"/>
<path d="M23 0C10.3002 0 0 10.3002 0 23C0 35.6998 10.3002 46 23 46C35.6998 46 46 35.6998 46 23C46 10.3002 35.6998 0 23 0ZM20.2779 10.9167C17.3188 11.979 16.7876 13.2214 16.7876 15.3649C16.7876 15.7443 16.8161 16.2186 16.8445 16.7212C16.873 17.2049 16.9014 17.6981 16.9014 18.0775C16.9014 20.3633 15.8771 21.6722 13.468 22.4689L11.8841 22.9905L13.468 23.5122C15.8676 24.2994 16.9014 25.6177 16.9014 27.9035C16.9014 28.2734 16.873 28.7761 16.8445 29.2598C16.8161 29.7625 16.7876 30.2367 16.7876 30.6161C16.7876 32.7691 17.3188 34.0115 20.2779 35.0643V38.0235C14.0751 36.8095 12.8041 34.5901 12.8041 31.4223C12.8041 31.1662 12.8326 30.7204 12.8515 30.2557C12.88 29.753 12.9085 29.2219 12.9085 28.8899C12.9085 25.8169 11.5806 24.5555 8.32742 24.5555H7.92907V21.4066H8.32742C11.5806 21.4066 12.9085 20.1546 12.9085 17.0722C12.9085 16.7402 12.88 16.2091 12.8515 15.7064C12.8231 15.2511 12.8041 14.8054 12.8041 14.5398C12.8041 11.3814 14.0751 9.16206 20.2779 7.94804V10.9167ZM23 29.9901C21.9472 29.9901 21.0936 29.1365 21.0936 28.0837C21.0936 27.0309 21.9472 26.1773 23 26.1773C24.0528 26.1773 24.9064 27.0309 24.9064 28.0837C24.9064 29.1365 24.0528 29.9901 23 29.9901ZM23 19.8227C21.9472 19.8227 21.0936 18.9691 21.0936 17.9163C21.0936 16.8635 21.9472 16.0099 23 16.0099C24.0528 16.0099 24.9064 16.8635 24.9064 17.9163C24.9064 18.9691 24.0528 19.8227 23 19.8227ZM38.0709 24.5744H37.6726C34.4194 24.5744 33.0915 25.8264 33.0915 28.9089C33.0915 29.2408 33.12 29.772 33.1485 30.2746C33.1769 30.7299 33.1959 31.1757 33.1959 31.4412C33.1959 34.5996 31.925 36.8285 25.7221 38.0425V35.0833C28.6812 34.021 29.2124 32.7786 29.2124 30.6351C29.2124 30.2557 29.1839 29.7814 29.1555 29.2788C29.127 28.7951 29.0986 28.2924 29.0986 27.9225C29.0986 25.6367 30.1229 24.3278 32.532 23.5311L34.1159 23.0095L32.532 22.4878C30.1324 21.6911 29.0986 20.3823 29.0986 18.0965C29.0986 17.7266 29.127 17.2239 29.1555 16.7402C29.1839 16.2375 29.2124 15.7633 29.2124 15.3839C29.2124 13.2309 28.6812 11.9885 25.7221 10.9357V7.96701C31.925 9.18103 33.1959 11.4004 33.1959 14.5588C33.1959 14.8148 33.1674 15.2606 33.1485 15.7254C33.12 16.228 33.0915 16.7592 33.0915 17.0911C33.0915 20.1641 34.4194 21.4256 37.6726 21.4256H38.0709V24.5744Z" fill="url(#paint0_linear_117_20)"/>
<defs>
<linearGradient id="paint0_linear_117_20" x1="1.18299e-07" y1="25.5556" x2="45.482" y2="25.5736" gradientUnits="userSpaceOnUse">
<stop stop-color="#2C82FF"/>
<stop offset="1" stop-color="#12C6E3"/>
</linearGradient>
</defs>
</svg>
